<svg width="32" height="30" viewBox="0 0 32 30" fill="none" xmlns="http://www.w3.org/2000/svg">
<path fill-rule="evenodd" clip-rule="evenodd" d="M28.3767 4.752C26.909 3.10318 24.8741 2.19485 22.6449 2.19485C19.5104 2.19485 17.5258 4.04916 16.4136 5.60463C16.1249 6.00819 15.8787 6.41295 15.6726 6.79377C15.4665 6.41295 15.2211 6.00819 14.9325 5.60463C13.8194 4.04916 11.8349 2.19485 8.70037 2.19485C6.47196 2.19485 4.4363 3.10318 2.96853 4.752C1.56922 6.32511 0.79834 8.4316 0.79834 10.684C0.79834 13.1356 1.76506 15.4159 3.84006 17.86C5.69404 20.0446 8.36212 22.2962 11.4518 24.9035C12.6026 25.875 13.7935 26.8798 15.0607 27.978L15.0984 28.0113C15.2628 28.1537 15.4681 28.2251 15.6726 28.2251C15.8779 28.2251 16.0824 28.1537 16.2469 28.0113L16.2846 27.978C17.5526 26.8798 18.7427 25.875 19.8942 24.9035C22.9831 22.2962 25.6512 20.0446 27.506 17.86C29.5802 15.4159 30.5469 13.1356 30.5469 10.684C30.5469 8.4316 29.776 6.32511 28.3767 4.752ZM18.7631 23.5897C17.7712 24.427 16.7495 25.2891 15.6726 26.2162C14.5958 25.2891 13.5748 24.427 12.5822 23.5893C6.53568 18.4864 2.54144 15.1155 2.54144 10.684C2.54144 8.85204 3.1581 7.15107 4.27661 5.8933C5.40851 4.62179 6.97931 3.92132 8.70037 3.92132C11.09 3.92132 12.6349 5.37951 13.5103 6.60276C14.2945 7.69976 14.7044 8.80575 14.8443 9.23011C14.9608 9.58544 15.2951 9.82586 15.6726 9.82586C16.0502 9.82586 16.3845 9.58544 16.5017 9.23011C16.6409 8.80575 17.0507 7.69976 17.8357 6.60276C18.7104 5.37951 20.2553 3.92132 22.6449 3.92132C24.366 3.92132 25.9375 4.62179 27.0687 5.8933C28.1879 7.15107 28.8038 8.85204 28.8038 10.684C28.8038 15.1155 24.8096 18.4864 18.7631 23.5897Z" fill="#2DB872"/>
<path d="M28.3767 4.752L28.8126 4.3643L28.8124 4.36414L28.3767 4.752ZM16.4136 5.60463L16.888 5.94401L16.8881 5.94392L16.4136 5.60463ZM15.6726 6.79377L15.1596 7.07138L15.6726 8.01943L16.1856 7.07142L15.6726 6.79377ZM14.9325 5.60463L15.4069 5.26524L15.4069 5.26517L14.9325 5.60463ZM2.96853 4.752L2.53282 4.36414L2.53268 4.3643L2.96853 4.752ZM3.84006 17.86L4.28482 17.4826L4.28475 17.4825L3.84006 17.86ZM11.4518 24.9035L11.8281 24.4578L11.828 24.4577L11.4518 24.9035ZM15.0607 27.978L15.447 27.5409L15.4427 27.5371L15.0607 27.978ZM15.0984 28.0113L14.7121 28.4484L14.7166 28.4523L15.0984 28.0113ZM16.2469 28.0113L16.6287 28.4523L16.6332 28.4484L16.2469 28.0113ZM16.2846 27.978L15.9027 27.537L15.8983 27.5409L16.2846 27.978ZM19.8942 24.9035L20.2704 25.3494L20.2705 25.3493L19.8942 24.9035ZM27.506 17.86L27.9507 18.2376L27.9507 18.2375L27.506 17.86ZM18.7631 23.5897L18.3869 23.1439L18.3868 23.1439L18.7631 23.5897ZM15.6726 26.2162L15.292 26.6583L15.6726 26.986L16.0532 26.6583L15.6726 26.2162ZM12.5822 23.5893L12.2059 24.0351L12.2059 24.0351L12.5822 23.5893ZM4.27661 5.8933L3.84091 5.50543L3.84071 5.50566L4.27661 5.8933ZM13.5103 6.60276L13.9849 6.26352L13.9847 6.26327L13.5103 6.60276ZM14.8443 9.23011L15.3987 9.04849L15.3983 9.04736L14.8443 9.23011ZM16.5017 9.23011L17.0557 9.41281L17.056 9.41195L16.5017 9.23011ZM17.8357 6.60276L18.3101 6.94222L18.3102 6.94205L17.8357 6.60276ZM27.0687 5.8933L26.6328 6.28102L26.6329 6.28109L27.0687 5.8933ZM28.8124 4.36414C27.2328 2.58969 25.0388 1.61152 22.6449 1.61152V2.77819C24.7093 2.77819 26.5851 3.61668 27.941 5.13986L28.8124 4.36414ZM22.6449 1.61152C19.2469 1.61152 17.1082 3.63027 15.9391 5.26533L16.8881 5.94392C17.9434 4.46805 19.7738 2.77819 22.6449 2.77819V1.61152ZM15.9391 5.26524C15.6346 5.69101 15.3757 6.11677 15.1596 6.51612L16.1856 7.07142C16.3817 6.70913 16.6152 6.32536 16.888 5.94401L15.9391 5.26524ZM16.1857 6.51616C15.9698 6.11729 15.7118 5.69142 15.4069 5.26524L14.458 5.94401C14.7305 6.32495 14.9633 6.70861 15.1596 7.07138L16.1857 6.51616ZM15.4069 5.26517C14.237 3.63028 12.0983 1.61152 8.70037 1.61152V2.77819C11.5714 2.77819 13.4019 4.46804 14.4581 5.94408L15.4069 5.26517ZM8.70037 1.61152C6.30725 1.61152 4.11245 2.58966 2.53282 4.36414L3.40424 5.13986C4.76015 3.6167 6.63667 2.77819 8.70037 2.77819V1.61152ZM2.53268 4.3643C1.03143 6.052 0.215007 8.29946 0.215007 10.684H1.38167C1.38167 8.56375 2.10701 6.59821 3.40438 5.1397L2.53268 4.3643ZM0.215007 10.684C0.215007 13.3118 1.25887 15.721 3.39537 18.2376L4.28475 17.4825C2.27125 15.1108 1.38167 12.9595 1.38167 10.684H0.215007ZM3.3953 18.2375C5.28763 20.4672 7.9989 22.753 11.0756 25.3493L11.828 24.4577C8.72535 21.8395 6.10045 19.622 4.28482 17.4826L3.3953 18.2375ZM11.0755 25.3493C12.2267 26.3211 13.4148 27.3235 14.6787 28.4188L15.4427 27.5371C14.1722 26.4361 12.9785 25.4289 11.8281 24.4578L11.0755 25.3493ZM14.6744 28.4151L14.7121 28.4484L15.4847 27.5742L15.447 27.5409L14.6744 28.4151ZM14.7166 28.4523C14.9908 28.6898 15.333 28.8084 15.6726 28.8084V27.6417C15.6032 27.6417 15.5348 27.6176 15.4803 27.5704L14.7166 28.4523ZM15.6726 28.8084C16.0133 28.8084 16.3546 28.6897 16.6287 28.4523L15.865 27.5704C15.8103 27.6177 15.7426 27.6417 15.6726 27.6417V28.8084ZM16.6332 28.4484L16.6709 28.4151L15.8983 27.5409L15.8605 27.5742L16.6332 28.4484ZM16.6665 28.4189C17.9312 27.3236 19.1187 26.321 20.2704 25.3494L19.5181 24.4577C18.3667 25.4291 17.1739 26.4361 15.9027 27.537L16.6665 28.4189ZM20.2705 25.3493C23.3464 22.753 26.0576 20.4672 27.9507 18.2376L27.0613 17.4825C25.2448 19.622 22.6199 21.8395 19.518 24.4578L20.2705 25.3493ZM27.9507 18.2375C30.0864 15.7209 31.1303 13.3118 31.1303 10.684H29.9636C29.9636 12.9595 29.074 15.1108 27.0612 17.4826L27.9507 18.2375ZM31.1303 10.684C31.1303 8.29946 30.3138 6.052 28.8126 4.3643L27.9409 5.1397C29.2383 6.59821 29.9636 8.56375 29.9636 10.684H31.1303ZM18.3868 23.1439C17.3953 23.981 16.3714 24.8449 15.292 25.7742L16.0532 26.6583C17.1276 25.7333 18.1472 24.8731 19.1394 24.0354L18.3868 23.1439ZM16.0532 25.7742C14.9739 24.8449 13.9509 23.9811 12.9584 23.1435L12.2059 24.0351C13.1987 24.8729 14.2176 25.7333 15.292 26.6583L16.0532 25.7742ZM12.9584 23.1435C9.92235 20.5813 7.45357 18.4956 5.73614 16.5039C4.02805 14.5231 3.12477 12.7036 3.12477 10.684H1.9581C1.9581 13.0958 3.05195 15.1776 4.8526 17.2658C6.64392 19.3432 9.1955 21.4944 12.2059 24.0351L12.9584 23.1435ZM3.12477 10.684C3.12477 8.98149 3.69755 7.42227 4.71252 6.28094L3.84071 5.50566C2.61864 6.87987 1.9581 8.7226 1.9581 10.684H3.12477ZM4.71232 6.28116C5.7322 5.13549 7.14378 4.50465 8.70037 4.50465V3.33799C6.81485 3.33799 5.08482 4.10809 3.84091 5.50543L4.71232 6.28116ZM8.70037 4.50465C10.8212 4.50465 12.2127 5.79197 13.0359 6.94225L13.9847 6.26327C13.057 4.96705 11.3588 3.33799 8.70037 3.33799V4.50465ZM13.0358 6.942C13.7724 7.97248 14.1599 9.01735 14.2904 9.41286L15.3983 9.04736C15.2488 8.59414 14.8166 7.42703 13.9849 6.26352L13.0358 6.942ZM14.29 9.41173C14.486 10.01 15.0463 10.4092 15.6726 10.4092V9.24252C15.5438 9.24252 15.4355 9.16092 15.3987 9.04849L14.29 9.41173ZM15.6726 10.4092C16.2992 10.4092 16.8588 10.0099 17.0557 9.41281L15.9477 9.04741C15.9102 9.16098 15.8012 9.24252 15.6726 9.24252V10.4092ZM17.056 9.41195C17.1854 9.0174 17.5727 7.97267 18.3101 6.94222L17.3613 6.2633C16.5287 7.42684 16.0964 8.5941 15.9474 9.04827L17.056 9.41195ZM18.3102 6.94205C19.1326 5.79198 20.524 4.50465 22.6449 4.50465V3.33799C19.9865 3.33799 18.2882 4.96703 17.3612 6.26346L18.3102 6.94205ZM22.6449 4.50465C24.2016 4.50465 25.6138 5.13556 26.6328 6.28102L27.5045 5.50558C26.2612 4.10801 24.5303 3.33799 22.6449 3.33799V4.50465ZM26.6329 6.28109C27.6484 7.42223 28.2205 8.98131 28.2205 10.684H29.3872C29.3872 8.72277 28.7275 6.8799 27.5044 5.50551L26.6329 6.28109ZM28.2205 10.684C28.2205 12.7036 27.3172 14.5231 25.6091 16.504C23.8917 18.4957 21.4229 20.5815 18.3869 23.1439L19.1393 24.0355C22.1498 21.4946 24.7014 19.3433 26.4927 17.2658C28.2933 15.1776 29.3872 13.0958 29.3872 10.684H28.2205Z" fill="#2DB872"/>
</svg>
