<svg width="19" height="19" viewBox="0 0 19 19" fill="none" xmlns="http://www.w3.org/2000/svg">
<g id="24 / basic / options">
<path id="icon" fill-rule="evenodd" clip-rule="evenodd" d="M10 8.75C8.60212 8.75 7.42755 7.79392 7.09451 6.5H1.75V5H7.09451C7.42755 3.70608 8.60212 2.75 10 2.75C11.6569 2.75 13 4.09315 13 5.75C13 7.40685 11.6569 8.75 10 8.75ZM14.5 5H16.75V6.5H14.5V5ZM6.25 16.25C4.85212 16.25 3.67755 15.2939 3.34451 14H1.75V12.5H3.34451C3.67755 11.2061 4.85212 10.25 6.25 10.25C7.90685 10.25 9.25 11.5931 9.25 13.25C9.25 14.9069 7.90685 16.25 6.25 16.25ZM10.75 14H16.75V12.5H10.75V14ZM7.75 13.25C7.75 14.0784 7.07843 14.75 6.25 14.75C5.42157 14.75 4.75 14.0784 4.75 13.25C4.75 12.4216 5.42157 11.75 6.25 11.75C7.07843 11.75 7.75 12.4216 7.75 13.25ZM11.5 5.75C11.5 6.57843 10.8284 7.25 10 7.25C9.17157 7.25 8.5 6.57843 8.5 5.75C8.5 4.92157 9.17157 4.25 10 4.25C10.8284 4.25 11.5 4.92157 11.5 5.75Z" fill="white"/>
</g>
</svg>
