<svg width="45" height="46" viewBox="0 0 45 46" fill="none" xmlns="http://www.w3.org/2000/svg">
<path fill-rule="evenodd" clip-rule="evenodd" d="M22.2688 41.4979H23.3744C31.8519 41.19 38.5195 34.0144 38.368 25.3637C38.2204 16.7163 31.3028 9.78578 22.8215 9.78256C14.3365 9.78256 7.42274 16.7163 7.27129 25.3637C7.11985 34.0144 13.7951 41.19 22.2688 41.4979Z" fill="#FF889F"/>
<path fill-rule="evenodd" clip-rule="evenodd" d="M7.35613 15.711H9.40158L12.3153 27.3336C12.4011 27.6752 12.6833 27.9112 13.0052 27.9104H21.9624C22.2459 27.9099 22.5026 27.7246 22.6166 27.438L25.8706 19.1738C25.9644 18.9292 25.9424 18.6489 25.8107 18.4261C25.68 18.2046 25.4559 18.0711 25.2159 18.0717H15.3227C14.9291 18.0717 14.6095 18.4242 14.6095 18.8588C14.6095 19.2937 14.9291 19.6462 15.3227 19.6462H24.1236L21.4829 26.3359H13.5396L10.6291 14.7133C10.5428 14.3717 10.2606 14.1357 9.93915 14.1365H7.35613C6.96163 14.1365 6.64245 14.489 6.64245 14.9239C6.64245 15.3584 6.96163 15.711 7.35613 15.711Z" fill="#FA465A" stroke="#FA465A" stroke-width="0.75"/>
<path fill-rule="evenodd" clip-rule="evenodd" d="M12.391 33.4222C13.3565 33.4222 14.1393 32.6273 14.1397 31.6462C14.1397 30.6649 13.3569 29.8696 12.391 29.8696C11.4263 29.8692 10.6431 30.6642 10.6427 31.6449C10.6431 32.626 11.4255 33.4211 12.391 33.4222Z" fill="#FA465A"/>
<path fill-rule="evenodd" clip-rule="evenodd" d="M22.1517 33.4222H22.2802C23.266 33.3865 24.0413 32.5554 24.0237 31.5534C24.0065 30.5518 23.2021 29.749 22.2159 29.7486C21.2293 29.7486 20.4254 30.5518 20.4078 31.5534C20.3902 32.5554 21.1664 33.3865 22.1517 33.4222Z" fill="#FA465A"/>
<rect x="0.375" y="0.875" width="44.25" height="44.25" rx="22.125" stroke="#FA465A" stroke-width="0.75"/>
</svg>
