<svg width="65" height="65" viewBox="0 0 65 65" fill="none" xmlns="http://www.w3.org/2000/svg">
<path fill-rule="evenodd" clip-rule="evenodd" d="M34.0785 54.3382C22.1851 54.3382 12.5714 44.7243 12.5714 32.8307C12.5714 20.9372 22.1851 11.3234 34.0785 11.3234C45.9724 11.3234 55.5861 20.9372 55.5861 32.8307C55.5861 44.7243 45.9724 54.3382 34.0785 54.3382Z" fill="#2DB872"/>
<path d="M39.5946 35.4627L39.5046 35.3627C36.7645 32.4432 34.5698 29.0564 33.0246 25.3627C33.9473 24.2704 34.5386 22.9371 34.7288 21.52C34.9189 20.1028 34.7 18.6609 34.0978 17.364C33.4956 16.0671 32.5352 14.9695 31.3299 14.2003C30.1246 13.4311 28.7245 13.0225 27.2946 13.0227C25.7898 13.0258 24.3203 13.4785 23.0746 14.3227C21.2617 13.25 19.1435 12.8109 17.0536 13.0747C14.9637 13.3385 13.021 14.2901 11.5315 15.7796C10.042 17.2691 9.09044 19.2118 8.82666 21.3017C8.56289 23.3915 9.00193 25.5098 10.0746 27.3227C9.09657 28.8193 8.6853 30.616 8.91497 32.389C9.14463 34.1621 10.0001 35.7947 11.3272 36.9927C12.6543 38.1908 14.3657 38.8753 16.1529 38.9229C17.9401 38.9706 19.6856 38.3782 21.0746 37.2527C24.8094 38.7282 28.2099 40.9386 31.0746 43.7527C31.1088 43.7856 31.1455 43.8157 31.1846 43.8427C32.188 44.6088 33.4123 45.0297 34.6746 45.0427C35.4732 45.0309 36.2615 44.8614 36.9943 44.5439C37.7271 44.2264 38.3899 43.7672 38.9446 43.1927C39.9727 42.2026 40.6055 40.8723 40.7251 39.4501C40.8447 38.0278 40.4429 36.6105 39.5946 35.4627ZM29.9146 30.0827L27.5946 28.0827C28.1587 28.0605 28.7187 27.9767 29.2646 27.8327L29.9146 30.0827ZM11.4046 29.0827C11.643 29.3411 11.8968 29.5849 12.1646 29.8127C11.9296 30.3663 11.8073 30.9612 11.8046 31.5627C11.8034 32.453 12.0663 33.3236 12.5601 34.0644C13.0539 34.8053 13.7563 35.383 14.5784 35.7245C15.4006 36.066 16.3056 36.1559 17.179 35.9829C18.0523 35.81 18.8547 35.3818 19.4846 34.7527C19.5784 34.6597 19.6527 34.5491 19.7035 34.4272C19.7543 34.3054 19.7804 34.1747 19.7804 34.0427C19.7804 33.9107 19.7543 33.7799 19.7035 33.6581C19.6527 33.5362 19.5784 33.4256 19.4846 33.3327C19.2973 33.1464 19.0438 33.0419 18.7796 33.0419C18.5154 33.0419 18.262 33.1464 18.0746 33.3327C17.5993 33.7909 16.9648 34.047 16.3046 34.047C15.6444 34.047 15.0099 33.7909 14.5346 33.3327C14.3022 33.1004 14.118 32.8244 13.9927 32.5206C13.8674 32.2168 13.8035 31.8913 13.8046 31.5627C13.8059 31.3634 13.8328 31.1651 13.8846 30.9727C15.0946 31.6096 16.4281 31.9769 17.7936 32.0494C19.159 32.1219 20.524 31.8979 21.7946 31.3927C21.7946 31.4527 21.7946 31.5127 21.7946 31.5627C21.7973 32.3949 21.6111 33.217 21.25 33.9669C20.8889 34.7167 20.3624 35.3749 19.71 35.8917C19.0576 36.4085 18.2965 36.7705 17.4839 36.9505C16.6713 37.1305 15.8285 37.1237 15.0189 36.9306C14.2093 36.7375 13.4541 36.3633 12.8101 35.836C12.1662 35.3087 11.6503 34.6421 11.3014 33.8866C10.9524 33.131 10.7795 32.306 10.7957 31.4739C10.8118 30.6418 11.0166 29.8242 11.3946 29.0827H11.4046ZM18.3046 15.0827C19.788 15.0827 21.238 15.5225 22.4714 16.3466C23.7048 17.1708 24.666 18.3421 25.2337 19.7125C25.8014 21.083 25.9499 22.591 25.6605 24.0458C25.3711 25.5007 24.6568 26.8371 23.6079 27.886C22.559 28.9349 21.2227 29.6492 19.7678 29.9386C18.3129 30.2279 16.8049 30.0794 15.4345 29.5118C14.064 28.9441 12.8927 27.9828 12.0686 26.7494C11.2445 25.5161 10.8046 24.066 10.8046 22.5827C10.802 20.5926 11.5893 18.6829 12.9936 17.2729C14.398 15.8629 16.3046 15.068 18.2946 15.0627L18.3046 15.0827ZM27.3046 26.0827H27.1346C27.2637 25.7559 27.3739 25.4221 27.4646 25.0827C28.5927 25.0427 29.6641 24.5785 30.4646 23.7827C30.5583 23.6897 30.6327 23.5791 30.6835 23.4572C30.7343 23.3354 30.7604 23.2047 30.7604 23.0727C30.7604 22.9407 30.7343 22.81 30.6835 22.6881C30.6327 22.5662 30.5583 22.4556 30.4646 22.3627C30.2772 22.1764 30.0238 22.0719 29.7596 22.0719C29.4954 22.0719 29.242 22.1764 29.0546 22.3627C28.7038 22.7171 28.2542 22.9576 27.7646 23.0527C27.7646 22.9027 27.7646 22.7527 27.7646 22.5927C27.7614 21.2988 27.4935 20.0192 26.9776 18.8327C26.4617 17.6461 25.7086 16.5775 24.7646 15.6927C25.532 15.2989 26.3821 15.0932 27.2446 15.0927C28.7033 15.0927 30.1023 15.6721 31.1337 16.7036C32.1652 17.735 32.7446 19.134 32.7446 20.5927C32.7446 22.0514 32.1652 23.4503 31.1337 24.4818C30.1023 25.5132 28.7033 26.0927 27.2446 26.0927L27.3046 26.0827ZM23.7846 31.8427L25.7846 34.1627L23.4946 33.5127C23.6536 32.9686 23.7509 32.4084 23.7846 31.8427ZM37.5446 41.8427C36.9033 42.541 36.0258 42.9766 35.0819 43.0652C34.138 43.1539 33.1947 42.8893 32.4346 42.3227C29.5853 39.5188 26.2336 37.2765 22.5546 35.7127C22.6246 35.6127 22.6846 35.5027 22.7446 35.4027L28.5246 37.0527C28.6143 37.0625 28.7049 37.0625 28.7946 37.0527C28.9636 37.0541 29.1302 37.0126 29.2789 36.9322C29.4275 36.8517 29.5534 36.7349 29.6446 36.5927C29.7582 36.4099 29.8098 36.1955 29.7918 35.9811C29.7737 35.7667 29.6871 35.5639 29.5446 35.4027L24.5446 29.6927C24.8552 29.4171 25.149 29.1232 25.4246 28.8127L31.1246 33.8127C31.3084 33.9698 31.5428 34.0551 31.7846 34.0527C31.9752 34.0552 32.1626 34.0031 32.3246 33.9027C32.506 33.7862 32.6448 33.6142 32.7205 33.4124C32.7962 33.2106 32.8047 32.9897 32.7446 32.7827L31.0946 27.0127C31.2146 26.9427 31.3346 26.8727 31.4446 26.7927C33.0653 30.4454 35.2898 33.799 38.0246 36.7127C38.5905 37.4768 38.8544 38.4228 38.7658 39.3695C38.6772 40.3161 38.2424 41.1968 37.5446 41.8427Z" fill="#A2DD83"/>
<path d="M13.7039 27.1626C14.9241 28.3784 16.5764 29.0611 18.2989 29.0611C20.0214 29.0611 21.6737 28.3784 22.8939 27.1626C23.0801 26.9752 23.1847 26.7218 23.1847 26.4576C23.1847 26.1934 23.0801 25.94 22.8939 25.7526C22.8009 25.6589 22.6903 25.5845 22.5685 25.5337C22.4466 25.4829 22.3159 25.4568 22.1839 25.4568C22.0519 25.4568 21.9212 25.4829 21.7993 25.5337C21.6775 25.5845 21.5669 25.6589 21.4739 25.7526C20.6288 26.5929 19.4856 27.0645 18.2939 27.0645C17.1022 27.0645 15.9589 26.5929 15.1139 25.7526C14.6951 25.3346 14.3629 24.8382 14.1362 24.2916C13.9095 23.7451 13.7928 23.1593 13.7928 22.5676C13.7928 21.9759 13.9095 21.3901 14.1362 20.8435C14.3629 20.297 14.6951 19.8006 15.1139 19.3826C15.2186 19.2929 15.3036 19.1826 15.3636 19.0586C15.4236 18.9345 15.4574 18.7994 15.4627 18.6616C15.468 18.5239 15.4448 18.3866 15.3945 18.2583C15.3443 18.1299 15.268 18.0134 15.1705 17.9159C15.0731 17.8185 14.9565 17.7422 14.8282 17.692C14.6999 17.6417 14.5626 17.6185 14.4248 17.6238C14.2871 17.6291 14.152 17.6628 14.0279 17.7229C13.9039 17.7829 13.7935 17.8679 13.7039 17.9726C13.0983 18.5748 12.6177 19.2908 12.2897 20.0793C11.9618 20.8679 11.793 21.7135 11.793 22.5676C11.793 23.4216 11.9618 24.2673 12.2897 25.0558C12.6177 25.8444 13.0983 26.5604 13.7039 27.1626Z" fill="#A2DD83"/>
<path d="M34.8138 40.0727C34.4938 40.0727 33.6638 39.5227 31.5038 37.3627C31.4108 37.269 31.3002 37.1946 31.1783 37.1438C31.0565 37.093 30.9258 37.0669 30.7938 37.0669C30.6618 37.0669 30.531 37.093 30.4092 37.1438C30.2873 37.1946 30.1767 37.269 30.0838 37.3627C29.8975 37.5501 29.793 37.8035 29.793 38.0677C29.793 38.3319 29.8975 38.5853 30.0838 38.7727C32.1738 40.8627 33.6138 42.0627 34.7938 42.0627C35.059 42.0627 35.3133 41.9573 35.5009 41.7698C35.6884 41.5823 35.7938 41.3279 35.7938 41.0627C35.7912 40.8026 35.6874 40.5538 35.5045 40.369C35.3215 40.1842 35.0738 40.0779 34.8138 40.0727Z" fill="#A2DD83"/>
<path d="M18.7949 19.0728C19.3472 19.0728 19.7949 18.625 19.7949 18.0728C19.7949 17.5205 19.3472 17.0728 18.7949 17.0728C18.2426 17.0728 17.7949 17.5205 17.7949 18.0728C17.7949 18.625 18.2426 19.0728 18.7949 19.0728Z" fill="#A2DD83"/>
<path d="M16.7949 22.0728C17.3472 22.0728 17.7949 21.625 17.7949 21.0728C17.7949 20.5205 17.3472 20.0728 16.7949 20.0728C16.2426 20.0728 15.7949 20.5205 15.7949 21.0728C15.7949 21.625 16.2426 22.0728 16.7949 22.0728Z" fill="#A2DD83"/>
<path d="M19.7949 24.0728C20.3472 24.0728 20.7949 23.625 20.7949 23.0728C20.7949 22.5205 20.3472 22.0728 19.7949 22.0728C19.2426 22.0728 18.7949 22.5205 18.7949 23.0728C18.7949 23.625 19.2426 24.0728 19.7949 24.0728Z" fill="#A2DD83"/>
<path d="M22.7949 21.0728C23.3472 21.0728 23.7949 20.625 23.7949 20.0728C23.7949 19.5205 23.3472 19.0728 22.7949 19.0728C22.2426 19.0728 21.7949 19.5205 21.7949 20.0728C21.7949 20.625 22.2426 21.0728 22.7949 21.0728Z" fill="#A2DD83"/>
<path d="M30.7949 21.0728C31.3472 21.0728 31.7949 20.625 31.7949 20.0728C31.7949 19.5205 31.3472 19.0728 30.7949 19.0728C30.2426 19.0728 29.7949 19.5205 29.7949 20.0728C29.7949 20.625 30.2426 21.0728 30.7949 21.0728Z" fill="#A2DD83"/>
<path d="M28.7949 18.0728C29.3472 18.0728 29.7949 17.625 29.7949 17.0728C29.7949 16.5205 29.3472 16.0728 28.7949 16.0728C28.2426 16.0728 27.7949 16.5205 27.7949 17.0728C27.7949 17.625 28.2426 18.0728 28.7949 18.0728Z" fill="#A2DD83"/>
<path d="M23.7949 25.0728C24.3472 25.0728 24.7949 24.625 24.7949 24.0728C24.7949 23.5205 24.3472 23.0728 23.7949 23.0728C23.2426 23.0728 22.7949 23.5205 22.7949 24.0728C22.7949 24.625 23.2426 25.0728 23.7949 25.0728Z" fill="#A2DD83"/>
<rect x="0.5" y="0.5" width="64" height="64" rx="32" stroke="#2DB872"/>
</svg>
