<svg width="60" height="60" viewBox="0 0 60 60" fill="none" xmlns="http://www.w3.org/2000/svg">
<path fill-rule="evenodd" clip-rule="evenodd" d="M29.6917 54.6639H31.1658C42.4691 54.2533 51.3593 44.6859 51.1574 33.1517C50.9605 21.6217 41.7371 12.381 30.4287 12.3768C19.1153 12.3768 9.89698 21.6217 9.69506 33.1517C9.49313 44.6859 18.3934 54.2533 29.6917 54.6639Z" fill="#A2DD83"/>
<path fill-rule="evenodd" clip-rule="evenodd" d="M9.80817 20.2813H12.5354L16.4204 35.7781C16.5348 36.2335 16.9111 36.5482 17.3402 36.5472H29.2832C29.6612 36.5465 30.0034 36.2995 30.1555 35.9173L34.4941 24.8983C34.6192 24.5722 34.5898 24.1984 34.4143 23.9014C34.24 23.6061 33.9412 23.4281 33.6213 23.4289H20.4303C19.9055 23.4289 19.4793 23.8989 19.4793 24.4783C19.4793 25.0582 19.9055 25.5282 20.4303 25.5282H32.1649L28.6439 34.4478H18.0529L14.1721 18.951C14.057 18.4956 13.6807 18.1809 13.2522 18.1819H9.80817C9.28218 18.1819 8.85661 18.652 8.85661 19.2319C8.85661 19.8112 9.28218 20.2813 9.80817 20.2813Z" fill="#2DB872" stroke="#2DB872"/>
<path fill-rule="evenodd" clip-rule="evenodd" d="M16.5213 43.8963C17.8086 43.8963 18.8523 42.8364 18.8529 41.5283C18.8529 40.2199 17.8092 39.1595 16.5213 39.1595C15.2351 39.159 14.1908 40.2189 14.1902 41.5265C14.1908 42.8346 15.2339 43.8948 16.5213 43.8963Z" fill="#2DB872"/>
<path fill-rule="evenodd" clip-rule="evenodd" d="M29.5356 43.8963H29.707C31.0213 43.8487 32.0551 42.7405 32.0316 41.4045C32.0087 40.069 30.9362 38.9986 29.6213 38.9981C28.3058 38.9981 27.2339 40.069 27.2104 41.4045C27.1869 42.7405 28.2218 43.8487 29.5356 43.8963Z" fill="#2DB872"/>
<rect x="0.5" y="0.5" width="59" height="59" rx="29.5" stroke="#2DB872"/>
</svg>
