<svg width="30" height="30" viewBox="0 0 30 30" fill="none" xmlns="http://www.w3.org/2000/svg">
<path fill-rule="evenodd" clip-rule="evenodd" d="M15.3585 25.4823C9.6497 25.4823 5.03509 20.8676 5.03509 15.1587C5.03509 9.44979 9.6497 4.83519 15.3585 4.83519C21.0676 4.83519 25.6822 9.44979 25.6822 15.1587C25.6822 20.8676 21.0676 25.4823 15.3585 25.4823Z" fill="#A2DD83"/>
<path fill-rule="evenodd" clip-rule="evenodd" d="M4 9.45818L10.3 16.6582V24.3687L15.7 22.3437V16.6582L22 9.45818V7.32002C22 6.32591 21.1941 5.52002 20.2 5.52002H5.8C4.80589 5.52002 4 6.32591 4 7.32002V9.45818ZM20.2 7.32002V8.22002H5.8V7.32002H20.2ZM6.88339 10.02H19.1166L14.3916 15.42H11.6084L6.88339 10.02ZM12.1 17.22V21.7713L13.9 21.0963V17.22H12.1Z" fill="#2DB872"/>
<rect x="0.5" y="0.5" width="29" height="29" rx="14.5" stroke="#A2DD83"/>
</svg>
