<svg width="65" height="65" viewBox="0 0 65 65" fill="none" xmlns="http://www.w3.org/2000/svg">
<path fill-rule="evenodd" clip-rule="evenodd" d="M35.3304 55.3382C23.4371 55.3382 13.8233 45.7243 13.8233 33.8307C13.8233 21.9372 23.4371 12.3234 35.3304 12.3234C47.2243 12.3234 56.8381 21.9372 56.8381 33.8307C56.8381 45.7243 47.2243 55.3382 35.3304 55.3382Z" fill="#A2DD83"/>
<g clip-path="url(#clip0_18_1826)">
<path d="M22.9963 21.845C22.8429 21.8389 22.6885 21.8371 22.533 21.84C18.3416 21.9163 14.9266 25.3296 14.8495 29.521C14.8292 30.6212 15.0362 31.6707 15.4264 32.6258C15.558 32.9481 16.0361 32.8494 16.0356 32.5013C16.0356 32.4962 16.0356 32.4912 16.0356 32.4861C16.0356 27.8665 18.9769 23.9342 23.0888 22.4591C23.4153 22.3419 23.3429 21.859 22.9963 21.845Z" fill="#2DB872"/>
<path d="M39.9625 22.3519C38.279 19.9739 35.6823 18.4521 32.6507 18.0667C31.1933 17.8814 29.7854 17.9694 28.4502 18.3253C28.8088 16.4214 29.6821 14.6724 31.0092 13.217C31.6302 12.5361 31.8293 11.6073 31.5418 10.7323C31.2546 9.85823 30.5443 9.22911 29.6416 9.04944C28.7071 8.86353 27.7625 9.20996 27.1766 9.9539C26.1988 11.1955 25.4901 12.5839 25.068 14.0639C24.6132 13.3634 24.0182 12.7393 23.3042 12.2425C21.3248 10.8652 18.748 10.6785 16.7394 11.7671C16.5328 11.879 16.3915 12.0822 16.3583 12.3148C16.036 14.5743 17.1042 16.9232 19.0798 18.3011C16.5955 18.9046 14.4806 20.3132 13.0373 22.3519C11.2498 24.8767 10.559 28.2105 11.0397 31.9928C12.0199 39.7054 17.7793 47.7396 24.0196 46.9457C24.5683 46.8759 25.1133 46.736 25.6394 46.5298C26.1943 46.3123 26.8054 46.3123 27.3602 46.5298C27.8863 46.736 28.4314 46.8759 28.9801 46.9457C29.2677 46.9822 29.5532 47 29.8383 46.9999C35.74 46.999 41.0248 39.3499 41.9599 31.9927C42.4408 28.2105 41.7501 24.8767 39.9625 22.3519ZM28.3428 10.8723C28.5814 10.5695 28.9681 10.4289 29.3519 10.5053C29.7224 10.5791 30.0139 10.8372 30.1318 11.1958C30.2499 11.5553 30.168 11.937 29.9126 12.217C28.2228 14.0699 27.178 16.3406 26.8739 18.8087C26.6484 18.8439 26.4196 18.8472 26.1936 18.8184C26.1279 18.3407 26.0943 17.8556 26.0943 17.3711C26.0943 14.9875 26.8718 12.7403 28.3428 10.8723ZM17.7911 12.9052C19.2555 12.2759 21.046 12.4794 22.4565 13.4609C23.5877 14.248 24.3342 15.4383 24.5437 16.6998L22.2441 15.0997C21.9076 14.8657 21.4451 14.9485 21.211 15.285C20.977 15.6215 21.0599 16.084 21.3964 16.3181L23.6959 17.9182C22.4402 18.1602 21.0647 17.8739 19.9334 17.0867C18.5229 16.1052 17.7098 14.497 17.7911 12.9052ZM40.4876 31.8056C39.6508 38.3891 34.9068 45.5167 29.842 45.5158C29.6179 45.5158 29.3924 45.5018 29.1674 45.4732C28.74 45.4189 28.3143 45.3093 27.902 45.1477C27.45 44.9706 26.975 44.882 26.5 44.882C26.025 44.882 25.55 44.9705 25.098 45.1477C24.6857 45.3093 24.26 45.4188 23.8326 45.4731C18.5218 46.1492 13.3862 38.6803 12.5124 31.8055C12.0794 28.3982 12.6798 25.4258 14.2489 23.2094C15.6893 21.1748 17.9223 19.8714 20.5365 19.5391C22.1416 19.3352 23.6715 19.5093 25.0835 20.057C25.997 20.4113 27.0031 20.4113 27.9166 20.057C29.3286 19.5093 30.8584 19.3351 32.4636 19.5391C35.0777 19.8714 37.3107 21.1748 38.7511 23.2093C40.3202 25.4259 40.9206 28.3983 40.4876 31.8056Z" fill="#2DB872"/>
</g>
<rect x="0.5" y="0.5" width="64" height="64" rx="32" stroke="#2DB872"/>
<defs>
<clipPath id="clip0_18_1826">
<rect width="38" height="38" fill="white" transform="translate(7.5 9)"/>
</clipPath>
</defs>
</svg>
