<svg width="65" height="65" viewBox="0 0 65 65" fill="none" xmlns="http://www.w3.org/2000/svg">
<path fill-rule="evenodd" clip-rule="evenodd" d="M35.0577 55.8225C23.1643 55.8225 13.5503 46.2086 13.5503 34.3151C13.5503 22.4215 23.1643 12.8077 35.0577 12.8077C46.9513 12.8077 56.5654 22.4215 56.5654 34.3151C56.5654 46.2086 46.9513 55.8225 35.0577 55.8225Z" fill="#F2C94C"/>
<g clip-path="url(#clip0_17_175)">
<path d="M40.7392 31.5983C40.7626 31.6133 40.7876 31.6258 40.8136 31.6355L40.8851 31.6604C40.9891 31.6853 41.0985 31.6743 41.1955 31.6293L41.2296 31.6107L41.2638 31.589C41.3062 31.5584 41.3438 31.5218 41.3755 31.4803V31.4617C41.397 31.4253 41.4147 31.3868 41.4283 31.3468C41.4273 31.3355 41.4273 31.324 41.4283 31.3127C41.4283 31.3127 41.4283 31.2817 41.4283 31.2723C42.2913 24.6665 39.6154 20.2771 37.219 17.7565C35.8153 16.2862 34.1766 15.0598 32.3701 14.1276C32.9904 12.4932 33.5016 10.8194 33.9005 9.11739C33.9029 9.06154 33.9029 9.00562 33.9005 8.94977C33.8946 8.9232 33.8863 8.89722 33.8757 8.87216C33.867 8.84319 33.8556 8.81512 33.8415 8.78834C33.8261 8.76495 33.8084 8.74313 33.7888 8.72316C33.7714 8.69942 33.7504 8.67848 33.7267 8.66107C33.7064 8.64542 33.6846 8.63189 33.6615 8.62072C33.6372 8.60524 33.6112 8.59274 33.5839 8.58347H33.5653H33.5435C33.52 8.57803 33.4956 8.57803 33.4721 8.58347H33.3852L33.2983 8.6052C33.2724 8.61408 33.2474 8.62552 33.2238 8.63934C33.1979 8.65267 33.1739 8.66938 33.1524 8.68902C33.1289 8.70667 33.108 8.72756 33.0903 8.75109C33.0628 8.79188 33.0379 8.83441 33.0158 8.87838C33.0158 8.87838 32.5999 9.99899 32.0411 11.7374C31.7772 12.4296 31.4947 13.1219 31.1998 13.8048C27.7584 13.7509 24.3377 14.347 21.1173 15.5618C14.5332 18.07 10.0196 23.1361 8.07949 30.1765C8.07555 30.2064 8.07555 30.2367 8.07949 30.2666C8.07813 30.2758 8.07813 30.2852 8.07949 30.2945C8.07965 30.3462 8.08802 30.3975 8.10431 30.4466L8.12294 30.4901C8.13951 30.5256 8.16036 30.5589 8.18502 30.5894L8.21297 30.6204C8.24289 30.6484 8.27628 30.6724 8.31231 30.6918H8.34024L8.39922 30.7136H8.44268C8.46847 30.7164 8.4945 30.7164 8.52029 30.7136H8.55754C8.58926 30.714 8.6208 30.7088 8.65066 30.698H8.6755C8.6755 30.698 10.0972 30.2076 12.2236 29.2856C12.0614 29.8227 12.0108 30.3872 12.0749 30.9445C12.1389 31.5019 12.3163 32.0402 12.5962 32.5264C13.2822 33.6285 14.5425 34.2338 16.1474 34.2276C17.8138 34.1654 19.4323 33.6537 20.8317 32.7469C23.433 31.1264 24.5195 28.5034 23.759 25.6971C25.7115 24.2878 27.5337 22.2421 29.2038 19.5942C26.8601 25.098 24.1439 30.6918 22.8556 33.3025C21.9916 33.0223 21.059 33.0376 20.2046 33.346C18.4756 33.9234 16.9483 35.3854 16.0108 37.3566C14.319 40.9296 15.0795 44.9837 17.6654 46.213C18.3691 46.5491 19.1601 46.6576 19.9284 46.5234C20.6345 46.3973 21.3093 46.1348 21.9151 45.7505C23.4082 44.7834 24.5932 43.4089 25.3297 41.7895C26.1061 40.2626 26.3078 38.5076 25.8978 36.8444C25.5702 35.5712 24.7814 34.4649 23.6845 33.7402C24.8455 31.3934 27.3909 26.1596 29.6881 20.8359C29.3775 22.4213 29.1969 24.0295 29.1479 25.6444C26.798 26.4359 25.4787 29.4998 26.1337 32.722C26.8663 36.3229 29.5484 38.9305 32.1001 38.4959L32.2211 38.4742C33.4814 38.2165 34.5276 37.2573 35.1701 35.7673C35.8101 34.1927 35.9595 32.4614 35.5985 30.8005C35.1919 28.8014 34.152 27.1251 32.7488 26.1969C31.9652 25.6574 31.0223 25.3981 30.073 25.4612C30.2066 23.0171 30.582 20.5922 31.1936 18.2221C32.4943 26.2466 40.646 31.5455 40.7392 31.5983ZM40.646 29.8661C38.8673 27.1002 34.5866 20.243 32.4664 15.2358C35.1453 16.7259 41.1924 21.1153 40.646 29.8661ZM39.1622 29.2453C33.1058 24.1605 32.0224 19.0572 31.9262 16.3037C33.9036 20.7241 37.2314 26.169 39.1684 29.2453H39.1622ZM23.9235 35.1433C25.547 36.8289 25.3639 39.5482 24.4792 41.4139C23.8218 42.8723 22.7608 44.1121 21.4215 44.9869C20.2202 45.7257 19.0219 45.8778 18.0503 45.4183C17.0787 44.9589 16.3616 43.8662 16.1226 42.4196C15.8929 40.8391 16.1415 39.2261 16.8365 37.7881C17.6623 36.0436 18.994 34.7553 20.4871 34.2586C20.6897 34.1907 20.8973 34.1388 21.108 34.1034C21.2406 34.0823 21.3743 34.0688 21.5084 34.063C21.5045 34.147 21.5228 34.2304 21.5612 34.3052C21.8064 34.7553 22.4645 35.4786 23.3865 35.3296C23.5761 35.2959 23.7594 35.2331 23.9297 35.1433H23.9235ZM21.4618 16.4093C23.0886 15.7931 24.7735 15.3428 26.4907 15.0651C27.4996 14.8975 28.4091 14.8075 29.1759 14.7547C27.2388 15.5835 24.3395 16.9059 21.2942 18.5853C16.284 21.345 12.6024 24.1015 10.268 26.796C12.5061 21.8913 16.2653 18.3991 21.468 16.4061L21.4618 16.4093ZM20.335 32.0018C19.0827 32.8218 17.6308 33.2854 16.135 33.3429C14.8622 33.3429 13.8813 32.899 13.3691 32.0794C12.8569 31.2599 12.8383 30.0493 13.3505 28.82C13.959 27.4316 14.9827 26.2658 16.2809 25.4829C17.1139 24.9622 18.0409 24.61 19.0095 24.4461C19.8656 24.2856 20.748 24.3368 21.5798 24.5951C21.7366 24.6513 21.8882 24.7209 22.033 24.8031C22.0214 24.8274 22.011 24.8522 22.002 24.8776C21.8281 25.455 21.7909 26.675 22.9146 27.153C22.9599 27.173 23.0081 27.1856 23.0574 27.1903C23.1661 29.1366 22.2069 30.8377 20.3412 31.9987L20.335 32.0018ZM23.402 24.8621C23.1304 24.4582 22.7536 24.1362 22.3124 23.9308C24.6002 22.4425 26.7249 20.7174 28.6513 18.784C27.0402 21.4009 25.28 23.4435 23.4082 24.8466L23.402 24.8621ZM30.6255 26.8922C30.7298 26.8289 30.8054 26.7277 30.8366 26.6098C30.8459 26.5522 30.8459 26.4935 30.8366 26.4359C31.3301 26.5237 31.7997 26.7141 32.2149 26.9947C33.4132 27.7894 34.3072 29.2515 34.6673 31.0116C35.3067 34.1593 34.0899 37.1797 32.01 37.6019H31.92C29.8836 37.9371 27.6331 35.6245 27.0091 32.5513C26.5652 30.3597 27.1519 28.2302 28.3843 27.1375C28.3967 27.169 28.4123 27.1992 28.4309 27.2275C28.4664 27.2794 28.5124 27.3233 28.5658 27.3564C28.6193 27.3895 28.679 27.4112 28.7413 27.42C28.9211 27.4498 29.1047 27.4498 29.2845 27.42C29.7634 27.324 30.2203 27.1398 30.6318 26.8767L30.6255 26.8922ZM21.1949 23.5521C19.5403 23.223 17.4698 23.6639 15.7935 24.7131C14.4505 25.5348 13.366 26.7182 12.6644 28.1277C11.342 28.7207 10.2307 29.1677 9.47949 29.4595C13.4746 22.7077 26.3665 16.9277 30.402 15.239C28.3843 18.1166 25.2925 20.9042 21.2011 23.5366L21.1949 23.5521Z" fill="#F2994A" stroke="#F2994A" stroke-width="0.6"/>
</g>
<rect x="0.5" y="0.5" width="64" height="64" rx="32" stroke="#F2C94C"/>
<defs>
<clipPath id="clip0_17_175">
<rect x="7.77283" y="8.51569" width="38" height="38" fill="white"/>
</clipPath>
</defs>
</svg>
