<svg width="65" height="65" viewBox="0 0 65 65" fill="none" xmlns="http://www.w3.org/2000/svg">
<path fill-rule="evenodd" clip-rule="evenodd" d="M32.8304 54.3382C20.9371 54.3382 11.3233 44.7243 11.3233 32.8307C11.3233 20.9372 20.9371 11.3234 32.8304 11.3234C44.7243 11.3234 54.3381 20.9372 54.3381 32.8307C54.3381 44.7243 44.7243 54.3382 32.8304 54.3382Z" fill="#2D9CDB"/>
<path d="M18.6464 22.6776C18.8357 22.3552 18.9309 21.9862 18.9212 21.6125C18.9115 21.2388 18.7972 20.8753 18.5913 20.5632C18.3854 20.2512 18.0962 20.0031 17.7564 19.8471C17.4167 19.6911 17.04 19.6334 16.6691 19.6806C16.2983 19.7279 15.9481 19.8781 15.6583 20.1143C15.3685 20.3505 15.1507 20.6632 15.0297 21.0169C14.9086 21.3706 14.8891 21.7512 14.9733 22.1154C15.0576 22.4796 15.2423 22.813 15.5064 23.0776C15.9797 23.4304 16.5715 23.5858 17.1571 23.5112C17.7428 23.4366 18.2766 23.1378 18.6464 22.6776Z" fill="#56CCF2"/>
<path d="M32.0863 27.6775C31.7442 24.6194 30.3855 21.7646 28.2277 19.5706C26.07 17.3767 23.2383 15.9705 20.1863 15.5775C18.8136 15.3752 17.4126 15.497 16.0954 15.9332C14.7782 16.3693 13.5814 17.1078 12.6007 18.0894C11.62 19.071 10.8828 20.2686 10.4479 21.5862C10.013 22.9039 9.89262 24.305 10.0963 25.6775C10.4413 28.7165 11.8261 31.5427 14.0163 33.6775C15.2012 34.8583 16.5859 35.8199 18.1063 36.5175C18.0676 36.8495 18.0476 37.1833 18.0463 37.5175C18.0463 43.0275 23.4263 47.5175 30.0463 47.5175C36.6663 47.5175 42.0463 43.0275 42.0463 37.5175C42.0463 32.5975 37.7363 28.4975 32.0863 27.6775ZM30.0863 45.5275C24.5663 45.5275 20.0863 41.9375 20.0863 37.5275C20.0863 33.1175 24.5663 29.5275 30.0863 29.5275C35.6063 29.5275 40.0863 33.1175 40.0863 37.5275C40.0863 41.9375 35.5463 45.5275 30.0463 45.5275H30.0863ZM14.0863 19.5275C14.7564 18.8743 15.5498 18.3611 16.4202 18.0178C17.2907 17.6744 18.2208 17.5077 19.1563 17.5275C19.4563 17.5275 19.7563 17.5275 20.0663 17.5275C22.6036 17.876 24.9588 19.0398 26.7769 20.8435C28.5951 22.6472 29.7776 24.9931 30.1463 27.5275C28.2532 27.4771 26.3724 27.8474 24.6397 28.6118C22.907 29.3761 21.3655 30.5154 20.1263 31.9475C19.1618 31.4957 18.2876 30.8722 17.5463 30.1075C16.016 28.6455 15.1187 26.6427 15.0463 24.5275C15.0463 24.2623 14.941 24.0079 14.7534 23.8204C14.5659 23.6329 14.3115 23.5275 14.0463 23.5275C13.7811 23.5275 13.5267 23.6329 13.3392 23.8204C13.1517 24.0079 13.0463 24.2623 13.0463 24.5275C13.1279 27.1736 14.2361 29.6841 16.1363 31.5275C16.9736 32.3642 17.9433 33.0568 19.0063 33.5775C18.8479 33.8823 18.7077 34.1962 18.5863 34.5175C17.4151 33.9317 16.3476 33.1581 15.4263 32.2275C13.5628 30.4325 12.379 28.0471 12.0763 25.4775C11.9294 24.4005 12.0276 23.3043 12.3636 22.2706C12.6995 21.2369 13.2644 20.2924 14.0163 19.5075L14.0863 19.5275Z" fill="#56CCF2"/>
<path d="M35.7569 40.3474C34.209 41.7882 32.1611 42.57 30.0469 42.5274C26.3169 42.5274 23.0469 40.1874 23.0469 37.5274C23.0469 37.2622 22.9415 37.0078 22.754 36.8203C22.5664 36.6328 22.3121 36.5274 22.0469 36.5274C21.7817 36.5274 21.5273 36.6328 21.3398 36.8203C21.1522 37.0078 21.0469 37.2622 21.0469 37.5274C21.0469 41.3174 25.1669 44.5274 30.0469 44.5274C32.6934 44.5671 35.2512 43.5734 37.1769 41.7574C37.2695 41.6642 37.3428 41.5536 37.3926 41.432C37.4425 41.3105 37.4679 41.1803 37.4674 41.0489C37.467 40.9175 37.4406 40.7875 37.3899 40.6663C37.3392 40.545 37.2651 40.435 37.1719 40.3424C37.0786 40.2498 36.9681 40.1765 36.8465 40.1267C36.7249 40.0768 36.5947 40.0514 36.4633 40.0518C36.3319 40.0523 36.2019 40.0787 36.0807 40.1294C35.9595 40.1801 35.8495 40.2542 35.7569 40.3474Z" fill="#56CCF2"/>
<path d="M36.4673 39.0076C37.5388 39.0076 38.4073 37.8838 38.4073 36.4976C38.4073 35.1114 37.5388 33.9876 36.4673 33.9876C35.3959 33.9876 34.5273 35.1114 34.5273 36.4976C34.5273 37.8838 35.3959 39.0076 36.4673 39.0076Z" fill="#56CCF2"/>
<rect x="0.5" y="0.5" width="64" height="64" rx="32" stroke="#2D9CDB"/>
</svg>
