<svg width="65" height="65" viewBox="0 0 65 65" fill="none" xmlns="http://www.w3.org/2000/svg">
<path fill-rule="evenodd" clip-rule="evenodd" d="M32.8304 54.3382C20.9371 54.3382 11.3233 44.7243 11.3233 32.8307C11.3233 20.9372 20.9371 11.3234 32.8304 11.3234C44.7243 11.3234 54.3381 20.9372 54.3381 32.8307C54.3381 44.7243 44.7243 54.3382 32.8304 54.3382Z" fill="#2DB872"/>
<path d="M43.1611 28.0799C43.1611 23.1399 41.2811 21.1799 40.1611 20.4599C40.2545 19.0737 39.8463 17.7001 39.0111 16.5899C38.5222 16.0462 37.9163 15.6206 37.239 15.3452C36.5617 15.0698 35.8307 14.9517 35.1011 14.9999C34.3465 14.9704 33.5936 15.0913 32.8863 15.3557C32.1789 15.6201 31.5313 16.0227 30.9811 16.5399C29.581 15.3202 27.8778 14.5008 26.0509 14.1682C24.224 13.8355 22.3413 14.002 20.6011 14.6499C19.3413 15.0936 18.241 15.9 17.4385 16.9677C16.636 18.0353 16.1672 19.3165 16.0911 20.6499C14.2377 21.4641 12.7619 22.9506 11.9611 24.8099C11.2656 26.3802 11.0116 28.1106 11.2266 29.8145C11.4416 31.5185 12.1173 33.1315 13.1811 34.4799C12.4292 35.5266 12.0426 36.7917 12.0811 38.0799C12.0358 38.8092 12.1553 39.5393 12.4305 40.2161C12.7057 40.893 13.1297 41.4992 13.6711 41.9899C14.7854 42.8239 16.1628 43.2286 17.5511 43.1299C18.2711 44.2399 20.2311 46.1299 25.1611 46.1299C27.4554 46.2008 29.6974 45.4368 31.4711 43.9799C31.8926 44.0308 32.3166 44.0575 32.7411 44.0599C33.8696 44.0943 34.9934 43.9004 36.0451 43.4897C37.0968 43.079 38.0546 42.46 38.8611 41.6699C39.753 40.7101 40.4118 39.5577 40.7864 38.3021C41.161 37.0465 41.2413 35.7215 41.0211 34.4299C42.4845 32.6448 43.2455 30.3866 43.1611 28.0799ZM35.1611 16.9999C35.5973 16.9625 36.0363 17.021 36.4475 17.1713C36.8586 17.3216 37.2319 17.56 37.5411 17.8699C38.1196 18.7557 38.3477 19.8251 38.1811 20.8699C38.1407 21.1072 38.1872 21.3511 38.3121 21.5568C38.437 21.7625 38.632 21.9163 38.8611 21.9899C38.9611 21.9899 41.2011 22.8599 41.2011 28.0799C41.2425 29.1629 41.0475 30.2418 40.6295 31.2417C40.2116 32.2417 39.5809 33.1385 38.7811 33.8699C39.0302 32.9471 39.1579 31.9957 39.1611 31.0399C39.1598 30.25 39.076 29.4624 38.9111 28.6899C38.9986 28.5902 39.0665 28.4749 39.1111 28.3499L40.1111 25.3499C40.1936 25.0992 40.1736 24.8262 40.0556 24.5901C39.9376 24.3541 39.7311 24.1743 39.4811 24.0899C39.3564 24.0475 39.2245 24.0302 39.093 24.039C38.9616 24.0478 38.8332 24.0824 38.7152 24.141C38.5972 24.1995 38.4919 24.2808 38.4054 24.3801C38.3189 24.4795 38.2529 24.595 38.2111 24.7199L37.8511 25.8199C37.1921 24.6001 36.3062 23.5174 35.2411 22.6299L36.0911 19.2399C36.1561 18.9826 36.1162 18.7101 35.9803 18.4823C35.8443 18.2544 35.6234 18.0899 35.3661 18.0249C35.1089 17.9599 34.8363 17.9998 34.6085 18.1358C34.3806 18.2717 34.2161 18.4926 34.1511 18.7499L33.4911 21.4099C32.7632 21.009 31.9914 20.6936 31.1911 20.4699C31.2845 19.5012 31.7423 18.604 32.4718 17.9599C33.2013 17.3157 34.1483 16.9726 35.1211 16.9999H35.1611ZM32.1011 32.3799L33.1011 29.3799C33.1836 29.1292 33.1637 28.8562 33.0457 28.6201C32.9276 28.3841 32.7211 28.2043 32.4711 28.1199C32.3464 28.0775 32.2145 28.0602 32.0831 28.069C31.9516 28.0778 31.8232 28.1124 31.7052 28.171C31.5872 28.2295 31.4819 28.3108 31.3954 28.4101C31.3089 28.5095 31.2429 28.625 31.2011 28.7499L30.5611 30.7499C29.9728 30.145 29.2989 29.6295 28.5611 29.2199C28.3237 29.102 28.0492 29.0832 27.798 29.1676C27.5467 29.2519 27.3392 29.4326 27.2211 29.6699C27.1032 29.9073 27.0844 30.1818 27.1688 30.433C27.2532 30.6843 27.4338 30.8918 27.6711 31.0099C29.0017 31.9212 30.1456 33.0787 31.0411 34.4199L28.8011 35.1699C28.5754 35.2441 28.3834 35.3962 28.2597 35.5991C28.1359 35.8019 28.0885 36.0422 28.1258 36.2769C28.1631 36.5116 28.2827 36.7253 28.4633 36.8798C28.6438 37.0342 28.8735 37.1194 29.1111 37.1199C29.2173 37.1343 29.3249 37.1343 29.4311 37.1199L32.1411 36.2099C32.5857 36.9725 32.9 37.8039 33.0711 38.6699C31.5892 39.6529 29.8494 40.1748 28.0711 40.1699C27.7369 40.1703 27.4029 40.1502 27.0711 40.1099C26.3112 39.8385 25.6351 39.374 25.1091 38.7621C24.5831 38.1502 24.2254 37.4119 24.0711 36.6199C24.0078 36.0918 24.1167 35.5574 24.3816 35.0961C24.6464 34.6349 25.0531 34.2715 25.5411 34.0599C25.7146 33.962 25.8549 33.8145 25.9439 33.6363C26.033 33.4581 26.0668 33.2574 26.0411 33.0599C26.0078 32.8577 25.9133 32.6707 25.7702 32.524C25.6271 32.3773 25.4424 32.2782 25.2411 32.2399C24.6581 32.0556 24.1428 31.7025 23.7606 31.2252C23.3784 30.7479 23.1463 30.1679 23.0938 29.5587C23.0414 28.9495 23.1709 28.3384 23.4659 27.8028C23.7609 27.2672 24.2082 26.8312 24.7511 26.5499C25.3592 26.2665 26.0351 26.1611 26.7005 26.2461C27.366 26.331 27.9938 26.6028 28.5111 27.0299C28.6517 27.1249 28.8142 27.1825 28.9833 27.1974C29.1524 27.2122 29.3224 27.1838 29.4775 27.1148C29.6325 27.0457 29.7674 26.9384 29.8695 26.8028C29.9716 26.6673 30.0376 26.508 30.0611 26.3399C30.0611 26.1099 30.1911 25.4099 31.3911 25.2399C32.3299 25.1342 33.2793 25.3015 34.1254 25.7219C34.9715 26.1423 35.6783 26.7978 36.1611 27.6099C36.2313 27.7603 36.3379 27.8909 36.4711 27.9899C37.0714 29.5455 37.2247 31.2379 36.9137 32.876C36.6027 34.5141 35.8398 36.0326 34.7111 37.2599C34.1162 35.4924 33.2196 33.8414 32.0611 32.3799H32.1011ZM19.1611 31.0399C19.1596 29.4941 19.5563 27.974 20.3129 26.626C21.0695 25.2781 22.1605 24.1477 23.4808 23.3438C24.8012 22.54 26.3063 22.0897 27.8512 22.0365C29.396 21.9833 30.9286 22.3288 32.3011 23.0399C31.9353 23.0044 31.5669 23.0044 31.2011 23.0399C30.692 23.0872 30.1995 23.2462 29.7588 23.5054C29.318 23.7647 28.9399 24.1179 28.6511 24.5399C27.9159 24.1697 27.1043 23.9769 26.2811 23.9769C25.458 23.9769 24.6463 24.1697 23.9111 24.5399C23.1125 24.9463 22.4378 25.5598 21.9575 26.3162C21.4773 27.0727 21.2091 27.9443 21.1811 28.8399C21.1587 29.6803 21.3365 30.514 21.7 31.2721C22.0634 32.0302 22.6019 32.691 23.2711 33.1999C22.8456 33.6586 22.5271 34.2059 22.3387 34.8025C22.1502 35.3991 22.0964 36.03 22.1811 36.6499C22.2387 37.1067 22.3564 37.5539 22.5311 37.9799C21.4827 37.1492 20.6327 36.0953 20.0428 34.8948C19.4529 33.6943 19.1381 32.3774 19.1211 31.0399H19.1611ZM13.8211 25.5999C14.2655 24.5474 15.0055 23.6462 15.9515 23.0055C16.8974 22.3648 18.0088 22.012 19.1511 21.9899C19.2824 21.986 19.4117 21.9562 19.5315 21.9023C19.6513 21.8484 19.7594 21.7714 19.8494 21.6758C19.9395 21.5802 20.0099 21.4677 20.0565 21.3449C20.1031 21.222 20.1251 21.0912 20.1211 20.9599C20.1172 20.8286 20.0874 20.6993 20.0335 20.5795C19.9796 20.4597 19.9026 20.3517 19.807 20.2616C19.7114 20.1715 19.5989 20.1012 19.4761 20.0545C19.3532 20.0079 19.2224 19.986 19.0911 19.9899C18.7996 19.9962 18.5089 20.023 18.2211 20.0699C18.3967 19.2504 18.7821 18.4906 19.3395 17.8648C19.897 17.2391 20.6073 16.7687 21.4011 16.4999C22.8289 15.9861 24.3692 15.8682 25.8586 16.1587C27.348 16.4492 28.731 17.1372 29.8611 18.1499C29.56 18.7607 29.3446 19.4102 29.2211 20.0799C28.8811 20.0799 28.5211 20.0299 28.1611 20.0299C25.2437 20.0299 22.4458 21.1888 20.3829 23.2517C18.32 25.3146 17.1611 28.1125 17.1611 31.0299C17.1609 31.3841 17.1809 31.738 17.2211 32.0899C16.3205 32.2546 15.461 32.5943 14.6911 33.0899C13.8874 32.035 13.3793 30.7849 13.2194 29.4684C13.0594 28.1519 13.2534 26.8166 13.7811 25.5999H13.8211ZM19.0811 41.8099C19.0132 41.5732 18.8604 41.3698 18.6519 41.2388C18.4434 41.1078 18.1938 41.0583 17.9511 41.0999C16.9076 41.2685 15.8387 41.044 14.9511 40.4699C14.6354 40.1645 14.3924 39.7921 14.2401 39.3801C14.0878 38.9681 14.03 38.5272 14.0711 38.0899C14.0282 37.1043 14.3653 36.1397 15.0129 35.3954C15.6604 34.6511 16.569 34.1838 17.5511 34.0899C17.7901 34.9101 18.1258 35.699 18.5511 36.4399L15.9011 37.0999C15.644 37.1637 15.4227 37.327 15.2858 37.5539C15.1489 37.7807 15.1077 38.0527 15.1711 38.3099C15.2259 38.5318 15.355 38.7282 15.5369 38.8665C15.7189 39.0048 15.9427 39.0766 16.1711 39.0699H16.4211L19.8011 38.2199C20.6844 39.2641 21.7564 40.1326 22.9611 40.7799L21.8611 41.1499C21.6354 41.2241 21.4434 41.3762 21.3197 41.5791C21.1959 41.7819 21.1485 42.0222 21.1858 42.2569C21.2231 42.4916 21.3427 42.7053 21.5233 42.8598C21.7038 43.0142 21.9335 43.0994 22.1711 43.0999C22.2773 43.1143 22.3849 43.1143 22.4911 43.0999L25.4911 42.0999C25.6196 42.0517 25.7382 41.9806 25.8411 41.8899C26.1211 41.9499 26.4111 41.9999 26.7011 42.0399L26.9111 42.1099C26.9972 42.1237 27.085 42.1237 27.1711 42.1099C27.2508 42.1195 27.3314 42.1195 27.4111 42.1099C27.6611 42.1099 27.9111 42.1099 28.1711 42.1099C29.131 42.1086 30.0864 41.9774 31.0111 41.7199C30.28 42.5233 29.382 43.1571 28.3801 43.5769C27.3782 43.9966 26.2966 44.1922 25.2111 44.1499C19.9511 44.0799 19.1111 41.8099 19.0811 41.8099ZM37.4311 40.2699C36.3002 41.3682 34.7971 42.0001 33.2211 42.0399C33.5636 41.5525 33.8457 41.0253 34.0611 40.4699C34.0658 40.42 34.0658 40.3698 34.0611 40.3199C34.3011 40.1599 34.5411 39.9899 34.7711 39.8099C35.7643 39.0472 36.6199 38.1206 37.3011 37.0699C37.3477 37.0741 37.3946 37.0741 37.4411 37.0699C38.0089 36.8417 38.549 36.5498 39.0511 36.1999C39.0159 37.6919 38.4403 39.1204 37.4311 40.2199V40.2699Z" fill="#A2DD83"/>
<rect x="0.5" y="0.5" width="64" height="64" rx="32" stroke="#2DB872"/>
</svg>
