<svg width="65" height="65" viewBox="0 0 65 65" fill="none" xmlns="http://www.w3.org/2000/svg">
<path fill-rule="evenodd" clip-rule="evenodd" d="M34.3762 55.8696C22.4828 55.8696 12.8688 46.2557 12.8688 34.3621C12.8688 22.4685 22.4828 12.8548 34.3762 12.8548C46.2698 12.8548 55.8838 22.4685 55.8838 34.3621C55.8838 46.2557 46.2698 55.8696 34.3762 55.8696Z" fill="#6FCF97"/>
<path d="M16.1584 42.6281C16.1584 42.6281 6.56632 33.7813 8.78836 26.2319C11.0104 18.6825 17.2349 23.996 17.2349 23.996C17.2349 23.996 12.2387 8.34515 24.4945 8.46936C36.7502 8.59358 30.1393 22.2709 30.1393 22.2709C30.1393 22.2709 38.3098 11.3539 44.3686 18.0338C50.4275 24.7137 45.0587 38.3634 38.4202 42.1312C31.7817 45.899 22.8797 49.4046 16.1584 42.6281Z" stroke="#219653" stroke-width="2" stroke-linecap="round" stroke-linejoin="round"/>
<path d="M24.8263 26.1215L28.0006 39.2329L34.1423 31.6697" stroke="#219653" stroke-width="2" stroke-linecap="round" stroke-linejoin="round"/>
<path d="M27.02 35.1614L20.3539 30.1376" stroke="#219653" stroke-width="2" stroke-linecap="round" stroke-linejoin="round"/>
<rect x="0.5" y="0.5" width="64" height="64" rx="32" stroke="#2DB872"/>
</svg>
