<svg width="65" height="65" viewBox="0 0 65 65" fill="none" xmlns="http://www.w3.org/2000/svg">
<path fill-rule="evenodd" clip-rule="evenodd" d="M34.5805 55.8382C22.6872 55.8382 13.0731 46.2243 13.0731 34.3307C13.0731 22.4372 22.6872 12.8234 34.5805 12.8234C46.4741 12.8234 56.0882 22.4372 56.0882 34.3307C56.0882 46.2243 46.4741 55.8382 34.5805 55.8382Z" fill="#56CCF2"/>
<g clip-path="url(#clip0_33_21)">
<path d="M34.5738 10.1112L22.1966 12.277C21.37 12.4235 20.6376 12.9257 20.2191 13.658L10.2065 31.0259C9.42177 32.386 9.88212 34.1333 11.2527 34.918L27.9405 44.554C29.3006 45.3387 31.0479 44.8783 31.8326 43.5077L41.8557 26.1503C42.2742 25.418 42.3579 24.5391 42.0649 23.7439L37.7439 11.9422C37.2731 10.6448 35.9339 9.87059 34.5738 10.1112Z" stroke="#2F80ED" stroke-width="3" stroke-miterlimit="10" stroke-linecap="round"/>
<path d="M29.0914 28.0231C31.7148 28.0231 33.8414 25.8965 33.8414 23.2731C33.8414 20.6498 31.7148 18.5231 29.0914 18.5231C26.4681 18.5231 24.3414 20.6498 24.3414 23.2731C24.3414 25.8965 26.4681 28.0231 29.0914 28.0231Z" stroke="#2F80ED" stroke-width="3" stroke-miterlimit="10" stroke-linecap="round"/>
<path d="M18.3254 32.4174L26.549 37.1674" stroke="#2F80ED" stroke-width="3" stroke-miterlimit="10" stroke-linecap="round"/>
</g>
<rect x="0.5" y="0.5" width="64" height="64" rx="32" stroke="#56CCF2"/>
<defs>
<clipPath id="clip0_33_21">
<rect width="39.8414" height="38" fill="white" transform="translate(8.25 8.5)"/>
</clipPath>
</defs>
</svg>
