<svg width="65" height="65" viewBox="0 0 65 65" fill="none" xmlns="http://www.w3.org/2000/svg">
<path fill-rule="evenodd" clip-rule="evenodd" d="M32.8304 54.3382C20.9371 54.3382 11.3233 44.7243 11.3233 32.8307C11.3233 20.9372 20.9371 11.3234 32.8304 11.3234C44.7243 11.3234 54.3381 20.9372 54.3381 32.8307C54.3381 44.7243 44.7243 54.3382 32.8304 54.3382Z" fill="#2DB872"/>
<path d="M34.7808 40.81C34.5333 40.8105 34.2871 40.7734 34.0508 40.7C33.1658 40.4668 32.2343 40.4766 31.3544 40.7282C30.4745 40.9799 29.6787 41.4641 29.0508 42.13C28.7988 42.4107 28.4904 42.6351 28.1458 42.7885C27.8011 42.9418 27.428 43.0207 27.0508 43.02C26.6923 43.0226 26.3367 42.9546 26.0045 42.8198C25.6723 42.6851 25.3699 42.4862 25.1145 42.2345C24.8591 41.9829 24.6559 41.6834 24.5162 41.3532C24.3766 41.023 24.3034 40.6685 24.3008 40.31C24.2933 40.1734 24.2933 40.0365 24.3008 39.9C24.4038 39.2496 24.3773 38.5853 24.2228 37.9452C24.0684 37.3051 23.789 36.7018 23.4008 36.17C22.6121 35.0988 21.4341 34.3806 20.1208 34.17C19.7391 34.1128 19.3903 33.9212 19.1373 33.6297C18.8843 33.3382 18.7437 32.9659 18.7408 32.58C18.7397 32.1732 18.8976 31.782 19.1808 31.49C19.6673 30.964 20.0351 30.3395 20.2593 29.659C20.4835 28.9785 20.5587 28.2577 20.48 27.5455C20.4013 26.8333 20.1705 26.1464 19.8031 25.5312C19.4357 24.916 18.9404 24.387 18.3508 23.98C18.1344 23.8949 17.8951 23.8879 17.674 23.9602C17.453 24.0325 17.2641 24.1796 17.1398 24.3761C17.0155 24.5726 16.9636 24.8063 16.993 25.037C17.0224 25.2676 17.1312 25.4809 17.3008 25.64C17.6538 25.8841 17.9502 26.2011 18.1702 26.5696C18.3902 26.9381 18.5286 27.3495 18.576 27.7761C18.6234 28.2026 18.5787 28.6343 18.4449 29.0421C18.3112 29.4499 18.0916 29.8243 17.8008 30.14C17.1659 30.7984 16.808 31.6753 16.8008 32.59C16.8071 33.4537 17.1204 34.287 17.6846 34.941C18.2489 35.5951 19.0273 36.0271 19.8808 36.16C20.2711 36.2197 20.6458 36.3559 20.9834 36.5608C21.321 36.7656 21.6148 37.0351 21.848 37.3538C22.0812 37.6725 22.2492 38.034 22.3423 38.4178C22.4355 38.8015 22.4519 39.1998 22.3908 39.59C22.3469 39.8275 22.3235 40.0684 22.3208 40.31C22.3208 41.5644 22.8191 42.7675 23.7062 43.6546C24.5932 44.5416 25.7963 45.04 27.0508 45.04C27.7025 45.0417 28.3474 44.9063 28.9434 44.6427C29.5395 44.3792 30.0735 43.9932 30.5108 43.51C30.8838 43.1052 31.361 42.8108 31.8901 42.6592C32.4193 42.5075 32.9799 42.5043 33.5108 42.65C33.9205 42.7678 34.3445 42.8284 34.7708 42.83C35.036 42.83 35.2903 42.7246 35.4779 42.5371C35.6654 42.3495 35.7708 42.0952 35.7708 41.83C35.7708 41.5647 35.6654 41.3104 35.4779 41.1229C35.2903 40.9353 35.036 40.83 34.7708 40.83L34.7808 40.81Z" fill="#A2DD83"/>
<path d="M40.4908 43.3C41.7833 41.8811 42.4969 40.0293 42.4908 38.11C42.4154 37.0472 42.1478 36.007 41.7008 35.04C42.5968 34.3626 43.3309 33.4943 43.8498 32.498C44.3687 31.5018 44.6594 30.4025 44.7008 29.28C44.7008 27.2316 43.8877 25.2669 42.4402 23.8176C40.9927 22.3682 39.0291 21.5526 36.9808 21.55C36.1981 21.5796 35.4265 21.7454 34.7008 22.04C34.2728 20.6323 33.4068 19.3979 32.2287 18.5166C31.0506 17.6353 29.622 17.153 28.1508 17.14C26.9314 17.0334 25.7127 17.3513 24.7008 18.04C23.9919 17.3515 23.1475 16.8181 22.2212 16.4738C21.295 16.1295 20.3072 15.9817 19.3207 16.04C17.9016 16.0131 16.5125 16.4508 15.3651 17.2864C14.2177 18.122 13.3749 19.3097 12.9649 20.6686C12.555 22.0276 12.6004 23.4832 13.0943 24.814C13.5882 26.1447 14.5035 27.2775 15.7008 28.04C14.527 29.2698 13.8502 30.8906 13.8008 32.59C13.8672 34.1877 14.4955 35.7107 15.5748 36.8907C16.6541 38.0706 18.1152 38.8317 19.7008 39.04C19.5385 39.4536 19.4049 39.878 19.3008 40.31C19.3008 41.3251 19.5007 42.3303 19.8892 43.2681C20.2776 44.2059 20.847 45.0581 21.5648 45.7759C22.2826 46.4937 23.1348 47.0631 24.0726 47.4515C25.0105 47.84 26.0157 48.04 27.0308 48.04C29.2708 48.04 31.2708 46.57 32.6808 45.04C33.277 45.5031 33.9976 45.7781 34.7508 45.83C36.2301 45.829 37.6778 45.402 38.9208 44.6C39.6608 45.65 40.3008 46.6 40.8108 47.53C40.8976 47.6844 41.0239 47.813 41.1768 47.9027C41.3296 47.9923 41.5036 48.0397 41.6808 48.04C41.8566 48.0407 42.0296 47.995 42.1822 47.9075C42.3347 47.82 42.4615 47.6938 42.5498 47.5417C42.638 47.3895 42.6846 47.2168 42.6847 47.041C42.6849 46.8651 42.6387 46.6923 42.5508 46.54C42.0208 45.55 41.3008 44.46 40.4908 43.3ZM33.9107 43.43C33.5633 43.1739 33.1424 43.0371 32.7108 43.04C32.4348 43.0395 32.1618 43.0961 31.9088 43.2062C31.6558 43.3164 31.4284 43.4776 31.2408 43.68C30.4308 44.56 28.8008 46.04 27.0608 46.04C25.5623 46.0458 24.1209 45.4653 23.0447 44.4227C21.9684 43.3801 21.3425 41.9579 21.3008 40.46L21.3608 40.33C21.504 40.0112 21.6049 39.675 21.6607 39.33C21.7005 39.0699 21.6886 38.8045 21.6256 38.5491C21.5626 38.2937 21.4499 38.0532 21.2938 37.8414C21.1378 37.6296 20.9415 37.4507 20.7161 37.3149C20.4908 37.179 20.2409 37.089 19.9808 37.05C18.8714 36.9065 17.8461 36.3824 17.0801 35.5672C16.3142 34.752 15.8549 33.6961 15.7808 32.58C15.8394 31.3836 16.3256 30.2481 17.1508 29.38C17.3497 29.1731 17.5018 28.9258 17.5967 28.6549C17.6917 28.384 17.7271 28.0958 17.7008 27.81C17.67 27.5246 17.5782 27.2491 17.4315 27.0024C17.2848 26.7556 17.0867 26.5434 16.8507 26.38C16.0131 25.8594 15.3692 25.0786 15.0176 24.1572C14.6661 23.2358 14.6262 22.2245 14.9042 21.2783C15.1822 20.332 15.7626 19.503 16.5567 18.9181C17.3508 18.3332 18.3147 18.0248 19.3008 18.04C19.9983 17.9892 20.6989 18.078 21.3617 18.3012C22.0245 18.5244 22.6361 18.8775 23.1607 19.34C23.3485 19.5595 23.5816 19.7357 23.844 19.8566C24.1064 19.9774 24.3919 20.04 24.6808 20.04C25.0931 20.0381 25.4947 19.9089 25.8308 19.67C26.5092 19.2235 27.3253 19.0354 28.1307 19.14C29.1656 19.1561 30.1692 19.4968 31 20.114C31.8307 20.7313 32.4466 21.5938 32.7607 22.58C32.8348 22.8423 32.9617 23.0867 33.1337 23.2983C33.3057 23.5098 33.519 23.6839 33.7607 23.81C34.0475 23.9608 34.3667 24.0398 34.6908 24.04C34.9087 24.0384 35.1248 24.0012 35.3308 23.93H35.3807C35.8866 23.7209 36.4242 23.5992 36.9708 23.57C38.1535 23.5168 39.3218 23.8475 40.3012 24.5126C41.2807 25.1777 42.0189 26.1416 42.4058 27.2606C42.7927 28.3795 42.8074 29.5936 42.4479 30.7216C42.0883 31.8497 41.3738 32.8312 40.4107 33.52C40.0852 33.7919 39.8545 34.1603 39.752 34.5719C39.6496 34.9836 39.6806 35.4171 39.8408 35.81C40.1774 36.5439 40.3935 37.3272 40.4808 38.13C40.486 39.3982 40.0711 40.6324 39.3008 41.64C37.9608 39.86 36.4407 37.98 34.8207 36.1L38.6307 28.48C38.7392 28.2438 38.7515 27.9747 38.665 27.7296C38.5785 27.4846 38.3999 27.2828 38.1672 27.1671C37.9345 27.0514 37.6659 27.0309 37.4183 27.1098C37.1707 27.1887 36.9636 27.3609 36.8408 27.59L33.4008 34.46C31.8608 32.72 30.2708 31.01 28.7208 29.46L29.7208 23.24C29.7418 23.1086 29.7367 22.9745 29.7059 22.8451C29.675 22.7157 29.619 22.5937 29.541 22.486C29.463 22.3783 29.3645 22.287 29.2513 22.2173C29.138 22.1476 29.0121 22.101 28.8807 22.08C28.7494 22.0589 28.6153 22.064 28.4859 22.0948C28.3565 22.1257 28.2345 22.1817 28.1268 22.2597C28.0191 22.3377 27.9278 22.4362 27.8581 22.5495C27.7884 22.6627 27.7418 22.7886 27.7208 22.92L26.9608 27.71C25.8208 26.58 24.7208 25.55 23.7108 24.64V22.04C23.7108 21.7747 23.6054 21.5204 23.4179 21.3328C23.2303 21.1453 22.976 21.04 22.7108 21.04C22.4455 21.04 22.1912 21.1453 22.0036 21.3328C21.8161 21.5204 21.7108 21.7747 21.7108 22.04V22.9C20.9204 22.2313 20.0663 21.6418 19.1607 21.14C18.9234 21.0206 18.6483 21.0004 18.3961 21.0839C18.1439 21.1674 17.9351 21.3476 17.8158 21.585C17.6964 21.8223 17.6763 22.0974 17.7597 22.3496C17.8432 22.6019 18.0234 22.8106 18.2608 22.93C19.6037 23.7188 20.8547 24.6545 21.9908 25.72L22.0508 25.78C23.6608 27.2 25.5408 29.02 27.4908 31.04H21.7108C21.4455 31.04 21.1912 31.1453 21.0036 31.3329C20.8161 31.5204 20.7108 31.7747 20.7108 32.04C20.7108 32.3052 20.8161 32.5595 21.0036 32.7471C21.1912 32.9346 21.4455 33.04 21.7108 33.04H29.3008H29.4107C30.4107 34.13 31.4107 35.25 32.4107 36.39L26.4608 38.1C26.2066 38.1722 25.9913 38.3421 25.862 38.5726C25.7327 38.8031 25.6999 39.0754 25.7708 39.33C25.8312 39.5463 25.9628 39.7359 26.1442 39.8683C26.3256 40.0008 26.5463 40.0683 26.7708 40.06C26.8639 40.069 26.9576 40.069 27.0508 40.06L33.8908 38.06C35.3208 39.75 36.6608 41.43 37.8908 43C36.99 43.5596 35.9512 43.8574 34.8908 43.86C34.5299 43.8124 34.1901 43.6633 33.9107 43.43Z" fill="#A2DD83"/>
<rect x="0.5" y="0.5" width="64" height="64" rx="32" stroke="#2DB872"/>
</svg>
