<svg width="65" height="65" viewBox="0 0 65 65" fill="none" xmlns="http://www.w3.org/2000/svg">
<path fill-rule="evenodd" clip-rule="evenodd" d="M32.8304 54.3382C20.9371 54.3382 11.3233 44.7243 11.3233 32.8307C11.3233 20.9372 20.9371 11.3234 32.8304 11.3234C44.7243 11.3234 54.3381 20.9372 54.3381 32.8307C54.3381 44.7243 44.7243 54.3382 32.8304 54.3382Z" fill="#2D9CDB"/>
<path d="M43.0258 28.5279C43.0258 23.5879 41.1458 21.6279 40.0258 20.9079C40.1284 19.5223 39.7232 18.1466 38.8858 17.0379C38.3964 16.4948 37.7904 16.0696 37.1132 15.7942C36.436 15.5188 35.7053 15.4004 34.9758 15.4479C34.2211 15.4172 33.4679 15.5377 32.7604 15.8021C32.0529 16.0666 31.4053 16.4697 30.8558 16.9879C29.4557 15.7682 27.7524 14.9488 25.9256 14.6162C24.0987 14.2835 22.2159 14.45 20.4758 15.0979C19.2149 15.5411 18.1131 16.3471 17.3089 17.4147C16.5047 18.4822 16.0339 19.7636 15.9558 21.0979C14.1039 21.8959 12.6217 23.3638 11.8058 25.2079C11.1112 26.7841 10.8587 28.5197 11.0754 30.2285C11.2921 31.9373 11.9698 33.5549 13.0358 34.9079C12.2902 35.9534 11.9073 37.2143 11.9458 38.4979C11.8983 39.2274 12.0167 39.9582 12.2921 40.6353C12.5675 41.3125 12.9927 41.9186 13.5358 42.4079C14.6474 43.2396 16.0208 43.6442 17.4058 43.5479C18.1258 44.6579 20.0858 46.5479 25.0258 46.5479C27.3121 46.6041 29.5419 45.8336 31.3058 44.3779C31.7239 44.4288 32.1446 44.4555 32.5658 44.4579C33.6936 44.4936 34.817 44.3013 35.8686 43.8923C36.9202 43.4833 37.8785 42.8662 38.6858 42.0779C39.5809 41.1179 40.2424 39.9642 40.6188 38.7067C40.9952 37.4492 41.0763 36.1219 40.8558 34.8279C42.3144 33.0579 43.085 30.8207 43.0258 28.5279ZM35.0258 17.4479C35.4603 17.412 35.8974 17.4712 36.3067 17.6215C36.7161 17.7717 37.0877 18.0094 37.3958 18.3179C37.9797 19.2014 38.2083 20.273 38.0358 21.3179C37.9959 21.5565 38.0438 21.8014 38.1707 22.0073C38.2976 22.2133 38.4948 22.3662 38.7258 22.4379C38.8158 22.4379 41.0658 23.3079 41.0658 28.5279C41.1072 29.6108 40.9121 30.6898 40.4942 31.6897C40.0763 32.6896 39.4455 33.5865 38.6458 34.3179C38.8949 33.3951 39.0226 32.4437 39.0258 31.4879C39.0261 30.6974 38.9389 29.9092 38.7658 29.1379C38.8579 29.0399 38.9294 28.9242 38.9758 28.7979L39.9758 25.7979C40.0593 25.546 40.0394 25.2711 39.9203 25.0339C39.8012 24.7966 39.5927 24.6164 39.3408 24.5329C39.0888 24.4494 38.814 24.4693 38.5768 24.5884C38.3395 24.7075 38.1593 24.916 38.0758 25.1679L37.7058 26.2679C37.0446 25.0524 36.1629 23.9707 35.1058 23.0779L35.9558 19.6879C36.0192 19.4307 35.978 19.1588 35.8411 18.9319C35.7042 18.705 35.4829 18.5417 35.2258 18.4779C34.9699 18.4141 34.6992 18.454 34.4726 18.5888C34.246 18.7237 34.0818 18.9426 34.0158 19.1979L33.3058 21.9079C32.5786 21.5129 31.8108 21.1978 31.0158 20.9679C31.1022 19.9849 31.5618 19.0723 32.3001 18.4177C33.0385 17.763 33.9995 17.416 34.9858 17.4479H35.0258ZM28.0258 40.4479C26.1483 40.4458 24.3184 39.8566 22.7924 38.7628C21.2664 37.669 20.1208 36.1253 19.5158 34.3479C19.6706 34.2632 19.8003 34.139 19.8917 33.988C19.983 33.8369 20.0327 33.6644 20.0358 33.4879C20.0358 32.1879 20.5558 31.4879 21.0358 31.4879C21.301 31.4879 21.5553 31.3825 21.7429 31.195C21.9304 31.0075 22.0358 30.7531 22.0358 30.4879C22.0358 30.2227 21.9304 29.9683 21.7429 29.7808C21.5553 29.5933 21.301 29.4879 21.0358 29.4879C20.6652 29.4948 20.3001 29.5793 19.9643 29.7361C19.6284 29.8928 19.3291 30.1183 19.0858 30.3979C19.2946 28.696 19.9825 27.0885 21.0695 25.7625C22.1566 24.4364 23.5979 23.4465 25.2258 22.9079C25.0709 23.4305 24.9934 23.9729 24.9958 24.5179C24.9958 24.7831 25.1011 25.0375 25.2887 25.225C25.4762 25.4125 25.7306 25.5179 25.9958 25.5179C26.261 25.5179 26.5153 25.4125 26.7029 25.225C26.8904 25.0375 26.9958 24.7831 26.9958 24.5179C26.9958 23.2179 27.5158 22.5179 27.9958 22.5179C28.0523 22.5227 28.1092 22.5227 28.1658 22.5179C29.3477 22.5297 30.5157 22.7742 31.6031 23.2374C32.6905 23.7006 33.676 24.3735 34.5034 25.2176C35.3307 26.0617 35.9838 27.0604 36.4251 28.1569C36.8665 29.2533 37.0876 30.426 37.0758 31.6079C37.064 32.7898 36.8195 33.9578 36.3563 35.0452C35.893 36.1326 35.2202 37.1181 34.3761 37.9455C33.532 38.7729 32.5332 39.4259 31.4368 39.8673C30.3403 40.3086 29.1677 40.5297 27.9858 40.5179L28.0258 40.4479ZM13.6458 26.0479C14.0885 24.995 14.8284 24.0938 15.7749 23.4545C16.7215 22.8152 17.8337 22.4654 18.9758 22.4479C19.241 22.4479 19.4953 22.3425 19.6829 22.155C19.8704 21.9675 19.9758 21.7131 19.9758 21.4479C19.9758 21.1827 19.8704 20.9283 19.6829 20.7408C19.4953 20.5533 19.241 20.4479 18.9758 20.4479C18.6812 20.4592 18.3875 20.4859 18.0958 20.5279C18.2732 19.7092 18.6593 18.9503 19.2164 18.3248C19.7736 17.6993 20.483 17.2284 21.2758 16.9579C22.7039 16.4463 24.2436 16.3295 25.7326 16.6199C27.2216 16.9103 28.6046 17.5971 29.7358 18.6079C29.4376 19.2191 29.2256 19.8686 29.1058 20.5379C28.7558 20.5379 28.4058 20.4879 28.0458 20.4879C27.3035 20.4848 26.5629 20.5585 25.8358 20.7079L25.0058 18.2079C24.9707 18.0754 24.9088 17.9516 24.8239 17.8441C24.739 17.7366 24.6328 17.6476 24.5121 17.5828C24.3914 17.518 24.2587 17.4787 24.1221 17.4673C23.9856 17.4559 23.8481 17.4727 23.7183 17.5167C23.5886 17.5606 23.4692 17.6308 23.3677 17.7228C23.2661 17.8147 23.1846 17.9267 23.1281 18.0515C23.0716 18.1763 23.0413 18.3114 23.0392 18.4484C23.0371 18.5854 23.0632 18.7214 23.1158 18.8479L23.9258 21.2879C22.5513 21.8434 21.3034 22.671 20.2568 23.721C19.2103 24.771 18.3868 26.0216 17.8358 27.3979L15.3058 26.5779C15.0538 26.4944 14.779 26.5143 14.5418 26.6334C14.3045 26.7525 14.1243 26.9609 14.0408 27.2129C13.9572 27.4648 13.9772 27.7397 14.0963 27.9769C14.2154 28.2141 14.4238 28.3944 14.6758 28.4779L17.1858 29.3179C17.0441 30.0325 16.9737 30.7594 16.9758 31.4879C16.9758 31.8479 16.9758 32.1979 16.9758 32.5479C16.0786 32.7138 15.2226 33.0535 14.4558 33.5479C13.6635 32.4839 13.1706 31.2272 13.0282 29.9084C12.8857 28.5895 13.099 27.2565 13.6458 26.0479ZM18.9458 42.2079C18.8779 41.9712 18.7251 41.7678 18.5165 41.6368C18.308 41.5058 18.0585 41.4563 17.8158 41.4979C16.7722 41.6674 15.703 41.4429 14.8158 40.8679C14.4983 40.5638 14.2541 40.1916 14.1017 39.7793C13.9492 39.367 13.8925 38.9253 13.9358 38.4879C13.8877 37.5026 14.2217 36.5368 14.8681 35.7916C15.5146 35.0464 16.4236 34.5794 17.4058 34.4879C17.651 35.3027 17.9864 36.0876 18.4058 36.8279L15.7658 37.4879C15.5086 37.5517 15.2873 37.715 15.1504 37.9419C15.0136 38.1687 14.9723 38.4407 15.0358 38.6979C15.0905 38.9198 15.2196 39.1162 15.4016 39.2545C15.5835 39.3928 15.8073 39.4645 16.0358 39.4579H16.2758L19.6558 38.6079C20.5408 39.6502 21.6125 40.5184 22.8158 41.1679L21.7158 41.5379C21.4658 41.6223 21.2593 41.8021 21.1413 42.0381C21.0232 42.2742 21.0033 42.5473 21.0858 42.7979C21.1536 43.0068 21.2882 43.1875 21.469 43.3122C21.6497 43.4369 21.8665 43.4986 22.0858 43.4879C22.1909 43.4859 22.2953 43.469 22.3958 43.4379L25.3958 42.4379C25.5256 42.3927 25.6448 42.3212 25.7458 42.2279C26.5138 42.4005 27.2986 42.4876 28.0858 42.4879C29.0416 42.4847 29.993 42.357 30.9158 42.1079C30.1844 42.9076 29.2875 43.5384 28.2876 43.9563C27.2877 44.3743 26.2087 44.5693 25.1258 44.5279C19.8158 44.5279 18.9658 42.2779 18.9458 42.2079ZM37.3058 40.6679C36.1749 41.7662 34.6717 42.3981 33.0958 42.4379C33.4292 41.9449 33.7107 41.4188 33.9358 40.8679C33.9407 40.818 33.9407 40.7678 33.9358 40.7179C35.2452 39.8719 36.3598 38.7573 37.2058 37.4479C37.2557 37.4528 37.3059 37.4528 37.3558 37.4479C37.9187 37.216 38.4551 36.9244 38.9558 36.5779C38.9342 38.0991 38.3458 39.5575 37.3058 40.6679Z" fill="#56CCF2"/>
<path d="M30.9961 28.5278C30.9961 27.2278 31.5161 26.5278 31.9961 26.5278C32.2613 26.5278 32.5157 26.4225 32.7032 26.235C32.8907 26.0474 32.9961 25.793 32.9961 25.5278C32.9961 25.2626 32.8907 25.0083 32.7032 24.8207C32.5157 24.6332 32.2613 24.5278 31.9961 24.5278C30.5061 24.5278 28.9961 25.8978 28.9961 28.5278C28.9961 28.793 29.1015 29.0474 29.289 29.235C29.4765 29.4225 29.7309 29.5278 29.9961 29.5278C30.2613 29.5278 30.5157 29.4225 30.7032 29.235C30.8907 29.0474 30.9961 28.793 30.9961 28.5278Z" fill="#56CCF2"/>
<path d="M24.9961 31.5278C24.9961 30.2278 25.5161 29.5278 25.9961 29.5278C26.2613 29.5278 26.5157 29.4225 26.7032 29.235C26.8907 29.0474 26.9961 28.793 26.9961 28.5278C26.9961 28.2626 26.8907 28.0083 26.7032 27.8207C26.5157 27.6332 26.2613 27.5278 25.9961 27.5278C24.5061 27.5278 22.9961 28.8978 22.9961 31.5278C22.9961 31.793 23.1015 32.0474 23.289 32.235C23.4765 32.4225 23.7309 32.5278 23.9961 32.5278C24.2613 32.5278 24.5157 32.4225 24.7032 32.235C24.8907 32.0474 24.9961 31.793 24.9961 31.5278Z" fill="#56CCF2"/>
<path d="M26.9961 33.5278C25.5061 33.5278 23.9961 34.8978 23.9961 37.5278C23.9961 37.793 24.1015 38.0474 24.289 38.235C24.4765 38.4225 24.7309 38.5278 24.9961 38.5278C25.2613 38.5278 25.5157 38.4225 25.7032 38.235C25.8907 38.0474 25.9961 37.793 25.9961 37.5278C25.9961 36.2278 26.5161 35.5278 26.9961 35.5278C27.2613 35.5278 27.5157 35.4225 27.7032 35.235C27.8907 35.0474 27.9961 34.793 27.9961 34.5278C27.9961 34.2626 27.8907 34.0083 27.7032 33.8207C27.5157 33.6332 27.2613 33.5278 26.9961 33.5278Z" fill="#56CCF2"/>
<path d="M32.9961 31.5278C31.5061 31.5278 29.9961 32.8978 29.9961 35.5278C29.9961 35.793 30.1015 36.0474 30.289 36.235C30.4765 36.4225 30.7309 36.5278 30.9961 36.5278C31.2613 36.5278 31.5157 36.4225 31.7032 36.235C31.8907 36.0474 31.9961 35.793 31.9961 35.5278C31.9961 34.2278 32.5161 33.5278 32.9961 33.5278C33.2613 33.5278 33.5157 33.4225 33.7032 33.235C33.8907 33.0474 33.9961 32.793 33.9961 32.5278C33.9961 32.2626 33.8907 32.0083 33.7032 31.8207C33.5157 31.6332 33.2613 31.5278 32.9961 31.5278Z" fill="#56CCF2"/>
<rect x="0.5" y="0.5" width="64" height="64" rx="32" stroke="#2D9CDB"/>
</svg>
