<svg width="60" height="60" viewBox="0 0 60 60" fill="none" xmlns="http://www.w3.org/2000/svg">
<path fill-rule="evenodd" clip-rule="evenodd" d="M29.6917 54.6639H31.1658C42.4691 54.2533 51.3593 44.6859 51.1574 33.1517C50.9605 21.6217 41.7371 12.381 30.4287 12.3768C19.1153 12.3768 9.89698 21.6217 9.69506 33.1517C9.49313 44.6859 18.3934 54.2533 29.6917 54.6639Z" fill="#A2DD83"/>
<path fill-rule="evenodd" clip-rule="evenodd" d="M34.5434 20.0772C33.0756 18.4283 31.0407 17.52 28.8115 17.52C25.677 17.52 23.6924 19.3743 22.5802 20.9298C22.2915 21.3333 22.0453 21.7381 21.8392 22.1189C21.6332 21.7381 21.3878 21.3333 21.0991 20.9298C19.9861 19.3743 18.0015 17.52 14.867 17.52C12.6386 17.52 10.6029 18.4283 9.13516 20.0772C7.73585 21.6503 6.96497 23.7568 6.96497 26.0091C6.96497 28.4608 7.93168 30.741 10.0067 33.1852C11.8607 35.3698 14.5287 37.6214 17.6185 40.2287C18.7692 41.2002 19.9601 42.205 21.2273 43.3031L21.265 43.3365C21.4295 43.4789 21.6347 43.5502 21.8392 43.5502C22.0445 43.5502 22.2491 43.4789 22.4135 43.3365L22.4512 43.3031C23.7192 42.205 24.9093 41.2002 26.0609 40.2287C29.1498 37.6214 31.8179 35.3698 33.6726 33.1852C35.7468 30.741 36.7136 28.4608 36.7136 26.0091C36.7136 23.7568 35.9427 21.6503 34.5434 20.0772ZM24.9297 38.9148C23.9379 39.7522 22.9161 40.6142 21.8392 41.5414C20.7624 40.6142 19.7414 39.7522 18.7488 38.9145C12.7023 33.8116 8.70806 30.4406 8.70806 26.0091C8.70806 24.1772 9.32472 22.4762 10.4432 21.2185C11.5751 19.9469 13.1459 19.2465 14.867 19.2465C17.2566 19.2465 18.8015 20.7047 19.6769 21.9279C20.4612 23.0249 20.871 24.1309 21.011 24.5553C21.1274 24.9106 21.4617 25.151 21.8392 25.151C22.2168 25.151 22.5511 24.9106 22.6683 24.5553C22.8075 24.1309 23.2174 23.0249 24.0024 21.9279C24.877 20.7047 26.4219 19.2465 28.8115 19.2465C30.5326 19.2465 32.1041 19.9469 33.2353 21.2185C34.3546 22.4762 34.9705 24.1772 34.9705 26.0091C34.9705 30.4406 30.9762 33.8116 24.9297 38.9148Z" fill="#2DB872"/>
<path d="M34.5434 20.0772L34.9792 19.6895L34.9791 19.6893L34.5434 20.0772ZM22.5802 20.9298L23.0546 21.2692L23.0547 21.2691L22.5802 20.9298ZM21.8392 22.1189L21.3262 22.3965L21.8392 23.3446L22.3523 22.3966L21.8392 22.1189ZM21.0991 20.9298L21.5735 20.5904L21.5735 20.5903L21.0991 20.9298ZM9.13516 20.0772L8.69945 19.6893L8.6993 19.6895L9.13516 20.0772ZM10.0067 33.1852L10.4514 32.8077L10.4514 32.8077L10.0067 33.1852ZM17.6185 40.2287L17.9948 39.783L17.9947 39.7829L17.6185 40.2287ZM21.2273 43.3031L21.6136 42.866L21.6093 42.8623L21.2273 43.3031ZM21.265 43.3365L20.8787 43.7736L20.8832 43.7775L21.265 43.3365ZM22.4135 43.3365L22.7954 43.7775L22.7998 43.7736L22.4135 43.3365ZM22.4512 43.3031L22.0693 42.8622L22.0649 42.866L22.4512 43.3031ZM26.0609 40.2287L26.437 40.6745L26.4371 40.6744L26.0609 40.2287ZM33.6726 33.1852L34.1173 33.5627L34.1174 33.5626L33.6726 33.1852ZM24.9297 38.9148L24.5535 38.4691L24.5534 38.4691L24.9297 38.9148ZM21.8392 41.5414L21.4586 41.9834L21.8392 42.3112L22.2198 41.9835L21.8392 41.5414ZM18.7488 38.9145L18.3726 39.3603L18.3726 39.3603L18.7488 38.9145ZM10.4432 21.2185L10.0075 20.8306L10.0073 20.8308L10.4432 21.2185ZM19.6769 21.9279L20.1515 21.5887L20.1513 21.5884L19.6769 21.9279ZM21.011 24.5553L21.5653 24.3737L21.5649 24.3725L21.011 24.5553ZM22.6683 24.5553L23.2223 24.738L23.2226 24.7371L22.6683 24.5553ZM24.0024 21.9279L24.4767 22.2674L24.4769 22.2672L24.0024 21.9279ZM33.2353 21.2185L32.7994 21.6062L32.7995 21.6062L33.2353 21.2185ZM34.9791 19.6893C33.3995 17.9148 31.2054 16.9367 28.8115 16.9367V18.1033C30.876 18.1033 32.7517 18.9418 34.1077 20.465L34.9791 19.6893ZM28.8115 16.9367C25.4136 16.9367 23.2749 18.9554 22.1057 20.5905L23.0547 21.2691C24.11 19.7932 25.9404 18.1033 28.8115 18.1033V16.9367ZM22.1058 20.5904C21.8012 21.0162 21.5424 21.4419 21.3262 21.8413L22.3523 22.3966C22.5483 22.0343 22.7819 21.6505 23.0546 21.2692L22.1058 20.5904ZM22.3523 21.8413C22.1364 21.4424 21.8784 21.0166 21.5735 20.5904L20.6246 21.2692C20.8971 21.6501 21.1299 22.0338 21.3262 22.3965L22.3523 21.8413ZM21.5735 20.5903C20.4036 18.9554 18.265 16.9367 14.867 16.9367V18.1033C17.7381 18.1033 19.5685 19.7932 20.6247 21.2692L21.5735 20.5903ZM14.867 16.9367C12.4739 16.9367 10.2791 17.9148 8.69945 19.6893L9.57086 20.465C10.9268 18.9419 12.8033 18.1033 14.867 18.1033V16.9367ZM8.6993 19.6895C7.19806 21.3772 6.38163 23.6246 6.38163 26.0091H7.5483C7.5483 23.8889 8.27363 21.9234 9.57101 20.4649L8.6993 19.6895ZM6.38163 26.0091C6.38163 28.6369 7.42549 31.0461 9.56199 33.5627L10.4514 32.8077C8.43787 30.4359 7.5483 28.2846 7.5483 26.0091H6.38163ZM9.56193 33.5626C11.4543 35.7924 14.1655 38.0781 17.2423 40.6745L17.9947 39.7829C14.892 37.1646 12.2671 34.9471 10.4514 32.8077L9.56193 33.5626ZM17.2422 40.6744C18.3933 41.6463 19.5814 42.6487 20.8453 43.744L21.6093 42.8623C20.3388 41.7613 19.1451 40.7541 17.9948 39.783L17.2422 40.6744ZM20.841 43.7402L20.8787 43.7736L21.6513 42.8994L21.6136 42.866L20.841 43.7402ZM20.8832 43.7775C21.1575 44.015 21.4997 44.1336 21.8392 44.1336V42.9669C21.7698 42.9669 21.7014 42.9427 21.6469 42.8955L20.8832 43.7775ZM21.8392 44.1336C22.1799 44.1336 22.5212 44.0148 22.7953 43.7775L22.0316 42.8955C21.9769 42.9429 21.9092 42.9669 21.8392 42.9669V44.1336ZM22.7998 43.7736L22.8375 43.7402L22.0649 42.866L22.0272 42.8994L22.7998 43.7736ZM22.8331 43.7441C24.0979 42.6487 25.2853 41.6462 26.437 40.6745L25.6847 39.7828C24.5333 40.7542 23.3405 41.7613 22.0693 42.8622L22.8331 43.7441ZM26.4371 40.6744C29.513 38.0781 32.2242 35.7924 34.1173 33.5627L33.2279 32.8077C31.4115 34.9471 28.7865 37.1646 25.6846 39.7829L26.4371 40.6744ZM34.1174 33.5626C36.253 31.0461 37.2969 28.6369 37.2969 26.0091H36.1302C36.1302 28.2846 35.2406 30.436 33.2278 32.8077L34.1174 33.5626ZM37.2969 26.0091C37.2969 23.6246 36.4805 21.3772 34.9792 19.6895L34.1075 20.4649C35.4049 21.9234 36.1302 23.8889 36.1302 26.0091H37.2969ZM24.5534 38.4691C23.5619 39.3061 22.538 40.17 21.4586 41.0993L22.2198 41.9835C23.2942 41.0584 24.3138 40.1982 25.306 39.3606L24.5534 38.4691ZM22.2199 41.0993C21.1406 40.17 20.1175 39.3062 19.125 38.4687L18.3726 39.3603C19.3654 40.1981 20.3843 41.0584 21.4586 41.9834L22.2199 41.0993ZM19.125 38.4687C16.089 35.9064 13.6202 33.8208 11.9028 31.8291C10.1947 29.8482 9.2914 28.0288 9.2914 26.0091H8.12473C8.12473 28.421 9.21857 30.5028 11.0192 32.591C12.8105 34.6683 15.3621 36.8196 18.3726 39.3603L19.125 38.4687ZM9.2914 26.0091C9.2914 24.3066 9.86418 22.7474 10.8791 21.6061L10.0073 20.8308C8.78527 22.205 8.12473 24.0478 8.12473 26.0091H9.2914ZM10.8789 21.6063C11.8988 20.4606 13.3104 19.8298 14.867 19.8298V18.6631C12.9815 18.6631 11.2515 19.4332 10.0075 20.8306L10.8789 21.6063ZM14.867 19.8298C16.9878 19.8298 18.3793 21.1171 19.2026 22.2674L20.1513 21.5884C19.2236 20.2922 17.5254 18.6631 14.867 18.6631V19.8298ZM19.2024 22.2672C19.9391 23.2976 20.3265 24.3425 20.457 24.738L21.5649 24.3725C21.4154 23.9193 20.9833 22.7522 20.1515 21.5887L19.2024 22.2672ZM20.4566 24.7369C20.6526 25.3351 21.2129 25.7343 21.8392 25.7343V24.5677C21.7104 24.5677 21.6021 24.4861 21.5653 24.3737L20.4566 24.7369ZM21.8392 25.7343C22.4658 25.7343 23.0254 25.3351 23.2223 24.738L22.1143 24.3726C22.0769 24.4861 21.9679 24.5677 21.8392 24.5677V25.7343ZM23.2226 24.7371C23.352 24.3426 23.7394 23.2978 24.4767 22.2674L23.528 21.5885C22.6953 22.752 22.263 23.9193 22.114 24.3734L23.2226 24.7371ZM24.4769 22.2672C25.2992 21.1171 26.6907 19.8298 28.8115 19.8298V18.6631C26.1531 18.6631 24.4549 20.2922 23.5278 21.5886L24.4769 22.2672ZM28.8115 19.8298C30.3682 19.8298 31.7805 20.4607 32.7994 21.6062L33.6711 20.8307C32.4278 19.4332 30.6969 18.6631 28.8115 18.6631V19.8298ZM32.7995 21.6062C33.815 22.7474 34.3871 24.3065 34.3871 26.0091H35.5538C35.5538 24.0479 34.8941 22.2051 33.671 20.8307L32.7995 21.6062ZM34.3871 26.0091C34.3871 28.0288 33.4838 29.8482 31.7757 31.8291C30.0583 33.8209 27.5895 35.9066 24.5535 38.4691L25.306 39.3606C28.3164 36.8198 30.868 34.6684 32.6593 32.591C34.4599 30.5028 35.5538 28.421 35.5538 26.0091H34.3871Z" fill="#2DB872"/>
<rect x="0.5" y="0.5" width="59" height="59" rx="29.5" stroke="#2DB872"/>
</svg>
