<svg width="65" height="65" viewBox="0 0 65 65" fill="none" xmlns="http://www.w3.org/2000/svg">
<path fill-rule="evenodd" clip-rule="evenodd" d="M32.8304 54.3382C20.9371 54.3382 11.3233 44.7243 11.3233 32.8307C11.3233 20.9372 20.9371 11.3234 32.8304 11.3234C44.7243 11.3234 54.3381 20.9372 54.3381 32.8307C54.3381 44.7243 44.7243 54.3382 32.8304 54.3382Z" fill="#2D9CDB"/>
<path d="M18.0488 37.8981C18.0488 39.2242 18.5756 40.496 19.5133 41.4337C20.451 42.3714 21.7227 42.8981 23.0488 42.8981C24.3749 42.8981 25.6467 42.3714 26.5844 41.4337C27.522 40.496 28.0488 39.2242 28.0488 37.8981C28.0488 37.6329 27.9435 37.3786 27.7559 37.191C27.5684 37.0035 27.314 36.8981 27.0488 36.8981C26.7836 36.8981 26.5293 37.0035 26.3417 37.191C26.1542 37.3786 26.0488 37.6329 26.0488 37.8981C26.0488 38.6938 25.7328 39.4568 25.1701 40.0195C24.6075 40.5821 23.8445 40.8981 23.0488 40.8981C22.2532 40.8981 21.4901 40.5821 20.9275 40.0195C20.3649 39.4568 20.0488 38.6938 20.0488 37.8981C20.0488 37.6329 19.9435 37.3786 19.7559 37.191C19.5684 37.0035 19.314 36.8981 19.0488 36.8981C18.7836 36.8981 18.5293 37.0035 18.3417 37.191C18.1542 37.3786 18.0488 37.6329 18.0488 37.8981Z" fill="#56CCF2"/>
<path d="M44.6787 23.5083C44.4454 22.768 44.1088 22.0644 43.6787 21.4183C42.9458 20.334 41.9581 19.4461 40.8022 18.8324C39.6462 18.2187 38.3574 17.898 37.0487 17.8983C35.1948 17.8933 33.3976 18.5372 31.9687 19.7183C31.3763 20.2081 30.8577 20.7806 30.4287 21.4183C30.07 21.9507 29.7778 22.525 29.5587 23.1283C25.0687 21.7183 21.7387 18.5683 18.8087 15.2383C18.6873 15.1017 18.5309 15.0009 18.3563 14.9469C18.1817 14.8929 17.9957 14.8878 17.8184 14.9321C17.6411 14.9765 17.4793 15.0685 17.3507 15.1983C17.2221 15.3281 17.1314 15.4906 17.0887 15.6683C15.5087 22.3883 15.7787 27.5283 17.8987 31.7883C16.3187 33.1118 15.3027 34.9878 15.0575 37.0342C14.8124 39.0807 15.3566 41.1436 16.5792 42.8028C17.8019 44.462 19.6111 45.5927 21.6383 45.9647C23.6655 46.3366 25.7583 45.9218 27.4903 44.8047C29.2224 43.6875 30.4634 41.9522 30.9607 39.952C31.458 37.9518 31.1741 35.8373 30.1669 34.0392C29.1596 32.241 27.5048 30.8944 25.5394 30.2737C23.5741 29.653 21.446 29.8048 19.5887 30.6983C17.9387 27.2783 17.5887 23.2783 18.5887 18.0083C21.4089 21.2441 25.0298 23.6821 29.0887 25.0783C29.0887 25.3483 29.0887 25.6183 29.0887 25.8883C29.0887 28.01 29.9315 30.0449 31.4318 31.5452C32.9321 33.0455 34.9669 33.8883 37.0887 33.8883C39.2104 33.8883 41.2452 33.0455 42.7455 31.5452C44.2458 30.0449 45.0887 28.01 45.0887 25.8883C45.0716 25.079 44.9334 24.2767 44.6787 23.5083ZM29.0487 37.8983C29.0487 39.085 28.6968 40.245 28.0375 41.2317C27.3782 42.2184 26.4411 42.9875 25.3448 43.4416C24.2484 43.8957 23.042 44.0145 21.8781 43.783C20.7142 43.5515 19.6451 42.9801 18.806 42.1409C17.9669 41.3018 17.3955 40.2327 17.164 39.0689C16.9325 37.905 17.0513 36.6986 17.5054 35.6022C17.9595 34.5059 18.7286 33.5688 19.7153 32.9095C20.7019 32.2502 21.862 31.8983 23.0487 31.8983C24.64 31.8983 26.1661 32.5305 27.2913 33.6557C28.4165 34.7809 29.0487 36.307 29.0487 37.8983ZM37.0487 31.8983C35.4574 31.8983 33.9313 31.2662 32.806 30.1409C31.6808 29.0157 31.0487 27.4896 31.0487 25.8983C31.0487 25.7883 31.0487 25.6783 31.0487 25.5683C31.3787 25.6383 31.7187 25.6883 32.0487 25.7383C32.043 25.7915 32.043 25.8451 32.0487 25.8983C32.0487 27.2244 32.5755 28.4962 33.5131 29.4338C34.4508 30.3715 35.7226 30.8983 37.0487 30.8983C38.3748 30.8983 39.6465 30.3715 40.5842 29.4338C41.5219 28.4962 42.0487 27.2244 42.0487 25.8983C42.0487 25.6331 41.9433 25.3787 41.7558 25.1912C41.5682 25.0037 41.3139 24.8983 41.0487 24.8983C40.7835 24.8983 40.5291 25.0037 40.3416 25.1912C40.154 25.3787 40.0487 25.6331 40.0487 25.8983C40.0487 26.694 39.7326 27.457 39.17 28.0196C38.6074 28.5822 37.8443 28.8983 37.0487 28.8983C36.253 28.8983 35.49 28.5822 34.9274 28.0196C34.3647 27.457 34.0487 26.694 34.0487 25.8983C34.3139 25.8983 34.5682 25.793 34.7558 25.6054C34.9433 25.4179 35.0487 25.1635 35.0487 24.8983C35.0487 24.6331 34.9433 24.3787 34.7558 24.1912C34.5682 24.0037 34.3139 23.8983 34.0487 23.8983C33.1796 23.8687 32.314 23.7751 31.4587 23.6183C31.8689 22.6096 32.5458 21.7315 33.417 21.0781C34.2882 20.4248 35.3208 20.0209 36.4041 19.9097C37.4873 19.7985 38.5804 19.9842 39.5662 20.4469C40.5519 20.9096 41.3932 21.6319 41.9998 22.5362C42.6063 23.4406 42.9553 24.493 43.0094 25.5806C43.0634 26.6682 42.8204 27.75 42.3065 28.7101C41.7925 29.6701 41.027 30.4722 40.092 31.0303C39.1569 31.5885 38.0876 31.8816 36.9987 31.8783L37.0487 31.8983Z" fill="#56CCF2"/>
<rect x="0.5" y="0.5" width="64" height="64" rx="32" stroke="#2D9CDB"/>
</svg>
