<svg width="65" height="65" viewBox="0 0 65 65" fill="none" xmlns="http://www.w3.org/2000/svg">
<path fill-rule="evenodd" clip-rule="evenodd" d="M35.3305 55.3382C23.4372 55.3382 13.8231 45.7243 13.8231 33.8307C13.8231 21.9372 23.4372 12.3234 35.3305 12.3234C47.2241 12.3234 56.8382 21.9372 56.8382 33.8307C56.8382 45.7243 47.2241 55.3382 35.3305 55.3382Z" fill="#A2DD83"/>
<g clip-path="url(#clip0_17_173)">
<path d="M34.5945 11.5094C33.8465 11.5538 33.1186 11.7685 32.4662 12.1372C32.0343 10.0189 29.9569 8.5123 27.5553 8.65211C26.8182 8.68716 26.0988 8.88932 25.4513 9.24329C24.8038 9.59725 24.2453 10.0938 23.8179 10.6953C22.9699 10.1924 22.0254 9.87416 21.046 9.76137C20.0666 9.64858 19.0744 9.7438 18.1343 10.0408C14.636 11.0989 12.5407 14.4612 13.4681 17.5346C13.5199 17.7049 13.5803 17.8725 13.649 18.0367L13.6258 18.0305C12.3496 18.1062 11.1555 18.6851 10.3055 19.6401C9.45559 20.5951 9.0192 21.8484 9.09214 23.1248C9.14333 23.9858 9.42363 24.8175 9.90406 25.5339C10.3845 26.2502 11.0476 26.8252 11.8248 27.1993C11.0233 28.1059 10.6103 29.2911 10.6747 30.4994C10.8186 32.9517 12.922 34.8905 15.5934 35.0534C17.7027 37.7793 19.0812 40.9986 19.5984 44.4063C19.6481 44.7686 19.8035 45.1083 20.0451 45.3829C20.2867 45.6576 20.6037 45.855 20.9568 45.9506C21.1464 46.0025 21.3433 46.023 21.5396 46.011L29.9223 45.5209C30.4156 45.4943 30.8851 45.3005 31.2535 44.9714C31.6219 44.6424 31.8673 44.1977 31.9492 43.7105C32.2573 41.8862 33.0987 37.4365 34.2814 34.8612C34.6995 34.9487 35.1274 34.9799 35.5538 34.954C36.8665 34.8775 38.095 34.283 38.9696 33.301C39.8441 32.3191 40.2931 31.0302 40.2178 29.7175C40.1901 29.2447 40.0942 28.7785 39.933 28.3333C40.7349 27.7527 41.3787 26.9806 41.8055 26.0873C42.2322 25.194 42.4284 24.208 42.3761 23.2194C42.3237 22.2307 42.0246 21.271 41.5059 20.4277C40.9872 19.5844 40.2655 18.8845 39.4068 18.392C39.7216 17.6814 39.8614 16.9057 39.8144 16.13C39.7758 15.4836 39.6101 14.8511 39.3267 14.2688C39.0434 13.6866 38.6479 13.1659 38.1631 12.7367C37.6782 12.3075 37.1134 11.9782 36.501 11.7676C35.8887 11.557 35.2408 11.4693 34.5945 11.5094ZM29.8488 44.5123L21.4652 45.0057C21.256 45.0163 21.0506 44.9479 20.8895 44.8141C20.7284 44.6804 20.6234 44.491 20.5953 44.2835C20.0052 39.8721 17.8148 36.393 16.8231 35.0143C17.3536 34.9368 17.8708 34.7868 18.3604 34.5684C20.0984 38.9685 22.5747 39.2775 22.6825 39.2852L22.7597 39.2881C22.8362 39.2832 22.9106 39.2613 22.9776 39.2241C23.0446 39.1869 23.1024 39.1352 23.147 39.0729C24.3642 37.4009 25.0271 35.3895 25.0426 33.3214C25.4175 33.0346 25.741 32.6862 25.9992 32.2911L26.089 32.379C26.3084 34.7698 27.3849 37.0007 29.1201 38.6601C29.22 38.746 29.3494 38.7896 29.4809 38.7817C29.5797 38.7765 29.6748 38.7429 29.755 38.6849C31.272 37.5603 32.2113 35.7349 32.7529 34.2957C32.9228 34.3934 33.0979 34.4817 33.2774 34.5603C32.1143 37.155 31.3051 41.273 30.9164 43.5437C30.8743 43.8021 30.7458 44.0386 30.5519 44.2145C30.3579 44.3905 30.1101 44.4955 29.8488 44.5123ZM19.2412 34.046C19.5361 33.8392 19.8087 33.6022 20.0545 33.3388C20.8337 33.9297 21.7981 34.2234 22.7744 34.1668C23.1959 34.1432 23.611 34.0535 24.0047 33.901C23.8878 35.4384 23.3726 36.9189 22.5098 38.1968C21.8809 37.9645 20.4187 37.1119 19.2412 34.046ZM27.2272 33.1447C27.8577 33.4313 28.5511 33.5518 29.2413 33.4948C29.9316 33.4378 30.5958 33.2052 31.1708 32.8191C31.3851 33.1303 31.6344 33.4159 31.9138 33.6703C31.4693 34.9194 30.7063 36.5367 29.4976 37.5952C28.3453 36.3491 27.5596 34.809 27.2272 33.1447ZM38.7754 16.1847C38.8215 16.9405 38.6433 17.693 38.2631 18.3478C38.2631 18.3478 38.2587 18.3643 38.256 18.3743C38.2534 18.3842 38.2516 18.3908 38.2498 18.3974C38.2398 18.423 38.2327 18.4496 38.2285 18.4768C38.2176 18.5069 38.2093 18.5378 38.2037 18.5694C38.2025 18.604 38.2038 18.6388 38.2078 18.6732C38.2109 18.7038 38.2171 18.7339 38.2262 18.7632C38.2363 18.7959 38.2506 18.8271 38.2687 18.8561C38.2827 18.8835 38.2995 18.9094 38.3189 18.9334C38.337 18.9556 38.3579 18.9755 38.381 18.9926C38.402 19.0158 38.4266 19.0356 38.4539 19.0511L38.4738 19.0564L38.5002 19.0635C39.3095 19.4335 40.0031 20.0164 40.5069 20.7498C41.0108 21.4833 41.3059 22.3399 41.3609 23.228C41.4159 24.1162 41.2286 25.0026 40.8191 25.7926C40.4096 26.5826 39.7931 27.2466 39.0357 27.7136C39.0135 27.7262 38.9936 27.7424 38.9767 27.7616C38.9507 27.78 38.9278 27.8026 38.9092 27.8285C38.8873 27.8556 38.8687 27.8851 38.8537 27.9165C38.8444 27.9447 38.8368 27.9734 38.8307 28.0024C38.8184 28.0357 38.8092 28.07 38.8032 28.105C38.7987 28.1341 38.7979 28.1636 38.8009 28.193C38.8048 28.2208 38.8105 28.2483 38.8178 28.2755C38.8244 28.3045 38.8334 28.333 38.8446 28.3606C39.0521 28.8071 39.1719 29.2892 39.1977 29.7809C39.2504 30.6812 38.9926 31.5723 38.4674 32.3055C37.9422 33.0387 37.1814 33.5696 36.3121 33.8095C35.4427 34.0494 34.5173 33.9838 33.6905 33.6237C32.8636 33.2636 32.1853 32.6308 31.7687 31.8309C31.7595 31.8137 31.7483 31.7976 31.7355 31.783C31.7237 31.7617 31.7102 31.7415 31.695 31.7225L31.6516 31.6861C31.6289 31.6657 31.6038 31.6483 31.5769 31.6342L31.5019 31.5964L31.3763 31.5627L31.2903 31.5396C31.2591 31.542 31.2282 31.5467 31.1979 31.5539L31.1145 31.5741L31.0626 31.5956C31.0433 31.6062 31.0255 31.6193 31.0096 31.6346C30.9902 31.6431 30.9726 31.6552 30.9576 31.6702C30.4017 32.1709 29.6828 32.4523 28.9347 32.4619C28.1867 32.4714 27.4608 32.2086 26.8923 31.7223C26.7313 31.584 26.5878 31.4265 26.4651 31.2534C26.5684 30.9244 26.631 30.5841 26.6515 30.24C26.6582 30.1045 26.6108 29.972 26.5198 29.8715C26.4287 29.771 26.3015 29.7107 26.166 29.7041C26.0305 29.6974 25.898 29.7448 25.7975 29.8358C25.697 29.9269 25.6368 30.0541 25.6301 30.1896C25.6151 30.5183 25.545 30.8422 25.4229 31.1478C25.1658 31.8086 24.6902 32.3615 24.0753 32.7146C23.4604 33.0677 22.7431 33.1997 22.0428 33.0886C21.3424 32.9776 20.7012 32.6302 20.2257 32.1042C19.7501 31.5782 19.4689 30.9053 19.4288 30.1974C19.4217 30.0971 19.3854 30.0012 19.3243 29.9214C19.2632 29.8416 19.18 29.7815 19.0851 29.7485C18.9902 29.7155 18.8876 29.7111 18.7902 29.7359C18.6928 29.7606 18.6048 29.8133 18.5371 29.8876C18.4921 29.9375 18.4576 29.996 18.4357 30.0595C18.4138 30.1231 18.4049 30.1904 18.4096 30.2575C18.4614 31.1133 18.7786 31.9317 19.317 32.5989C19.0376 32.9033 18.7144 33.1643 18.3581 33.3734C17.7081 33.7538 16.9772 33.9747 16.2253 34.0176C16.1356 34.0219 16.0425 34.0254 15.9404 34.0228C13.664 34.026 11.7923 32.4399 11.6763 30.3992C11.6546 29.8627 11.7503 29.328 11.9565 28.8323C12.1628 28.3366 12.4748 27.8919 12.8706 27.5292C13.662 27.7033 14.4845 27.674 15.2615 27.444C16.0384 27.2139 16.7444 26.7906 17.3133 26.2137C17.4065 26.1164 17.4589 25.9872 17.4598 25.8524C17.4595 25.7854 17.446 25.7192 17.4199 25.6574C17.3939 25.5957 17.3558 25.5397 17.308 25.4928C17.2114 25.4021 17.0834 25.3523 16.9509 25.3538C16.8184 25.3553 16.6916 25.4079 16.597 25.5008C15.9363 26.163 15.0542 26.5578 14.1202 26.6093C13.6999 26.6341 13.2785 26.5883 12.8734 26.4737C12.1102 26.2603 11.4329 25.8137 10.9361 25.1963C10.4393 24.5789 10.1479 23.8216 10.1027 23.0305C10.0437 22.0252 10.385 21.0374 11.0521 20.283C11.7191 19.5286 12.6577 19.0689 13.6626 19.0044C13.9154 18.9908 14.1688 19.0018 14.4195 19.0371L14.4558 19.0468L14.5198 19.0463C14.5424 19.0457 14.5648 19.0422 14.5864 19.0358L14.6314 19.0265C14.6844 19.0106 14.7349 18.9871 14.7812 18.9568L14.804 18.9381L14.8623 18.8793C14.8828 18.8586 14.9018 18.8365 14.919 18.813C14.9344 18.7856 14.948 18.7573 14.9595 18.7281C14.9639 18.7116 14.971 18.6851 14.9799 18.6521L14.9914 18.6091C14.9932 18.5831 14.993 18.557 14.991 18.531C14.9918 18.4959 14.9893 18.4609 14.9837 18.4262C14.9765 18.3959 14.9653 18.3666 14.9502 18.3393C14.9406 18.3108 14.9277 18.2836 14.9117 18.2581C14.6963 17.929 14.5297 17.5704 14.4173 17.1934C13.6535 14.6601 15.4403 11.8674 18.4027 10.9705C19.2771 10.6819 20.2074 10.6049 21.1173 10.7459C22.0272 10.8868 22.8907 11.2415 23.6368 11.781L23.6831 11.7934L23.7261 11.8049C23.7484 11.8141 23.7717 11.8204 23.7956 11.8236L23.8981 11.851C23.9312 11.8574 23.9648 11.8605 23.9984 11.8602C24.0297 11.8592 24.0607 11.8545 24.0909 11.846C24.1245 11.8406 24.1571 11.8302 24.1877 11.8152L24.2674 11.7692C24.2911 11.7532 24.3136 11.7356 24.3347 11.7164C24.3531 11.7001 24.3698 11.682 24.3846 11.6624C24.3908 11.6488 24.3947 11.6343 24.3961 11.6194C24.4014 11.6055 24.4053 11.5911 24.4076 11.5764C24.7227 10.9975 25.1831 10.5106 25.7434 10.1636C26.3037 9.81653 26.9447 9.62132 27.6034 9.59717C28.5744 9.53091 29.5356 9.82634 30.3017 10.4265C30.6548 10.6971 30.9462 11.0396 31.1565 11.4315C31.3668 11.8234 31.4913 12.2556 31.5217 12.6993C31.5257 12.7902 31.5267 12.879 31.5247 12.9659C31.5228 12.9932 31.5263 13.0207 31.5349 13.0467C31.5372 13.0815 31.5447 13.1158 31.5573 13.1483C31.5678 13.1764 31.5807 13.2036 31.5958 13.2296C31.608 13.2561 31.6241 13.2808 31.6436 13.3026C31.6518 13.3151 31.662 13.3262 31.6737 13.3355C31.6944 13.3554 31.7169 13.3733 31.741 13.389C31.7643 13.4078 31.7897 13.4241 31.8165 13.4376C31.8454 13.4486 31.8753 13.4566 31.9058 13.4615C31.9313 13.4717 31.958 13.4789 31.9852 13.4827L32.0282 13.4943L32.0579 13.5022C32.0795 13.5022 32.101 13.4983 32.1213 13.4909C32.1526 13.4854 32.1833 13.477 32.213 13.4658C32.2437 13.4553 32.2728 13.4404 32.2993 13.4216C32.3214 13.4113 32.3418 13.3976 32.3598 13.3811C32.9132 12.9163 33.5848 12.6144 34.2998 12.5091C35.0148 12.4039 35.745 12.4994 36.4089 12.785C37.0727 13.0705 37.6442 13.535 38.0594 14.1265C38.4746 14.718 38.7173 15.4132 38.7604 16.1346L38.7754 16.1847Z" fill="#2DB872" stroke="#2DB872" stroke-width="0.619458"/>
<path d="M32.1843 18.2289C31.4374 18.0811 30.6632 18.16 29.9615 18.4556C29.6374 17.8766 29.185 17.3795 28.6389 17.0025C27.936 16.5208 27.1062 16.2582 26.2542 16.2476C25.4021 16.237 24.5661 16.479 23.8514 16.9431C23.1368 17.4071 22.5755 18.0724 22.2386 18.855C21.9016 19.6376 21.8039 20.5025 21.9579 21.3406C21.98 21.4628 22.0461 21.5728 22.1435 21.6498C22.241 21.7268 22.3633 21.7656 22.4873 21.7589L22.5497 21.7508C22.6833 21.7253 22.8015 21.6482 22.8786 21.5362C22.9557 21.4241 22.9856 21.2862 22.9618 21.1523C22.8273 20.3042 23.0293 19.4372 23.5248 18.7359C24.0203 18.0346 24.7702 17.5545 25.6145 17.3981C26.4588 17.2416 27.3308 17.4211 28.0448 17.8982C28.7587 18.3754 29.258 19.1125 29.4364 19.9524C29.4473 20.0194 29.4716 20.0835 29.5079 20.1409C29.5443 20.1982 29.5918 20.2476 29.6477 20.2861C29.7036 20.3246 29.7667 20.3514 29.8333 20.3648C29.8998 20.3783 29.9684 20.3782 30.0349 20.3644C30.1012 20.3523 30.1645 20.3271 30.2211 20.2903C30.2776 20.2535 30.3263 20.2058 30.3643 20.1501C30.4023 20.0943 30.4289 20.0316 30.4425 19.9655C30.4561 19.8994 30.4565 19.8313 30.4436 19.7651C30.4222 19.6376 30.3932 19.5115 30.3569 19.3874C30.8733 19.1679 31.4436 19.1084 31.9941 19.2165C32.7192 19.3609 33.3572 19.7875 33.7678 20.4024C34.1783 21.0172 34.3278 21.77 34.1833 22.495C34.0389 23.2201 33.6123 23.8581 32.9974 24.2687C32.3826 24.6792 31.6298 24.8287 30.9048 24.6842C30.7727 24.6589 30.6359 24.6867 30.5242 24.7616C30.4125 24.8366 30.335 24.9526 30.3084 25.0845C30.2957 25.1489 30.296 25.2153 30.3092 25.2797C30.3223 25.344 30.3482 25.4051 30.3851 25.4595C30.455 25.5641 30.5611 25.6393 30.6831 25.6704L30.7161 25.6793C31.2097 25.7856 31.7196 25.7926 32.2159 25.7C32.7123 25.6073 33.1852 25.4169 33.6073 25.1397C34.0293 24.8625 34.392 24.5042 34.6742 24.0855C34.9565 23.6668 35.1526 23.1962 35.2512 22.701C35.3498 22.2058 35.3489 21.6959 35.2486 21.201C35.1483 20.7062 34.9505 20.2362 34.6668 19.8185C34.3831 19.4008 34.0192 19.0437 33.5962 18.768C33.1732 18.4923 32.6995 18.3035 32.2029 18.2126L32.1843 18.2289Z" fill="#2DB872" stroke="#2DB872" stroke-width="0.619458"/>
</g>
<rect x="0.5" y="0.5" width="64" height="64" rx="32" stroke="#2DB872"/>
<defs>
<clipPath id="clip0_17_173">
<rect x="7.5" y="9" width="38" height="38" fill="white"/>
</clipPath>
</defs>
</svg>
