<svg width="65" height="65" viewBox="0 0 65 65" fill="none" xmlns="http://www.w3.org/2000/svg">
<path fill-rule="evenodd" clip-rule="evenodd" d="M32.8304 54.3382C20.9371 54.3382 11.3233 44.7243 11.3233 32.8307C11.3233 20.9372 20.9371 11.3234 32.8304 11.3234C44.7243 11.3234 54.3381 20.9372 54.3381 32.8307C54.3381 44.7243 44.7243 54.3382 32.8304 54.3382Z" fill="#2DB872"/>
<path d="M20.7676 23.1299C21.3199 23.1299 21.7676 22.6822 21.7676 22.1299C21.7676 21.5776 21.3199 21.1299 20.7676 21.1299C20.2153 21.1299 19.7676 21.5776 19.7676 22.1299C19.7676 22.6822 20.2153 23.1299 20.7676 23.1299Z" fill="#A2DD83"/>
<path d="M21.7676 28.1299C22.3199 28.1299 22.7676 27.6822 22.7676 27.1299C22.7676 26.5776 22.3199 26.1299 21.7676 26.1299C21.2153 26.1299 20.7676 26.5776 20.7676 27.1299C20.7676 27.6822 21.2153 28.1299 21.7676 28.1299Z" fill="#A2DD83"/>
<path d="M26.7676 29.1299C27.3199 29.1299 27.7676 28.6822 27.7676 28.1299C27.7676 27.5776 27.3199 27.1299 26.7676 27.1299C26.2153 27.1299 25.7676 27.5776 25.7676 28.1299C25.7676 28.6822 26.2153 29.1299 26.7676 29.1299Z" fill="#A2DD83"/>
<path d="M27.7676 34.1299C28.3199 34.1299 28.7676 33.6822 28.7676 33.1299C28.7676 32.5776 28.3199 32.1299 27.7676 32.1299C27.2153 32.1299 26.7676 32.5776 26.7676 33.1299C26.7676 33.6822 27.2153 34.1299 27.7676 34.1299Z" fill="#A2DD83"/>
<path d="M32.7676 34.1299C33.3199 34.1299 33.7676 33.6822 33.7676 33.1299C33.7676 32.5776 33.3199 32.1299 32.7676 32.1299C32.2153 32.1299 31.7676 32.5776 31.7676 33.1299C31.7676 33.6822 32.2153 34.1299 32.7676 34.1299Z" fill="#A2DD83"/>
<path d="M33.7676 38.1299C34.3199 38.1299 34.7676 37.6822 34.7676 37.1299C34.7676 36.5776 34.3199 36.1299 33.7676 36.1299C33.2153 36.1299 32.7676 36.5776 32.7676 37.1299C32.7676 37.6822 33.2153 38.1299 33.7676 38.1299Z" fill="#A2DD83"/>
<path d="M38.7676 39.1299C39.3199 39.1299 39.7676 38.6822 39.7676 38.1299C39.7676 37.5776 39.3199 37.1299 38.7676 37.1299C38.2153 37.1299 37.7676 37.5776 37.7676 38.1299C37.7676 38.6822 38.2153 39.1299 38.7676 39.1299Z" fill="#A2DD83"/>
<path d="M39.3776 33.4101L37.5276 31.7501C37.676 31.5768 37.7607 31.358 37.7676 31.1301C37.7676 30.8648 37.6623 30.6105 37.4747 30.4229C37.2872 30.2354 37.0329 30.1301 36.7676 30.1301C36.6329 30.1306 36.4997 30.1583 36.376 30.2116C36.2523 30.2648 36.1406 30.3425 36.0476 30.4401L33.7576 28.4401L31.6376 26.5901C31.7212 26.451 31.7661 26.2922 31.7676 26.1301C31.7676 25.8648 31.6623 25.6105 31.4747 25.4229C31.2872 25.2354 31.0329 25.1301 30.7676 25.1301C30.5706 25.1345 30.3792 25.1972 30.2176 25.3101C28.7376 23.9701 27.2776 22.5601 25.5376 20.7401C25.6803 20.5681 25.7613 20.3534 25.7676 20.1301C25.7643 19.9501 25.7125 19.7743 25.6176 19.6214C25.5228 19.4684 25.3884 19.3439 25.2286 19.2609C25.0689 19.178 24.8897 19.1397 24.71 19.1501C24.5303 19.1605 24.3567 19.2192 24.2076 19.3201C23.6776 18.7601 23.1376 18.16 22.5476 17.5101C19.3276 13.4101 15.6976 13.6401 13.5476 15.0901C11.0376 16.7901 9.59765 20.7101 11.8676 24.6201C12.7476 26.2601 13.6276 27.7701 14.5176 29.1701C14.2921 29.2209 14.0911 29.3483 13.9488 29.5306C13.8066 29.7129 13.732 29.9389 13.7376 30.1701C13.7376 30.4353 13.843 30.6896 14.0305 30.8772C14.2181 31.0647 14.4724 31.1701 14.7376 31.1701C14.8929 31.1662 15.0451 31.1262 15.1822 31.0533C15.3194 30.9804 15.4376 30.8766 15.5276 30.7501C16.8801 32.7689 18.4059 34.6661 20.0876 36.4201C19.9792 36.5128 19.8918 36.6278 19.8314 36.7571C19.771 36.8865 19.7391 37.0273 19.7376 37.1701C19.7376 37.4353 19.843 37.6896 20.0305 37.8772C20.2181 38.0647 20.4724 38.1701 20.7376 38.1701C20.8845 38.1664 21.0287 38.1305 21.16 38.0648C21.2914 37.9991 21.4066 37.9053 21.4976 37.7901C23.4748 39.6072 25.6288 41.222 27.9276 42.6101C27.8093 42.7733 27.7431 42.9685 27.7376 43.1701C27.7376 43.4353 27.843 43.6896 28.0305 43.8772C28.2181 44.0647 28.4724 44.1701 28.7376 44.1701C28.9216 44.1667 29.1012 44.1127 29.2564 44.0139C29.4117 43.9151 29.5367 43.7753 29.6176 43.6101C30.4576 44.0901 31.3276 44.5601 32.2376 45.0401C33.4481 45.7626 34.828 46.1524 36.2376 46.1701C37.3283 46.1642 38.4003 45.8868 39.357 45.3631C40.3137 44.8394 41.125 44.0857 41.7176 43.1701C43.3876 40.4801 43.3776 36.3201 39.3776 33.4101ZM40.0076 42.0301C38.8276 43.8801 36.2776 45.0301 33.2276 43.2401C23.8776 38.4401 18.9376 33.5 13.6476 23.65C11.9776 20.79 12.9576 17.9701 14.7176 16.7701C15.306 16.3677 16.0049 16.158 16.7176 16.1701C18.0176 16.1701 19.5576 16.88 21.0876 18.83C24.6246 22.8167 28.4445 26.5431 32.5176 29.9801C34.0976 31.3601 35.8976 32.9201 38.1476 34.9801C38.1694 35.0085 38.1966 35.0322 38.2276 35.0501C41.1676 37.1701 41.2576 40.0901 40.0076 42.0301Z" fill="#A2DD83"/>
<path d="M36.7673 41.1299C36.0744 41.1029 35.3942 40.9362 34.7673 40.6399L34.6273 40.5699C25.7873 36.0299 21.3373 31.5699 16.3073 22.2199L16.2473 22.1099C15.8942 21.5682 15.7324 20.9241 15.7873 20.2799C15.8072 20.1499 15.8012 20.0172 15.7697 19.8895C15.7382 19.7618 15.6819 19.6415 15.6038 19.5356C15.5258 19.4297 15.4277 19.3402 15.315 19.2723C15.2023 19.2044 15.0774 19.1594 14.9473 19.1399C14.8173 19.12 14.6846 19.126 14.5569 19.1575C14.4292 19.189 14.3089 19.2453 14.203 19.3234C14.0971 19.4014 14.0077 19.4995 13.9398 19.6122C13.8719 19.7249 13.8268 19.8498 13.8073 19.9799C13.6811 21.0736 13.9315 22.1777 14.5173 23.1099V23.1799C19.7573 32.9399 24.4173 37.5899 33.6473 42.3399H33.7473C34.6812 42.8029 35.7052 43.0555 36.7473 43.0799C37.0125 43.0799 37.2669 42.9745 37.4544 42.787C37.6419 42.5995 37.7473 42.3451 37.7473 42.0799C37.7473 41.8147 37.6419 41.5603 37.4544 41.3728C37.2669 41.1853 37.0125 41.0799 36.7473 41.0799L36.7673 41.1299Z" fill="#A2DD83"/>
<rect x="0.5" y="0.5" width="64" height="64" rx="32" stroke="#2DB872"/>
</svg>
