<svg width="65" height="65" viewBox="0 0 65 65" fill="none" xmlns="http://www.w3.org/2000/svg">
<path fill-rule="evenodd" clip-rule="evenodd" d="M33.0629 54.3382C21.1695 54.3382 11.5557 44.7243 11.5557 32.8307C11.5557 20.9372 21.1695 11.3234 33.0629 11.3234C44.9568 11.3234 54.5705 20.9372 54.5705 32.8307C54.5705 44.7243 44.9568 54.3382 33.0629 54.3382Z" fill="#2DB872"/>
<path d="M28.4418 17.2581C28.3247 17.1512 28.1838 17.0737 28.0308 17.032C27.8778 16.9902 27.717 16.9855 27.5618 17.0181L27.2618 17.0781C26.7635 17.026 26.2628 16.9993 25.7618 16.9981C24.252 16.9991 22.7524 17.2456 21.3218 17.7281L20.6618 15.7281C20.6026 15.5429 20.4906 15.379 20.3396 15.2565C20.1887 15.1339 20.0052 15.0581 19.8118 15.0381C19.6153 15.0115 19.4154 15.0438 19.2373 15.1311C19.0592 15.2183 18.9111 15.3565 18.8118 15.5281L17.0318 18.5681C15.8138 17.6002 14.3167 17.0498 12.7618 16.9981C12.4966 16.9981 12.2422 17.1035 12.0547 17.291C11.8672 17.4786 11.7618 17.7329 11.7618 17.9981C11.7618 18.2634 11.8672 18.5177 12.0547 18.7052C12.2422 18.8928 12.4966 18.9981 12.7618 18.9981C13.9566 19.0578 15.0971 19.5154 16.0018 20.2981L10.2118 24.1681C10.0345 24.2873 9.89996 24.4601 9.82798 24.6613C9.75601 24.8625 9.75035 25.0814 9.81185 25.286C9.87334 25.4906 9.99876 25.6701 10.1697 25.7983C10.3407 25.9265 10.5482 25.9965 10.7618 25.9981H12.7018C12.0813 27.5921 11.7626 29.2876 11.7618 30.9981C11.7618 31.2481 11.7618 31.4881 11.7618 31.7381C11.6961 31.9396 11.6961 32.1567 11.7618 32.3581C12.0137 34.9425 12.9794 37.4058 14.5508 39.4729C16.1223 41.54 18.2376 43.1292 20.6605 44.0632C23.0833 44.9971 25.7181 45.2388 28.2704 44.7612C30.8227 44.2837 33.1919 43.1058 35.1132 41.3592C37.0345 39.6125 38.4322 37.366 39.1501 34.8706C39.868 32.3752 39.8777 29.7294 39.1783 27.2288C38.4788 24.7282 37.0977 22.4714 35.1894 20.7106C33.281 18.9498 30.9205 17.7545 28.3718 17.2581H28.4418ZM25.7618 42.9981C22.8121 42.9969 19.9662 41.9093 17.7674 39.943C15.5687 37.9767 14.1712 35.2694 13.8418 32.3381L14.7918 31.4281C14.8786 33.5616 15.5845 35.6237 16.8233 37.3628C18.062 39.1019 19.7802 40.4429 21.7681 41.2222C23.7561 42.0014 25.9278 42.1853 28.0185 41.7513C30.1091 41.3173 32.0283 40.2843 33.5418 38.7781C33.6355 38.6852 33.7099 38.5746 33.7607 38.4527C33.8115 38.3309 33.8376 38.2002 33.8376 38.0681C33.8376 37.9361 33.8115 37.8054 33.7607 37.6836C33.7099 37.5617 33.6355 37.4511 33.5418 37.3581C33.3544 37.1719 33.101 37.0673 32.8368 37.0673C32.5726 37.0673 32.3192 37.1719 32.1318 37.3581C30.7736 38.7143 29.0173 39.6007 27.1196 39.8879C25.2218 40.1751 23.2819 39.8481 21.5832 38.9547C19.8845 38.0612 18.5159 36.648 17.6773 34.9216C16.8387 33.1951 16.574 31.2457 16.9218 29.3581L17.3618 28.9381L20.9718 33.6181C21.065 33.7392 21.1846 33.8372 21.3216 33.9048C21.4585 33.9724 21.6091 34.0078 21.7618 34.0081C21.8735 34.0062 21.9845 33.9894 22.0918 33.9581C22.2886 33.8894 22.4589 33.7608 22.579 33.5905C22.6992 33.4202 22.7631 33.2166 22.7618 33.0081V25.8881L29.8918 24.9981C30.1116 24.9713 30.3162 24.8723 30.4737 24.7167C30.6311 24.5611 30.7324 24.3576 30.7618 24.1381C30.7911 23.9177 30.746 23.6937 30.6337 23.5018C30.5214 23.3098 30.3483 23.1607 30.1418 23.0781L25.9218 21.3581L28.0318 19.2081C30.9665 19.7645 33.5882 21.3953 35.3845 23.7819C37.1807 26.1684 38.0223 29.1391 37.7448 32.1131C37.4673 35.0872 36.0906 37.8508 33.8838 39.8638C31.677 41.8768 28.7988 42.9944 25.8118 42.9981H25.7618ZM17.3218 21.8281C17.5614 22.1852 17.7028 22.5991 17.7318 23.0281C17.7318 23.2934 17.8372 23.5477 18.0247 23.7352C18.2122 23.9228 18.4666 24.0281 18.7318 24.0281C18.997 24.0281 19.2514 23.9228 19.4389 23.7352C19.6265 23.5477 19.7318 23.2934 19.7318 23.0281C19.6608 21.9168 19.2209 20.861 18.4818 20.0281L19.4118 18.4381L19.8418 19.7581C19.9179 19.9915 20.0771 20.1887 20.2892 20.3122C20.5012 20.4358 20.7513 20.477 20.9918 20.4281L24.7718 19.6481L23.4618 21.0681C23.3483 21.1855 23.2652 21.3289 23.2199 21.4858C23.1746 21.6427 23.1684 21.8083 23.2018 21.9681C23.2354 22.128 23.3076 22.2773 23.4122 22.4028C23.5168 22.5283 23.6506 22.6263 23.8018 22.6881L25.8018 23.5281L21.5918 24.0581C21.3479 24.0876 21.1234 24.2059 20.9611 24.3903C20.7988 24.5747 20.71 24.8125 20.7118 25.0581V30.0681L18.2118 26.8281C18.1261 26.716 18.0177 26.6233 17.8936 26.5561C17.7695 26.4889 17.6325 26.4487 17.4918 26.4381H17.4218C17.1609 26.4366 16.9097 26.537 16.7218 26.7181L14.7218 28.7181L15.7218 25.3181C15.7645 25.1664 15.7707 25.0068 15.7399 24.8523C15.7092 24.6977 15.6423 24.5526 15.5448 24.4288C15.4473 24.305 15.322 24.206 15.1789 24.1398C15.0359 24.0737 14.8793 24.0423 14.7218 24.0481H14.0318L17.3218 21.8281Z" fill="#A2DD83"/>
<rect x="0.5" y="0.5" width="64" height="64" rx="32" stroke="#2DB872"/>
</svg>
