<svg width="65" height="65" viewBox="0 0 65 65" fill="none" xmlns="http://www.w3.org/2000/svg">
<path fill-rule="evenodd" clip-rule="evenodd" d="M35.3304 55.3382C23.4371 55.3382 13.8233 45.7243 13.8233 33.8307C13.8233 21.9372 23.4371 12.3234 35.3304 12.3234C47.2243 12.3234 56.8381 21.9372 56.8381 33.8307C56.8381 45.7243 47.2243 55.3382 35.3304 55.3382Z" fill="#FF889F"/>
<g clip-path="url(#clip0_17_132)">
<path d="M22.9963 21.845C22.8429 21.8388 22.6885 21.8371 22.533 21.8399C18.3416 21.9162 14.9266 25.3295 14.8495 29.5209C14.8292 30.6212 15.0362 31.6706 15.4264 32.6258C15.558 32.948 16.0361 32.8493 16.0356 32.5013C16.0356 32.4962 16.0356 32.4912 16.0356 32.486C16.0356 27.8665 18.9769 23.9341 23.0888 22.459C23.4153 22.3419 23.3429 21.8589 22.9963 21.845Z" fill="#FA465A"/>
<path d="M39.9625 22.3517C38.279 19.9737 35.6823 18.452 32.6507 18.0666C31.1933 17.8813 29.7854 17.9693 28.4502 18.3252C28.8088 16.4213 29.6821 14.6722 31.0092 13.2169C31.6302 12.536 31.8293 11.6072 31.5418 10.7322C31.2546 9.85813 30.5443 9.229 29.6416 9.04933C28.7071 8.86342 27.7625 9.20986 27.1766 9.95379C26.1988 11.1954 25.4901 12.5838 25.068 14.0638C24.6132 13.3633 24.0182 12.7392 23.3042 12.2424C21.3248 10.8651 18.748 10.6784 16.7394 11.7669C16.5328 11.8789 16.3915 12.0821 16.3583 12.3147C16.036 14.5742 17.1042 16.9231 19.0798 18.301C16.5955 18.9044 14.4806 20.3131 13.0373 22.3518C11.2498 24.8766 10.559 28.2104 11.0397 31.9927C12.0199 39.7053 17.7793 47.7395 24.0196 46.9456C24.5683 46.8758 25.1133 46.7359 25.6394 46.5297C26.1943 46.3122 26.8054 46.3122 27.3602 46.5297C27.8863 46.7358 28.4314 46.8758 28.9801 46.9456C29.2677 46.9821 29.5532 46.9999 29.8383 46.9998C35.74 46.9989 41.0248 39.3498 41.9599 31.9926C42.4408 28.2104 41.7501 24.8766 39.9625 22.3517ZM28.3428 10.8722C28.5814 10.5694 28.9681 10.4288 29.3519 10.5052C29.7224 10.579 30.0139 10.8371 30.1318 11.1957C30.2499 11.5552 30.168 11.9369 29.9126 12.2169C28.2228 14.0698 27.178 16.3405 26.8739 18.8086C26.6484 18.8438 26.4196 18.8471 26.1936 18.8183C26.1279 18.3406 26.0943 17.8555 26.0943 17.371C26.0943 14.9874 26.8718 12.7402 28.3428 10.8722ZM17.7911 12.9051C19.2555 12.2758 21.046 12.4793 22.4565 13.4608C23.5877 14.2479 24.3342 15.4382 24.5437 16.6997L22.2441 15.0996C21.9076 14.8656 21.4451 14.9484 21.211 15.2849C20.977 15.6214 21.0599 16.0839 21.3964 16.318L23.6959 17.9181C22.4402 18.1601 21.0647 17.8737 19.9334 17.0866C18.5229 16.1051 17.7098 14.4969 17.7911 12.9051ZM40.4876 31.8055C39.6508 38.389 34.9068 45.5166 29.842 45.5157C29.6179 45.5157 29.3924 45.5017 29.1674 45.4731C28.74 45.4187 28.3143 45.3092 27.902 45.1476C27.45 44.9705 26.975 44.8819 26.5 44.8819C26.025 44.8819 25.55 44.9704 25.098 45.1476C24.6857 45.3092 24.26 45.4187 23.8326 45.473C18.5218 46.1491 13.3862 38.6801 12.5124 31.8054C12.0794 28.3981 12.6798 25.4257 14.2489 23.2093C15.6893 21.1747 17.9223 19.8713 20.5365 19.539C22.1416 19.335 23.6715 19.5092 25.0835 20.0569C25.997 20.4112 27.0031 20.4112 27.9166 20.0569C29.3286 19.5092 30.8584 19.335 32.4636 19.539C35.0777 19.8713 37.3107 21.1747 38.7511 23.2092C40.3202 25.4257 40.9206 28.3982 40.4876 31.8055Z" fill="#FA465A"/>
</g>
<rect x="0.5" y="0.5" width="64" height="64" rx="32" stroke="#FF889F"/>
<defs>
<clipPath id="clip0_17_132">
<rect width="38" height="38" fill="white" transform="translate(7.5 9)"/>
</clipPath>
</defs>
</svg>
