<svg width="32" height="32" viewBox="0 0 32 32" fill="none" xmlns="http://www.w3.org/2000/svg">
<rect width="32" height="32" rx="16" fill="#00AFF0"/>
<path d="M25.2921 17.6654C25.2858 17.7005 25.2813 17.736 25.2747 17.7712L25.2405 17.5697C25.2592 17.6011 25.2747 17.6337 25.2921 17.6654C25.3954 17.1035 25.4495 16.5283 25.4495 15.9535C25.4495 14.6786 25.1999 13.4418 24.7068 12.2775C24.2311 11.1528 23.5504 10.1427 22.6826 9.27549C21.816 8.40828 20.8053 7.72762 19.6812 7.25189C18.5172 6.75938 17.2804 6.50979 16.0055 6.50979C15.4047 6.50979 14.8029 6.56617 14.2173 6.67861C14.216 6.67893 14.2144 6.67893 14.2128 6.67924C14.2458 6.69666 14.279 6.71218 14.3113 6.73024L14.1128 6.6992C14.146 6.69286 14.1796 6.68589 14.2128 6.67924C13.4093 6.25197 12.5057 6.02393 11.5909 6.02393C10.0976 6.02393 8.69348 6.60544 7.6375 7.66174C6.58184 8.71773 6 10.1218 6 11.6152C6 12.5657 6.24452 13.5001 6.70346 14.3258C6.70948 14.2916 6.7136 14.257 6.72025 14.2228L6.75445 14.4208C6.73672 14.3898 6.7212 14.3574 6.70346 14.3258C6.61034 14.8607 6.56125 15.4074 6.56125 15.9535C6.56125 17.2286 6.81083 18.4651 7.30398 19.6298C7.77908 20.7548 8.46005 21.7642 9.32695 22.6314C10.1948 23.4986 11.2042 24.1802 12.3296 24.6547C13.4935 25.1482 14.7307 25.3981 16.0055 25.3981C16.5605 25.3981 17.1166 25.3474 17.6595 25.2511C17.6278 25.2334 17.5955 25.2172 17.5632 25.1985L17.765 25.234C17.7301 25.2406 17.695 25.2448 17.6595 25.2511C18.496 25.7243 19.443 25.9758 20.41 25.9758C21.9031 25.9758 23.3065 25.3952 24.3625 24.3386C25.4188 23.2832 26 21.8789 26 20.3855C26 19.4318 25.7542 18.4943 25.2921 17.6654ZM16.0432 21.7373C12.6881 21.7373 11.1871 20.0877 11.1871 18.8515C11.1871 18.2174 11.6552 17.7731 12.3004 17.7731C13.7362 17.7731 13.3643 19.8347 16.0432 19.8347C17.4147 19.8347 18.172 19.09 18.172 18.328C18.172 17.8697 17.9458 17.3616 17.0428 17.139L14.0586 16.394C11.6552 15.7913 11.2191 14.4921 11.2191 13.2707C11.2191 10.735 13.6066 9.78289 15.8488 9.78289C17.9142 9.78289 20.3489 10.9244 20.3489 12.4457C20.3489 13.0975 19.7845 13.4766 19.1396 13.4766C17.9142 13.4766 18.1397 11.7805 15.6714 11.7805C14.4466 11.7805 13.7682 12.3351 13.7682 13.1288C13.7682 13.921 14.7355 14.1741 15.5754 14.3654L17.7843 14.8557C20.2038 15.3947 20.8173 16.8074 20.8173 18.1379C20.8173 20.1986 19.2356 21.7373 16.0432 21.7373ZM17.5632 25.1985C17.5955 25.2172 17.6278 25.2334 17.6595 25.2511C17.695 25.2448 17.7301 25.2406 17.765 25.234L17.5632 25.1985ZM25.2747 17.7712C25.2813 17.736 25.2858 17.7005 25.2921 17.6654C25.2747 17.6337 25.2592 17.6011 25.2405 17.5697L25.2747 17.7712ZM6.72025 14.2228C6.7136 14.257 6.70948 14.2916 6.70346 14.3258C6.7212 14.3574 6.73672 14.3898 6.75445 14.4208L6.72025 14.2228ZM14.3113 6.73024C14.279 6.71218 14.2458 6.69666 14.2128 6.67924C14.1796 6.68589 14.146 6.69286 14.1128 6.6992L14.3113 6.73024Z" fill="white"/>
</svg>
