<svg width="32" height="32" viewBox="0 0 32 32" fill="none" xmlns="http://www.w3.org/2000/svg">
<g id="Telegram">
<g id="Telegram_2">
<rect id="Rectangle" width="32" height="32" rx="16" fill="#419FD9"/>
<path id="Exclude" fill-rule="evenodd" clip-rule="evenodd" d="M19.557 23.9224C20.6753 24.4117 21.0947 23.3865 21.0947 23.3865L24.0536 8.52191C24.0303 7.52006 22.679 8.12583 22.679 8.12583L6.11359 14.6262C6.11359 14.6262 5.32143 14.9058 5.39133 15.395C5.46123 15.8843 6.09029 16.1173 6.09029 16.1173L10.2608 17.5152C10.2608 17.5152 11.5189 21.6391 11.7752 22.4313C12.0082 23.2001 12.2179 23.2234 12.2179 23.2234C12.4509 23.3166 12.6605 23.1535 12.6605 23.1535L15.3632 20.7072L19.557 23.9224ZM20.2793 11.1547C20.2793 11.1547 20.8617 10.8052 20.8384 11.1547C20.8384 11.1547 20.9316 11.2013 20.6287 11.5275C20.3491 11.807 13.7556 17.7249 12.8702 18.5171C12.8004 18.5637 12.7538 18.6336 12.7538 18.7268L12.4975 20.9169C12.4509 21.1498 12.148 21.1731 12.0781 20.9634L10.9831 17.3754C10.9365 17.2356 10.9831 17.0726 11.1228 16.9794L20.2793 11.1547Z" fill="white"/>
</g>
</g>
</svg>
