<svg width="32" height="32" viewBox="0 0 32 32" fill="none" xmlns="http://www.w3.org/2000/svg">
<g id="Viber">
<g id="Viber_2">
<rect id="Rectangle" width="32" height="32" rx="16" fill="#675DA9"/>
<g id="Group">
<path id="Vector" d="M23.8357 8.12335C23.3064 7.63678 21.1638 6.07887 16.3876 6.05753C16.3876 6.05753 10.7578 5.71607 8.01335 8.23433C6.48532 9.76235 5.94753 11.9946 5.89204 14.769C5.83655 17.5391 5.76399 22.7335 10.7706 24.142H10.7749L10.7706 26.2889C10.7706 26.2889 10.7407 27.1597 11.3127 27.3346C12.0041 27.5481 12.4139 26.8865 13.0755 26.1737C13.4383 25.781 13.9376 25.2091 14.3175 24.7694C17.7406 25.0554 20.3741 24.3981 20.6729 24.2999C21.3644 24.0737 25.2783 23.5743 25.9143 18.3799C26.5716 13.0361 25.5942 9.65138 23.8357 8.12335ZM24.4161 18.0043C23.8784 22.3408 20.7071 22.614 20.1223 22.8018C19.8748 22.8829 17.5614 23.4591 14.6504 23.267C14.6504 23.267 12.4822 25.8835 11.8078 26.5621C11.7011 26.6688 11.5773 26.7115 11.4962 26.6901C11.381 26.6603 11.3468 26.5237 11.3511 26.3231C11.3511 26.0328 11.3682 22.7506 11.3682 22.7506C11.3639 22.7506 11.3639 22.7506 11.3682 22.7506C7.12982 21.5768 7.37738 17.1549 7.42433 14.8415C7.47128 12.5282 7.90664 10.6288 9.19991 9.3526C11.5176 7.25264 16.3022 7.56422 16.3022 7.56422C20.34 7.58129 22.2735 8.79773 22.7217 9.20322C24.2113 10.4837 24.971 13.5355 24.4161 18.0043Z" fill="white"/>
<path id="Vector_2" d="M18.3553 14.9228C18.2144 14.9228 18.0949 14.8118 18.0864 14.6667C18.0394 13.749 17.6083 13.3009 16.7291 13.2539C16.5797 13.2454 16.4644 13.1174 16.473 12.968C16.4815 12.8186 16.6096 12.7033 16.759 12.7119C17.9199 12.7759 18.5687 13.4417 18.6284 14.6368C18.637 14.7862 18.5217 14.9143 18.3723 14.9185C18.3638 14.9228 18.3595 14.9228 18.3553 14.9228Z" fill="white"/>
<path id="Vector_3" d="M19.7382 15.384H19.7339C19.5845 15.3797 19.465 15.256 19.4693 15.1066C19.4906 14.1846 19.226 13.4377 18.6626 12.8231C18.1035 12.2084 17.3309 11.8755 16.3108 11.803C16.1614 11.7902 16.0505 11.6621 16.0633 11.5127C16.0761 11.3633 16.2041 11.2524 16.3535 11.2652C17.5059 11.3505 18.4151 11.7517 19.0638 12.4603C19.7169 13.1731 20.0327 14.0651 20.0114 15.1194C20.0071 15.2688 19.8833 15.384 19.7382 15.384Z" fill="white"/>
<path id="Vector_4" d="M21.1552 15.9382C21.0059 15.9382 20.8863 15.8187 20.8863 15.6693C20.8735 14.0175 20.3998 12.7584 19.4351 11.8151C18.4833 10.8846 17.2754 10.4108 15.8541 10.398C15.7047 10.398 15.5852 10.2742 15.5852 10.1249C15.5852 9.97547 15.709 9.85596 15.8541 9.85596C17.4205 9.86876 18.7522 10.3938 19.8065 11.4267C20.865 12.4596 21.4071 13.8852 21.4241 15.6607C21.4284 15.8144 21.3089 15.9382 21.1552 15.9382C21.1595 15.9382 21.1595 15.9382 21.1552 15.9382Z" fill="white"/>
<path id="Vector_5" d="M16.7932 18.2643C16.7932 18.2643 17.173 18.2984 17.3779 18.0466L17.7748 17.5472C17.9669 17.2997 18.4322 17.1418 18.8846 17.3936C19.1364 17.5344 19.5931 17.8161 19.8748 18.0253C20.1779 18.2472 20.7925 18.7594 20.7968 18.7637C21.0913 19.0112 21.1596 19.374 20.9589 19.7624C20.9589 19.7624 20.9589 19.7667 20.9589 19.771C20.7541 20.1338 20.4766 20.4752 20.1309 20.7911C20.1266 20.7911 20.1266 20.7954 20.1224 20.7954C19.8364 21.0344 19.5547 21.171 19.2815 21.2008C19.2474 21.2094 19.209 21.2094 19.1578 21.2094C19.0382 21.2094 18.9187 21.1923 18.7992 21.1539L18.7907 21.1411C18.3639 21.0216 17.6553 20.7228 16.4773 20.0698C15.709 19.6472 15.0731 19.2161 14.531 18.785C14.245 18.5588 13.9548 18.307 13.656 18.0082C13.6475 17.9997 13.6347 17.9869 13.6261 17.9783C13.6176 17.9698 13.6048 17.957 13.5963 17.9484C13.5877 17.9399 13.5749 17.9271 13.5664 17.9186C13.5578 17.91 13.545 17.8972 13.5365 17.8887C13.242 17.5899 12.9859 17.2997 12.7597 17.0137C12.3286 16.4759 11.8975 15.8357 11.4749 15.0674C10.8219 13.8851 10.5231 13.1766 10.4036 12.754L10.3908 12.7455C10.3524 12.626 10.3353 12.5065 10.3353 12.3869C10.3353 12.3357 10.3353 12.2973 10.3439 12.2632C10.378 11.9857 10.5146 11.7083 10.7493 11.4223C10.7493 11.4181 10.7536 11.4181 10.7536 11.4138C11.0695 11.0638 11.4109 10.7906 11.7737 10.5858C11.7737 10.5858 11.778 10.5858 11.7823 10.5858C12.1664 10.3851 12.5292 10.4534 12.781 10.7479C12.781 10.7479 13.2975 11.3668 13.5194 11.6699C13.7286 11.9559 14.0103 12.4083 14.1511 12.6601C14.4029 13.1125 14.245 13.5778 13.9975 13.7699L13.4981 14.1668C13.2463 14.3717 13.2804 14.7515 13.2804 14.7515C13.2804 14.7515 14.0188 17.56 16.7932 18.2643Z" fill="white"/>
</g>
</g>
</g>
</svg>
