<svg width="32" height="32" viewBox="0 0 32 32" fill="none" xmlns="http://www.w3.org/2000/svg">
<g id="WhatsApp">
<g id="WhatsApp_2">
<rect id="Rectangle" width="32" height="32" rx="16" fill="#0DC143"/>
<path id="Vector" d="M23.1671 8.80782C21.4518 7.04205 19.0806 6.0835 16.659 6.0835C11.5131 6.0835 7.37613 10.2709 7.42658 15.3664C7.42658 16.9808 7.88064 18.5448 8.6374 19.9574L7.32568 24.7502L12.2194 23.4889C13.5815 24.2457 15.0951 24.5988 16.6086 24.5988C21.7041 24.5988 25.841 20.4114 25.841 15.3159C25.841 12.8439 24.8824 10.5231 23.1671 8.80782ZM16.659 23.0348C15.2969 23.0348 13.9347 22.6817 12.7743 21.9754L12.4716 21.824L9.5455 22.5808L10.3023 19.7051L10.1005 19.4024C7.88064 15.8204 8.9401 11.0781 12.5725 8.85827C16.205 6.63845 20.8969 7.69791 23.1167 11.3303C25.3365 14.9628 24.277 19.6547 20.6446 21.8745C19.4842 22.6312 18.0716 23.0348 16.659 23.0348ZM21.0987 17.4348L20.5437 17.1826C20.5437 17.1826 19.7365 16.8294 19.232 16.5772C19.1815 16.5772 19.1311 16.5267 19.0806 16.5267C18.9293 16.5267 18.8284 16.5772 18.7275 16.6276C18.7275 16.6276 18.677 16.6781 17.9707 17.4853C17.9203 17.5862 17.8194 17.6366 17.7185 17.6366H17.668C17.6176 17.6366 17.5167 17.5862 17.4662 17.5357L17.214 17.4348C16.659 17.1826 16.1545 16.8799 15.7509 16.4763C15.65 16.3754 15.4987 16.2745 15.3978 16.1736C15.0446 15.8204 14.6914 15.4168 14.4392 14.9628L14.3887 14.8619C14.3383 14.8114 14.3383 14.761 14.2878 14.6601C14.2878 14.5592 14.2878 14.4583 14.3383 14.4078C14.3383 14.4078 14.5401 14.1556 14.6914 14.0042C14.7924 13.9033 14.8428 13.752 14.9437 13.6511C15.0446 13.4997 15.0951 13.2979 15.0446 13.1466C14.9942 12.8943 14.3887 11.5321 14.2374 11.2294C14.1365 11.0781 14.0356 11.0276 13.8842 10.9772H13.7329C13.632 10.9772 13.4806 10.9772 13.3293 10.9772C13.2284 10.9772 13.1275 11.0276 13.0266 11.0276L12.9761 11.0781C12.8752 11.1285 12.7743 11.2294 12.6734 11.2799C12.5725 11.3808 12.5221 11.4817 12.4212 11.5826C12.068 12.0366 11.8662 12.5916 11.8662 13.1466C11.8662 13.5502 11.9671 13.9538 12.1185 14.3069L12.1689 14.4583C12.623 15.4168 13.2284 16.2745 14.0356 17.0312L14.2374 17.233C14.3887 17.3844 14.5401 17.4853 14.641 17.6366C15.7005 18.5448 16.9113 19.2006 18.2734 19.5538C18.4248 19.6042 18.6266 19.6042 18.7779 19.6547C18.9293 19.6547 19.1311 19.6547 19.2824 19.6547C19.5347 19.6547 19.8374 19.5538 20.0392 19.4529C20.1905 19.352 20.2914 19.352 20.3924 19.2511L20.4933 19.1502C20.5942 19.0493 20.6951 18.9988 20.796 18.8979C20.8969 18.797 20.9978 18.6961 21.0482 18.5952C21.1491 18.3934 21.1996 18.1412 21.25 17.8889C21.25 17.788 21.25 17.6366 21.25 17.5357C21.25 17.5357 21.1996 17.4853 21.0987 17.4348Z" fill="white"/>
</g>
</g>
</svg>
