<svg width="50" height="32" viewBox="0 0 50 32" fill="none" xmlns="http://www.w3.org/2000/svg">
<g id="Yandex.Money (&#208;&#175;&#208;&#189;&#208;&#180;&#208;&#181;&#208;&#186;&#209;&#129;.&#208;&#148;&#208;&#181;&#208;&#189;&#209;&#140;&#208;&#179;&#208;&#184;)" clip-path="url(#clip0_23_327)">
<g id="Yandex.Money (&#208;&#175;&#208;&#189;&#208;&#180;&#208;&#181;&#208;&#186;&#209;&#129;.&#208;&#148;&#208;&#181;&#208;&#189;&#209;&#140;&#208;&#179;&#208;&#184;)_2">
<rect id="Rectangle" width="50" height="32" rx="3" fill="#F7C700"/>
<g id="Group">
<path id="Vector" d="M6.927 16.2192L5.8128 18.7218H5L6.22383 16.0459C5.93766 15.8998 5.70617 15.6852 5.5299 15.402C5.35308 15.1189 5.26495 14.734 5.26495 14.2468C5.26495 13.9059 5.315 13.6062 5.41565 13.3472C5.51603 13.0888 5.65312 12.8739 5.8264 12.7033C5.99968 12.5328 6.20234 12.4052 6.43437 12.3198C6.66821 12.2341 6.91544 12.1908 7.16448 12.1919H8.21448V18.7218H7.51158V16.2192H6.92673H6.927ZM7.51158 12.7768H7.137C6.99691 12.7768 6.85981 12.8026 6.72625 12.8546C6.59269 12.9065 6.47327 12.9889 6.3699 13.1021C6.26653 13.215 6.18275 13.3646 6.11883 13.5509C6.05463 13.7373 6.02307 13.9677 6.02307 14.2427C6.02307 14.5052 6.05164 14.7253 6.10958 14.9023C6.16752 15.0794 6.24668 15.2233 6.34705 15.333C6.4477 15.4428 6.5663 15.5206 6.7034 15.5666C6.84328 15.6128 6.98971 15.6359 7.137 15.6352H7.51158V12.7765V12.7768ZM11.6028 14.1189V18.7215H10.8993V16.6577H9.84008V18.7218H9.12793V14.1192H9.84008V16.0734H10.8993V14.1189H11.6028ZM15.265 19.6257H14.6258V18.7218H12.6531V19.6257H12.0138V18.1372H12.2967C12.4004 17.8938 12.4825 17.6245 12.5434 17.329C12.6041 17.0339 12.6514 16.7295 12.6849 16.4156C12.7183 16.1022 12.7396 15.7826 12.7491 15.457C12.7581 15.1311 12.7627 14.8161 12.7627 14.5114V14.1189H14.8997V18.1372H15.265V19.6257ZM14.1965 14.7032H13.4022V14.7854C13.4022 15.0283 13.3973 15.2941 13.3881 15.5824C13.3786 15.876 13.3589 16.1691 13.3288 16.4613C13.2985 16.7559 13.2559 17.0492 13.2009 17.3402C13.1506 17.6126 13.0741 17.8795 12.9724 18.1372H14.1965V14.7032ZM18.3609 18.4112C18.2098 18.5296 18.0401 18.6221 17.8587 18.6851C17.67 18.752 17.4597 18.7857 17.2285 18.7857C16.7535 18.7857 16.3792 18.6016 16.105 18.2332C15.8311 17.8649 15.6943 17.3244 15.6943 16.612C15.6943 16.241 15.7198 15.8998 15.7718 15.5892C15.8237 15.2785 15.9056 15.0092 16.0185 14.781C16.1309 14.5525 16.2756 14.3746 16.4524 14.2468C16.6287 14.1189 16.8387 14.055 17.0821 14.055C17.2709 14.055 17.4445 14.0931 17.603 14.1692C17.7611 14.2454 17.8949 14.3686 18.0048 14.5392C18.1142 14.7095 18.1993 14.9301 18.2605 15.201C18.3212 15.472 18.3516 15.8022 18.3516 16.192V16.5845H16.4339C16.4339 17.1084 16.5054 17.504 16.6488 17.7719C16.7916 18.0398 17.0062 18.1737 17.2924 18.1737C17.4931 18.1737 17.6713 18.1389 17.8266 18.0687C17.9817 17.9988 18.1052 17.9302 18.1966 17.8633L18.3609 18.4112ZM17.0824 14.6396C16.8631 14.6396 16.7081 14.7628 16.6167 15.0095C16.525 15.256 16.4671 15.5862 16.4429 16.0002H17.6213C17.6213 15.8055 17.612 15.6243 17.5938 15.457C17.5795 15.3098 17.5505 15.1645 17.507 15.0231C17.4673 14.9013 17.4126 14.8069 17.3427 14.7399C17.3081 14.7068 17.2672 14.6808 17.2225 14.6636C17.1778 14.6463 17.1301 14.638 17.0821 14.6393L17.0824 14.6396ZM19.7945 16.4295V18.7218H19.0826V14.1192H19.795V16.2467L20.8999 14.1189H21.6213L20.4799 16.2834L21.7859 18.7218H21.0098L19.795 16.4295H19.7945ZM23.457 18.7855C22.9635 18.7855 22.577 18.5893 22.2971 18.1965C22.0169 17.8037 21.8768 17.2118 21.8768 16.4202C21.8768 16.0612 21.9121 15.7355 21.9821 15.4431C22.0517 15.151 22.1553 14.9029 22.2922 14.6989C22.4219 14.5016 22.5975 14.3387 22.8038 14.2239C23.0078 14.1113 23.2437 14.055 23.5116 14.055C23.7184 14.055 23.8862 14.0778 24.0138 14.1235C24.1419 14.1692 24.2572 14.2256 24.3612 14.2922L24.2605 14.9682C24.157 14.8766 24.0417 14.7992 23.9178 14.738C23.789 14.6729 23.6467 14.6391 23.5024 14.6396C23.2467 14.6396 23.0367 14.7835 22.8724 15.071C22.7078 15.3588 22.6257 15.7962 22.6257 16.3835C22.6257 16.9651 22.6945 17.4134 22.831 17.7284C22.9681 18.0439 23.1828 18.2011 23.4752 18.2011C23.6514 18.2011 23.8041 18.1712 23.9316 18.1114C24.0595 18.0521 24.1661 17.9843 24.2513 17.909L24.4156 18.4386C24.2924 18.543 24.1538 18.6276 24.0048 18.6897C23.8525 18.7536 23.6697 18.7855 23.457 18.7855Z" fill="black"/>
<g id="Group_2">
<path id="Vector_2" d="M29.2561 18.7218H26.4614L26.3977 19.8085H26.0414V18.3565H26.2332C26.3915 18.2223 26.5131 17.9846 26.5985 17.6429C26.6839 17.3016 26.7505 16.896 26.7995 16.4265C26.8482 15.9387 26.8817 15.3397 26.8999 14.6292C26.9181 13.919 26.9333 13.1064 26.9453 12.1919H29.2284V18.3565H29.6761V19.8085H29.3198L29.2561 18.7218ZM28.7719 12.5572H27.3563C27.3466 13.2919 27.3284 14.0264 27.3017 14.7606C27.2772 15.3928 27.2467 15.9469 27.2105 16.4232C27.1676 16.9183 27.1083 17.3258 27.0324 17.6465C26.9562 17.9672 26.8572 18.2038 26.7356 18.3565H28.7719V12.5572ZM30.5529 16.4934C30.5648 17.1294 30.6532 17.6141 30.8175 17.9476C30.9821 18.2811 31.2316 18.4476 31.5664 18.4476C31.7188 18.4476 31.8526 18.4231 31.9682 18.3733C32.0838 18.3238 32.1815 18.2648 32.2606 18.1965C32.352 18.1285 32.4309 18.0447 32.4981 17.9454L32.6349 18.2925C32.5617 18.3959 32.4736 18.4843 32.3702 18.5572C32.2788 18.6244 32.1662 18.6837 32.0324 18.7354C31.898 18.7871 31.74 18.8129 31.5574 18.8129C31.0702 18.8129 30.7112 18.6029 30.4797 18.1829C30.2485 17.7626 30.1329 17.1753 30.1329 16.4202C30.1329 16.0429 30.1663 15.7064 30.2332 15.411C30.3002 15.1159 30.3929 14.8648 30.5118 14.6575C30.6304 14.4508 30.7718 14.2938 30.9361 14.1872C31.0962 14.0821 31.2838 14.0265 31.4753 14.0275C31.676 14.0275 31.8556 14.0792 32.0139 14.1826C32.1722 14.2865 32.3031 14.4415 32.4067 14.6485C32.5101 14.8555 32.5832 15.1129 32.6259 15.4202C32.6684 15.7276 32.6716 16.0856 32.6349 16.4934H30.5529ZM31.4753 14.3928C31.2316 14.3928 31.0232 14.5427 30.8496 14.8427C30.6761 15.1425 30.5801 15.5799 30.5618 16.1555H32.2331C32.2699 15.5435 32.2106 15.0971 32.0552 14.8153C31.8999 14.5337 31.7065 14.3928 31.4753 14.3928ZM35.4479 16.5208H33.8767V18.7215H33.4477V14.1192H33.8767V16.1558H35.4479V14.1189H35.8769V18.7215H35.4479V16.5208ZM36.8902 14.1189H37.3197V15.8267H37.6575C38.0958 15.8267 38.4459 15.9455 38.7075 16.183C38.9695 16.4202 39.1006 16.7795 39.1006 17.2605C39.1006 17.7477 38.9635 18.113 38.6893 18.3565C38.4154 18.5999 38.0623 18.7218 37.6301 18.7218H36.8902V14.1192V14.1189ZM37.3197 16.1645V18.3839H37.5936C37.9162 18.3839 38.1779 18.2969 38.3789 18.1236C38.5802 17.9501 38.6803 17.6655 38.6803 17.2695C38.6803 16.8799 38.5889 16.5984 38.4064 16.4248C38.2239 16.2513 37.9682 16.1645 37.6393 16.1645H37.3197ZM40.2605 14.4842V18.7218H39.8405V14.1192H41.7855V14.4842H40.2605ZM44.5889 15.516C44.5889 15.3944 44.5919 15.2832 44.5982 15.1828C44.6042 15.0824 44.6131 14.9834 44.6254 14.8863H44.5982C44.5674 14.9896 44.531 15.0884 44.4885 15.1828C44.4461 15.2772 44.4001 15.3759 44.3514 15.4796L42.854 18.7218H42.4884V14.1192H42.8904V17.3154C42.8911 17.5321 42.8789 17.7487 42.854 17.9639H42.8812C42.9116 17.8603 42.9481 17.7583 42.9908 17.6579C43.0332 17.5573 43.0789 17.4552 43.1279 17.3519L44.6254 14.1189H44.9999V18.7215H44.5889V15.5165V15.516Z" fill="black"/>
</g>
</g>
</g>
</g>
<defs>
<clipPath id="clip0_23_327">
<rect width="50" height="32" fill="white"/>
</clipPath>
</defs>
</svg>
