<svg width="32" height="32" viewBox="0 0 32 32" fill="none" xmlns="http://www.w3.org/2000/svg">
<g id="Vkontakte (VK)">
<g id="Vkontakte (VK)_2">
<rect id="Rectangle" width="32" height="32" rx="16" fill="#5181B8"/>
<path id="Vector" fill-rule="evenodd" clip-rule="evenodd" d="M26.1772 11.0234C26.3256 10.5289 26.1772 10.1655 25.4714 10.1655H23.1375C22.5441 10.1655 22.2707 10.4794 22.1223 10.8257C22.1223 10.8257 20.9354 13.7185 19.254 15.5976C18.71 16.1416 18.4628 16.3145 18.166 16.3145C18.0177 16.3145 17.803 16.1416 17.803 15.6471V11.0234C17.803 10.4299 17.6307 10.1655 17.1361 10.1655H13.4686C13.0979 10.1655 12.8748 10.4409 12.8748 10.702C12.8748 11.2646 13.7153 11.3943 13.802 12.9767V16.4137C13.802 17.1672 13.666 17.3039 13.3693 17.3039C12.5781 17.3039 10.6536 14.3978 9.51202 11.0729C9.2883 10.4266 9.06391 10.1655 8.46744 10.1655H6.13356C5.46674 10.1655 5.33337 10.4794 5.33337 10.8257C5.33337 11.4438 6.12473 14.5099 9.01757 18.5648C10.9464 21.3338 13.6633 22.8352 16.1359 22.8352C17.6196 22.8352 17.803 22.5017 17.803 21.9274V19.8345C17.803 19.1676 17.9435 19.0346 18.4131 19.0346C18.7595 19.0346 19.3528 19.2076 20.7376 20.5428C22.32 22.125 22.5807 22.8352 23.4709 22.8352H25.8048C26.4716 22.8352 26.8051 22.5017 26.6127 21.8438C26.4023 21.1879 25.6468 20.2367 24.6442 19.1088C24.1003 18.4658 23.2842 17.7735 23.0372 17.4274C22.6909 16.9823 22.7898 16.7846 23.0372 16.3891C23.0372 16.3891 25.8805 12.3835 26.1772 11.0236V11.0234Z" fill="white"/>
</g>
</g>
</svg>
