<svg width="32" height="32" viewBox="0 0 32 32" fill="none" xmlns="http://www.w3.org/2000/svg">
<g id="YouTube">
<g id="YouTube_2">
<rect id="Rectangle" width="32" height="32" rx="16" fill="#FF0000"/>
<g id="Group">
<path id="Exclude" fill-rule="evenodd" clip-rule="evenodd" d="M24.5666 16.1129C24.3605 15.3475 23.757 14.744 22.9916 14.538C21.5933 14.1553 16 14.1553 16 14.1553C16 14.1553 10.4067 14.1553 9.00837 14.5233C8.25769 14.7293 7.63948 15.3475 7.43341 16.1129C7.06543 17.5113 7.06543 20.4109 7.06543 20.4109C7.06543 20.4109 7.06543 23.3253 7.43341 24.7089C7.63948 25.4743 8.24297 26.0778 9.00837 26.2839C10.4214 26.6666 16 26.6666 16 26.6666C16 26.6666 21.5933 26.6666 22.9916 26.2986C23.757 26.0926 24.3605 25.4891 24.5666 24.7237C24.9345 23.3253 24.9345 20.4257 24.9345 20.4257C24.9345 20.4257 24.9493 17.5113 24.5666 16.1129ZM20.9178 21.8272V22.0873C20.9178 22.4148 20.9274 22.6653 20.9467 22.8291C20.966 22.9928 21.0045 23.118 21.0719 23.1855C21.1297 23.2625 21.2261 23.3011 21.3609 23.3011C21.5343 23.3011 21.6499 23.2336 21.7173 23.0988C21.7848 22.9639 21.8137 22.7424 21.8233 22.4245L22.8155 22.4823C22.8252 22.5304 22.8252 22.5882 22.8252 22.6653C22.8252 23.1373 22.6999 23.4937 22.4398 23.7249C22.1797 23.9561 21.8137 24.0717 21.3416 24.0717C20.7733 24.0717 20.3783 23.8887 20.1471 23.5323C19.9159 23.1758 19.8003 22.6268 19.8003 21.8754V20.9795C19.8003 20.2088 19.9159 19.6501 20.1568 19.2937C20.3976 18.9372 20.8022 18.7638 21.3705 18.7638C21.7655 18.7638 22.0738 18.8409 22.2857 18.9854C22.4976 19.1299 22.6421 19.3611 22.7288 19.6597C22.8155 19.968 22.8541 20.3918 22.8541 20.9313V21.8079H20.9178V21.8272ZM21.0623 19.6694C21.0045 19.7464 20.966 19.862 20.9467 20.0258C20.9274 20.1895 20.9178 20.44 20.9178 20.7772V21.1432H21.7655V20.7772C21.7655 20.4496 21.7559 20.1992 21.7366 20.0258C21.7173 19.8524 21.6692 19.7368 21.6114 19.6694C21.5536 19.6019 21.4572 19.5634 21.3416 19.5634C21.2068 19.5538 21.1201 19.5923 21.0623 19.6694ZM15.3498 24.0139V18.8794H14.1938V22.9542C14.1553 23.0506 14.0878 23.1276 13.9915 23.1854C13.8952 23.2529 13.7988 23.2818 13.7025 23.2818C13.5869 23.2818 13.5002 23.2336 13.452 23.1373C13.4039 23.0409 13.375 22.8772 13.375 22.646V18.8794H12.219V22.7134C12.219 23.1951 12.2961 23.5419 12.4598 23.7634C12.6236 23.985 12.8741 24.1006 13.2112 24.1006C13.7025 24.1006 14.0782 23.8598 14.319 23.3877H14.3479L14.4443 24.0139H15.3498ZM12.5657 17.916H11.4194V24.0042H10.2923V17.916H9.14596V16.9816H12.5657V17.916ZM18.837 18.995C18.9911 19.1395 19.1067 19.3707 19.1742 19.6982C19.2416 20.0161 19.2705 20.4688 19.2801 21.0565V21.8657C19.2801 22.6267 19.1838 23.195 19.0008 23.5515C18.8177 23.9079 18.5384 24.0909 18.1434 24.0909C17.9219 24.0909 17.7292 24.0331 17.5462 23.9368C17.3631 23.8308 17.2283 23.696 17.1416 23.5226H17.1127L16.9971 24.0042H16.0434V16.7215H17.1608V19.4284H17.1705C17.2668 19.2358 17.4113 19.072 17.5943 18.9564C17.7774 18.8312 17.9797 18.7734 18.1916 18.7734C18.4613 18.7734 18.6829 18.8505 18.837 18.995ZM18.0664 22.6652C18.0953 22.4533 18.1145 22.1643 18.1145 21.7886H18.1242V21.1143C18.1242 20.7193 18.1145 20.411 18.0856 20.1895C18.0567 19.9775 18.0182 19.8234 17.9508 19.7271C17.893 19.6404 17.7966 19.5922 17.681 19.5922C17.5751 19.5922 17.4691 19.6404 17.3728 19.7271C17.2764 19.8234 17.209 19.939 17.1705 20.0739V22.9831C17.2186 23.0698 17.2861 23.1372 17.3631 23.1854C17.4402 23.2336 17.5269 23.2528 17.6232 23.2528C17.7388 23.2528 17.8352 23.2047 17.9122 23.118C17.9797 23.0313 18.0375 22.8771 18.0664 22.6652Z" fill="white"/>
<g id="You">
<path id="Vector" d="M14.9163 12.211C14.6851 12.0568 14.5213 11.816 14.425 11.4789C14.3287 11.1513 14.2805 10.7082 14.2805 10.1687V9.42698C14.2805 8.87789 14.3383 8.43476 14.4443 8.0976C14.5599 7.76044 14.7333 7.51961 14.9645 7.36547C15.2053 7.21134 15.5136 7.13428 15.8989 7.13428C16.2746 7.13428 16.5829 7.21134 16.8141 7.36547C17.0452 7.51961 17.209 7.77007 17.315 8.0976C17.4209 8.42513 17.4787 8.86826 17.4787 9.42698V10.1687C17.4787 10.7178 17.4306 11.1513 17.3246 11.4885C17.2186 11.816 17.0549 12.0665 16.8237 12.2206C16.5925 12.3747 16.2746 12.4518 15.8796 12.4518C15.475 12.4422 15.1475 12.3651 14.9163 12.211ZM16.2168 11.4018C16.2842 11.238 16.3131 10.9587 16.3131 10.583V8.98385C16.3131 8.61779 16.2842 8.34806 16.2168 8.17466C16.1494 8.00127 16.0434 7.9242 15.8796 7.9242C15.7255 7.9242 15.6099 8.0109 15.5521 8.17466C15.4847 8.34806 15.4558 8.61779 15.4558 8.98385V10.583C15.4558 10.9587 15.4847 11.238 15.5521 11.4018C15.6099 11.5656 15.7255 11.6523 15.8893 11.6523C16.0434 11.6523 16.1494 11.5752 16.2168 11.4018Z" fill="white"/>
<path id="Vector_2" d="M12.1035 10.0822L10.7933 5.33301H11.9397L12.4021 7.48121C12.5177 8.01104 12.6044 8.4638 12.6622 8.8395H12.6911C12.7296 8.56977 12.8163 8.12664 12.9512 7.49085L13.4328 5.33301H14.5792L13.2498 10.0822V12.3556H12.1131V10.0822H12.1035Z" fill="white"/>
<path id="Vector_3" d="M21.2068 7.23096V12.3655H20.3013L20.205 11.7393H20.1761C19.9353 12.2113 19.5596 12.4522 19.0683 12.4522C18.7311 12.4522 18.4806 12.3366 18.3169 12.115C18.1531 11.8934 18.076 11.5466 18.076 11.065V7.23096H19.232V10.9975C19.232 11.2287 19.2609 11.3925 19.3091 11.4888C19.3573 11.5852 19.444 11.6333 19.5596 11.6333C19.6559 11.6333 19.7522 11.6044 19.8486 11.537C19.9449 11.4792 20.0123 11.4021 20.0509 11.3058V7.23096H21.2068Z" fill="white"/>
</g>
</g>
</g>
</g>
</svg>
