<svg width="1410" height="250" viewBox="0 0 1410 250" fill="none" xmlns="http://www.w3.org/2000/svg">
<rect width="1410" height="250" rx="25" fill="#F4F4F4"/>
<mask id="mask0_20_2165" style="mask-type:alpha" maskUnits="userSpaceOnUse" x="0" y="0" width="1410" height="250">
<rect width="1410" height="250" rx="25" fill="#F4F4F4"/>
</mask>
<g mask="url(#mask0_20_2165)">
<g opacity="0.3">
<path d="M868.989 7.03204C882.615 14.4527 894.223 25.1047 902.788 38.0635C911.28 52.698 915.794 69.2887 915.898 86.1879C902.294 78.7387 890.692 68.0939 882.099 55.1601C873.607 40.5245 869.093 23.9324 868.989 7.03204Z" fill="#E5E5E5" stroke="white" stroke-width="2.17984"/>
<path d="M902.219 43.0667C886.207 17.4089 857.354 6.53963 857.354 6.53963C857.354 6.53963 854.505 37.133 870.476 62.912C886.446 88.691 915.327 99.4795 915.327 99.4795C915.327 99.4795 918.218 68.7649 902.219 43.0667Z" stroke="white" stroke-width="4.35967" stroke-linecap="round" stroke-linejoin="round"/>
<path d="M987.892 222.592L987.891 222.607L987.89 222.622C987.62 232.177 984.752 241.478 979.596 249.528C974.441 257.575 967.193 264.067 958.629 268.308C948.455 273.154 936.976 274.543 925.939 272.264L925.222 272.116L924.814 272.723C918.545 282.056 909.4 289.088 898.77 292.748C890.848 295.429 882.381 296.084 874.142 294.656C870.785 292.707 867.655 290.389 864.81 287.747C859.893 283.158 856.058 277.533 853.584 271.279C851.02 264.204 846.804 257.842 841.288 252.722L841.274 252.709L841.259 252.696C833.719 246.177 828.13 237.698 825.111 228.198L825.11 228.197C822.206 219.105 821.732 209.412 823.738 200.081C825.743 190.75 830.157 182.107 836.54 175.011C842.923 167.916 851.053 162.616 860.121 159.638C869.188 156.661 878.878 156.11 888.224 158.04L888.944 158.189L889.352 157.577C894.042 150.544 900.308 144.701 907.65 140.511C914.993 136.322 923.212 133.902 931.653 133.442C940.095 132.983 948.527 134.498 956.281 137.866C963.98 141.211 970.799 146.291 976.207 152.709C979.307 160.818 980.558 169.518 979.865 178.174L979.863 178.191L979.863 178.208C979.475 186.226 980.995 194.222 984.299 201.538C987.067 208.196 988.295 215.393 987.892 222.592Z" fill="#F7F7F7" stroke="white" stroke-width="2.17984"/>
<path d="M976.364 150.536C971.704 141.149 964.656 133.153 955.929 127.35C947.202 121.547 937.102 118.141 926.643 117.474C916.184 116.808 905.734 118.904 896.341 123.552C886.948 128.2 878.942 135.237 873.128 143.956C860.108 141.136 846.519 142.748 834.52 148.535C822.521 154.322 812.8 163.953 806.902 175.897C801.003 187.842 799.264 201.415 801.963 214.46C804.661 227.506 811.641 239.276 821.795 247.9C827.569 253.233 831.974 259.879 834.638 267.275C837.422 274.109 841.689 280.24 847.131 285.225C854.148 291.928 862.848 296.608 872.309 298.767C881.77 300.927 891.639 300.486 900.87 297.492C911.726 293.755 921.065 286.574 927.467 277.044C938.739 279.371 950.463 277.952 960.854 273.001C969.538 268.673 976.889 262.074 982.125 253.905C987.361 245.736 990.288 236.302 990.595 226.604C991.008 219.235 989.749 211.869 986.914 205.055C983.676 197.892 982.186 190.063 982.566 182.212C983.462 171.283 981.315 160.32 976.364 150.536Z" stroke="white" stroke-width="4.35967" stroke-linecap="round" stroke-linejoin="round"/>
<path d="M837.701 172.251C828.785 181.324 823.197 193.142 821.842 205.789" stroke="white" stroke-width="4.35967" stroke-linecap="round" stroke-linejoin="round"/>
<path d="M974.818 94.9215C982.297 81.3276 992.998 69.7652 1005.99 61.2561C1020.66 52.8268 1037.27 48.3833 1054.17 48.3514C1046.67 61.924 1035.97 73.48 1023 82.0175C1008.33 90.4472 991.719 94.8905 974.818 94.9215Z" fill="#E5E5E5" stroke="white" stroke-width="2.17984"/>
<path d="M1010.99 61.8461C985.268 77.7484 974.275 106.554 974.275 106.554C974.275 106.554 1004.86 109.535 1030.7 93.6746C1056.55 77.8142 1067.46 48.9803 1067.46 48.9803C1067.46 48.9803 1036.76 45.9578 1010.99 61.8461Z" stroke="white" stroke-width="4.35967" stroke-linecap="round" stroke-linejoin="round"/>
<path d="M744.229 -21.9017C747.575 -6.75139 747.159 8.99792 743.005 23.9655C737.539 39.9782 727.986 54.2744 715.306 65.446C711.996 50.293 712.41 34.5532 716.527 19.5808C721.993 3.56699 731.547 -10.7299 744.229 -21.9017Z" fill="#E5E5E5" stroke="white" stroke-width="2.17984"/>
<path d="M738.857 26.8209C747.703 -2.10093 736.963 -31.0021 736.963 -31.0021C736.963 -31.0021 712.013 -13.0699 703.049 15.9004C694.085 44.8707 704.904 73.7396 704.904 73.7396C704.904 73.7396 729.973 55.759 738.857 26.8209Z" stroke="white" stroke-width="4.35967" stroke-linecap="round" stroke-linejoin="round"/>
<path d="M1360.74 183.378C1373.16 192.672 1383.13 204.875 1389.75 218.926C1396.06 234.625 1398.16 251.691 1395.84 268.431C1383.44 259.112 1373.48 246.917 1366.83 232.887C1360.52 217.187 1358.42 200.12 1360.74 183.378Z" fill="#E5E5E5" stroke="white" stroke-width="2.17984"/>
<path d="M1388.47 223.796C1376.29 196.112 1349.29 181.227 1349.29 181.227C1349.29 181.227 1342.1 211.098 1354.21 238.896C1366.33 266.695 1393.37 281.504 1393.37 281.504C1393.37 281.504 1400.63 251.519 1388.47 223.796Z" stroke="white" stroke-width="4.35967" stroke-linecap="round" stroke-linejoin="round"/>
<path d="M1199.94 206.72C1209.01 194.127 1221.03 183.941 1234.95 177.062C1250.53 170.465 1267.56 168.058 1284.34 170.066C1275.25 182.633 1263.24 192.814 1249.33 199.724C1233.75 206.322 1216.72 208.728 1199.94 206.72Z" fill="#E5E5E5" stroke="white" stroke-width="2.17984"/>
<path d="M1239.85 178.251C1212.39 190.933 1198 218.202 1198 218.202C1198 218.202 1228 224.851 1255.57 212.225C1283.14 199.599 1297.46 172.293 1297.46 172.293C1297.46 172.293 1267.34 165.588 1239.85 178.251Z" stroke="white" stroke-width="4.35967" stroke-linecap="round" stroke-linejoin="round"/>
<path d="M985.107 320.422C1014.6 313.723 1034.34 290.039 1034.34 290.039C1034.34 290.039 1006.38 277.301 976.786 283.921C947.192 290.542 927.518 314.278 927.518 314.278C927.518 314.278 955.58 327.094 985.107 320.422Z" stroke="white" stroke-width="4.35967" stroke-linecap="round" stroke-linejoin="round"/>
<path d="M889.996 -31.7871C899.628 -40.8178 906.462 -52.4275 909.682 -65.2329C912.901 -78.0382 912.372 -91.4993 908.156 -104.012C903.94 -116.525 896.215 -127.562 885.903 -135.808C875.59 -144.054 863.124 -149.161 849.991 -150.521C836.857 -151.881 823.609 -149.436 811.826 -143.478C800.043 -137.52 790.221 -128.3 783.53 -116.917C776.84 -105.533 773.563 -92.4663 774.091 -79.2729C774.619 -66.0795 778.928 -53.316 786.506 -42.5032C788.348 -39.8946 751.791 -1.19848 754.034 1.19826C756.278 3.59499 797.995 -29.5972 800.837 -27.5396C813.789 -17.5617 829.865 -12.5109 846.196 -13.289C862.528 -14.067 878.051 -20.6231 889.996 -31.7871V-31.7871Z" stroke="white" stroke-width="4.35967" stroke-linecap="round" stroke-linejoin="round"/>
<path d="M691.72 141.032L691.719 141.027C690.685 135.835 690.985 130.465 692.59 125.42C694.196 120.375 697.055 115.82 700.899 112.18C704.744 108.54 709.448 105.934 714.573 104.607C719.621 103.299 724.913 103.273 729.971 104.529C734.476 108.285 737.84 113.229 739.679 118.802C741.544 124.452 741.764 130.515 740.314 136.285C738.865 142.055 735.805 147.294 731.492 151.392C727.179 155.49 721.79 158.277 715.953 159.429L715.952 159.429C711.482 160.316 706.871 160.199 702.453 159.086C696.893 154.496 693.097 148.115 691.72 141.032Z" fill="#F7F7F7" stroke="white" stroke-width="2.17984"/>
<path d="M716.171 160.537C733.771 157.082 745.238 140.013 741.783 122.413C738.328 104.814 721.259 93.347 703.659 96.802C686.06 100.257 674.593 117.325 678.048 134.925C681.503 152.525 698.571 163.992 716.171 160.537Z" stroke="white" stroke-width="4.35967" stroke-linecap="round" stroke-linejoin="round"/>
<path d="M708.219 117.007L705.899 105.191" stroke="white" stroke-width="4.35967" stroke-linecap="round" stroke-linejoin="round"/>
<path d="M716.891 127.3L728.746 124.973" stroke="white" stroke-width="4.35967" stroke-linecap="round" stroke-linejoin="round"/>
<path d="M711.648 140.324L713.968 152.141" stroke="white" stroke-width="4.35967" stroke-linecap="round" stroke-linejoin="round"/>
<path d="M702.939 130.039L691.122 132.358" stroke="white" stroke-width="4.35967" stroke-linecap="round" stroke-linejoin="round"/>
<path d="M769.686 80.9839L769.685 80.9792C768.148 73.2622 768.594 65.2816 770.98 57.7838C773.366 50.2859 777.615 43.5155 783.329 38.1057C789.043 32.696 796.035 28.8236 803.652 26.8506C811.191 24.8977 819.098 24.8688 826.649 26.7645C833.391 32.3551 838.423 39.7319 841.169 48.0517C843.939 56.4481 844.267 65.459 842.112 74.0342C839.958 82.6094 835.411 90.3957 829 96.4855C822.59 102.575 814.581 106.718 805.907 108.43L805.906 108.43C799.223 109.756 792.329 109.572 785.729 107.892C777.415 101.064 771.74 91.549 769.686 80.9839Z" fill="#F4F4F4" stroke="white" stroke-width="2.17984"/>
<path d="M806.128 109.556C831.997 104.477 848.852 79.3893 843.773 53.5201C838.695 27.6509 813.607 10.7965 787.738 15.8749C761.869 20.9532 745.014 46.0412 750.093 71.9104C755.171 97.7797 780.259 114.634 806.128 109.556Z" stroke="white" stroke-width="4.35967" stroke-linecap="round" stroke-linejoin="round"/>
<path d="M794.44 45.5739L791.03 28.2048" stroke="white" stroke-width="4.35967" stroke-linecap="round" stroke-linejoin="round"/>
<path d="M807.186 60.7024L824.611 57.2817" stroke="white" stroke-width="4.35967" stroke-linecap="round" stroke-linejoin="round"/>
<path d="M799.48 79.8464L802.89 97.2155" stroke="white" stroke-width="4.35967" stroke-linecap="round" stroke-linejoin="round"/>
<path d="M786.678 64.7281L769.309 68.1378" stroke="white" stroke-width="4.35967" stroke-linecap="round" stroke-linejoin="round"/>
<path d="M1139.56 172.669L1139.56 172.664C1138.03 164.947 1138.47 156.966 1140.86 149.469C1143.24 141.971 1147.49 135.2 1153.21 129.791C1158.92 124.381 1165.91 120.508 1173.53 118.535C1181.07 116.583 1188.98 116.554 1196.53 118.449C1203.27 124.04 1208.3 131.417 1211.05 139.737C1213.82 148.133 1214.14 157.144 1211.99 165.719C1209.84 174.294 1205.29 182.081 1198.88 188.17C1192.47 194.26 1184.46 198.403 1175.78 200.115L1175.78 200.115C1169.1 201.441 1162.21 201.257 1155.61 199.577C1147.29 192.749 1141.62 183.234 1139.56 172.669Z" fill="#F7F7F7" stroke="white" stroke-width="2.17984"/>
<path d="M1176.01 201.24C1201.87 196.162 1218.73 171.074 1213.65 145.205C1208.57 119.336 1183.48 102.481 1157.62 107.56C1131.75 112.638 1114.89 137.726 1119.97 163.595C1125.05 189.464 1150.14 206.319 1176.01 201.24Z" stroke="white" stroke-width="4.35967" stroke-linecap="round" stroke-linejoin="round"/>
<path d="M1164.32 137.259L1160.91 119.89" stroke="white" stroke-width="4.35967" stroke-linecap="round" stroke-linejoin="round"/>
<path d="M1177.06 152.387L1194.49 148.967" stroke="white" stroke-width="4.35967" stroke-linecap="round" stroke-linejoin="round"/>
<path d="M1169.36 171.531L1172.77 188.9" stroke="white" stroke-width="4.35967" stroke-linecap="round" stroke-linejoin="round"/>
<path d="M1156.56 156.413L1139.19 159.823" stroke="white" stroke-width="4.35967" stroke-linecap="round" stroke-linejoin="round"/>
<path d="M1380.24 180.105L1380.24 180.101C1379.52 176.495 1379.73 172.765 1380.84 169.261C1381.96 165.758 1383.95 162.594 1386.62 160.066C1389.29 157.538 1392.55 155.728 1396.11 154.806C1399.59 153.905 1403.24 153.881 1406.73 154.735C1409.83 157.338 1412.15 160.753 1413.42 164.601C1414.72 168.525 1414.87 172.736 1413.86 176.743C1412.85 180.751 1410.73 184.389 1407.73 187.235C1404.74 190.081 1401 192.017 1396.94 192.817L1396.94 192.818C1393.86 193.429 1390.68 193.353 1387.64 192.597C1383.81 189.413 1381.19 185 1380.24 180.105Z" fill="#F4F4F4" stroke="white" stroke-width="2.17984"/>
<path d="M1397.16 193.914C1409.56 191.479 1417.64 179.449 1415.21 167.045C1412.77 154.641 1400.74 146.56 1388.34 148.995C1375.94 151.43 1367.85 163.459 1370.29 175.863C1372.72 188.267 1384.75 196.349 1397.16 193.914Z" stroke="white" stroke-width="4.35967" stroke-linecap="round" stroke-linejoin="round"/>
<path d="M1391.55 163.235L1389.92 154.907" stroke="white" stroke-width="4.35967" stroke-linecap="round" stroke-linejoin="round"/>
<path d="M1397.66 170.489L1406.02 168.849" stroke="white" stroke-width="4.35967" stroke-linecap="round" stroke-linejoin="round"/>
<path d="M1393.97 179.668L1395.6 187.997" stroke="white" stroke-width="4.35967" stroke-linecap="round" stroke-linejoin="round"/>
<path d="M1387.83 172.419L1379.5 174.054" stroke="white" stroke-width="4.35967" stroke-linecap="round" stroke-linejoin="round"/>
<path d="M1361.37 2.30699L1361.37 2.30226C1360.65 -1.30389 1360.86 -5.03322 1361.97 -8.53699C1363.09 -12.0408 1365.07 -15.2046 1367.75 -17.7325C1370.42 -20.2605 1373.68 -22.0701 1377.24 -22.9921C1380.72 -23.8939 1384.37 -23.9177 1387.86 -23.0633C1390.96 -20.4608 1393.28 -17.045 1394.55 -13.1977C1395.84 -9.27381 1396 -5.06272 1394.99 -1.05527C1393.98 2.95218 1391.86 6.59094 1388.86 9.43689C1385.87 12.2828 1382.12 14.2187 1378.07 15.0189L1378.07 15.0191C1374.99 15.6302 1371.81 15.5544 1368.77 14.7985C1364.94 11.6142 1362.32 7.20182 1361.37 2.30699Z" fill="#F4F4F4" stroke="white" stroke-width="2.17984"/>
<path d="M1378.29 16.1152C1390.69 13.6802 1398.77 1.65065 1396.34 -10.7534C1393.9 -23.1575 1381.87 -31.2391 1369.47 -28.804C1357.06 -26.369 1348.98 -14.3395 1351.42 -1.93541C1353.85 10.4687 1365.88 18.5502 1378.29 16.1152Z" stroke="white" stroke-width="4.35967" stroke-linecap="round" stroke-linejoin="round"/>
<path d="M1375.1 1.86987L1376.73 10.1982" stroke="white" stroke-width="4.35967" stroke-linecap="round" stroke-linejoin="round"/>
<path d="M1064.09 -6.59364L1064.09 -6.59838C1063.37 -10.2045 1063.58 -13.9339 1064.69 -17.4376C1065.81 -20.9414 1067.79 -24.1052 1070.46 -26.6332C1073.13 -29.1611 1076.4 -30.9707 1079.96 -31.8927C1083.44 -32.7945 1087.09 -32.8184 1090.58 -31.964C1093.68 -29.3614 1096 -25.9456 1097.27 -22.0983C1098.56 -18.1744 1098.72 -13.9634 1097.71 -9.9559C1096.7 -5.94846 1094.58 -2.30969 1091.58 0.536258C1088.59 3.3822 1084.84 5.31808 1080.79 6.11831L1080.79 6.11851C1077.71 6.72957 1074.53 6.65381 1071.49 5.89785C1067.66 2.71356 1065.04 -1.69881 1064.09 -6.59364Z" fill="#F7F7F7" stroke="white" stroke-width="2.17984"/>
<path d="M1081 7.21467C1093.41 4.77964 1101.49 -7.24986 1099.06 -19.654C1096.62 -32.0581 1084.59 -40.1396 1072.19 -37.7046C1059.78 -35.2695 1051.7 -23.24 1054.14 -10.8359C1056.57 1.56818 1068.6 9.6497 1081 7.21467Z" stroke="white" stroke-width="4.35967" stroke-linecap="round" stroke-linejoin="round"/>
<path d="M1077.82 -7.03064L1079.45 1.29769" stroke="white" stroke-width="4.35967" stroke-linecap="round" stroke-linejoin="round"/>
<path d="M763.419 161.242L763.418 161.237C762.7 157.631 762.909 153.902 764.024 150.398C765.139 146.894 767.124 143.73 769.794 141.202C772.464 138.674 775.732 136.865 779.291 135.943C782.773 135.041 786.422 135.017 789.913 135.872C793.014 138.474 795.33 141.89 796.599 145.737C797.894 149.661 798.047 153.872 797.04 157.88C796.033 161.887 793.908 165.526 790.913 168.372C787.917 171.218 784.174 173.154 780.12 173.954L780.119 173.954C777.039 174.565 773.863 174.489 770.817 173.733C766.986 170.549 764.371 166.137 763.419 161.242Z" fill="#F4F4F4" stroke="white" stroke-width="2.17984"/>
<path d="M780.336 175.05C792.74 172.615 800.822 160.586 798.387 148.182C795.952 135.778 783.922 127.696 771.518 130.131C759.114 132.566 751.032 144.596 753.467 157C755.902 169.404 767.932 177.485 780.336 175.05Z" stroke="white" stroke-width="4.35967" stroke-linecap="round" stroke-linejoin="round"/>
<path d="M774.731 144.372L773.096 136.043" stroke="white" stroke-width="4.35967" stroke-linecap="round" stroke-linejoin="round"/>
<path d="M780.843 151.625L789.198 149.985" stroke="white" stroke-width="4.35967" stroke-linecap="round" stroke-linejoin="round"/>
<path d="M777.148 160.805L778.783 169.133" stroke="white" stroke-width="4.35967" stroke-linecap="round" stroke-linejoin="round"/>
<path d="M771.01 153.556L762.681 155.191" stroke="white" stroke-width="4.35967" stroke-linecap="round" stroke-linejoin="round"/>
<path d="M1018.75 224.468L1018.75 224.463C1018.03 220.857 1018.24 217.128 1019.35 213.624C1020.47 210.12 1022.45 206.956 1025.12 204.428C1027.79 201.9 1031.06 200.091 1034.62 199.169C1038.1 198.267 1041.75 198.243 1045.24 199.097C1048.34 201.7 1050.66 205.116 1051.93 208.963C1053.22 212.887 1053.38 217.098 1052.37 221.105C1051.36 225.113 1049.24 228.752 1046.24 231.598C1043.25 234.444 1039.5 236.379 1035.45 237.18L1035.45 237.18C1032.37 237.791 1029.19 237.715 1026.15 236.959C1022.32 233.775 1019.7 229.363 1018.75 224.468Z" fill="#F4F4F4" stroke="white" stroke-width="2.17984"/>
<path d="M1035.67 238.276C1048.07 235.841 1056.15 223.812 1053.72 211.407C1051.28 199.003 1039.25 190.922 1026.85 193.357C1014.44 195.792 1006.36 207.821 1008.8 220.225C1011.23 232.63 1023.26 240.711 1035.67 238.276Z" stroke="white" stroke-width="4.35967" stroke-linecap="round" stroke-linejoin="round"/>
<path d="M1030.06 207.597L1028.43 199.269" stroke="white" stroke-width="4.35967" stroke-linecap="round" stroke-linejoin="round"/>
<path d="M1036.17 214.851L1044.53 213.211" stroke="white" stroke-width="4.35967" stroke-linecap="round" stroke-linejoin="round"/>
<path d="M1032.48 224.031L1034.11 232.359" stroke="white" stroke-width="4.35967" stroke-linecap="round" stroke-linejoin="round"/>
<path d="M1026.34 216.782L1018.01 218.417" stroke="white" stroke-width="4.35967" stroke-linecap="round" stroke-linejoin="round"/>
<path d="M698.931 261.974L698.722 261.99L698.71 261.929L698.931 261.974ZM698.931 261.974L698.907 261.954L698.931 261.974ZM759.64 230.643L759.64 230.644L759.64 230.644L759.64 230.645L759.455 234.463L757.599 231.121L757.598 231.12L757.598 231.12L757.596 231.116L757.585 231.097C757.576 231.08 757.561 231.054 757.541 231.018C757.5 230.948 757.439 230.842 757.358 230.703C757.196 230.427 756.953 230.021 756.635 229.512C755.998 228.494 755.062 227.063 753.867 225.421C751.472 222.131 748.063 218.03 743.976 214.708C739.879 211.378 735.195 208.907 730.234 208.701C725.329 208.497 719.947 210.502 714.386 216.538C713.22 217.825 712.151 219.196 711.187 220.64C712.127 226.915 717.628 231.801 723.284 235.211C726.131 236.927 728.934 238.218 731.029 239.08C732.074 239.511 732.94 239.833 733.542 240.047C733.843 240.154 734.078 240.234 734.236 240.287C734.315 240.313 734.375 240.333 734.414 240.345L734.458 240.359L734.468 240.362L734.47 240.363L734.47 240.363L734.47 240.363C734.47 240.363 734.47 240.363 734.469 240.365L734.043 242.488C727.675 241.895 721.258 242.322 715.032 243.748C719.809 247.527 725.217 250.442 731.012 252.353L730.551 254.469C730.551 254.471 730.551 254.471 730.551 254.471L730.551 254.471L730.549 254.471L730.538 254.47L730.493 254.465C730.452 254.461 730.39 254.455 730.308 254.447C730.144 254.432 729.899 254.41 729.582 254.387C728.949 254.34 728.031 254.284 726.9 254.25C724.635 254.183 721.528 254.206 718.15 254.564C711.481 255.27 704.071 257.252 699.824 262.099C700.848 273.869 710.307 283.508 722.255 289.473C734.262 295.469 748.391 297.549 758.074 294.487L758.08 294.485C772.996 289.854 789.606 282.601 796.791 268.817C796.973 267.129 797.035 265.43 796.977 263.734L796.976 263.709L796.976 263.685L796.976 263.685L796.976 263.685L796.976 263.681L796.976 263.663L796.977 263.591C796.977 263.525 796.977 263.427 796.976 263.297C796.974 263.037 796.968 262.652 796.955 262.157C796.928 261.166 796.867 259.736 796.735 257.988C796.469 254.489 795.916 249.729 794.766 244.675C792.445 234.479 787.781 223.459 778.55 218.802C773.844 216.428 770.418 216.101 767.93 216.749C765.452 217.395 763.702 219.062 762.451 221.109C761.193 223.166 760.484 225.544 760.092 227.441C759.897 228.384 759.784 229.193 759.719 229.764C759.687 230.049 759.667 230.274 759.655 230.425C759.649 230.501 759.645 230.558 759.643 230.595L759.64 230.635L759.64 230.643Z" fill="#F7F7F7" stroke="white" stroke-width="2.17984"/>
<path d="M801.607 251.853C801.607 251.853 801.982 215.773 782.582 205.986C763.182 196.2 762.092 218.748 762.092 218.748C762.092 218.748 740.047 179.067 717.123 203.96C694.198 228.852 734.182 241.395 734.182 241.395C734.182 241.395 696.748 237.091 698.722 261.99C700.697 286.889 738.325 301.876 758.47 295.668C778.615 289.461 802.597 278.266 801.607 251.853Z" stroke="white" stroke-width="4.35967" stroke-linecap="round" stroke-linejoin="round"/>
<path d="M752.065 238.118L772.406 269.316L745.608 267.352" stroke="white" stroke-width="4.35967" stroke-linecap="round" stroke-linejoin="round"/>
<path d="M766.117 259.636L768.612 236.734" stroke="white" stroke-width="4.35967" stroke-linecap="round" stroke-linejoin="round"/>
<path d="M952.327 -18.7296L952.328 -18.728L952.328 -18.7276L952.328 -18.7275L953.943 -15.262L954.398 -19.0583L954.398 -19.0584L954.398 -19.0597L954.399 -19.0665L954.403 -19.0964C954.404 -19.1088 954.406 -19.1242 954.409 -19.1426C954.411 -19.1644 954.415 -19.1903 954.419 -19.2202C954.433 -19.3306 954.456 -19.4961 954.487 -19.7122C954.549 -20.1446 954.646 -20.7797 954.785 -21.5831C955.062 -23.1904 955.504 -25.4689 956.164 -28.1441C957.484 -33.5036 959.664 -40.4128 963.104 -46.7002C966.55 -52.9982 971.2 -58.5647 977.409 -61.4061C983.568 -64.2245 991.448 -64.4461 1001.57 -59.6949C1003.75 -58.6505 1005.85 -57.4438 1007.85 -56.0852C1010.01 -47.5301 1005.5 -38.4137 1000.12 -31.2019C997.422 -27.5792 994.56 -24.5161 992.37 -22.357C991.276 -21.2785 990.352 -20.4281 989.704 -19.8489C989.38 -19.5594 989.125 -19.3378 988.953 -19.1896C988.866 -19.1154 988.8 -19.0597 988.757 -19.0229L988.708 -18.9821L988.697 -18.9726L988.694 -18.9706L988.694 -18.9704L988.694 -18.9703C988.694 -18.9703 988.694 -18.9703 988.695 -18.9689L989.892 -17.164C997.829 -21.3018 1006.39 -24.1052 1015.23 -25.4666C1011.11 -17.9764 1005.66 -11.2894 999.154 -5.73489L1000.38 -3.94951C1000.38 -3.94803 1000.38 -3.94802 1000.38 -3.94802L1000.38 -3.94811L1000.38 -3.94827L1000.38 -3.94979L1000.4 -3.95682L1000.45 -3.98651C1000.5 -4.0131 1000.58 -4.05307 1000.68 -4.10525C1000.88 -4.20962 1001.18 -4.36276 1001.56 -4.55518C1002.34 -4.9401 1003.46 -5.48184 1004.87 -6.10463C1007.68 -7.35112 1011.59 -8.91754 1016.02 -10.2018C1024.8 -12.746 1035.29 -14.0924 1043.24 -10.0379C1048.12 5.44269 1041.11 22.5455 1029.12 36.2088C1017.12 49.8959 1000.41 59.7926 986.6 60.9194L986.594 60.9199C965.537 62.7497 940.858 62.1798 924.689 48.4426C923.576 46.3874 922.612 44.2554 921.803 42.0627L921.794 42.0399L921.785 42.0176L921.784 42.0166L921.782 42.0115L921.773 41.9892L921.735 41.8966C921.701 41.8139 921.65 41.6894 921.585 41.5252C921.453 41.1968 921.262 40.7097 921.025 40.0805C920.551 38.8219 919.894 36.9955 919.164 34.7333C917.704 30.2063 915.958 23.9472 914.811 17.0091C912.501 3.04594 912.677 -13.2879 921.972 -23.9734C926.686 -29.3926 930.884 -31.6226 934.453 -32.0991C938.011 -32.5741 941.151 -31.3336 943.816 -29.372C946.491 -27.4029 948.623 -24.7504 950.096 -22.5567C950.829 -21.4653 951.391 -20.5003 951.768 -19.8106C951.957 -19.4661 952.099 -19.191 952.193 -19.0041C952.24 -18.9107 952.274 -18.8394 952.297 -18.7926L952.322 -18.7411L952.327 -18.7296ZM1044.24 -10.4678L1043.97 -10.3815L1043.99 -10.4186L1044.24 -10.4678Z" fill="#F7F7F7" stroke="white" stroke-width="2.17984"/>
<path d="M910.295 29.4275C910.295 29.4275 891.386 -15.5378 910.665 -37.7011C929.944 -59.8645 942.831 -32.2007 942.831 -32.2007C942.831 -32.2007 950.142 -93.1304 991.555 -73.6921C1032.97 -54.2539 989.337 -18.1204 989.337 -18.1204C989.337 -18.1204 1033.99 -42.6392 1044.24 -10.4677C1054.5 21.7038 1015.06 59.6914 986.677 62.2179C958.292 64.7445 922.555 62.9906 910.295 29.4275Z" stroke="white" stroke-width="4.35967" stroke-linecap="round" stroke-linejoin="round"/>
<path d="M965.28 -13.0828L955.767 36.3594L988.303 20.2053" stroke="white" stroke-width="4.35967" stroke-linecap="round" stroke-linejoin="round"/>
<path d="M958.691 21.0298L943.862 -6.35791" stroke="white" stroke-width="4.35967" stroke-linecap="round" stroke-linejoin="round"/>
<path d="M1107.47 228.055L1107.47 228.055L1107.47 228.055C1107.47 228.055 1107.47 228.055 1107.47 228.056L1109.5 228.823C1112.45 222.963 1116.32 217.619 1120.96 212.992C1121.64 219.21 1121.22 225.505 1119.73 231.589L1121.76 232.325C1121.76 232.326 1121.76 232.326 1121.76 232.326L1121.76 232.326L1121.77 232.324L1121.77 232.314L1121.79 232.272C1121.81 232.234 1121.84 232.177 1121.88 232.102C1121.95 231.951 1122.07 231.726 1122.22 231.439C1122.53 230.864 1122.98 230.037 1123.57 229.037C1124.74 227.036 1126.46 224.353 1128.61 221.619C1132.91 216.153 1138.76 210.737 1145.36 209.791C1154.86 217.174 1158.01 230.532 1156.69 244.064C1155.35 257.757 1149.48 271.198 1141.59 278.088C1129.46 288.511 1114.13 298.995 1098.24 297.687C1096.68 296.913 1095.18 296.035 1093.75 295.059L1093.73 295.045L1093.71 295.033L1093.71 295.032L1093.71 295.032L1093.7 295.03L1093.69 295.021L1093.62 294.981C1093.57 294.946 1093.48 294.892 1093.37 294.82C1093.15 294.677 1092.82 294.462 1092.39 294.18C1091.55 293.616 1090.35 292.784 1088.9 291.715C1086.02 289.577 1082.2 286.502 1078.45 282.749C1070.88 275.181 1063.87 265.129 1064.85 254.595C1065.35 249.228 1066.93 246.078 1068.85 244.272C1070.76 242.472 1073.17 241.861 1075.63 241.891C1078.1 241.921 1080.55 242.6 1082.41 243.292C1083.34 243.636 1084.1 243.978 1084.63 244.233C1084.9 244.36 1085.11 244.465 1085.24 244.537C1085.31 244.573 1085.36 244.601 1085.4 244.619L1085.43 244.639L1085.44 244.643L1085.44 244.643L1085.44 244.643L1085.44 244.644L1088.77 246.514L1086.93 243.167L1086.93 243.167L1086.93 243.166L1086.93 243.162L1086.92 243.143C1086.91 243.134 1086.91 243.122 1086.9 243.108C1086.89 243.095 1086.88 243.079 1086.87 243.061C1086.83 242.987 1086.77 242.877 1086.7 242.731C1086.55 242.44 1086.33 242.009 1086.06 241.456C1085.52 240.35 1084.79 238.76 1084.02 236.831C1082.47 232.965 1080.76 227.779 1080.11 222.426C1079.45 217.062 1079.85 211.653 1082.38 207.236C1084.87 202.865 1089.55 199.287 1097.82 197.751L1097.83 197.749L1097.84 197.747C1099.55 197.397 1101.29 197.187 1103.03 197.121C1107.97 201.35 1109.22 208.787 1109.09 215.548C1109.03 218.951 1108.62 222.085 1108.23 224.371C1108.04 225.513 1107.84 226.439 1107.7 227.078C1107.63 227.398 1107.57 227.645 1107.53 227.811C1107.51 227.894 1107.5 227.956 1107.49 227.997L1107.47 228.043L1107.47 228.053L1107.47 228.055Z" fill="#E5E5E5" stroke="white" stroke-width="2.17984"/>
<path d="M1080.82 292.374C1080.82 292.374 1049.4 273.058 1051.45 250.908C1053.5 228.757 1073.66 240.107 1073.66 240.107C1073.66 240.107 1051.28 199.414 1085.34 193.085C1119.41 186.756 1108.52 228.294 1108.52 228.294C1108.52 228.294 1125.24 193.564 1145.68 208.793C1166.12 224.023 1158.66 264.808 1142.3 278.874C1125.94 292.94 1103.15 307.511 1080.82 292.374Z" stroke="white" stroke-width="4.35967" stroke-linecap="round" stroke-linejoin="round"/>
<path d="M1095.88 241.868L1111.82 276.508L1124.74 252.185" stroke="white" stroke-width="4.35967" stroke-linecap="round" stroke-linejoin="round"/>
<path d="M1106.88 265.749L1085.66 255.444" stroke="white" stroke-width="4.35967" stroke-linecap="round" stroke-linejoin="round"/>
<path d="M1359.58 35.2769C1360.74 44.7711 1360.17 54.4039 1357.88 63.7036L1359.92 64.4392C1359.92 64.4398 1359.92 64.4398 1359.92 64.4398L1359.92 64.4396L1359.92 64.4392L1359.92 64.4359L1359.93 64.4209L1359.96 64.3579C1359.98 64.3014 1360.03 64.2163 1360.08 64.1044C1360.2 63.8805 1360.37 63.5495 1360.59 63.1259C1361.04 62.2787 1361.71 61.0617 1362.57 59.5915C1364.3 56.649 1366.83 52.7022 1369.99 48.6777C1376.34 40.6045 1385.08 32.4779 1395.05 31.1495C1409.28 42.081 1413.93 61.9278 1411.99 81.8889C1410.02 102.013 1401.39 121.824 1389.72 132.019C1371.94 147.291 1349.33 162.8 1325.8 160.816C1323.47 159.663 1321.23 158.352 1319.08 156.893L1319.06 156.879L1319.04 156.866L1319.04 156.869C1319.04 156.866 1319.04 156.866 1319.04 156.866L1319.04 156.865L1319.03 156.862L1319.01 156.848L1318.92 156.789C1318.83 156.736 1318.71 156.656 1318.54 156.55C1318.21 156.338 1317.72 156.022 1317.1 155.608C1315.87 154.778 1314.09 153.556 1311.98 151.987C1307.74 148.847 1302.13 144.33 1296.62 138.815C1285.53 127.722 1275.11 112.865 1276.57 97.206C1277.31 89.2762 1279.65 84.5323 1282.58 81.7758C1285.5 79.0266 1289.17 78.1102 1292.85 78.1546C1296.55 78.1991 1300.2 79.2133 1302.96 80.2372C1304.32 80.7468 1305.46 81.2535 1306.25 81.6314C1306.64 81.8202 1306.95 81.9765 1307.15 82.0845C1307.26 82.1385 1307.33 82.1803 1307.39 82.2081L1307.44 82.2389L1307.46 82.246L1307.46 82.2471L1307.46 82.2473L1307.46 82.2474L1310.79 84.1176L1308.95 80.7707L1308.95 80.7708C1308.95 80.7707 1308.95 80.7707 1308.95 80.7706L1308.94 80.7693L1308.94 80.7625L1308.92 80.7329C1308.91 80.706 1308.89 80.6651 1308.86 80.6106C1308.8 80.5014 1308.71 80.3376 1308.6 80.1225C1308.38 79.6924 1308.05 79.0572 1307.66 78.2438C1306.87 76.6165 1305.79 74.2781 1304.65 71.4424C1302.38 65.7621 1299.87 58.1267 1298.9 50.2337C1297.93 42.3287 1298.51 34.2874 1302.28 27.6891C1306.03 21.138 1313.01 15.8311 1325.23 13.561L1325.24 13.5593L1325.25 13.5573C1327.85 13.0259 1330.49 12.7139 1333.14 12.6244C1340.68 18.9496 1342.51 30.1295 1342.33 40.1141C1342.24 45.1277 1341.64 49.741 1341.06 53.1039C1340.77 54.7839 1340.49 56.1483 1340.28 57.0903C1340.18 57.5612 1340.09 57.9263 1340.03 58.1722C1340 58.2952 1339.98 58.3883 1339.96 58.4499L1339.94 58.5186L1339.94 58.5348L1339.94 58.5383L1339.94 58.5388L1339.94 58.5389C1339.94 58.5389 1339.94 58.5389 1339.94 58.5393L1341.97 59.3066C1346.47 50.3724 1352.42 42.2528 1359.58 35.2769Z" fill="#E5E5E5" stroke="white" stroke-width="2.17984"/>
<path d="M1300.45 152.545C1300.45 152.545 1254.46 124.275 1257.46 91.8559C1260.47 59.4371 1289.97 76.0478 1289.97 76.0478C1289.97 76.0478 1257.21 16.4924 1307.07 7.22956C1356.92 -2.0333 1340.98 58.7601 1340.98 58.7601C1340.98 58.7601 1365.45 7.92965 1395.37 30.2192C1425.29 52.5087 1414.37 112.2 1390.43 132.787C1366.48 153.373 1333.13 174.699 1300.45 152.545Z" stroke="white" stroke-width="4.35967" stroke-linecap="round" stroke-linejoin="round"/>
<path d="M1322.48 78.6265L1345.82 129.324L1364.72 93.7258" stroke="white" stroke-width="4.35967" stroke-linecap="round" stroke-linejoin="round"/>
<path d="M1338.59 113.577L1307.53 98.4948" stroke="white" stroke-width="4.35967" stroke-linecap="round" stroke-linejoin="round"/>
<path d="M1156.81 26.3723L1126.9 72.5492L1088.4 47.6111L1107.74 17.7432L1107.99 17.3629L1107.89 16.9201L1105.1 4.00315L1110.06 -3.66674L1110.31 -4.04524L1110.22 -4.48632L1100.79 -48.7185L1100.66 -49.3531L1100.04 -49.5367C1095.81 -50.7838 1091.79 -52.6303 1088.09 -55.0198C1080.91 -59.6767 1075.12 -66.1869 1071.34 -73.8619C1067.56 -81.5373 1065.93 -90.0921 1066.61 -98.6209L1066.65 -99.1077L1066.31 -99.4608C1055.33 -110.951 1048.83 -125.992 1047.99 -141.858C1051.5 -154.558 1058.72 -165.923 1068.73 -174.502C1078.78 -183.119 1091.18 -188.53 1104.33 -190.038C1117.48 -191.546 1130.79 -189.082 1142.53 -182.964C1154.26 -176.845 1163.9 -167.352 1170.2 -155.707L1170.84 -154.523L1171.87 -155.395C1181.3 -163.426 1192.8 -168.65 1205.05 -170.475C1217.3 -172.3 1229.82 -170.652 1241.19 -165.718C1252.55 -160.785 1262.31 -152.763 1269.34 -142.565C1276.35 -132.4 1280.38 -120.479 1280.98 -108.147C1280.95 -107.988 1280.9 -107.833 1280.85 -107.681L1280.78 -107.483L1280.79 -107.272C1281.06 -100.184 1280.19 -93.0982 1278.2 -86.2875L1277.83 -84.9973L1279.17 -84.896C1295.29 -83.6768 1310.42 -76.6044 1321.7 -65.01C1332.93 -53.4584 1339.57 -38.212 1340.38 -22.1227C1338.57 -15.8097 1335.83 -9.79839 1332.26 -4.28287C1324.16 8.22826 1312.08 17.6443 1297.97 22.4451C1283.86 27.2459 1268.54 27.1513 1254.49 22.1765L1254.03 22.0137L1253.6 22.2481C1246.1 26.359 1237.62 28.3651 1229.07 28.054C1220.52 27.743 1212.21 25.1271 1205.03 20.4832C1203.45 19.4458 1201.93 18.3261 1200.48 17.1284L1200.07 16.7948L1199.56 16.9047L1157.5 25.8989L1157.06 25.9933L1156.81 26.3723Z" fill="#F7F7F7" stroke="white" stroke-width="2.17984"/>
<path d="M1333.18 -3.6908C1339.48 -13.4873 1343.14 -24.7498 1343.8 -36.3808C1344.45 -48.0118 1342.09 -59.6146 1336.92 -70.0586C1331.76 -80.5025 1323.99 -89.4314 1314.35 -95.9751C1304.71 -102.519 1293.54 -106.454 1281.93 -107.398C1286.03 -121.334 1285.52 -136.222 1280.47 -149.844C1275.43 -163.467 1266.11 -175.093 1253.92 -182.99C1241.72 -190.887 1227.31 -194.633 1212.81 -193.668C1198.31 -192.703 1184.52 -187.079 1173.48 -177.635C1168.13 -187.552 1160.35 -195.952 1150.87 -202.05C1137 -211.146 1120.27 -214.811 1103.88 -212.344C1087.48 -209.877 1072.57 -201.451 1061.99 -188.679C1051.42 -175.906 1045.93 -159.684 1046.57 -143.115C1047.2 -126.546 1053.93 -110.794 1065.45 -98.8723C1064.84 -91.2772 1066.02 -83.644 1068.91 -76.5926C1071.8 -69.5412 1076.31 -63.2705 1082.08 -58.2896C1087.84 -53.3088 1094.7 -49.7583 1102.1 -47.9265C1109.5 -46.0947 1117.22 -46.0332 1124.64 -47.7471C1125.9 -41.3815 1128.43 -35.3334 1132.07 -29.962C1135.71 -24.5906 1140.39 -20.0051 1145.84 -16.4777C1151.28 -12.9503 1157.38 -10.5528 1163.77 -9.42749C1170.16 -8.30217 1176.72 -8.47203 1183.04 -9.92685C1184.51 -2.44217 1187.72 4.59056 1192.42 10.599C1197.12 16.6075 1203.17 21.4221 1210.08 24.651C1216.99 27.8799 1224.56 29.432 1232.18 29.1809C1239.81 28.9299 1247.26 26.8828 1253.94 23.2062C1268.25 28.3078 1283.86 28.4272 1298.24 23.545C1312.62 18.6629 1324.93 9.06542 1333.18 -3.6908V-3.6908Z" stroke="white" stroke-width="4.35967" stroke-linecap="round" stroke-linejoin="round"/>
<path d="M1183.14 -9.98258C1176.81 -8.52776 1170.26 -8.35803 1163.87 -9.48334C1157.48 -10.6087 1151.38 -13.0062 1145.93 -16.5336C1140.49 -20.061 1135.81 -24.6465 1132.16 -30.0179C1128.52 -35.3893 1126 -41.4372 1124.74 -47.8029C1116.48 -45.9001 1107.86 -46.2137 1099.75 -48.7118L1109.17 -4.47957L1078.78 42.4453L1127.25 73.8362L1157.64 26.9113L1199.7 17.9171C1191.14 10.7923 1185.3 0.942 1183.14 -9.98258V-9.98258Z" stroke="white" stroke-width="4.35967" stroke-linecap="round" stroke-linejoin="round"/>
<path d="M1136.99 15.0146L1172.26 -8.73501" stroke="white" stroke-width="4.35967" stroke-linecap="round" stroke-linejoin="round"/>
<path d="M1257.73 -1.28239C1275.91 -0.959415 1293.67 -6.7697 1308.14 -17.7759" stroke="white" stroke-width="4.35967" stroke-linecap="round" stroke-linejoin="round"/>
<path d="M1206.12 383.432L1206.11 383.426C1180.87 366.837 1162.99 341.172 1156.17 311.77L1327.48 227.621L1316.1 395.124C1283.33 409.989 1241.09 406.926 1206.12 383.432Z" fill="#F7F7F7" stroke="white" stroke-width="2.17984"/>
<path d="M1330.63 198.088L1152.63 285.309L1152.42 285.35C1151.04 322.02 1169.89 360.339 1205.29 384.122C1240.69 407.904 1283.53 410.955 1316.72 395.726L1316.93 395.686L1330.63 198.088Z" stroke="white" stroke-width="4.35967" stroke-linecap="round" stroke-linejoin="round"/>
<path d="M1181.33 271.262C1188.28 301.344 1206.4 327.662 1232.02 344.883C1257.65 362.105 1288.86 368.942 1319.34 364.009" stroke="white" stroke-width="4.35967" stroke-linecap="round" stroke-linejoin="round"/>
</g>
<g opacity="0.3">
<path d="M371.706 -66.0357C370.123 -50.6013 364.78 -35.78 356.134 -22.8753C345.915 -9.39044 332.355 1.1809 316.807 7.80325C318.424 -7.62264 323.763 -22.4352 332.375 -35.3563C342.595 -48.842 356.157 -59.4137 371.706 -66.0357Z" fill="#E5E5E5" stroke="white" stroke-width="2.17984"/>
<path d="M351.3 -21.4673C368.784 -46.1461 367.667 -76.958 367.667 -76.958C367.667 -76.958 338.346 -67.772 320.735 -43.0845C303.124 -18.3971 304.325 12.409 304.325 12.409C304.325 12.409 333.774 3.21427 351.3 -21.4673Z" stroke="white" stroke-width="4.35967" stroke-linecap="round" stroke-linejoin="round"/>
<path d="M218.788 126.889L218.773 126.894L218.759 126.899C209.841 130.339 200.154 131.286 190.737 129.639C181.324 127.992 172.536 123.813 165.317 117.552C156.918 110.038 151.204 99.9855 149.044 88.9247L148.903 88.2062L148.185 88.0644C137.155 85.8859 127.138 80.1662 119.656 71.7743C114.124 65.5017 110.25 57.9453 108.385 49.7942C108.887 45.9444 109.816 42.1621 111.154 38.5172C113.489 32.2097 117.197 26.5004 122.01 21.8029C127.546 16.7049 131.786 10.3596 134.378 3.29402L134.385 3.27602L134.391 3.25778C137.493 -6.21516 143.156 -14.645 150.752 -21.0985L150.754 -21.0996C158.018 -27.2898 166.776 -31.4699 176.158 -33.2238C185.539 -34.9777 195.217 -34.2442 204.227 -31.0964C213.237 -27.9487 221.265 -22.4962 227.514 -15.2818C233.762 -8.06743 238.012 0.657388 239.841 10.0245L239.982 10.7457L240.703 10.8856C249.002 12.4961 256.812 16.0189 263.512 21.1742C270.212 26.3295 275.619 32.9756 279.302 40.5849C282.986 48.1942 284.845 56.5572 284.733 65.0104C284.621 73.4034 282.568 81.6559 278.737 89.1223C272.454 95.1141 264.912 99.6272 256.66 102.331L256.644 102.336L256.627 102.342C249.081 105.081 242.293 109.571 236.821 115.444C231.748 120.568 225.584 124.481 218.788 126.889Z" fill="#F7F7F7" stroke="white" stroke-width="2.17984"/>
<path d="M280.802 88.4284C287.661 80.5043 292.315 70.9157 294.297 60.6247C296.28 50.3337 295.521 39.7022 292.097 29.7971C288.673 19.8921 282.703 11.0618 274.789 4.19241C266.874 -2.67699 257.291 -7.34393 247.003 -9.34006C244.576 -22.4388 237.841 -34.3509 227.869 -43.1841C217.897 -52.0172 205.259 -57.2648 191.964 -58.0932C178.668 -58.9216 165.476 -55.2834 154.485 -47.7564C143.494 -40.2294 135.333 -29.2454 131.298 -16.5493C128.609 -9.16294 124.18 -2.53297 118.387 2.78016C113.158 7.98777 109.15 14.2914 106.653 21.236C103.18 30.2975 102.224 40.1298 103.885 49.6907C105.547 59.2516 109.765 68.1848 116.091 75.5432C123.731 84.1135 133.961 89.9551 145.225 92.1797C147.431 103.476 153.268 113.743 161.847 121.416C169.193 127.755 178.119 131.987 187.676 133.662C197.234 135.338 207.066 134.394 216.131 130.931C223.087 128.467 229.396 124.461 234.586 119.214C239.943 113.462 246.589 109.064 253.978 106.382C264.405 102.987 273.689 96.7735 280.802 88.4284Z" stroke="white" stroke-width="4.35967" stroke-linecap="round" stroke-linejoin="round"/>
<path d="M331.504 65.5247C346.932 67.1736 361.73 72.5797 374.598 81.2808C388.039 91.5581 398.552 105.163 405.108 120.74C389.689 119.056 374.899 113.654 362.015 104.987C348.573 94.7088 338.06 81.1022 331.504 65.5247Z" fill="#E5E5E5" stroke="white" stroke-width="2.17984"/>
<path d="M375.985 86.1213C351.381 68.5322 320.564 69.5168 320.564 69.5168C320.564 69.5168 329.625 98.8764 354.237 116.593C378.849 134.31 409.66 133.24 409.66 133.24C409.66 133.24 400.591 103.753 375.985 86.1213Z" stroke="white" stroke-width="4.35967" stroke-linecap="round" stroke-linejoin="round"/>
<path d="M76.8187 6.69807C63.9418 15.3533 49.1314 20.7261 33.6815 22.3339C16.7791 23.1031 -0.020318 19.4409 -15.0555 11.7249C-2.16308 3.10168 12.6379 -2.26879 28.0787 -3.91323C44.9823 -4.6822 61.7828 -1.01921 76.8187 6.69807Z" fill="#E5E5E5" stroke="white" stroke-width="2.17984"/>
<path d="M29.507 19.5181C59.6602 17.1731 82.6312 -3.39276 82.6312 -3.39276C82.6312 -3.39276 56.8163 -20.056 26.5747 -17.8036C-3.66694 -15.5512 -26.5791 5.07631 -26.5791 5.07631C-26.5791 5.07631 -0.67569 21.8322 29.507 19.5181Z" stroke="white" stroke-width="4.35967" stroke-linecap="round" stroke-linejoin="round"/>
<path d="M557.855 4.36872C557.038 19.8626 552.436 34.9302 544.439 48.2471C534.9 62.2214 521.879 73.4511 506.678 80.8351C507.53 65.3481 512.129 50.2894 520.091 36.9577C529.631 22.9826 542.652 11.7525 557.855 4.36872Z" fill="#E5E5E5" stroke="white" stroke-width="2.17984"/>
<path d="M539.68 49.8924C555.92 24.3783 553.28 -6.34051 553.28 -6.34051C553.28 -6.34051 524.45 4.28583 508.082 29.8149C491.715 55.3439 494.44 86.0528 494.44 86.0528C494.44 86.0528 523.397 75.4114 539.68 49.8924Z" stroke="white" stroke-width="4.35967" stroke-linecap="round" stroke-linejoin="round"/>
<path d="M162.868 196.01C148.809 189.446 136.564 179.533 127.214 167.129C117.833 153.048 112.3 136.768 111.151 119.908C125.19 126.501 137.428 136.408 146.805 148.785C156.187 162.867 161.719 179.148 162.868 196.01Z" fill="#E5E5E5" stroke="white" stroke-width="2.17984"/>
<path d="M127.472 162.1C145.041 186.718 174.511 195.781 174.511 195.781C174.511 195.781 175.462 165.07 157.927 140.329C140.391 115.587 110.899 106.606 110.899 106.606C110.899 106.606 109.914 137.441 127.472 162.1Z" stroke="white" stroke-width="4.35967" stroke-linecap="round" stroke-linejoin="round"/>
<path d="M604.883 -26.4L603.17 -26.598L603.727 -24.9654C606.536 -16.7311 606.771 -7.84414 605.171 0.154996C603.635 7.83744 600.423 14.6226 596.269 19.195C591.399 16.7649 587.251 13.092 584.248 8.54185L584.233 8.5191L584.217 8.49713C577.688 -0.395096 573.078 -9.33071 568.923 -18.1759C567.812 -20.5426 566.73 -22.9083 565.653 -25.2665C562.715 -31.6948 559.802 -38.068 556.367 -44.2569C547.344 -60.5166 534.667 -75.6183 508.129 -88.3105C511.591 -87.6169 515.387 -86.8593 519.405 -86.0574C547.413 -80.467 586.192 -72.7266 597.779 -69.5783L597.78 -69.578C607.078 -67.0633 615.018 -62.2694 619.877 -56.5278C624.723 -50.801 626.435 -44.2474 623.641 -37.9811L623.627 -37.9483L623.614 -37.9146C622.234 -34.1738 619.637 -31.0051 616.241 -28.917C612.844 -26.8289 608.844 -25.9425 604.883 -26.4Z" fill="#E5E5E5" stroke="white" stroke-width="2.17984"/>
<path d="M623.895 -29.9701C628.091 -29.4837 632.329 -30.4217 635.927 -32.6335C639.526 -34.8453 642.277 -38.2026 643.738 -42.1659C649.763 -55.6808 636.132 -70.1632 617.202 -75.2829C598.272 -80.4025 511.413 -97.1874 507.864 -97.7944L503.891 -88.9535C561.767 -63.0643 557.014 -26.6288 583.376 9.27553C608.248 43.0358 634.828 1.97674 623.895 -29.9701Z" stroke="white" stroke-width="4.35967" stroke-linecap="round" stroke-linejoin="round"/>
<path d="M323.411 247.514L323.415 247.511C329.94 243.114 337.474 240.443 345.311 239.749C353.149 239.054 361.035 240.358 368.231 243.54C375.428 246.721 381.7 251.675 386.462 257.94C391.175 264.14 394.255 271.422 395.423 279.12C392.869 287.497 388.008 294.988 381.394 300.733C374.719 306.532 366.534 310.314 357.792 311.638C349.05 312.962 340.111 311.775 332.018 308.214C323.926 304.653 317.012 298.865 312.082 291.525L312.082 291.524C308.278 285.871 305.786 279.441 304.786 272.704C307.874 262.398 314.459 253.489 323.411 247.514Z" fill="#F7F7F7" stroke="white" stroke-width="2.17984"/>
<path d="M311.129 292.163C325.804 314.064 355.455 319.923 377.356 305.248C399.257 290.573 405.115 260.923 390.44 239.021C375.766 217.12 346.115 211.262 324.214 225.937C302.313 240.612 296.455 270.262 311.129 292.163Z" stroke="white" stroke-width="4.35967" stroke-linecap="round" stroke-linejoin="round"/>
<path d="M365.634 256.673L380.338 246.82" stroke="white" stroke-width="4.35967" stroke-linecap="round" stroke-linejoin="round"/>
<path d="M344.968 256.911L335.115 242.206" stroke="white" stroke-width="4.35967" stroke-linecap="round" stroke-linejoin="round"/>
<path d="M644.371 5.33697L644.375 5.33428C647.424 3.27942 650.944 2.03136 654.607 1.70679C658.269 1.38222 661.955 1.99175 665.318 3.47838C668.681 4.96501 671.612 7.28016 673.837 10.2074C676.013 13.0705 677.444 16.4276 678.004 19.9775C676.801 23.8428 674.545 27.2983 671.486 29.9552C668.367 32.6649 664.541 34.4323 660.456 35.0512C656.371 35.6701 652.194 35.1151 648.412 33.4509C644.629 31.7867 641.398 29.0819 639.095 25.6517L639.094 25.6508C637.341 23.0456 636.184 20.0867 635.705 16.9852C637.163 12.2216 640.223 8.10538 644.371 5.33697Z" fill="#F4F4F4" stroke="white" stroke-width="2.17984"/>
<path d="M638.167 26.2739C645.203 36.7754 659.42 39.5843 669.922 32.5479C680.423 25.5115 683.232 11.2943 676.196 0.792836C669.159 -9.70859 654.942 -12.5175 644.441 -5.48113C633.939 1.55529 631.13 15.7725 638.167 26.2739Z" stroke="white" stroke-width="4.35967" stroke-linecap="round" stroke-linejoin="round"/>
<path d="M664.301 9.25623L671.352 4.53186" stroke="white" stroke-width="4.35967" stroke-linecap="round" stroke-linejoin="round"/>
<path d="M659.97 17.6954L664.71 24.769" stroke="white" stroke-width="4.35967" stroke-linecap="round" stroke-linejoin="round"/>
<path d="M650.076 17.8319L643.025 22.5563" stroke="white" stroke-width="4.35967" stroke-linecap="round" stroke-linejoin="round"/>
<path d="M654.392 9.37043L649.668 2.31958" stroke="white" stroke-width="4.35967" stroke-linecap="round" stroke-linejoin="round"/>
<path d="M459.619 108.665L459.623 108.663C462.672 106.608 466.193 105.36 469.855 105.035C473.518 104.711 477.203 105.32 480.566 106.807C483.929 108.294 486.86 110.609 489.085 113.536C491.261 116.399 492.692 119.756 493.252 123.306C492.049 127.171 489.793 130.627 486.734 133.284C483.615 135.993 479.79 137.761 475.704 138.38C471.619 138.999 467.442 138.444 463.66 136.779C459.878 135.115 456.647 132.41 454.343 128.98L454.342 128.979C452.589 126.374 451.433 123.415 450.954 120.314C452.411 115.55 455.471 111.434 459.619 108.665Z" fill="#F7F7F7" stroke="white" stroke-width="2.17984"/>
<path d="M453.415 129.602C460.451 140.104 474.669 142.913 485.17 135.876C495.671 128.84 498.48 114.623 491.444 104.121C484.408 93.6198 470.19 90.8108 459.689 97.8472C449.187 104.884 446.378 119.101 453.415 129.602Z" stroke="white" stroke-width="4.35967" stroke-linecap="round" stroke-linejoin="round"/>
<path d="M479.549 112.585L486.6 107.86" stroke="white" stroke-width="4.35967" stroke-linecap="round" stroke-linejoin="round"/>
<path d="M475.218 121.024L479.958 128.098" stroke="white" stroke-width="4.35967" stroke-linecap="round" stroke-linejoin="round"/>
<path d="M465.324 121.16L458.273 125.885" stroke="white" stroke-width="4.35967" stroke-linecap="round" stroke-linejoin="round"/>
<path d="M469.64 112.699L464.916 105.648" stroke="white" stroke-width="4.35967" stroke-linecap="round" stroke-linejoin="round"/>
<path d="M-28.886 186.24L-28.882 186.237C-25.8329 184.182 -22.3124 182.934 -18.6499 182.61C-14.9873 182.285 -11.3022 182.895 -7.93924 184.381C-4.57625 185.868 -1.64522 188.183 0.579858 191.11C2.75615 193.973 4.18755 197.331 4.74751 200.88C3.54435 204.746 1.28798 208.201 -1.77056 210.858C-4.88997 213.568 -8.71531 215.335 -12.8007 215.954C-16.886 216.573 -21.0632 216.018 -24.8452 214.354C-28.6273 212.69 -31.8584 209.985 -34.162 206.555L-34.1626 206.554C-35.9158 203.949 -37.0724 200.99 -37.5514 197.888C-36.0936 193.125 -33.0335 189.008 -28.886 186.24Z" fill="#F4F4F4" stroke="white" stroke-width="2.17984"/>
<path d="M-35.0901 207.177C-28.0536 217.678 -13.8364 220.487 -3.33498 213.451C7.16645 206.414 9.97539 192.197 2.93898 181.696C-4.09743 171.194 -18.3147 168.385 -28.8161 175.422C-39.3175 182.458 -42.1265 196.675 -35.0901 207.177Z" stroke="white" stroke-width="4.35967" stroke-linecap="round" stroke-linejoin="round"/>
<path d="M-8.9559 190.159L-1.90506 185.435" stroke="white" stroke-width="4.35967" stroke-linecap="round" stroke-linejoin="round"/>
<path d="M228.974 156.076L228.978 156.073C232.027 154.019 235.547 152.77 239.21 152.446C242.872 152.121 246.557 152.731 249.92 154.218C253.283 155.704 256.214 158.019 258.44 160.947C260.616 163.81 262.047 167.167 262.607 170.717C261.404 174.582 259.148 178.037 256.089 180.694C252.97 183.404 249.144 185.171 245.059 185.79C240.974 186.409 236.796 185.854 233.014 184.19C229.232 182.526 226.001 179.821 223.698 176.391L223.697 176.39C221.944 173.785 220.787 170.826 220.308 167.724C221.766 162.961 224.826 158.845 228.974 156.076Z" fill="#F4F4F4" stroke="white" stroke-width="2.17984"/>
<path d="M222.77 177.013C229.806 187.514 244.023 190.323 254.525 183.287C265.026 176.251 267.835 162.033 260.799 151.532C253.762 141.03 239.545 138.221 229.044 145.258C218.542 152.294 215.733 166.512 222.77 177.013Z" stroke="white" stroke-width="4.35967" stroke-linecap="round" stroke-linejoin="round"/>
<path d="M248.904 159.995L255.955 155.271" stroke="white" stroke-width="4.35967" stroke-linecap="round" stroke-linejoin="round"/>
<path d="M244.573 168.435L249.313 175.508" stroke="white" stroke-width="4.35967" stroke-linecap="round" stroke-linejoin="round"/>
<path d="M234.679 168.571L227.628 173.295" stroke="white" stroke-width="4.35967" stroke-linecap="round" stroke-linejoin="round"/>
<path d="M238.995 160.109L234.271 153.059" stroke="white" stroke-width="4.35967" stroke-linecap="round" stroke-linejoin="round"/>
<path d="M492.02 -49.3755L492.024 -49.3782C496.191 -52.1863 501.002 -53.8918 506.007 -54.3353C511.012 -54.7789 516.047 -53.9459 520.643 -51.9144C525.239 -49.8828 529.244 -46.7191 532.285 -42.7189C535.277 -38.7828 537.238 -34.1634 537.994 -29.2799C536.356 -23.9638 533.262 -19.2107 529.061 -15.5607C524.798 -11.8579 519.571 -9.44282 513.988 -8.59707C508.405 -7.75131 502.697 -8.50973 497.529 -10.7838C492.361 -13.0579 487.946 -16.7541 484.798 -21.4415L484.797 -21.4424C482.385 -25.0274 480.798 -29.1025 480.152 -33.373C482.134 -39.9186 486.328 -45.5759 492.02 -49.3755Z" fill="#F4F4F4" stroke="white" stroke-width="2.17984"/>
<path d="M483.862 -20.814C493.354 -6.64706 512.534 -2.85766 526.701 -12.3501C540.868 -21.8426 544.657 -41.0223 535.165 -55.1892C525.672 -69.3561 506.493 -73.1455 492.326 -63.6531C478.159 -54.1606 474.369 -34.9809 483.862 -20.814Z" stroke="white" stroke-width="4.35967" stroke-linecap="round" stroke-linejoin="round"/>
<path d="M427.653 0.888135L427.652 0.889456L427.652 0.889815L427.651 0.889892L425.078 3.71735L428.756 2.67141L428.756 2.67139L428.757 2.67104L428.764 2.66918L428.793 2.66106C428.805 2.6577 428.82 2.65355 428.838 2.64864C428.859 2.64281 428.884 2.63591 428.913 2.62798C429.021 2.59874 429.182 2.55555 429.394 2.50081C429.816 2.39134 430.44 2.23574 431.234 2.05328C432.824 1.68827 435.097 1.21631 437.819 0.79114C443.272 -0.0606857 450.488 -0.717796 457.616 0.0270655C464.756 0.773187 471.686 2.91291 476.705 7.54306C481.683 12.1357 484.931 19.319 484.458 30.4931C484.336 32.9062 484.033 35.3066 483.551 37.6739C476.494 42.9706 466.345 42.3345 457.616 40.1595C453.231 39.0669 449.3 37.6096 446.463 36.4235C445.046 35.831 443.905 35.3076 443.12 34.9334C442.728 34.7464 442.425 34.5967 442.222 34.4946C442.12 34.4435 442.043 34.4043 441.992 34.3782L441.936 34.3491L441.923 34.3422L441.92 34.3407L441.92 34.3406L441.919 34.3405C441.919 34.3405 441.919 34.3405 441.919 34.3421L440.716 36.1436C447.598 41.867 453.489 48.6791 458.158 56.3049C449.659 55.4004 441.388 52.9613 433.75 49.1004L432.577 50.9216C432.576 50.9229 432.576 50.9229 432.576 50.9229L432.576 50.923L432.577 50.9233L432.579 50.9252L432.591 50.9346L432.639 50.9742C432.683 51.01 432.749 51.0642 432.836 51.1363C433.009 51.2804 433.266 51.4959 433.592 51.7778C434.246 52.3418 435.18 53.171 436.297 54.2261C438.533 56.3379 441.49 59.3467 444.386 62.9375C450.122 70.0511 455.414 79.2038 454.744 88.1014C442.351 98.5879 423.866 98.7215 406.635 92.9442C389.374 87.1568 373.793 75.5691 367.419 63.2614L367.416 63.2563C357.596 44.539 348.591 21.5549 355.019 1.33535C356.485 -0.484801 358.079 -2.19803 359.789 -3.79123L359.807 -3.80778L359.824 -3.8251L359.824 -3.82587L359.828 -3.82979L359.845 -3.84697L359.916 -3.91795C359.979 -3.98123 360.074 -4.07605 360.2 -4.19999C360.453 -4.44788 360.828 -4.81222 361.317 -5.27381C362.295 -6.1971 363.726 -7.50885 365.531 -9.05559C369.143 -12.1509 374.242 -16.1782 380.199 -19.9161C392.187 -27.4387 407.321 -33.5841 420.767 -29.137C427.587 -26.8816 431.265 -23.8701 433.083 -20.7621C434.895 -17.6637 434.963 -14.288 434.183 -11.0723C433.4 -7.84442 431.776 -4.854 430.322 -2.64763C429.598 -1.54999 428.925 -0.659181 428.434 -0.0448914C428.189 0.262008 427.99 0.499209 427.854 0.657975C427.786 0.737338 427.734 0.797047 427.7 0.836004L427.662 0.878718L427.653 0.888135ZM455.529 88.8643L455.345 88.6482L455.387 88.6524L455.529 88.8643Z" fill="#F7F7F7" stroke="white" stroke-width="2.17984"/>
<path d="M367 -19.2851C367 -19.2851 401.174 -54.0923 429.063 -44.8682C456.953 -35.6441 436.412 -13.0733 436.412 -13.0733C436.412 -13.0733 495.438 -29.8603 493.501 15.8472C491.564 61.5547 441.384 35.2619 441.384 35.2619C441.384 35.2619 481.244 66.9809 455.528 88.8635C429.813 110.746 379.543 89.0409 366.251 63.8338C352.958 38.6267 340.775 4.98523 367 -19.2851Z" stroke="white" stroke-width="4.35967" stroke-linecap="round" stroke-linejoin="round"/>
<path d="M427.446 15.0166L378.166 25.3355L405.632 49.109" stroke="white" stroke-width="4.35967" stroke-linecap="round" stroke-linejoin="round"/>
<path d="M393.436 22.1125L412.972 -2.14221" stroke="white" stroke-width="4.35967" stroke-linecap="round" stroke-linejoin="round"/>
<path d="M259.928 239.3L259.927 239.3L259.927 239.3C259.927 239.3 259.927 239.3 259.928 239.303L260.002 241.467C266.548 241.927 272.972 243.434 279.032 245.926C273.558 248.953 267.591 251.001 261.4 251.97L261.509 254.133C261.509 254.135 261.509 254.135 261.509 254.135L261.509 254.135L261.511 254.135L261.522 254.136L261.568 254.139C261.61 254.141 261.674 254.146 261.758 254.152C261.927 254.164 262.179 254.184 262.503 254.213C263.151 254.272 264.088 254.37 265.237 254.527C267.538 254.84 270.675 255.386 274.028 256.314C280.731 258.17 287.984 261.471 291.408 267.197C288.267 278.814 277.159 286.872 264.168 290.882C251.022 294.939 236.356 294.714 226.954 290.1C212.655 282.932 197.064 272.842 192.132 257.673C192.245 255.941 192.476 254.219 192.822 252.518L192.827 252.494L192.831 252.47L192.831 252.47L192.831 252.469L192.831 252.465L192.834 252.448L192.846 252.374C192.857 252.308 192.874 252.209 192.897 252.078C192.943 251.816 193.013 251.428 193.11 250.93C193.305 249.935 193.608 248.502 194.036 246.76C194.894 243.272 196.256 238.561 198.269 233.651C202.328 223.749 208.891 213.397 218.987 210.235C224.131 208.623 227.646 208.864 230.055 209.939C232.453 211.009 233.945 212.991 234.868 215.272C235.796 217.565 236.116 220.088 236.196 222.072C236.236 223.058 236.216 223.895 236.186 224.483C236.171 224.777 236.154 225.008 236.141 225.163C236.134 225.24 236.128 225.299 236.125 225.336L236.12 225.378L236.119 225.386L236.119 225.387L236.119 225.387L236.119 225.387L235.681 229.183L238.056 226.189L238.056 226.189L238.056 226.189L238.059 226.185L238.073 226.168C238.079 226.16 238.088 226.15 238.097 226.137C238.107 226.125 238.118 226.111 238.131 226.095C238.184 226.031 238.263 225.934 238.368 225.808C238.579 225.555 238.891 225.186 239.298 224.725C240.11 223.802 241.294 222.513 242.775 221.055C245.742 218.131 249.869 214.558 254.552 211.885C259.245 209.205 264.391 207.49 269.44 208.112C274.436 208.728 279.542 211.659 284.153 218.694L284.159 218.702L284.164 218.71C285.149 220.155 286.013 221.677 286.749 223.263C284.756 229.452 278.376 233.47 272.091 235.967C268.928 237.224 265.88 238.059 263.62 238.58C262.491 238.84 261.562 239.021 260.918 239.137C260.596 239.194 260.345 239.236 260.177 239.262C260.092 239.276 260.029 239.285 259.987 239.292L259.94 239.298L259.93 239.3L259.928 239.3Z" fill="#E5E5E5" stroke="white" stroke-width="2.17984"/>
<path d="M190.307 239.558C190.307 239.558 195.989 203.112 217.214 196.451C238.439 189.791 235.755 212.769 235.755 212.769C235.755 212.769 264.647 176.41 283.639 205.386C302.632 234.362 260.111 240.358 260.111 240.358C260.111 240.358 298.604 242.367 292.451 267.106C286.297 291.845 245.796 300.715 226.502 291.054C207.208 281.393 184.969 266.004 190.307 239.558Z" stroke="white" stroke-width="4.35967" stroke-linecap="round" stroke-linejoin="round"/>
<path d="M242.708 233.94L216.913 262.025L244.338 264.547" stroke="white" stroke-width="4.35967" stroke-linecap="round" stroke-linejoin="round"/>
<path d="M224.932 253.316L226.24 229.757" stroke="white" stroke-width="4.35967" stroke-linecap="round" stroke-linejoin="round"/>
<path d="M52.0442 111.909L52.0439 111.909C52.0439 111.909 52.044 111.909 52.0443 111.911L52.1189 114.076C59.3954 114.587 66.5361 116.274 73.2644 119.067C67.1869 122.459 60.5513 124.75 53.664 125.828L53.7724 127.991C53.7722 127.993 53.7722 127.993 53.7722 127.993L53.7725 127.993L53.7726 127.993L53.775 127.993L53.787 127.994L53.8385 127.997C53.885 128 53.9554 128.005 54.0485 128.011C54.2348 128.025 54.5115 128.046 54.8681 128.079C55.5813 128.144 56.613 128.252 57.8773 128.424C60.4082 128.769 63.8598 129.369 67.5493 130.391C74.9321 132.435 82.955 136.081 86.7293 142.435C83.2818 155.272 71.0236 164.159 56.7194 168.573C42.2601 173.036 26.1177 172.793 15.7566 167.708C0.0414363 159.83 -17.1336 148.723 -22.5606 132C-22.436 130.086 -22.1816 128.182 -21.799 126.303L-21.7941 126.278L-21.7903 126.254L-21.7903 126.254L-21.7901 126.253L-21.7895 126.249L-21.7863 126.229L-21.773 126.148C-21.761 126.075 -21.7425 125.966 -21.7172 125.821C-21.6667 125.533 -21.5893 125.106 -21.4822 124.559C-21.2679 123.464 -20.9354 121.888 -20.4639 119.972C-19.5203 116.137 -18.0231 110.956 -15.8092 105.555C-11.3479 94.6728 -4.12157 83.2583 7.01923 79.7682C12.6856 77.993 16.5765 78.2529 19.2543 79.4474C21.9223 80.6375 23.5777 82.8414 24.5986 85.3648C25.6241 87.8996 25.977 90.6853 26.0651 92.8715C26.1089 93.958 26.0868 94.8811 26.0539 95.5298C26.0375 95.8538 26.0185 96.1085 26.0038 96.2799C25.9965 96.3656 25.9903 96.4304 25.986 96.4726L25.9812 96.5186L25.9801 96.5284L25.98 96.5292L25.98 96.5299L25.98 96.5299L25.5416 100.325L27.9165 97.3318L27.9166 97.3317L27.9171 97.331L27.9205 97.3268L27.9359 97.3076C27.9499 97.2901 27.9715 97.2634 28.0004 97.2277C28.0583 97.1564 28.1458 97.0495 28.2616 96.9106C28.493 96.6326 28.8374 96.2263 29.2843 95.7189C30.1784 94.7038 31.4811 93.2856 33.1096 91.6812C36.3732 88.4658 40.9141 84.5334 46.07 81.5899C51.2364 78.6404 56.9134 76.7445 62.4935 77.4325C68.0197 78.1139 73.6548 81.356 78.734 89.105L78.7394 89.1133L78.7449 89.1214C79.8378 90.7249 80.7962 92.4157 81.6107 94.1765C79.4197 101.048 72.3541 105.49 65.4323 108.241C61.9506 109.624 58.5967 110.543 56.1098 111.116C54.8678 111.402 53.8456 111.601 53.1364 111.728C52.7818 111.792 52.5058 111.838 52.3198 111.867C52.2268 111.882 52.1564 111.892 52.11 111.899L52.0585 111.907L52.0467 111.909L52.0443 111.909L52.0442 111.909Z" fill="#E5E5E5" stroke="white" stroke-width="2.17984"/>
<path d="M-24.4567 112.086C-24.4567 112.086 -18.2142 72.0463 5.10377 64.7287C28.4217 57.4111 25.4731 82.6549 25.4731 82.6549C25.4731 82.6549 57.2144 42.7105 78.0798 74.5438C98.9452 106.377 52.2311 112.965 52.2311 112.965C52.2311 112.965 94.5198 115.172 87.7599 142.351C80.9999 169.529 36.5043 179.274 15.308 168.66C-5.88825 158.047 -30.3207 141.141 -24.4567 112.086Z" stroke="white" stroke-width="4.35967" stroke-linecap="round" stroke-linejoin="round"/>
<path d="M33.1125 105.914L4.77358 136.769L34.9028 139.54" stroke="white" stroke-width="4.35967" stroke-linecap="round" stroke-linejoin="round"/>
<path d="M13.5826 127.201L15.02 101.318" stroke="white" stroke-width="4.35967" stroke-linecap="round" stroke-linejoin="round"/>
<path d="M101.584 327.407L101.583 327.408C89.0891 335.789 74.3729 340.24 59.3282 340.187C44.2836 340.134 29.5989 335.58 17.1642 327.111C4.7294 318.643 -4.8865 306.646 -10.446 292.666C-15.9886 278.729 -17.2466 263.456 -14.0606 248.801C-5.80799 232.449 8.11786 219.66 25.1156 212.827C42.1556 205.976 61.1104 205.583 78.4197 211.721C95.7291 217.859 110.202 230.106 119.12 246.16C128.016 262.175 130.774 280.881 126.881 298.779C121.056 310.341 112.342 320.202 101.584 327.407Z" fill="#F7F7F7" stroke="white" stroke-width="2.17984"/>
<path d="M44.7543 339.834C86.2025 348.023 126.441 321.061 134.631 279.613C142.82 238.165 115.858 197.926 74.4096 189.737C32.9614 181.547 -7.27758 208.509 -15.4666 249.958C-23.6557 291.406 3.30614 331.645 44.7543 339.834Z" stroke="white" stroke-width="4.35967" stroke-linecap="round" stroke-linejoin="round"/>
<path d="M128.156 231.084L129.046 231.304L129.416 230.465L142.101 201.65L144.386 238.961L144.414 239.42L144.763 239.72L172.696 263.771L141.649 257.274L140.946 257.127L140.533 257.716L121.477 284.915L126.591 252.438L126.683 251.849L126.238 251.454L93.7428 222.548L128.156 231.084Z" fill="#E5E5E5" stroke="white" stroke-width="2.17984"/>
<path d="M142.914 197.098L128.418 230.026L89.7184 220.427L125.514 252.268L119.668 289.397L141.426 258.341L176.611 265.704L145.474 238.894L142.914 197.098Z" stroke="white" stroke-width="4.35967" stroke-linecap="round" stroke-linejoin="round"/>
<path d="M465.019 206.926L410.874 197.172L419.008 152.023L454.029 158.332L454.475 158.413L454.846 158.153L465.681 150.585L474.674 152.205L475.118 152.285L475.489 152.028L512.65 126.254L513.184 125.885L513.113 125.24C512.632 120.861 512.781 116.437 513.556 112.101C515.08 103.682 518.851 95.8315 524.471 89.3801C530.09 82.9285 537.35 78.1159 545.481 75.4518L545.945 75.2997L546.14 74.8522C552.5 60.2883 563.864 48.4853 578.172 41.5785C591.244 39.9162 604.517 42.1871 616.294 48.1033C628.124 54.0457 637.903 63.3937 644.374 74.9431C650.844 86.4926 653.708 99.7146 652.598 112.906C651.487 126.098 646.453 138.655 638.143 148.96L637.298 150.008L638.499 150.617C649.55 156.217 658.809 164.805 665.224 175.403C671.639 186.002 674.954 198.187 674.792 210.575C674.63 222.963 670.998 235.057 664.307 245.484C657.638 255.877 648.198 264.198 637.053 269.51C636.895 269.542 636.735 269.563 636.573 269.571L636.363 269.582L636.173 269.671C629.739 272.66 622.866 274.592 615.818 275.393L614.483 275.545L614.907 276.82C620.011 292.167 619.328 308.85 612.988 323.729C606.671 338.553 595.172 350.567 580.644 357.528C574.12 358.291 567.518 358.089 561.052 356.927C546.383 354.285 533.031 346.777 523.153 335.614C513.276 324.452 507.447 310.286 506.61 295.404L506.583 294.917L506.201 294.613C499.511 289.279 494.388 282.236 491.373 274.228C488.358 266.223 487.563 257.551 489.073 249.13C489.421 247.276 489.867 245.442 490.409 243.635L490.56 243.132L490.26 242.7L465.72 207.377L465.463 207.006L465.019 206.926Z" fill="#F7F7F7" stroke="white" stroke-width="2.17984"/>
<path d="M560.86 357.999C572.331 360.031 584.132 359.057 595.115 355.171C606.097 351.285 615.885 344.62 623.526 335.827C631.167 327.033 636.399 316.409 638.713 304.992C641.027 293.575 640.344 281.752 636.73 270.677C651.169 269.08 664.706 262.86 675.322 252.943C685.938 243.026 693.065 229.944 695.64 215.647C698.216 201.349 696.102 186.603 689.614 173.605C683.126 160.606 672.611 150.053 659.637 143.517C666.717 134.748 671.46 124.328 673.425 113.23C676.461 96.9293 673.381 80.0813 664.773 65.9095C656.165 51.7376 642.635 41.2369 626.77 36.4161C610.905 31.5954 593.819 32.7931 578.782 39.7802C563.745 46.7672 551.812 59.053 545.266 74.2872C538.022 76.6525 531.438 80.693 526.049 86.0804C520.661 91.4677 516.618 98.0501 514.251 105.293C511.883 112.536 511.258 120.235 512.425 127.765C513.591 135.296 516.518 142.444 520.966 148.631C515.58 152.251 510.976 156.915 507.427 162.347C503.879 167.78 501.457 173.87 500.307 180.256C499.156 186.642 499.3 193.194 500.73 199.524C502.16 205.853 504.847 211.831 508.631 217.102C502.294 221.345 497.047 227.025 493.319 233.679C489.591 240.333 487.486 247.773 487.177 255.394C486.867 263.014 488.36 270.601 491.536 277.535C494.711 284.47 499.479 290.557 505.451 295.301C506.269 310.467 512.187 324.912 522.245 336.292C532.302 347.673 545.909 355.322 560.86 357.999V357.999Z" stroke="white" stroke-width="4.35967" stroke-linecap="round" stroke-linejoin="round"/>
<path d="M508.72 217.169C504.936 211.898 502.249 205.921 500.819 199.591C499.389 193.262 499.245 186.71 500.396 180.323C501.546 173.937 503.967 167.847 507.516 162.415C511.065 156.982 515.669 152.318 521.055 148.699C516.108 141.81 513.068 133.738 512.243 125.297L475.081 151.071L420.06 141.159L409.822 197.99L464.843 207.902L489.382 243.225C492.649 232.579 499.477 223.38 508.72 217.169V217.169Z" stroke="white" stroke-width="4.35967" stroke-linecap="round" stroke-linejoin="round"/>
<path d="M467.84 184.256L503.37 207.623" stroke="white" stroke-width="4.35967" stroke-linecap="round" stroke-linejoin="round"/>
<path d="M484.765 169.631L506.381 161.76" stroke="white" stroke-width="4.35967" stroke-linecap="round" stroke-linejoin="round"/>
</g>
</g>
</svg>
