<svg width="360" height="312" viewBox="0 0 360 312" fill="none" xmlns="http://www.w3.org/2000/svg">
<rect width="360" height="312" fill="#F4F4F4"/>
<mask id="mask0_122_2756" style="mask-type:alpha" maskUnits="userSpaceOnUse" x="0" y="0" width="360" height="312">
<rect width="360" height="312" fill="#F4F4F4"/>
</mask>
<g mask="url(#mask0_122_2756)">
<g opacity="0.3">
<path d="M371.706 -66.0357C370.123 -50.6013 364.78 -35.78 356.134 -22.8753C345.915 -9.39044 332.355 1.1809 316.807 7.80325C318.424 -7.62264 323.763 -22.4352 332.375 -35.3563C342.595 -48.842 356.157 -59.4137 371.706 -66.0357Z" fill="#E5E5E5" stroke="white" stroke-width="2.17984"/>
<path d="M351.3 -21.4673C368.784 -46.1461 367.667 -76.958 367.667 -76.958C367.667 -76.958 338.346 -67.772 320.735 -43.0845C303.124 -18.3971 304.325 12.409 304.325 12.409C304.325 12.409 333.774 3.21427 351.3 -21.4673Z" stroke="white" stroke-width="4.35967" stroke-linecap="round" stroke-linejoin="round"/>
<path d="M218.788 126.889L218.773 126.894L218.759 126.899C209.841 130.339 200.154 131.286 190.737 129.639C181.324 127.992 172.536 123.813 165.317 117.552C156.918 110.038 151.204 99.9855 149.044 88.9247L148.903 88.2062L148.185 88.0644C137.155 85.8859 127.138 80.1662 119.656 71.7743C114.124 65.5017 110.25 57.9453 108.385 49.7942C108.887 45.9444 109.816 42.1621 111.154 38.5172C113.489 32.2097 117.197 26.5004 122.01 21.8029C127.546 16.7049 131.786 10.3596 134.378 3.29402L134.385 3.27602L134.391 3.25778C137.493 -6.21516 143.156 -14.645 150.752 -21.0985L150.754 -21.0996C158.018 -27.2898 166.776 -31.4699 176.158 -33.2238C185.539 -34.9777 195.217 -34.2442 204.227 -31.0964C213.237 -27.9487 221.265 -22.4962 227.514 -15.2818C233.762 -8.06743 238.012 0.657388 239.841 10.0245L239.982 10.7457L240.703 10.8856C249.002 12.4961 256.812 16.0189 263.512 21.1742C270.212 26.3295 275.619 32.9756 279.302 40.5849C282.986 48.1942 284.845 56.5572 284.733 65.0104C284.621 73.4034 282.568 81.6559 278.737 89.1223C272.454 95.1141 264.912 99.6272 256.66 102.331L256.644 102.336L256.627 102.342C249.081 105.081 242.293 109.571 236.821 115.444C231.748 120.568 225.584 124.481 218.788 126.889Z" fill="#F7F7F7" stroke="white" stroke-width="2.17984"/>
<path d="M280.802 88.4284C287.661 80.5043 292.315 70.9157 294.297 60.6247C296.28 50.3337 295.521 39.7022 292.097 29.7971C288.672 19.8921 282.703 11.0618 274.788 4.19241C266.874 -2.67699 257.291 -7.34393 247.003 -9.34006C244.576 -22.4388 237.841 -34.3509 227.869 -43.1841C217.897 -52.0172 205.259 -57.2648 191.964 -58.0932C178.668 -58.9216 165.476 -55.2834 154.485 -47.7564C143.494 -40.2294 135.333 -29.2454 131.298 -16.5493C128.609 -9.16294 124.18 -2.53297 118.387 2.78016C113.158 7.98777 109.15 14.2914 106.653 21.236C103.18 30.2975 102.224 40.1298 103.885 49.6907C105.547 59.2516 109.765 68.1848 116.091 75.5432C123.731 84.1135 133.961 89.9551 145.225 92.1797C147.431 103.476 153.268 113.743 161.847 121.416C169.193 127.755 178.119 131.987 187.676 133.662C197.234 135.338 207.066 134.394 216.131 130.931C223.087 128.467 229.396 124.461 234.586 119.214C239.943 113.462 246.589 109.064 253.978 106.382C264.405 102.987 273.689 96.7735 280.802 88.4284Z" stroke="white" stroke-width="4.35967" stroke-linecap="round" stroke-linejoin="round"/>
<path d="M167.621 280.994C171.123 296.109 170.869 311.862 166.868 326.871C161.567 342.939 152.162 357.333 139.597 368.634C136.131 353.516 136.384 337.772 140.347 322.758C145.649 306.689 155.055 292.295 167.621 280.994Z" fill="#E5E5E5" stroke="white" stroke-width="2.17984"/>
<path d="M162.75 329.769C171.298 300.758 160.262 271.968 160.262 271.968C160.262 271.968 135.498 290.156 126.831 319.216C118.165 348.277 129.28 377.034 129.28 377.034C129.28 377.034 154.163 358.797 162.75 329.769Z" stroke="white" stroke-width="4.35967" stroke-linecap="round" stroke-linejoin="round"/>
<path d="M331.504 65.5244C346.932 67.1733 361.73 72.5794 374.598 81.2806C388.039 91.5579 398.552 105.163 405.108 120.739C389.689 119.056 374.899 113.654 362.015 104.987C348.573 94.7086 338.06 81.102 331.504 65.5244Z" fill="#E5E5E5" stroke="white" stroke-width="2.17984"/>
<path d="M375.985 86.1211C351.381 68.5321 320.564 69.5167 320.564 69.5167C320.564 69.5167 329.625 98.8763 354.237 116.593C378.849 134.31 409.66 133.24 409.66 133.24C409.66 133.24 400.591 103.753 375.985 86.1211Z" stroke="white" stroke-width="4.35967" stroke-linecap="round" stroke-linejoin="round"/>
<path d="M76.8187 6.69807C63.9418 15.3533 49.1314 20.7261 33.6815 22.3339C16.7791 23.1031 -0.020318 19.4409 -15.0555 11.7249C-2.16308 3.10168 12.6379 -2.26879 28.0787 -3.91323C44.9823 -4.6822 61.7828 -1.01921 76.8187 6.69807Z" fill="#E5E5E5" stroke="white" stroke-width="2.17984"/>
<path d="M29.507 19.5181C59.6602 17.1731 82.6313 -3.39276 82.6313 -3.39276C82.6313 -3.39276 56.8163 -20.056 26.5747 -17.8036C-3.66692 -15.5512 -26.579 5.07631 -26.579 5.07631C-26.579 5.07631 -0.675675 21.8322 29.507 19.5181Z" stroke="white" stroke-width="4.35967" stroke-linecap="round" stroke-linejoin="round"/>
<path d="M162.868 196.01C148.809 189.447 136.564 179.533 127.214 167.129C117.833 153.048 112.3 136.769 111.151 119.908C125.19 126.501 137.428 136.408 146.805 148.785C156.187 162.867 161.719 179.148 162.868 196.01Z" fill="#E5E5E5" stroke="white" stroke-width="2.17984"/>
<path d="M127.472 162.1C145.041 186.718 174.511 195.781 174.511 195.781C174.511 195.781 175.462 165.07 157.927 140.329C140.391 115.587 110.899 106.607 110.899 106.607C110.899 106.607 109.914 137.441 127.472 162.1Z" stroke="white" stroke-width="4.35967" stroke-linecap="round" stroke-linejoin="round"/>
<path d="M323.411 247.514L323.415 247.511C329.94 243.114 337.474 240.443 345.311 239.749C353.149 239.054 361.035 240.358 368.231 243.54C375.428 246.721 381.7 251.675 386.462 257.94C391.175 264.14 394.255 271.422 395.423 279.12C392.869 287.497 388.008 294.988 381.394 300.733C374.719 306.532 366.534 310.314 357.792 311.638C349.05 312.962 340.111 311.775 332.019 308.214C323.926 304.653 317.012 298.865 312.082 291.525L312.082 291.524C308.278 285.871 305.786 279.441 304.786 272.704C307.874 262.398 314.459 253.489 323.411 247.514Z" fill="#F7F7F7" stroke="white" stroke-width="2.17984"/>
<path d="M311.129 292.163C325.804 314.064 355.455 319.923 377.356 305.248C399.257 290.573 405.115 260.923 390.44 239.021C375.766 217.12 346.115 211.262 324.214 225.937C302.313 240.612 296.455 270.262 311.129 292.163Z" stroke="white" stroke-width="4.35967" stroke-linecap="round" stroke-linejoin="round"/>
<path d="M356.601 274.272L366.486 289.025" stroke="white" stroke-width="4.35967" stroke-linecap="round" stroke-linejoin="round"/>
<path d="M335.966 274.557L321.261 284.41" stroke="white" stroke-width="4.35967" stroke-linecap="round" stroke-linejoin="round"/>
<path d="M344.968 256.911L335.115 242.206" stroke="white" stroke-width="4.35967" stroke-linecap="round" stroke-linejoin="round"/>
<path d="M-28.8861 186.24L-28.8821 186.237C-25.8329 184.182 -22.3125 182.934 -18.6499 182.61C-14.9873 182.285 -11.3022 182.895 -7.93927 184.381C-4.57628 185.868 -1.64525 188.183 0.579828 191.11C2.75612 193.973 4.18752 197.33 4.74748 200.88C3.54432 204.746 1.28795 208.201 -1.77059 210.858C-4.89 213.568 -8.71534 215.335 -12.8007 215.954C-16.8861 216.573 -21.0632 216.018 -24.8453 214.354C-28.6273 212.69 -31.8584 209.985 -34.1621 206.554L-34.1627 206.554C-35.9158 203.948 -37.0725 200.99 -37.5514 197.888C-36.0937 193.124 -33.0335 189.008 -28.8861 186.24Z" fill="#F4F4F4" stroke="white" stroke-width="2.17984"/>
<path d="M-35.0901 207.177C-28.0537 217.678 -13.8364 220.487 -3.335 213.451C7.16643 206.414 9.97538 192.197 2.93896 181.696C-4.09745 171.194 -18.3147 168.385 -28.8161 175.422C-39.3175 182.458 -42.1265 196.675 -35.0901 207.177Z" stroke="white" stroke-width="4.35967" stroke-linecap="round" stroke-linejoin="round"/>
<path d="M-8.95593 190.159L-1.90509 185.435" stroke="white" stroke-width="4.35967" stroke-linecap="round" stroke-linejoin="round"/>
<path d="M228.974 156.076L228.978 156.074C232.027 154.019 235.547 152.771 239.21 152.446C242.872 152.121 246.558 152.731 249.92 154.218C253.283 155.704 256.215 158.019 258.44 160.947C260.616 163.81 262.047 167.167 262.607 170.717C261.404 174.582 259.148 178.038 256.089 180.694C252.97 183.404 249.144 185.172 245.059 185.79C240.974 186.409 236.797 185.854 233.014 184.19C229.232 182.526 226.001 179.821 223.698 176.391L223.697 176.39C221.944 173.785 220.787 170.826 220.308 167.725C221.766 162.961 224.826 158.845 228.974 156.076Z" fill="#F4F4F4" stroke="white" stroke-width="2.17984"/>
<path d="M222.77 177.013C229.806 187.515 244.023 190.323 254.525 183.287C265.026 176.251 267.835 162.033 260.799 151.532C253.762 141.031 239.545 138.222 229.044 145.258C218.542 152.294 215.733 166.512 222.77 177.013Z" stroke="white" stroke-width="4.35967" stroke-linecap="round" stroke-linejoin="round"/>
<path d="M248.904 159.995L255.955 155.271" stroke="white" stroke-width="4.35967" stroke-linecap="round" stroke-linejoin="round"/>
<path d="M244.573 168.435L249.313 175.508" stroke="white" stroke-width="4.35967" stroke-linecap="round" stroke-linejoin="round"/>
<path d="M234.679 168.571L227.628 173.295" stroke="white" stroke-width="4.35967" stroke-linecap="round" stroke-linejoin="round"/>
<path d="M238.995 160.11L234.271 153.059" stroke="white" stroke-width="4.35967" stroke-linecap="round" stroke-linejoin="round"/>
<path d="M427.653 0.888135L427.652 0.889456L427.652 0.889815L427.651 0.889892L425.078 3.71735L428.756 2.67141L428.756 2.67139L428.757 2.67104L428.764 2.66918L428.793 2.66106C428.805 2.6577 428.82 2.65355 428.838 2.64864C428.859 2.64281 428.884 2.63591 428.913 2.62798C429.021 2.59874 429.182 2.55555 429.393 2.50081C429.816 2.39134 430.44 2.23574 431.234 2.05328C432.824 1.68827 435.097 1.21631 437.819 0.79114C443.272 -0.0606857 450.488 -0.717796 457.616 0.0270655C464.756 0.773187 471.686 2.91291 476.705 7.54306C481.683 12.1357 484.931 19.319 484.458 30.4931C484.336 32.9062 484.033 35.3066 483.551 37.6739C476.494 42.9706 466.345 42.3345 457.616 40.1595C453.231 39.0669 449.3 37.6096 446.463 36.4235C445.046 35.831 443.905 35.3076 443.12 34.9334C442.728 34.7464 442.425 34.5967 442.222 34.4946C442.12 34.4435 442.043 34.4043 441.992 34.3782L441.936 34.3491L441.923 34.3422L441.92 34.3407L441.92 34.3406L441.919 34.3405C441.919 34.3405 441.919 34.3405 441.918 34.3421L440.716 36.1436C447.598 41.867 453.489 48.6791 458.158 56.3049C449.659 55.4004 441.388 52.9613 433.75 49.1004L432.577 50.9216C432.576 50.9229 432.576 50.9229 432.576 50.9229L432.576 50.923L432.577 50.9233L432.579 50.9252L432.591 50.9346L432.639 50.9742C432.683 51.01 432.749 51.0642 432.836 51.1363C433.009 51.2804 433.266 51.4959 433.592 51.7778C434.246 52.3418 435.18 53.171 436.297 54.2261C438.532 56.3379 441.49 59.3467 444.386 62.9375C450.122 70.0511 455.414 79.2038 454.743 88.1014C442.351 98.5879 423.866 98.7215 406.635 92.9442C389.374 87.1568 373.793 75.5691 367.419 63.2614L367.416 63.2563C357.596 44.539 348.591 21.5549 355.019 1.33535C356.485 -0.484801 358.079 -2.19803 359.789 -3.79123L359.807 -3.80778L359.824 -3.8251L359.824 -3.82587L359.828 -3.82979L359.845 -3.84697L359.916 -3.91795C359.979 -3.98123 360.074 -4.07605 360.2 -4.19999C360.453 -4.44788 360.828 -4.81222 361.317 -5.27381C362.295 -6.1971 363.726 -7.50885 365.531 -9.05559C369.142 -12.1509 374.242 -16.1782 380.199 -19.9161C392.187 -27.4387 407.321 -33.5841 420.767 -29.137C427.587 -26.8816 431.265 -23.8701 433.083 -20.7621C434.895 -17.6637 434.963 -14.288 434.183 -11.0723C433.4 -7.84442 431.776 -4.854 430.322 -2.64763C429.598 -1.54999 428.925 -0.659181 428.434 -0.0448914C428.189 0.262008 427.99 0.499209 427.854 0.657975C427.786 0.737338 427.734 0.797047 427.7 0.836004L427.662 0.878718L427.653 0.888135ZM455.529 88.8643L455.345 88.6482L455.387 88.6524L455.529 88.8643Z" fill="#F7F7F7" stroke="white" stroke-width="2.17984"/>
<path d="M367 -19.2851C367 -19.2851 401.174 -54.0923 429.063 -44.8682C456.953 -35.6441 436.412 -13.0733 436.412 -13.0733C436.412 -13.0733 495.438 -29.8603 493.501 15.8472C491.564 61.5547 441.384 35.2619 441.384 35.2619C441.384 35.2619 481.244 66.9809 455.528 88.8635C429.813 110.746 379.543 89.0409 366.251 63.8338C352.958 38.6267 340.775 4.98523 367 -19.2851Z" stroke="white" stroke-width="4.35967" stroke-linecap="round" stroke-linejoin="round"/>
<path d="M259.928 239.3L259.927 239.3L259.927 239.3C259.927 239.3 259.927 239.3 259.928 239.303L260.002 241.467C266.548 241.927 272.972 243.434 279.032 245.926C273.558 248.953 267.591 251.001 261.4 251.97L261.509 254.133C261.509 254.135 261.509 254.135 261.509 254.135L261.509 254.135L261.511 254.135L261.522 254.136L261.568 254.139C261.61 254.141 261.674 254.146 261.758 254.152C261.927 254.164 262.179 254.184 262.503 254.213C263.151 254.272 264.088 254.37 265.237 254.527C267.538 254.84 270.675 255.386 274.028 256.314C280.731 258.17 287.984 261.471 291.408 267.197C288.267 278.814 277.159 286.872 264.168 290.882C251.022 294.939 236.356 294.714 226.954 290.1C212.655 282.932 197.064 272.842 192.132 257.673C192.245 255.941 192.476 254.219 192.822 252.518L192.827 252.494L192.831 252.47L192.831 252.47L192.831 252.469L192.831 252.465L192.834 252.448L192.846 252.374C192.857 252.308 192.874 252.209 192.897 252.078C192.943 251.816 193.013 251.428 193.11 250.93C193.305 249.935 193.608 248.502 194.036 246.76C194.894 243.272 196.256 238.561 198.269 233.651C202.328 223.749 208.891 213.397 218.987 210.235C224.131 208.623 227.646 208.864 230.055 209.939C232.453 211.009 233.945 212.991 234.868 215.272C235.796 217.565 236.116 220.088 236.196 222.072C236.236 223.058 236.216 223.895 236.186 224.483C236.171 224.777 236.154 225.008 236.141 225.163C236.134 225.24 236.128 225.299 236.125 225.336L236.12 225.378L236.119 225.386L236.119 225.387L236.119 225.387L236.119 225.387L235.681 229.183L238.056 226.189L238.056 226.189L238.056 226.189L238.059 226.185L238.073 226.168C238.079 226.16 238.088 226.15 238.097 226.137C238.107 226.125 238.118 226.111 238.131 226.095C238.184 226.031 238.263 225.934 238.368 225.808C238.579 225.555 238.891 225.186 239.298 224.725C240.11 223.802 241.294 222.513 242.775 221.055C245.742 218.131 249.869 214.558 254.552 211.885C259.245 209.205 264.391 207.49 269.441 208.112C274.436 208.728 279.542 211.659 284.153 218.694L284.159 218.702L284.164 218.71C285.149 220.155 286.013 221.677 286.749 223.263C284.756 229.452 278.376 233.47 272.091 235.967C268.928 237.224 265.88 238.059 263.62 238.58C262.491 238.84 261.562 239.021 260.918 239.137C260.596 239.194 260.345 239.236 260.177 239.262C260.092 239.276 260.029 239.285 259.987 239.292L259.94 239.298L259.93 239.3L259.928 239.3Z" fill="#E5E5E5" stroke="white" stroke-width="2.17984"/>
<path d="M190.307 239.558C190.307 239.558 195.989 203.112 217.214 196.451C238.439 189.791 235.755 212.769 235.755 212.769C235.755 212.769 264.647 176.41 283.639 205.386C302.632 234.362 260.111 240.358 260.111 240.358C260.111 240.358 298.604 242.367 292.451 267.106C286.297 291.845 245.796 300.715 226.502 291.054C207.208 281.393 184.969 266.004 190.307 239.558Z" stroke="white" stroke-width="4.35967" stroke-linecap="round" stroke-linejoin="round"/>
<path d="M242.708 233.94L216.913 262.025L244.338 264.547" stroke="white" stroke-width="4.35967" stroke-linecap="round" stroke-linejoin="round"/>
<path d="M224.932 253.316L226.24 229.757" stroke="white" stroke-width="4.35967" stroke-linecap="round" stroke-linejoin="round"/>
<path d="M52.0442 111.909L52.044 111.909C52.044 111.909 52.044 111.909 52.0443 111.911L52.1189 114.076C59.3954 114.587 66.5361 116.274 73.2644 119.067C67.1869 122.459 60.5513 124.75 53.664 125.828L53.7724 127.991C53.7723 127.993 53.7723 127.993 53.7722 127.993L53.7725 127.993L53.7726 127.993L53.7751 127.993L53.787 127.994L53.8385 127.997C53.885 128 53.9555 128.005 54.0486 128.011C54.2348 128.025 54.5116 128.046 54.8681 128.079C55.5813 128.144 56.613 128.252 57.8773 128.424C60.4082 128.769 63.8598 129.369 67.5493 130.391C74.9322 132.435 82.9551 136.081 86.7293 142.435C83.2818 155.272 71.0236 164.159 56.7194 168.573C42.2602 173.036 26.1177 172.793 15.7566 167.708C0.0414668 159.83 -17.1336 148.723 -22.5605 132C-22.436 130.086 -22.1815 128.182 -21.799 126.303L-21.794 126.278L-21.7902 126.254L-21.7902 126.254L-21.7901 126.253L-21.7894 126.249L-21.7863 126.229L-21.773 126.148C-21.7609 126.075 -21.7425 125.966 -21.7172 125.821C-21.6667 125.533 -21.5892 125.106 -21.4821 124.559C-21.2679 123.464 -20.9354 121.888 -20.4639 119.972C-19.5203 116.137 -18.0231 110.956 -15.8092 105.555C-11.3479 94.6728 -4.12154 83.2583 7.01926 79.7682C12.6856 77.993 16.5766 78.2529 19.2544 79.4474C21.9223 80.6375 23.5777 82.8414 24.5986 85.3648C25.6242 87.8996 25.977 90.6853 26.0651 92.8715C26.1089 93.958 26.0868 94.8811 26.054 95.5298C26.0376 95.8538 26.0185 96.1085 26.0039 96.2799C25.9965 96.3656 25.9903 96.4304 25.986 96.4726L25.9812 96.5186L25.9802 96.5284L25.9801 96.5292L25.98 96.5299L25.98 96.5299L25.5416 100.325L27.9165 97.3318L27.9166 97.3317L27.9172 97.331L27.9205 97.3268L27.9359 97.3076C27.9499 97.2901 27.9715 97.2634 28.0004 97.2277C28.0584 97.1564 28.1459 97.0495 28.2616 96.9106C28.4931 96.6326 28.8374 96.2263 29.2843 95.7189C30.1784 94.7038 31.4811 93.2856 33.1096 91.6812C36.3732 88.4658 40.9141 84.5334 46.07 81.5899C51.2364 78.6404 56.9135 76.7445 62.4935 77.4325C68.0197 78.1139 73.6549 81.356 78.734 89.105L78.7394 89.1133L78.7449 89.1214C79.8378 90.7249 80.7963 92.4157 81.6107 94.1765C79.4197 101.048 72.3541 105.49 65.4323 108.241C61.9507 109.624 58.5967 110.543 56.1098 111.116C54.8678 111.402 53.8456 111.601 53.1364 111.728C52.7819 111.792 52.5058 111.838 52.3198 111.867C52.2268 111.882 52.1564 111.892 52.11 111.899L52.0586 111.907L52.0467 111.909L52.0443 111.909L52.0442 111.909Z" fill="#E5E5E5" stroke="white" stroke-width="2.17984"/>
<path d="M-24.4567 112.086C-24.4567 112.086 -18.2141 72.0463 5.10378 64.7287C28.4217 57.4111 25.4731 82.6549 25.4731 82.6549C25.4731 82.6549 57.2144 42.7105 78.0798 74.5438C98.9452 106.377 52.2311 112.965 52.2311 112.965C52.2311 112.965 94.5198 115.172 87.7599 142.351C80.9999 169.529 36.5043 179.274 15.308 168.66C-5.88824 158.047 -30.3207 141.141 -24.4567 112.086Z" stroke="white" stroke-width="4.35967" stroke-linecap="round" stroke-linejoin="round"/>
<path d="M33.1125 105.914L4.77358 136.769L34.9028 139.54" stroke="white" stroke-width="4.35967" stroke-linecap="round" stroke-linejoin="round"/>
<path d="M13.5826 127.201L15.02 101.318" stroke="white" stroke-width="4.35967" stroke-linecap="round" stroke-linejoin="round"/>
<path d="M101.584 327.407L101.583 327.407C89.0891 335.789 74.3729 340.239 59.3282 340.187C44.2836 340.134 29.5989 335.58 17.1641 327.111C4.72939 318.642 -4.8865 306.646 -10.446 292.666C-15.9886 278.729 -17.2466 263.456 -14.0606 248.801C-5.808 232.449 8.11785 219.66 25.1156 212.826C42.1556 205.976 61.1104 205.583 78.4197 211.721C95.7291 217.859 110.202 230.105 119.12 246.16C128.016 262.175 130.774 280.881 126.881 298.779C121.056 310.341 112.342 320.202 101.584 327.407Z" fill="#F7F7F7" stroke="white" stroke-width="2.17984"/>
<path d="M36.9071 311.636C48.7851 317.002 62.1246 318.207 74.7719 315.058" stroke="white" stroke-width="4.35967" stroke-linecap="round" stroke-linejoin="round"/>
<path d="M44.7544 339.834C86.2025 348.023 126.441 321.061 134.631 279.613C142.82 238.164 115.858 197.925 74.4096 189.736C32.9614 181.547 -7.27757 208.509 -15.4666 249.957C-23.6557 291.406 3.30615 331.644 44.7544 339.834Z" stroke="white" stroke-width="4.35967" stroke-linecap="round" stroke-linejoin="round"/>
<path d="M128.156 231.084L129.046 231.304L129.416 230.465L142.101 201.65L144.386 238.961L144.414 239.42L144.763 239.72L172.696 263.771L141.649 257.274L140.946 257.127L140.533 257.716L121.477 284.915L126.591 252.438L126.683 251.849L126.238 251.454L93.7428 222.548L128.156 231.084Z" fill="#E5E5E5" stroke="white" stroke-width="2.17984"/>
<path d="M142.914 197.098L128.418 230.026L89.7184 220.427L125.514 252.268L119.668 289.397L141.426 258.341L176.611 265.704L145.474 238.894L142.914 197.098Z" stroke="white" stroke-width="4.35967" stroke-linecap="round" stroke-linejoin="round"/>
<path d="M154.7 390.297L154.702 390.286C160.257 360.597 177.027 334.197 201.516 316.554L345.291 442.07L186.391 496.267C160.022 471.775 146.534 431.627 154.7 390.297Z" fill="#F7F7F7" stroke="white" stroke-width="2.17984"/>
<path d="M154.7 390.297L154.702 390.286C160.257 360.597 177.027 334.198 201.515 316.554L228.577 340.231C213.592 356.79 203.426 377.144 199.192 399.086C192.994 429.225 198.627 460.576 214.89 486.655L186.393 496.268C160.022 471.777 146.534 431.628 154.7 390.297Z" fill="#F7F7F7" stroke="white" stroke-width="2.17984"/>
<path d="M373.752 433.576L224.556 303.068L224.439 302.893C190.078 315.777 162.013 347.966 153.747 389.805C145.48 431.644 159.208 472.333 186.074 497.07L186.192 497.245L373.752 433.576Z" stroke="white" stroke-width="4.35967" stroke-linecap="round" stroke-linejoin="round"/>
</g>
</g>
</svg>
