<svg width="219" height="228" viewBox="0 0 219 228" fill="none" xmlns="http://www.w3.org/2000/svg">
<mask id="mask0_16_2" style="mask-type:alpha" maskUnits="userSpaceOnUse" x="0" y="0" width="219" height="228">
<path fill-rule="evenodd" clip-rule="evenodd" d="M219 0.952111H0V98.0145H219V0.952111ZM219 130.938H0V228H219V130.938Z" fill="#C4C4C4"/>
</mask>
<g mask="url(#mask0_16_2)">
<path d="M100.871 202.725L100.552 202.515L100.197 202.659L90.6452 206.542L83.2779 199.29L83.0061 199.022L82.6314 199.093L72.4993 201.014L66.7109 192.45L66.4967 192.133L66.1142 192.13L55.8061 192.035L51.7848 182.509L51.6365 182.158L51.263 182.08L41.1695 179.969L39.064 169.832L38.9864 169.459L38.6348 169.31L29.135 165.291L29.027 154.953L29.0231 154.573L28.7092 154.359L20.18 148.54L22.0965 138.376L22.167 138.002L21.9003 137.731L14.6674 130.37L18.5407 120.775L18.6831 120.423L18.4749 120.104L12.8198 111.456L18.4752 102.794L18.6831 102.476L18.5406 102.123L14.6674 92.5427L21.9008 85.1679L22.1669 84.8965L22.0965 84.523L20.18 74.3597L28.7229 68.5407L29.0377 68.3263L29.0412 67.9455L29.1356 57.607L38.6356 53.5747L38.9864 53.4258L39.064 53.0527L41.1693 42.9303L51.263 40.8195L51.6365 40.7414L51.7848 40.3899L55.8064 30.8635L66.1152 30.7553L66.4967 30.7513L66.7106 30.4354L72.499 21.8846L82.6457 23.8058L83.0208 23.8768L83.2925 23.6088L90.6456 16.3575L100.197 20.2399L100.552 20.384L100.871 20.1738L109.493 14.505L118.129 20.1741L118.449 20.3839L118.803 20.2399L128.355 16.3573L135.722 23.6093L135.994 23.8769L136.369 23.8058L146.487 21.8848L152.29 30.4497L152.504 30.766L152.886 30.7695L163.194 30.8642L167.215 40.3899L167.364 40.7414L167.737 40.8195L177.831 42.9303L179.936 53.0527L180.014 53.4258L180.364 53.5747L189.864 57.607L189.959 67.9596L189.962 68.341L190.278 68.5553L198.82 74.3603L196.903 84.523L196.833 84.8965L197.099 85.1679L204.333 92.5427L200.459 102.123L200.317 102.476L200.525 102.794L206.18 111.456L200.525 120.104L200.317 120.423L200.459 120.775L204.333 130.37L197.099 137.745L196.833 138.017L196.904 138.39L198.82 148.539L190.277 154.358L189.962 154.573L189.959 154.954L189.864 165.292L180.364 169.324L180.014 169.473L179.936 169.846L177.831 179.969L167.723 182.08L167.349 182.158L167.201 182.51L163.193 192.036L152.885 192.144L152.504 192.148L152.29 192.463L146.487 201.014L136.354 199.093L135.979 199.022L135.707 199.29L128.354 206.542L118.803 202.659L118.449 202.515L118.129 202.725L109.493 208.394L100.871 202.725Z" fill="white" stroke="#65AD41" stroke-width="1.45646"/>
<path d="M72.7853 86.0389C74.3071 89.7177 76.7333 92.9526 79.8389 95.4434C80.7243 91.2114 80.4472 86.8185 79.0368 82.7313C77.5234 79.0478 75.0958 75.811 71.9833 73.3269C71.0979 77.5589 71.375 81.9517 72.7853 86.0389Z" fill="#2DB872"/>
<path d="M78.417 83.9959C75.7905 77.1035 69.3964 73.147 69.3964 73.147C69.3964 73.147 67.2772 80.3344 69.8881 87.2538C72.499 94.1732 78.9035 98.1117 78.9035 98.1117C78.9035 98.1117 81.0383 90.8972 78.417 83.9959Z" stroke="black" stroke-width="0.970974" stroke-linecap="round" stroke-linejoin="round"/>
<path d="M90.7428 131.048C91.1878 129.304 91.2327 127.482 90.8742 125.718C90.436 123.852 90.4472 121.909 90.9069 120.048C91.4941 117.956 91.6032 115.76 91.2261 113.62C90.2123 111.778 88.783 110.197 87.0517 109.003C85.3203 107.809 83.3346 107.035 81.252 106.743C79.1694 106.451 77.0473 106.648 75.0541 107.318C73.0609 107.989 71.2515 109.115 69.7695 110.607C67.5806 109.688 65.1893 109.359 62.8333 109.651C60.4774 109.943 58.2391 110.847 56.3411 112.273C54.4432 113.699 52.9517 115.597 52.0152 117.779C51.0786 119.96 50.7297 122.349 51.0031 124.707C51.2849 127.171 52.243 129.509 53.7714 131.462C54.8268 132.913 55.5206 134.595 55.7951 136.369C56.1003 138.022 56.7697 139.586 57.7547 140.948C58.3324 141.743 58.9982 142.47 59.7393 143.115C61.6978 143.873 63.8159 144.125 65.8976 143.848C68.6711 143.464 71.2433 142.184 73.2231 140.204C75.8112 141.291 78.6836 141.502 81.4029 140.805C83.6988 140.18 85.7812 138.941 87.4266 137.222C89.0721 135.504 90.2184 133.369 90.7428 131.048Z" fill="#FA465A"/>
<path d="M91.1117 113.197C90.4374 110.732 89.1265 108.487 87.3107 106.689C85.4949 104.89 83.2379 103.601 80.7663 102.95C78.2947 102.299 75.6953 102.309 73.2291 102.98C70.7629 103.652 68.5166 104.959 66.7155 106.773C63.7322 105.486 60.4046 105.234 57.2613 106.055C54.118 106.876 51.3393 108.724 49.3665 111.305C47.3937 113.887 46.3401 117.053 46.373 120.302C46.4058 123.551 47.5234 126.695 49.548 129.236C50.6793 130.783 51.4213 132.581 51.7113 134.476C52.0565 136.242 52.7896 137.91 53.8576 139.358C55.222 141.292 57.0842 142.821 59.2468 143.782C61.4095 144.743 63.7918 145.101 66.1415 144.819C68.915 144.434 71.4872 143.155 73.467 141.174C76.0552 142.261 78.9275 142.472 81.6468 141.776C83.9283 141.148 85.9973 139.914 87.6342 138.205C89.271 136.496 90.4147 134.376 90.9436 132.069C91.3886 130.326 91.4335 128.504 91.0751 126.74C90.6368 124.874 90.648 122.93 91.1078 121.069C91.8355 118.496 91.8368 115.771 91.1117 113.197Z" stroke="black" stroke-width="0.970974" stroke-linecap="round" stroke-linejoin="round"/>
<path d="M56.9082 111.88C54.3486 113.632 52.456 116.198 51.5376 119.161" stroke="black" stroke-width="0.970974" stroke-linecap="round" stroke-linejoin="round"/>
<path d="M119.315 173.634C121.947 176.621 125.29 178.896 129.035 180.247C128.502 175.956 126.817 171.89 124.159 168.48C121.534 165.485 118.189 163.209 114.439 161.867C114.972 166.157 116.657 170.224 119.315 173.634Z" fill="#2DB872"/>
<path d="M123.982 169.877C119.264 164.207 111.934 162.534 111.934 162.534C111.934 162.534 112.256 170.021 116.968 175.721C121.679 181.422 129.014 183.074 129.014 183.074C129.014 183.074 128.697 175.557 123.982 169.877Z" stroke="black" stroke-width="0.970974" stroke-linecap="round" stroke-linejoin="round"/>
<path d="M105.584 99.2403C109.27 97.7343 112.515 95.3219 115.019 92.227C110.791 91.3235 106.397 91.5818 102.304 92.9747C98.6136 94.4723 95.3665 96.8861 92.869 99.9879C97.0972 100.891 101.491 100.633 105.584 99.2403Z" fill="#2DB872"/>
<path d="M103.565 93.6C96.6618 96.197 92.678 102.574 92.678 102.574C92.678 102.574 99.8562 104.724 106.787 102.143C113.717 99.5614 117.683 93.1739 117.683 93.1739C117.683 93.1739 110.478 91.0083 103.565 93.6Z" stroke="black" stroke-width="0.970974" stroke-linecap="round" stroke-linejoin="round"/>
<path d="M34.8483 69.5263C33.072 73.0891 32.2242 77.0429 32.3837 81.0207C36.1575 78.9107 39.2896 75.8181 41.4471 72.0712C43.2325 68.5116 44.0808 64.5555 43.9117 60.5768C40.1379 62.6868 37.0059 65.7794 34.8483 69.5263Z" fill="#2DB872"/>
<path d="M40.0864 72.4337C43.5618 65.928 42.3494 58.5072 42.3494 58.5072C42.3494 58.5072 35.5362 61.6264 32.0301 68.1381C28.524 74.6498 29.7568 82.0666 29.7568 82.0666C29.7568 82.0666 36.6007 78.9414 40.0864 72.4337Z" stroke="black" stroke-width="0.970974" stroke-linecap="round" stroke-linejoin="round"/>
<path d="M180.424 151.305C181.404 155.164 183.343 158.713 186.06 161.622C187.542 157.56 187.896 153.173 187.085 148.926C186.114 145.064 184.174 141.513 181.449 138.609C179.967 142.671 179.613 147.059 180.424 151.305Z" fill="#2DB872"/>
<path d="M186.29 150.089C184.677 142.892 178.915 138.061 178.915 138.061C178.915 138.061 175.789 144.872 177.383 152.093C178.977 159.315 184.753 164.129 184.753 164.129C184.753 164.129 187.897 157.294 186.29 150.089Z" stroke="black" stroke-width="0.970974" stroke-linecap="round" stroke-linejoin="round"/>
<path d="M37.8644 151.733C36.0098 155.255 35.075 159.189 35.1466 163.17C38.9662 161.144 42.1657 158.121 44.4054 154.423C46.269 150.903 47.2043 146.967 47.1232 142.985C43.3036 145.012 40.1041 148.034 37.8644 151.733Z" fill="#2DB872"/>
<path d="M43.0369 154.755C46.6551 148.328 45.6068 140.882 45.6068 140.882C45.6068 140.882 38.7265 143.85 35.0775 150.283C31.4285 156.715 32.4973 164.158 32.4973 164.158C32.4973 164.158 39.4084 161.184 43.0369 154.755Z" stroke="black" stroke-width="0.970974" stroke-linecap="round" stroke-linejoin="round"/>
<path d="M112.924 57.8366C114.626 61.4355 117.209 64.5462 120.434 66.8803C121.109 62.6096 120.615 58.2359 119.004 54.2235C117.31 50.6194 114.725 47.5068 111.493 45.1798C110.818 49.4505 111.313 53.8242 112.924 57.8366Z" fill="#2DB872"/>
<path d="M118.447 55.5172C115.483 48.7633 108.901 45.1282 108.901 45.1282C108.901 45.1282 107.14 52.4117 110.09 59.1933C113.04 65.975 119.632 69.5916 119.632 69.5916C119.632 69.5916 121.407 62.2803 118.447 55.5172Z" stroke="black" stroke-width="0.970974" stroke-linecap="round" stroke-linejoin="round"/>
<path d="M154.187 138.05C158.027 137 161.539 134.997 164.399 132.227C160.31 130.82 155.917 130.546 151.686 131.435C147.842 132.476 144.328 134.48 141.474 137.258C145.562 138.665 149.955 138.939 154.187 138.05Z" fill="#2DB872"/>
<path d="M152.863 132.208C145.697 133.953 140.973 139.802 140.973 139.802C140.973 139.802 147.839 142.803 155.03 141.077C162.222 139.351 166.929 133.488 166.929 133.488C166.929 133.488 160.038 130.469 152.863 132.208Z" stroke="black" stroke-width="0.970974" stroke-linecap="round" stroke-linejoin="round"/>
<path d="M85.1424 148.273C81.1679 148.502 77.3158 149.731 73.9432 151.847C77.6499 154.073 81.8901 155.254 86.2138 155.264C90.19 155.044 94.0445 153.814 97.413 151.689C93.7063 149.463 89.4661 148.283 85.1424 148.273Z" fill="#2DB872"/>
<path d="M85.2229 154.263C92.5955 154.045 98.4323 149.305 98.4323 149.305C98.4323 149.305 92.3394 144.943 84.9463 145.137C77.5532 145.331 71.7301 150.087 71.7301 150.087C71.7301 150.087 77.8435 154.473 85.2229 154.263Z" stroke="black" stroke-width="0.970974" stroke-linecap="round" stroke-linejoin="round"/>
<path d="M112.044 32.1226C112.713 31.3368 113.099 30.3491 113.139 29.3179C113.18 28.2868 112.872 27.2719 112.267 26.4362C110.347 23.3809 105.562 24.1872 101.955 27.3274C99.2923 29.6401 89.9672 38.9971 85.2781 43.6544L85.4266 43.909C98.5285 35.6978 105.265 41.6069 116.118 41.1401C117.561 41.1502 118.978 40.761 120.213 40.0155C119.534 36.8647 116.245 33.2471 112.044 32.1226Z" fill="#2DB872"/>
<path d="M79.0084 65.5086C82.2656 63.4642 84.7235 60.3651 85.9726 56.7281C87.2216 53.091 87.1862 49.1357 85.8724 45.5216C83.3648 42.3323 79.7874 40.1587 75.8016 39.4023C71.8157 38.646 67.6907 39.3581 64.1892 41.407C60.6876 43.456 58.0461 46.7032 56.7529 50.5486C55.4597 54.394 55.6023 58.5775 57.1543 62.3259C57.3134 62.3259 57.4301 62.3259 57.4725 62.3259C60.1019 65.3239 63.7111 67.2898 67.6559 67.8728C71.6007 68.4558 75.6243 67.6178 79.0084 65.5086Z" fill="#FA465A"/>
<path d="M113.699 27.6138C114.368 26.8297 114.753 25.8438 114.793 24.8145C114.834 23.7851 114.527 22.7721 113.922 21.9381C112.002 18.8827 107.217 19.6784 103.61 22.8186C100.003 25.9588 84.8116 41.278 84.2068 41.9145L85.4587 43.9196C98.5606 35.7083 105.297 41.6174 116.15 41.1507C126.366 40.6945 121.656 29.7356 113.699 27.6138Z" stroke="black" stroke-width="0.970974" stroke-linecap="round" stroke-linejoin="round"/>
<path d="M79.9315 64.8084C81.5333 63.65 82.9133 62.2126 84.0053 60.5648L75.3909 46.7734L79.9315 64.8084Z" fill="#FF889F"/>
<path d="M67.1798 67.7576C69.0046 68.4896 71.5401 68.7018 73.1314 67.6303L69.6623 49.6696L67.1798 67.7576Z" fill="#FF889F"/>
<path d="M79.0082 65.5085C81.7377 63.8 83.9183 61.3427 85.2904 58.4295C86.6625 55.5164 87.1681 52.2702 86.7471 49.0777C86.326 45.8852 84.9959 42.8811 82.9155 40.4234C80.835 37.9656 78.0917 36.1578 75.0126 35.2153C71.9335 34.2729 68.6484 34.2355 65.5486 35.1078C62.4489 35.98 59.6653 37.725 57.5294 40.1348C55.3936 42.5447 53.9957 45.5178 53.5021 48.6998C53.0086 51.8819 53.4403 55.1388 54.7458 58.0824C55.0641 58.7932 44.4977 66.336 44.9221 67.015C45.3464 67.694 56.8888 61.7106 57.4723 62.3365C60.1031 65.3328 63.713 67.2967 67.6577 67.8777C71.6024 68.4587 75.6253 67.619 79.0082 65.5085V65.5085Z" stroke="black" stroke-width="0.970974" stroke-linecap="round" stroke-linejoin="round"/>
<path d="M99.8337 34.743C103.409 31.677 105.976 30.9344 110.443 30.9556" stroke="black" stroke-width="0.970974" stroke-linecap="round" stroke-linejoin="round"/>
<path d="M121.522 194.835C121.519 196.676 122.163 198.46 123.341 199.875C124.396 200.382 125.553 200.644 126.723 200.642C128.225 200.64 129.694 200.212 130.962 199.407C132.229 198.602 133.241 197.454 133.881 196.095C134.52 194.737 134.76 193.225 134.573 191.735C134.386 190.246 133.78 188.84 132.824 187.682C131.618 187.107 130.286 186.847 128.953 186.927C127.619 187.006 126.327 187.423 125.198 188.137C124.069 188.852 123.14 189.841 122.497 191.012C121.854 192.183 121.519 193.499 121.522 194.835Z" fill="#FA465A"/>
<path d="M126.723 200.651C131.097 200.651 134.643 197.106 134.643 192.731C134.643 188.357 131.097 184.811 126.723 184.811C122.349 184.811 118.803 188.357 118.803 192.731C118.803 197.106 122.349 200.651 126.723 200.651Z" stroke="black" stroke-width="0.970974" stroke-linecap="round" stroke-linejoin="round"/>
<path d="M126.865 189.861V186.924" stroke="black" stroke-width="0.970974" stroke-linecap="round" stroke-linejoin="round"/>
<path d="M128.457 192.731H131.403" stroke="black" stroke-width="0.970974" stroke-linecap="round" stroke-linejoin="round"/>
<path d="M126.59 195.602V198.539" stroke="black" stroke-width="0.970974" stroke-linecap="round" stroke-linejoin="round"/>
<path d="M124.989 192.731H122.053" stroke="black" stroke-width="0.970974" stroke-linecap="round" stroke-linejoin="round"/>
<path d="M23.1747 97.5503C23.1715 99.3916 23.8153 101.175 24.9937 102.59C26.0488 103.098 27.205 103.36 28.3758 103.358C29.877 103.356 31.3469 102.928 32.6141 102.123C33.8813 101.318 34.8937 100.169 35.5331 98.811C36.1725 97.4527 36.4127 95.9407 36.2257 94.4511C36.0387 92.9615 35.4321 91.5558 34.4768 90.3977C33.2708 89.8226 31.9387 89.5627 30.605 89.6423C29.2713 89.7219 27.9795 90.1384 26.8505 90.8529C25.7215 91.5674 24.7922 92.5565 24.1493 93.7278C23.5065 94.8991 23.1711 96.2143 23.1747 97.5503Z" fill="#FA465A"/>
<path d="M28.3756 103.367C32.7497 103.367 36.2956 99.8212 36.2956 95.4472C36.2956 91.0731 32.7497 87.5272 28.3756 87.5272C24.0015 87.5272 20.4556 91.0731 20.4556 95.4472C20.4556 99.8212 24.0015 103.367 28.3756 103.367Z" stroke="black" stroke-width="0.970974" stroke-linecap="round" stroke-linejoin="round"/>
<path d="M28.5175 92.5767V89.6399" stroke="black" stroke-width="0.970974" stroke-linecap="round" stroke-linejoin="round"/>
<path d="M30.1092 95.4471H33.0555" stroke="black" stroke-width="0.970974" stroke-linecap="round" stroke-linejoin="round"/>
<path d="M28.2429 98.3177V101.255" stroke="black" stroke-width="0.970974" stroke-linecap="round" stroke-linejoin="round"/>
<path d="M26.6419 95.4471H23.705" stroke="black" stroke-width="0.970974" stroke-linecap="round" stroke-linejoin="round"/>
<path d="M44.6535 86.8431C44.6487 89.5495 45.595 92.1715 47.3271 94.2511C48.878 94.9969 50.5774 95.3825 52.2983 95.379C54.5049 95.3767 56.6655 94.7473 58.5281 93.5641C60.3907 92.3808 61.8787 90.6926 62.8185 88.6961C63.7584 86.6996 64.1115 84.4771 63.8366 82.2877C63.5617 80.0982 62.6702 78.0319 61.2659 76.3298C59.4933 75.4844 57.5353 75.1023 55.5749 75.2194C53.6145 75.3364 51.7159 75.9486 50.0564 76.9988C48.3969 78.049 47.0309 79.5029 46.086 81.2245C45.1411 82.9461 44.6482 84.8792 44.6535 86.8431Z" fill="#65AD41"/>
<path d="M52.298 95.393C58.7273 95.393 63.9393 90.181 63.9393 83.7518C63.9393 77.3225 58.7273 72.1105 52.298 72.1105C45.8688 72.1105 40.6568 77.3225 40.6568 83.7518C40.6568 90.181 45.8688 95.393 52.298 95.393Z" stroke="black" stroke-width="0.970974" stroke-linecap="round" stroke-linejoin="round"/>
<path d="M52.5066 79.5326V75.2158" stroke="black" stroke-width="0.970974" stroke-linecap="round" stroke-linejoin="round"/>
<path d="M54.8461 83.7517H59.1768" stroke="black" stroke-width="0.970974" stroke-linecap="round" stroke-linejoin="round"/>
<path d="M52.1027 87.971V92.2878" stroke="black" stroke-width="0.970974" stroke-linecap="round" stroke-linejoin="round"/>
<path d="M49.7494 83.7517H45.4327" stroke="black" stroke-width="0.970974" stroke-linecap="round" stroke-linejoin="round"/>
<path d="M128.861 126.16C128.856 128.867 129.802 131.489 131.534 133.568C133.085 134.314 134.785 134.7 136.506 134.696C138.712 134.694 140.873 134.064 142.735 132.881C144.598 131.698 146.086 130.01 147.026 128.013C147.966 126.017 148.319 123.794 148.044 121.605C147.769 119.415 146.878 117.349 145.473 115.647C143.701 114.802 141.743 114.419 139.782 114.536C137.822 114.653 135.923 115.266 134.264 116.316C132.604 117.366 131.238 118.82 130.293 120.542C129.349 122.263 128.856 124.196 128.861 126.16Z" fill="#FA465A"/>
<path d="M136.505 134.71C142.935 134.71 148.147 129.498 148.147 123.069C148.147 116.64 142.935 111.428 136.505 111.428C130.076 111.428 124.864 116.64 124.864 123.069C124.864 129.498 130.076 134.71 136.505 134.71Z" stroke="black" stroke-width="0.970974" stroke-linecap="round" stroke-linejoin="round"/>
<path d="M136.714 118.85V114.533" stroke="black" stroke-width="0.970974" stroke-linecap="round" stroke-linejoin="round"/>
<path d="M139.053 123.069H143.384" stroke="black" stroke-width="0.970974" stroke-linecap="round" stroke-linejoin="round"/>
<path d="M136.31 127.288V131.605" stroke="black" stroke-width="0.970974" stroke-linecap="round" stroke-linejoin="round"/>
<path d="M133.957 123.069H129.64" stroke="black" stroke-width="0.970974" stroke-linecap="round" stroke-linejoin="round"/>
<path d="M186.107 139.246C186.105 140.544 186.559 141.801 187.389 142.799C188.133 143.156 188.948 143.341 189.773 143.339C190.831 143.338 191.867 143.036 192.76 142.469C193.653 141.902 194.367 141.092 194.817 140.135C195.268 139.178 195.437 138.112 195.306 137.062C195.174 136.012 194.746 135.022 194.073 134.205C193.223 133.8 192.284 133.617 191.344 133.673C190.404 133.729 189.494 134.023 188.698 134.526C187.902 135.03 187.247 135.727 186.794 136.552C186.341 137.378 186.105 138.305 186.107 139.246Z" fill="#65AD41"/>
<path d="M189.773 143.346C192.856 143.346 195.355 140.847 195.355 137.764C195.355 134.681 192.856 132.182 189.773 132.182C186.69 132.182 184.191 134.681 184.191 137.764C184.191 140.847 186.69 143.346 189.773 143.346Z" stroke="black" stroke-width="0.970974" stroke-linecap="round" stroke-linejoin="round"/>
<path d="M189.873 135.741V133.671" stroke="black" stroke-width="0.970974" stroke-linecap="round" stroke-linejoin="round"/>
<path d="M190.995 137.764H193.071" stroke="black" stroke-width="0.970974" stroke-linecap="round" stroke-linejoin="round"/>
<path d="M189.679 139.787V141.857" stroke="black" stroke-width="0.970974" stroke-linecap="round" stroke-linejoin="round"/>
<path d="M188.551 137.764H186.481" stroke="black" stroke-width="0.970974" stroke-linecap="round" stroke-linejoin="round"/>
<path d="M189.944 95.8114C189.942 97.1091 190.396 98.3663 191.226 99.3635C191.97 99.7211 192.785 99.906 193.61 99.9043C194.668 99.9032 195.704 99.6014 196.597 99.034C197.49 98.4667 198.204 97.6572 198.654 96.6999C199.105 95.7426 199.274 94.6769 199.142 93.6271C199.011 92.5773 198.583 91.5865 197.91 90.7703C197.06 90.365 196.121 90.1818 195.181 90.2379C194.241 90.294 193.331 90.5876 192.535 91.0911C191.739 91.5947 191.084 92.2918 190.631 93.1173C190.178 93.9428 189.942 94.8697 189.944 95.8114Z" fill="#65AD41"/>
<path d="M193.61 99.911C196.693 99.911 199.192 97.4119 199.192 94.3291C199.192 91.2463 196.693 88.7472 193.61 88.7472C190.527 88.7472 188.028 91.2463 188.028 94.3291C188.028 97.4119 190.527 99.911 193.61 99.911Z" stroke="black" stroke-width="0.970974" stroke-linecap="round" stroke-linejoin="round"/>
<path d="M193.71 92.306V90.2362" stroke="black" stroke-width="0.970974" stroke-linecap="round" stroke-linejoin="round"/>
<path d="M194.832 94.3291H196.908" stroke="black" stroke-width="0.970974" stroke-linecap="round" stroke-linejoin="round"/>
<path d="M193.516 96.3522V98.4221" stroke="black" stroke-width="0.970974" stroke-linecap="round" stroke-linejoin="round"/>
<path d="M192.388 94.3291H190.318" stroke="black" stroke-width="0.970974" stroke-linecap="round" stroke-linejoin="round"/>
<path d="M123.366 28.2579C123.364 29.5556 123.818 30.8128 124.648 31.81C125.392 32.1676 126.207 32.3525 127.032 32.3508C128.09 32.3497 129.126 32.0479 130.019 31.4806C130.912 30.9132 131.626 30.1037 132.076 29.1464C132.527 28.1891 132.696 27.1234 132.564 26.0736C132.433 25.0238 132.005 24.033 131.332 23.2168C130.482 22.8115 129.543 22.6283 128.603 22.6844C127.663 22.7405 126.753 23.0341 125.957 23.5376C125.161 24.0412 124.506 24.7383 124.053 25.5638C123.6 26.3893 123.364 27.3162 123.366 28.2579Z" fill="#65AD41"/>
<path d="M127.032 32.3575C130.115 32.3575 132.614 29.8584 132.614 26.7756C132.614 23.6928 130.115 21.1938 127.032 21.1938C123.949 21.1938 121.45 23.6928 121.45 26.7756C121.45 29.8584 123.949 32.3575 127.032 32.3575Z" stroke="black" stroke-width="0.970974" stroke-linecap="round" stroke-linejoin="round"/>
<path d="M127.132 24.7526V22.6827" stroke="black" stroke-width="0.970974" stroke-linecap="round" stroke-linejoin="round"/>
<path d="M128.254 26.7756H130.33" stroke="black" stroke-width="0.970974" stroke-linecap="round" stroke-linejoin="round"/>
<path d="M126.938 28.7987V30.8686" stroke="black" stroke-width="0.970974" stroke-linecap="round" stroke-linejoin="round"/>
<path d="M125.81 26.7756H123.74" stroke="black" stroke-width="0.970974" stroke-linecap="round" stroke-linejoin="round"/>
<path d="M119.22 79.7156C119.218 81.0133 119.672 82.2706 120.502 83.2677C121.246 83.6253 122.061 83.8102 122.886 83.8086C123.944 83.8074 124.98 83.5056 125.873 82.9383C126.766 82.3709 127.48 81.5615 127.93 80.6042C128.381 79.6468 128.55 78.5812 128.419 77.5313C128.287 76.4815 127.859 75.4908 127.186 74.6746C126.336 74.2692 125.397 74.086 124.457 74.1421C123.517 74.1982 122.607 74.4918 121.811 74.9954C121.015 75.4989 120.36 76.1961 119.907 77.0216C119.454 77.8471 119.218 78.774 119.22 79.7156Z" fill="#FA465A"/>
<path d="M122.886 83.8152C125.969 83.8152 128.468 81.3161 128.468 78.2333C128.468 75.1505 125.969 72.6514 122.886 72.6514C119.803 72.6514 117.304 75.1505 117.304 78.2333C117.304 81.3161 119.803 83.8152 122.886 83.8152Z" stroke="black" stroke-width="0.970974" stroke-linecap="round" stroke-linejoin="round"/>
<path d="M122.986 76.2103V74.1404" stroke="black" stroke-width="0.970974" stroke-linecap="round" stroke-linejoin="round"/>
<path d="M124.108 78.2333H126.184" stroke="black" stroke-width="0.970974" stroke-linecap="round" stroke-linejoin="round"/>
<path d="M122.792 80.2565V82.3263" stroke="black" stroke-width="0.970974" stroke-linecap="round" stroke-linejoin="round"/>
<path d="M121.664 78.2333H119.594" stroke="black" stroke-width="0.970974" stroke-linecap="round" stroke-linejoin="round"/>
<path d="M39.3835 105.755C39.3812 107.053 39.8349 108.31 40.6654 109.307C41.4091 109.665 42.2239 109.85 43.0491 109.848C44.1072 109.847 45.1431 109.545 46.0362 108.978C46.9293 108.41 47.6428 107.601 48.0935 106.644C48.5441 105.686 48.7134 104.621 48.5816 103.571C48.4498 102.521 48.0223 101.53 47.349 100.714C46.4991 100.309 45.5602 100.125 44.6202 100.182C43.6802 100.238 42.7698 100.531 41.9741 101.035C41.1784 101.538 40.5234 102.236 40.0704 103.061C39.6173 103.887 39.381 104.813 39.3835 105.755Z" fill="#65AD41"/>
<path d="M43.0489 109.855C46.1317 109.855 48.6308 107.356 48.6308 104.273C48.6308 101.19 46.1317 98.6909 43.0489 98.6909C39.9661 98.6909 37.467 101.19 37.467 104.273C37.467 107.356 39.9661 109.855 43.0489 109.855Z" stroke="black" stroke-width="0.970974" stroke-linecap="round" stroke-linejoin="round"/>
<path d="M43.1488 102.25V100.18" stroke="black" stroke-width="0.970974" stroke-linecap="round" stroke-linejoin="round"/>
<path d="M44.2707 104.273H46.3472" stroke="black" stroke-width="0.970974" stroke-linecap="round" stroke-linejoin="round"/>
<path d="M42.9552 106.296V108.366" stroke="black" stroke-width="0.970974" stroke-linecap="round" stroke-linejoin="round"/>
<path d="M41.8268 104.273H39.757" stroke="black" stroke-width="0.970974" stroke-linecap="round" stroke-linejoin="round"/>
<path d="M68.6221 189.218C68.6198 190.515 69.0736 191.773 69.9041 192.77C70.6477 193.127 71.4626 193.312 72.2877 193.311C73.3458 193.309 74.3817 193.008 75.2749 192.44C76.168 191.873 76.8814 191.063 77.3321 190.106C77.7828 189.149 77.952 188.083 77.8202 187.033C77.6884 185.983 77.261 184.993 76.5876 184.177C75.7377 183.771 74.7988 183.588 73.8588 183.644C72.9188 183.7 72.0085 183.994 71.2127 184.497C70.417 185.001 69.762 185.698 69.309 186.524C68.8559 187.349 68.6196 188.276 68.6221 189.218Z" fill="#65AD41"/>
<path d="M72.2875 193.317C75.3703 193.317 77.8694 190.818 77.8694 187.735C77.8694 184.653 75.3703 182.153 72.2875 182.153C69.2047 182.153 66.7056 184.653 66.7056 187.735C66.7056 190.818 69.2047 193.317 72.2875 193.317Z" stroke="black" stroke-width="0.970974" stroke-linecap="round" stroke-linejoin="round"/>
<path d="M72.3875 185.712V183.642" stroke="black" stroke-width="0.970974" stroke-linecap="round" stroke-linejoin="round"/>
<path d="M73.5094 187.735H75.5859" stroke="black" stroke-width="0.970974" stroke-linecap="round" stroke-linejoin="round"/>
<path d="M72.1938 189.758V191.828" stroke="black" stroke-width="0.970974" stroke-linecap="round" stroke-linejoin="round"/>
<path d="M71.0654 187.735H68.9956" stroke="black" stroke-width="0.970974" stroke-linecap="round" stroke-linejoin="round"/>
<path d="M97.5156 132.88C97.5133 134.178 97.9671 135.435 98.7976 136.433C99.5412 136.79 100.356 136.975 101.181 136.973C102.239 136.972 103.275 136.67 104.168 136.103C105.061 135.536 105.775 134.726 106.226 133.769C106.676 132.812 106.846 131.746 106.714 130.696C106.582 129.646 106.154 128.656 105.481 127.839C104.631 127.434 103.692 127.251 102.752 127.307C101.812 127.363 100.902 127.657 100.106 128.16C99.3106 128.664 98.6556 129.361 98.2025 130.186C97.7494 131.012 97.5131 131.939 97.5156 132.88Z" fill="#65AD41"/>
<path d="M101.181 136.98C104.264 136.98 106.763 134.481 106.763 131.398C106.763 128.315 104.264 125.816 101.181 125.816C98.0982 125.816 95.5991 128.315 95.5991 131.398C95.5991 134.481 98.0982 136.98 101.181 136.98Z" stroke="black" stroke-width="0.970974" stroke-linecap="round" stroke-linejoin="round"/>
<path d="M101.281 129.375V127.305" stroke="black" stroke-width="0.970974" stroke-linecap="round" stroke-linejoin="round"/>
<path d="M102.403 131.398H104.479" stroke="black" stroke-width="0.970974" stroke-linecap="round" stroke-linejoin="round"/>
<path d="M101.087 133.421V135.491" stroke="black" stroke-width="0.970974" stroke-linecap="round" stroke-linejoin="round"/>
<path d="M99.959 131.398H97.8891" stroke="black" stroke-width="0.970974" stroke-linecap="round" stroke-linejoin="round"/>
<path d="M91.5998 51.6969C91.5967 53.4476 92.2088 55.1437 93.3292 56.4889C94.3324 56.9713 95.4317 57.2207 96.5449 57.2185C97.9723 57.217 99.3698 56.8098 100.575 56.0444C101.78 55.2791 102.742 54.187 103.35 52.8956C103.958 51.6041 104.186 50.1665 104.009 48.7502C103.831 47.3339 103.254 45.9974 102.346 44.8963C101.199 44.3494 99.9325 44.1023 98.6644 44.178C97.3963 44.2537 96.1682 44.6497 95.0947 45.329C94.0213 46.0084 93.1376 46.9488 92.5264 48.0625C91.9152 49.1761 91.5964 50.4266 91.5998 51.6969Z" fill="#65AD41"/>
<path d="M96.5447 57.2275C100.704 57.2275 104.075 53.8561 104.075 49.6973C104.075 45.5384 100.704 42.167 96.5447 42.167C92.3859 42.167 89.0145 45.5384 89.0145 49.6973C89.0145 53.8561 92.3859 57.2275 96.5447 57.2275Z" stroke="black" stroke-width="0.970974" stroke-linecap="round" stroke-linejoin="round"/>
<path d="M96.6796 46.968V44.1757" stroke="black" stroke-width="0.970974" stroke-linecap="round" stroke-linejoin="round"/>
<path d="M98.1931 49.6972H100.994" stroke="black" stroke-width="0.970974" stroke-linecap="round" stroke-linejoin="round"/>
<path d="M96.4185 52.4265V55.2188" stroke="black" stroke-width="0.970974" stroke-linecap="round" stroke-linejoin="round"/>
<path d="M94.8963 49.6972H92.104" stroke="black" stroke-width="0.970974" stroke-linecap="round" stroke-linejoin="round"/>
<path d="M19.4337 126.826C19.4337 126.826 19.4337 126.826 19.4337 126.77C22.0922 124.577 27.4835 126.268 27.4835 126.268C26.0042 125.436 24.703 124.321 23.6538 122.987C25.4155 122.869 27.1842 123.064 28.8778 123.563C28.8778 123.563 23.8397 120.831 24.1 117.401C24.4281 117.063 24.7824 116.752 25.1597 116.471C31.8151 111.591 35.2265 122.123 35.2265 122.123C35.2265 122.123 36.5464 116.778 40.7293 120.031C44.9122 123.285 43.1275 131.901 43.1275 131.901C43.057 132.339 42.9545 132.771 42.8207 133.193C40.3854 136.279 35.9422 137.246 32.1404 137.655C27.0373 138.231 18.7366 132.859 19.4337 126.826Z" fill="#A2DD83"/>
<path d="M44.5313 129.234C44.5313 129.234 46.316 120.617 42.1331 117.363C37.9502 114.11 36.6302 119.455 36.6302 119.455C36.6302 119.455 33.2189 108.923 26.5634 113.803C19.908 118.683 28.8873 123.563 28.8873 123.563C28.8873 123.563 20.1311 120.775 19.4339 126.826C18.7368 132.877 27.0375 138.231 32.1499 137.692C37.2623 137.153 43.5274 135.601 44.5313 129.234Z" stroke="black" stroke-width="0.970974" stroke-linecap="round" stroke-linejoin="round"/>
<path d="M33.3208 123.619L36.7229 132.041L30.4021 130.312" stroke="black" stroke-width="0.970974" stroke-linecap="round" stroke-linejoin="round"/>
<path d="M35.6725 129.429L37.3456 124.065" stroke="black" stroke-width="0.970974" stroke-linecap="round" stroke-linejoin="round"/>
<path d="M114.919 77.8567C114.919 77.8567 114.919 77.8567 114.919 77.7813C111.325 74.8156 104.037 77.1027 104.037 77.1027C106.037 75.9777 107.796 74.4705 109.214 72.6668C106.833 72.5071 104.442 72.7709 102.152 73.4459C102.152 73.4459 108.963 69.7515 108.611 65.1145C108.168 64.6584 107.689 64.2382 107.179 63.8579C98.1812 57.2606 93.5693 71.4982 93.5693 71.4982C93.5693 71.4982 91.785 64.2726 86.1302 68.6708C80.4754 73.0689 82.8881 84.7178 82.8881 84.7178C82.9834 85.3094 83.122 85.8932 83.3028 86.4645C86.5951 90.6365 92.6017 91.9434 97.7413 92.4963C104.64 93.2754 115.862 86.0121 114.919 77.8567Z" fill="#A2DD83"/>
<path d="M80.9903 81.1113C80.9903 81.1113 78.5776 69.4624 84.2324 65.0643C89.8872 60.6661 91.6716 67.8917 91.6716 67.8917C91.6716 67.8917 96.2834 53.6542 105.281 60.2514C114.278 66.8487 102.139 73.4459 102.139 73.4459C102.139 73.4459 113.977 69.6761 114.919 77.8567C115.862 86.0373 104.64 93.2754 97.7285 92.5466C90.8171 91.8177 82.3475 89.7192 80.9903 81.1113Z" stroke="black" stroke-width="0.970974" stroke-linecap="round" stroke-linejoin="round"/>
<path d="M96.1456 73.5213L91.5463 84.9063L100.091 82.5689" stroke="black" stroke-width="0.970974" stroke-linecap="round" stroke-linejoin="round"/>
<path d="M92.9662 81.3752L90.7043 74.1245" stroke="black" stroke-width="0.970974" stroke-linecap="round" stroke-linejoin="round"/>
<path d="M128.893 135.055H128.846C125.335 134.817 121.853 139.441 121.853 139.441C122.585 137.866 123.002 136.162 123.08 134.427C121.545 135.379 120.192 136.597 119.084 138.023C119.084 138.023 121.643 132.743 119.379 130.05C118.91 129.971 118.436 129.932 117.961 129.936C109.512 129.85 112.966 140.64 112.966 140.64C112.966 140.64 108.675 136.986 107.143 142.181C105.611 147.376 112.224 153.484 112.224 153.484C112.542 153.806 112.882 154.105 113.242 154.379C117.114 155.501 121.386 153.646 124.792 151.715C129.369 149.07 133.07 139.679 128.893 135.055Z" fill="#2DB872"/>
<path d="M109.446 152.048C109.446 152.048 102.833 145.949 104.365 140.744C105.897 135.54 110.188 139.203 110.188 139.203C110.188 139.203 106.744 128.414 115.192 128.499C123.641 128.585 119.084 138.014 119.084 138.014C119.084 138.014 124.716 130.488 128.893 135.093C133.07 139.698 129.369 149.108 124.792 151.705C120.216 154.302 114.079 156.719 109.446 152.048Z" stroke="black" stroke-width="0.970974" stroke-linecap="round" stroke-linejoin="round"/>
<path d="M115.421 140.668L117.609 149.707L121.843 144.493" stroke="black" stroke-width="0.970974" stroke-linecap="round" stroke-linejoin="round"/>
<path d="M116.934 146.9L112.338 143.437" stroke="black" stroke-width="0.970974" stroke-linecap="round" stroke-linejoin="round"/>
<path d="M75.8307 159.586H75.7784C71.9214 159.324 68.0957 164.404 68.0957 164.404C68.9001 162.674 69.3581 160.802 69.4441 158.896C67.7579 159.942 66.2714 161.28 65.054 162.847C65.054 162.847 67.8657 157.046 65.378 154.088C64.8636 154 64.3424 153.958 63.8206 153.962C54.5386 153.868 58.3329 165.721 58.3329 165.721C58.3329 165.721 53.6188 161.708 51.9359 167.415C50.253 173.122 57.5176 179.833 57.5176 179.833C57.8669 180.186 58.2407 180.514 58.6361 180.815C62.8903 182.048 67.5835 180.01 71.3256 177.888C76.3533 174.983 80.4194 164.666 75.8307 159.586Z" fill="#2DB872"/>
<path d="M54.4655 178.254C54.4655 178.254 47.201 171.554 48.8838 165.836C50.5667 160.119 55.2808 164.143 55.2808 164.143C55.2808 164.143 51.497 152.29 60.7789 152.384C70.0609 152.478 65.0541 162.837 65.0541 162.837C65.0541 162.837 71.242 154.569 75.8307 159.628C80.4194 164.687 76.3534 175.024 71.3256 177.878C66.2979 180.731 59.556 183.386 54.4655 178.254Z" stroke="black" stroke-width="0.970974" stroke-linecap="round" stroke-linejoin="round"/>
<path d="M61.0302 165.753L63.4343 175.683L68.0857 169.955" stroke="black" stroke-width="0.970974" stroke-linecap="round" stroke-linejoin="round"/>
<path d="M62.6917 172.599L57.643 168.794" stroke="black" stroke-width="0.970974" stroke-linecap="round" stroke-linejoin="round"/>
<path d="M197.035 104.033H196.966C191.828 103.685 186.731 110.453 186.731 110.453C187.803 108.147 188.413 105.654 188.527 103.114C186.281 104.508 184.301 106.29 182.679 108.378C182.679 108.378 186.425 100.649 183.111 96.7086C182.425 96.5919 181.731 96.536 181.036 96.5415C168.67 96.4162 173.725 112.207 173.725 112.207C173.725 112.207 167.445 106.86 165.203 114.463C162.961 122.066 172.639 131.006 172.639 131.006C173.104 131.476 173.602 131.914 174.129 132.315C179.796 133.958 186.049 131.242 191.034 128.416C197.732 124.545 203.149 110.801 197.035 104.033Z" fill="#2DB872"/>
<path d="M168.573 128.903C168.573 128.903 158.895 119.977 161.137 112.36C163.379 104.743 169.659 110.104 169.659 110.104C169.659 110.104 164.618 94.3135 176.984 94.4388C189.349 94.5641 182.679 108.364 182.679 108.364C182.679 108.364 190.923 97.3491 197.036 104.089C203.149 110.828 197.732 124.6 191.034 128.402C184.336 132.203 175.354 135.74 168.573 128.903Z" stroke="black" stroke-width="0.970974" stroke-linecap="round" stroke-linejoin="round"/>
<path d="M177.318 112.249L180.521 125.477L186.718 117.847" stroke="black" stroke-width="0.970974" stroke-linecap="round" stroke-linejoin="round"/>
<path d="M179.532 121.37L172.806 116.301" stroke="black" stroke-width="0.970974" stroke-linecap="round" stroke-linejoin="round"/>
<path d="M115.466 181.949C115.466 178.734 114.634 175.574 113.049 172.777C109.904 169.498 105.67 167.479 101.142 167.101C96.6139 166.723 92.1038 168.011 88.4585 170.724C84.8133 173.436 82.2837 177.386 81.345 181.832C80.4062 186.277 81.1229 190.913 83.3603 194.867C85.9369 197.553 89.2583 199.407 92.8972 200.189C96.5361 200.972 100.326 200.648 103.779 199.258C107.232 197.869 110.19 195.478 112.273 192.393C114.356 189.308 115.468 185.671 115.466 181.949Z" fill="#FA465A"/>
<path d="M103.225 192.911C105.924 191.233 107.979 188.694 109.058 185.704" stroke="black" stroke-width="0.970974" stroke-linecap="round" stroke-linejoin="round"/>
<path d="M110.003 195.149C117.288 187.863 117.288 176.051 110.003 168.765C102.717 161.479 90.9045 161.479 83.6187 168.765C76.333 176.051 76.333 187.863 83.6187 195.149C90.9045 202.435 102.717 202.435 110.003 195.149Z" stroke="black" stroke-width="0.970974" stroke-linecap="round" stroke-linejoin="round"/>
<path d="M94.4098 155.885L99.113 163.292L91.9148 169.83L103.225 166.9L109.954 173.125L106.616 164.501L112.884 158.372L103.225 161.041L94.4098 155.885Z" fill="#2DB872"/>
<path d="M94.4098 155.885L99.113 163.292L91.9148 169.83L103.225 166.9L109.954 173.125L106.616 164.501L112.884 158.372L103.225 161.041L94.4098 155.885Z" stroke="black" stroke-width="0.970974" stroke-linecap="round" stroke-linejoin="round"/>
<path d="M183.745 93.052C184.886 91.8704 185.846 90.5255 186.592 89.0615C187.176 85.0952 186.29 81.0521 184.101 77.6934C181.912 74.3347 178.57 71.8922 174.706 70.8255C175.513 69.2635 176.064 67.5814 176.336 65.8441C176.369 65.7891 176.396 65.7313 176.419 65.6713C176.87 62.6335 176.46 59.5301 175.236 56.7135C174.012 53.8969 172.023 51.48 169.494 49.7373C166.965 47.9946 163.998 46.9959 160.931 46.8546C157.863 46.7133 154.817 47.4351 152.139 48.938C151.163 45.8048 149.272 43.0355 146.708 40.9866C144.145 38.9377 141.027 37.7031 137.756 37.4419C134.485 37.1807 131.21 37.9048 128.354 39.5209C125.498 41.1371 123.192 43.5712 121.731 46.5099C121.167 50.423 122.028 54.4086 124.157 57.7398C123.58 59.7949 123.569 61.9678 124.126 64.0284C124.683 66.0891 125.786 67.9609 127.32 69.4459C128.111 70.2092 129.008 70.8551 129.983 71.3638L130.16 82.3916L128.534 84.0731L128.599 87.4061L122.382 93.8361L130.807 101.982L140.318 92.1458L150.806 91.9693C151.104 92.3319 151.422 92.6784 151.757 93.0075C153.293 94.49 155.201 95.5298 157.279 96.0168C159.358 96.5039 161.529 96.4201 163.563 95.7744C166.744 97.6554 170.465 98.4098 174.127 97.9159C177.788 97.4219 181.177 95.7085 183.745 93.052Z" fill="#A2DD83"/>
<path d="M183.745 93.052C185.714 91.0038 187.118 88.4805 187.822 85.7279C188.526 82.9754 188.504 80.0876 187.76 77.3458C187.015 74.604 185.573 72.1018 183.574 70.0831C181.575 68.0644 179.087 66.5979 176.353 65.8267C177.989 62.6844 178.567 59.0975 177.999 55.6005C177.431 52.1034 175.748 48.8835 173.201 46.4209C170.654 43.9582 167.379 42.3845 163.865 41.9345C160.351 41.4845 156.785 42.1821 153.7 43.9235C152.884 41.2987 151.417 38.9232 149.435 37.0186C146.545 34.1906 142.713 32.5276 138.674 32.3477C134.634 32.1678 130.67 33.4836 127.539 36.0434C124.409 38.6032 122.332 42.2273 121.707 46.2223C121.081 50.2173 121.95 54.3028 124.148 57.6971C123.644 59.4858 123.569 61.3681 123.929 63.1913C124.288 65.0144 125.073 66.727 126.219 68.1898C127.365 69.6527 128.84 70.8246 130.524 71.6105C132.208 72.3963 134.054 72.7739 135.911 72.7126C135.913 74.295 136.233 75.861 136.852 77.3174C137.471 78.7739 138.376 80.0912 139.514 81.1912C140.652 82.2912 141.999 83.1515 143.475 83.721C144.952 84.2905 146.527 84.5576 148.109 84.5065C148.108 86.3666 148.547 88.2005 149.389 89.8591C150.231 91.5177 151.453 92.9541 152.954 94.0514C154.456 95.1487 156.196 95.876 158.032 96.174C159.868 96.472 161.749 96.3324 163.52 95.7665C166.704 97.6594 170.434 98.4213 174.105 97.9286C177.776 97.4358 181.173 95.7174 183.745 93.052V93.052Z" stroke="black" stroke-width="0.970974" stroke-linecap="round" stroke-linejoin="round"/>
<path d="M148.135 84.4977C146.553 84.5488 144.977 84.2817 143.501 83.7121C142.024 83.1426 140.677 82.2823 139.54 81.1823C138.402 80.0823 137.497 78.765 136.878 77.3086C136.259 75.8521 135.939 74.2862 135.937 72.7037C133.87 72.7708 131.822 72.2908 130 71.3123L130.177 82.3401L120.699 92.1418L130.823 101.931L140.301 92.1291L150.789 91.9526C149.075 89.8455 148.138 87.2135 148.135 84.4977V84.4977Z" stroke="black" stroke-width="0.970974" stroke-linecap="round" stroke-linejoin="round"/>
<path d="M135.917 88.3119L145.474 84.2855" stroke="black" stroke-width="0.970974" stroke-linecap="round" stroke-linejoin="round"/>
<path d="M135.251 82.8976L136.591 77.4496" stroke="black" stroke-width="0.970974" stroke-linecap="round" stroke-linejoin="round"/>
<path d="M165.576 90.0839C169.912 91.0153 174.434 90.4591 178.415 88.5051" stroke="black" stroke-width="0.970974" stroke-linecap="round" stroke-linejoin="round"/>
<path d="M126.295 160.027C126.495 167.529 129.604 174.66 134.964 179.912C142.318 187.267 152.425 190.009 161.084 187.924H161.136L171.89 147.763L126.295 160.027Z" fill="#FA465A"/>
<path d="M143.161 171.716C139.26 167.85 136.514 162.973 135.231 157.633L126.295 160.027C126.495 167.529 129.604 174.66 134.964 179.912C142.318 187.267 152.425 190.009 161.084 187.924H161.136L163.19 180.354C155.643 180.195 148.456 177.095 143.161 171.716Z" fill="#A2DD83"/>
<path d="M173.657 141.22L126.962 153.73H126.911C124.857 162.441 127.568 172.496 134.923 179.851C142.277 187.205 152.384 189.948 161.043 187.863H161.095L173.657 141.22Z" stroke="black" stroke-width="0.970974" stroke-linecap="round" stroke-linejoin="round"/>
<path d="M134.491 151.717C134.74 159.242 137.839 166.392 143.162 171.717C148.486 177.041 155.634 180.144 163.159 180.395" stroke="black" stroke-width="0.970974" stroke-linecap="round" stroke-linejoin="round"/>
<path d="M134.594 169.672C135.334 173.041 141.928 179.635 145.215 180.293" stroke="black" stroke-width="0.970974" stroke-linecap="round" stroke-linejoin="round"/>
<path d="M161.29 155.918C161.841 155.35 162.265 154.671 162.532 153.926C162.611 153.705 162.625 153.467 162.573 153.239C162.521 153.012 162.406 152.803 162.24 152.638C162.074 152.474 161.865 152.359 161.636 152.309C161.408 152.259 161.17 152.274 160.951 152.354C160.207 152.62 159.528 153.04 158.958 153.587C158.409 154.155 157.989 154.834 157.725 155.579C157.647 155.8 157.633 156.037 157.685 156.265C157.737 156.493 157.852 156.702 158.018 156.867C158.184 157.031 158.393 157.145 158.621 157.196C158.85 157.246 159.087 157.231 159.307 157.151C160.049 156.887 160.725 156.467 161.29 155.918Z" fill="black"/>
<path d="M158.989 167.042C159.537 166.478 159.958 165.801 160.221 165.06C160.303 164.839 160.319 164.6 160.268 164.37C160.218 164.14 160.102 163.93 159.936 163.764C159.77 163.597 159.559 163.482 159.33 163.431C159.1 163.381 158.86 163.397 158.64 163.478C157.898 163.742 157.222 164.162 156.657 164.711C156.108 165.28 155.684 165.959 155.414 166.703C155.333 166.924 155.317 167.163 155.368 167.393C155.418 167.623 155.534 167.833 155.7 168C155.866 168.166 156.077 168.281 156.306 168.332C156.536 168.382 156.775 168.366 156.996 168.285C157.74 168.015 158.419 167.592 158.989 167.042Z" fill="black"/>
<path d="M150.156 158.229C150.701 157.657 151.124 156.979 151.398 156.237C151.479 156.016 151.496 155.776 151.445 155.547C151.394 155.317 151.279 155.107 151.113 154.94C150.947 154.774 150.736 154.659 150.506 154.608C150.277 154.558 150.037 154.574 149.817 154.655C149.073 154.926 148.395 155.35 147.824 155.898C147.275 156.466 146.855 157.145 146.591 157.89C146.51 158.11 146.493 158.348 146.543 158.577C146.593 158.805 146.707 159.015 146.873 159.18C147.038 159.346 147.248 159.46 147.477 159.51C147.705 159.56 147.943 159.543 148.163 159.462C148.908 159.198 149.587 158.778 150.156 158.229Z" fill="black"/>
</g>
<path d="M39.6053 107.282C40.5808 107.282 41.4523 107.392 42.2197 107.613C43.0001 107.822 43.6569 108.134 44.1902 108.55C44.7235 108.953 45.1332 109.454 45.4193 110.052C45.7055 110.637 45.8485 111.307 45.8485 112.062C45.8485 112.816 45.7055 113.492 45.4193 114.091C45.1332 114.676 44.7235 115.177 44.1902 115.593C43.6569 115.996 43.0001 116.308 42.2197 116.529C41.4523 116.738 40.5808 116.842 39.6053 116.842H35.4107V120.939H32.5817V107.282H39.6053ZM35.4107 108.745V115.378H39.6053C40.6329 115.378 41.4263 115.112 41.9856 114.578C42.5579 114.032 42.844 113.193 42.844 112.062C42.844 110.93 42.5579 110.098 41.9856 109.564C41.4263 109.018 40.6329 108.745 39.6053 108.745H35.4107Z" fill="#65AD41"/>
<path d="M55.019 107.282C55.9945 107.282 56.866 107.392 57.6334 107.613C58.4138 107.822 59.0706 108.134 59.6039 108.55C60.1371 108.953 60.5469 109.454 60.833 110.052C61.1192 110.637 61.2622 111.307 61.2622 112.062C61.2622 113.102 61.0021 113.98 60.4818 114.696C59.9616 115.411 59.2137 115.957 58.2382 116.334L61.4573 120.939H58.2382L55.3702 116.842H55.019H50.8244V120.939H47.9954V107.282H55.019ZM50.8244 108.745V115.378H55.019C56.0465 115.378 56.84 115.112 57.3992 114.578C57.9585 114.032 58.2382 113.193 58.2382 112.062C58.2382 110.93 57.9585 110.098 57.3992 109.564C56.84 109.018 56.0465 108.745 55.019 108.745H50.8244Z" fill="#65AD41"/>
<path d="M71.0134 108.257C70.3501 108.257 69.7258 108.374 69.1405 108.608C68.5682 108.843 68.0674 109.2 67.6382 109.681C67.209 110.163 66.8643 110.774 66.6042 111.515C66.357 112.244 66.2335 113.109 66.2335 114.11C66.2335 115.112 66.357 115.983 66.6042 116.725C66.8643 117.453 67.209 118.058 67.6382 118.539C68.0674 119.02 68.5682 119.378 69.1405 119.612C69.7258 119.846 70.3501 119.963 71.0134 119.963C71.6768 119.963 72.2946 119.846 72.8669 119.612C73.4522 119.378 73.9594 119.02 74.3887 118.539C74.8179 118.058 75.156 117.453 75.4032 116.725C75.6633 115.983 75.7934 115.112 75.7934 114.11C75.7934 113.109 75.6633 112.244 75.4032 111.515C75.156 110.774 74.8179 110.163 74.3887 109.681C73.9594 109.2 73.4522 108.843 72.8669 108.608C72.2946 108.374 71.6768 108.257 71.0134 108.257ZM71.0134 106.892C72.184 106.892 73.2441 107.048 74.1936 107.36C75.1561 107.672 75.9755 108.134 76.6518 108.745C77.3412 109.356 77.8744 110.111 78.2516 111.008C78.6288 111.906 78.8174 112.94 78.8174 114.11C78.8174 115.281 78.6288 116.315 78.2516 117.212C77.8744 118.11 77.3412 118.864 76.6518 119.475C75.9755 120.087 75.1561 120.549 74.1936 120.861C73.2441 121.173 72.184 121.329 71.0134 121.329C69.8428 121.329 68.7763 121.173 67.8138 120.861C66.8513 120.549 66.0254 120.087 65.336 119.475C64.6597 118.864 64.1329 118.11 63.7557 117.212C63.3915 116.315 63.2094 115.281 63.2094 114.11C63.2094 112.94 63.3915 111.906 63.7557 111.008C64.1329 110.111 64.6597 109.356 65.336 108.745C66.0254 108.134 66.8513 107.672 67.8138 107.36C68.7763 107.048 69.8428 106.892 71.0134 106.892Z" fill="#65AD41"/>
<path d="M95.5016 107.282V120.939H92.6726V108.745H84.6735V120.939H81.8445V107.282H95.5016Z" fill="#65AD41"/>
<path d="M109.448 120.939V109.818H109.253L101.937 120.939H98.2299V107.282H101.059V118.402H101.254L108.57 107.282H112.277V120.939H109.448Z" fill="#65AD41"/>
<path d="M127.209 108.745H121.941V120.939H119.112V108.745H113.845V107.282H127.209V108.745Z" fill="#65AD41"/>
<path d="M130.819 116.159H136.867L133.94 108.94H133.745L130.819 116.159ZM136.086 107.282L141.647 120.939H138.837L137.549 117.622H130.136L128.848 120.939H126.039L131.599 107.282H136.086Z" fill="#65AD41"/>
<path d="M156.87 107.282V120.939H154.042V114.988H146.042V120.939H143.213V107.282H146.042V113.525H154.042V107.282H156.87Z" fill="#65AD41"/>
<path d="M170.817 120.939V109.818H170.622L163.306 120.939H159.599V107.282H162.428V118.402H162.623L169.939 107.282H173.646V120.939H170.817Z" fill="#65AD41"/>
<path d="M179.213 108.745V113.232H186.334V114.696H179.213V119.475H188.285V120.939H176.384V107.282H188.285V108.745H179.213Z" fill="#65AD41"/>
<circle cx="22.3146" cy="114.964" r="3.53619" fill="#65AD41"/>
<ellipse cx="197.051" cy="114.964" rx="3.41425" ry="3.53619" fill="#65AD41"/>
</svg>
