<svg width="219" height="228" viewBox="0 0 219 228" fill="none" xmlns="http://www.w3.org/2000/svg">
<mask id="mask0_23_36" style="mask-type:alpha" maskUnits="userSpaceOnUse" x="0" y="0" width="219" height="228">
<path fill-rule="evenodd" clip-rule="evenodd" d="M219 0H0V97.0624H219V0ZM219 129.986H0V227.048H219V129.986Z" fill="#C4C4C4"/>
</mask>
<g mask="url(#mask0_23_36)">
<path d="M100.871 201.773L100.552 201.563L100.197 201.707L90.6452 205.59L83.2779 198.338L83.0061 198.07L82.6314 198.141L72.4993 200.062L66.7109 191.498L66.4967 191.181L66.1142 191.178L55.8061 191.083L51.7848 181.557L51.6365 181.206L51.263 181.128L41.1695 179.017L39.064 168.88L38.9864 168.507L38.6348 168.358L29.135 164.339L29.027 154.001L29.0231 153.621L28.7092 153.407L20.18 147.588L22.0965 137.424L22.167 137.05L21.9003 136.779L14.6674 129.418L18.5407 119.823L18.6831 119.471L18.4749 119.152L12.8198 110.504L18.4752 101.842L18.6831 101.524L18.5406 101.171L14.6674 91.5907L21.9008 84.2159L22.1669 83.9445L22.0965 83.571L20.18 73.4078L28.7229 67.5887L29.0377 67.3743L29.0412 66.9935L29.1356 56.655L38.6356 52.6228L38.9864 52.4738L39.064 52.1007L41.1693 41.9784L51.263 39.8675L51.6365 39.7894L51.7848 39.4379L55.8064 29.9116L66.1152 29.8033L66.4967 29.7993L66.7106 29.4834L72.499 20.9326L82.6457 22.8539L83.0208 22.9249L83.2925 22.6568L90.6456 15.4055L100.197 19.2879L100.552 19.432L100.871 19.2218L109.493 13.553L118.129 19.2221L118.449 19.4319L118.803 19.2879L128.355 15.4053L135.722 22.6573L135.994 22.9249L136.369 22.8538L146.487 20.9328L152.29 29.4977L152.504 29.814L152.886 29.8175L163.194 29.9122L167.215 39.4379L167.364 39.7894L167.737 39.8675L177.831 41.9784L179.936 52.1007L180.014 52.4738L180.364 52.6228L189.864 56.655L189.959 67.0076L189.962 67.389L190.278 67.6033L198.82 73.4083L196.903 83.571L196.833 83.9445L197.099 84.2159L204.333 91.5907L200.459 101.171L200.317 101.524L200.525 101.842L206.18 110.504L200.525 119.152L200.317 119.471L200.459 119.823L204.333 129.418L197.099 136.793L196.833 137.065L196.904 137.438L198.82 147.587L190.277 153.406L189.962 153.621L189.959 154.002L189.864 164.34L180.364 168.372L180.014 168.521L179.936 168.894L177.831 179.017L167.723 181.128L167.349 181.206L167.201 181.558L163.193 191.084L152.885 191.192L152.504 191.196L152.29 191.511L146.487 200.062L136.354 198.141L135.979 198.07L135.707 198.338L128.354 205.59L118.803 201.707L118.449 201.563L118.129 201.773L109.493 207.442L100.871 201.773Z" stroke="#65AD41" stroke-width="1.45646"/>
<path d="M72.7853 85.0869C74.3071 88.7657 76.7333 92.0006 79.8389 94.4914C80.7243 90.2594 80.4472 85.8665 79.0368 81.7793C77.5234 78.0958 75.0958 74.859 71.9833 72.3749C71.0979 76.6069 71.375 80.9997 72.7853 85.0869V85.0869Z" fill="#2DB872"/>
<path d="M78.417 83.044C75.7905 76.1517 69.3964 72.1951 69.3964 72.1951C69.3964 72.1951 67.2772 79.3825 69.8881 86.3019C72.499 93.2213 78.9035 97.1598 78.9035 97.1598C78.9035 97.1598 81.0383 89.9454 78.417 83.044Z" stroke="white" stroke-width="0.970974" stroke-linecap="round" stroke-linejoin="round"/>
<path d="M90.7428 130.096C91.1878 128.352 91.2327 126.53 90.8742 124.767C90.436 122.9 90.4472 120.957 90.907 119.096C91.4941 117.004 91.6032 114.808 91.2261 112.668C90.2123 110.826 88.783 109.245 87.0517 108.051C85.3203 106.857 83.3346 106.084 81.252 105.791C79.1694 105.499 77.0473 105.696 75.0541 106.366C73.0609 107.037 71.2515 108.163 69.7695 109.655C67.5806 108.736 65.1893 108.407 62.8333 108.699C60.4774 108.991 58.2391 109.895 56.3411 111.321C54.4432 112.747 52.9517 114.645 52.0152 116.827C51.0786 119.008 50.7297 121.397 51.0031 123.755C51.2849 126.219 52.243 128.557 53.7714 130.51C54.8268 131.961 55.5206 133.643 55.7951 135.417C56.1003 137.07 56.7697 138.634 57.7547 139.996C58.3324 140.791 58.9982 141.518 59.7393 142.163C61.6978 142.921 63.8159 143.173 65.8976 142.896C68.6711 142.512 71.2433 141.232 73.2231 139.252C75.8112 140.339 78.6836 140.55 81.4029 139.853C83.6988 139.228 85.7812 137.989 87.4266 136.271C89.0721 134.552 90.2184 132.417 90.7428 130.096V130.096Z" fill="#FA465A"/>
<path d="M91.1117 112.245C90.4374 109.78 89.1265 107.535 87.3107 105.737C85.4949 103.938 83.2379 102.649 80.7663 101.998C78.2947 101.347 75.6953 101.358 73.2291 102.029C70.7629 102.7 68.5166 104.008 66.7155 105.821C63.7322 104.534 60.4046 104.282 57.2613 105.103C54.118 105.924 51.3393 107.772 49.3665 110.354C47.3937 112.935 46.3401 116.101 46.373 119.35C46.4058 122.599 47.5234 125.743 49.548 128.284C50.6793 129.832 51.4213 131.629 51.7113 133.524C52.0565 135.29 52.7896 136.958 53.8576 138.407C55.222 140.34 57.0842 141.869 59.2468 142.83C61.4095 143.791 63.7918 144.149 66.1415 143.867C68.915 143.482 71.4872 142.203 73.467 140.223C76.0552 141.309 78.9275 141.52 81.6468 140.824C83.9283 140.196 85.9973 138.962 87.6342 137.253C89.271 135.544 90.4147 133.424 90.9436 131.118C91.3886 129.374 91.4335 127.552 91.0751 125.788C90.6368 123.922 90.648 121.978 91.1078 120.117C91.8355 117.544 91.8368 114.819 91.1117 112.245Z" stroke="white" stroke-width="0.970974" stroke-linecap="round" stroke-linejoin="round"/>
<path d="M56.9082 110.928C54.3486 112.68 52.456 115.246 51.5376 118.209" stroke="white" stroke-width="0.970974" stroke-linecap="round" stroke-linejoin="round"/>
<path d="M119.315 172.682C121.947 175.67 125.29 177.944 129.035 179.295C128.502 175.004 126.817 170.938 124.159 167.528C121.534 164.533 118.189 162.257 114.439 160.915C114.972 165.206 116.657 169.272 119.315 172.682V172.682Z" fill="#2DB872"/>
<path d="M123.982 168.925C119.264 163.255 111.934 161.582 111.934 161.582C111.934 161.582 112.256 169.069 116.968 174.77C121.679 180.47 129.014 182.122 129.014 182.122C129.014 182.122 128.697 174.605 123.982 168.925Z" stroke="white" stroke-width="0.970974" stroke-linecap="round" stroke-linejoin="round"/>
<path d="M105.584 98.2884C109.27 96.7824 112.515 94.3701 115.019 91.2752C110.791 90.3716 106.397 90.63 102.304 92.0228C98.6136 93.5204 95.3665 95.9342 92.869 99.0361C97.0972 99.9396 101.491 99.6812 105.584 98.2884V98.2884Z" fill="#2DB872"/>
<path d="M103.565 92.6481C96.6618 95.2451 92.678 101.622 92.678 101.622C92.678 101.622 99.8562 103.772 106.787 101.191C113.717 98.6095 117.683 92.222 117.683 92.222C117.683 92.222 110.478 90.0564 103.565 92.6481Z" stroke="white" stroke-width="0.970974" stroke-linecap="round" stroke-linejoin="round"/>
<path d="M34.8483 68.5743C33.072 72.1371 32.2242 76.0909 32.3837 80.0688C36.1575 77.9587 39.2896 74.8661 41.4471 71.1192C43.2325 67.5596 44.0808 63.6035 43.9117 59.6248C40.1379 61.7348 37.0059 64.8274 34.8483 68.5743V68.5743Z" fill="#2DB872"/>
<path d="M40.0864 71.4816C43.5618 64.9759 42.3494 57.5551 42.3494 57.5551C42.3494 57.5551 35.5362 60.6743 32.0301 67.186C28.524 73.6978 29.7568 81.1146 29.7568 81.1146C29.7568 81.1146 36.6007 77.9893 40.0864 71.4816Z" stroke="white" stroke-width="0.970974" stroke-linecap="round" stroke-linejoin="round"/>
<path d="M180.424 150.354C181.404 154.212 183.343 157.761 186.06 160.671C187.542 156.609 187.896 152.221 187.085 147.974C186.114 144.112 184.174 140.562 181.449 137.658C179.967 141.72 179.613 146.107 180.424 150.354V150.354Z" fill="#2DB872"/>
<path d="M186.29 149.137C184.677 141.94 178.915 137.109 178.915 137.109C178.915 137.109 175.789 143.92 177.383 151.141C178.977 158.363 184.753 163.177 184.753 163.177C184.753 163.177 187.897 156.343 186.29 149.137Z" stroke="white" stroke-width="0.970974" stroke-linecap="round" stroke-linejoin="round"/>
<path d="M37.8644 150.781C36.0098 154.303 35.075 158.238 35.1466 162.218C38.9662 160.192 42.1657 157.169 44.4054 153.471C46.269 149.951 47.2043 146.015 47.1232 142.033C43.3036 144.06 40.1041 147.082 37.8644 150.781V150.781Z" fill="#2DB872"/>
<path d="M43.0369 153.803C46.6551 147.375 45.6068 139.93 45.6068 139.93C45.6068 139.93 38.7265 142.898 35.0775 149.33C31.4285 155.763 32.4973 163.205 32.4973 163.205C32.4973 163.205 39.4084 160.232 43.0369 153.803Z" stroke="white" stroke-width="0.970974" stroke-linecap="round" stroke-linejoin="round"/>
<path d="M112.924 56.8846C114.626 60.4835 117.209 63.5943 120.434 65.9283C121.109 61.6577 120.615 57.2839 119.004 53.2716C117.31 49.6675 114.725 46.5549 111.493 44.2278C110.818 48.4985 111.313 52.8723 112.924 56.8846V56.8846Z" fill="#2DB872"/>
<path d="M118.447 54.5652C115.483 47.8113 108.901 44.1762 108.901 44.1762C108.901 44.1762 107.14 51.4597 110.09 58.2413C113.04 65.023 119.632 68.6396 119.632 68.6396C119.632 68.6396 121.407 61.3283 118.447 54.5652Z" stroke="white" stroke-width="0.970974" stroke-linecap="round" stroke-linejoin="round"/>
<path d="M154.187 137.099C158.027 136.048 161.539 134.045 164.399 131.275C160.31 129.868 155.917 129.594 151.686 130.483C147.842 131.524 144.328 133.529 141.474 136.306C145.562 137.714 149.955 137.987 154.187 137.099V137.099Z" fill="#2DB872"/>
<path d="M152.863 131.256C145.697 133.001 140.973 138.85 140.973 138.85C140.973 138.85 147.839 141.851 155.03 140.125C162.222 138.399 166.929 132.536 166.929 132.536C166.929 132.536 160.038 129.517 152.863 131.256Z" stroke="white" stroke-width="0.970974" stroke-linecap="round" stroke-linejoin="round"/>
<path d="M85.1424 147.321C81.1679 147.55 77.3158 148.78 73.9432 150.895C77.6499 153.121 81.8901 154.302 86.2138 154.312C90.19 154.092 94.0445 152.862 97.413 150.738C93.7063 148.512 89.4661 147.331 85.1424 147.321V147.321Z" fill="#2DB872"/>
<path d="M85.2229 153.311C92.5955 153.093 98.4323 148.353 98.4323 148.353C98.4323 148.353 92.3394 143.991 84.9463 144.185C77.5532 144.379 71.7301 149.135 71.7301 149.135C71.7301 149.135 77.8435 153.521 85.2229 153.311Z" stroke="white" stroke-width="0.970974" stroke-linecap="round" stroke-linejoin="round"/>
<path d="M112.044 31.1707C112.713 30.385 113.099 29.3972 113.139 28.3661C113.18 27.3349 112.872 26.32 112.267 25.4844C110.347 22.429 105.562 23.2353 101.955 26.3755C99.2923 28.6882 89.9672 38.0452 85.2781 42.7025L85.4266 42.9571C98.5285 34.7459 105.265 40.655 116.118 40.1882C117.561 40.1983 118.978 39.8091 120.213 39.0637C119.534 35.9128 116.245 32.2952 112.044 31.1707Z" fill="#2DB872"/>
<path d="M79.0084 64.5565C82.2656 62.5121 84.7235 59.413 85.9726 55.776C87.2216 52.1389 87.1862 48.1836 85.8724 44.5694C83.3648 41.3802 79.7874 39.2066 75.8016 38.4502C71.8157 37.6939 67.6907 38.406 64.1892 40.4549C60.6876 42.5039 58.0461 45.7511 56.7529 49.5965C55.4597 53.4419 55.6023 57.6254 57.1543 61.3738C57.3134 61.3738 57.4301 61.3738 57.4725 61.3738C60.1019 64.3718 63.7111 66.3377 67.6559 66.9207C71.6007 67.5037 75.6243 66.6657 79.0084 64.5565V64.5565Z" fill="#FA465A"/>
<path d="M113.699 26.6619C114.368 25.8778 114.753 24.8919 114.793 23.8626C114.834 22.8332 114.527 21.8202 113.922 20.9862C112.002 17.9308 107.217 18.7265 103.61 21.8667C100.003 25.0069 84.8116 40.3261 84.2068 40.9626L85.4587 42.9677C98.5606 34.7564 105.297 40.6655 116.15 40.1988C126.366 39.7426 121.656 28.7837 113.699 26.6619Z" stroke="white" stroke-width="0.970974" stroke-linecap="round" stroke-linejoin="round"/>
<path d="M79.9315 63.8563C81.5333 62.698 82.9133 61.2605 84.0053 59.6128L75.3909 45.8213L79.9315 63.8563Z" fill="#FF889F"/>
<path d="M67.1798 66.8058C69.0046 67.5378 71.5401 67.75 73.1314 66.6785L69.6623 48.7178L67.1798 66.8058Z" fill="#FF889F"/>
<path d="M79.0082 64.5569C81.7377 62.8483 83.9183 60.391 85.2904 57.4779C86.6625 54.5647 87.1681 51.3185 86.7471 48.1261C86.326 44.9336 84.9959 41.9295 82.9155 39.4717C80.835 37.0139 78.0917 35.2061 75.0126 34.2637C71.9335 33.3212 68.6484 33.2839 65.5486 34.1561C62.4489 35.0283 59.6653 36.7733 57.5294 39.1832C55.3936 41.593 53.9957 44.5661 53.5021 47.7482C53.0086 50.9303 53.4403 54.1871 54.7458 57.1307C55.0641 57.8415 44.4977 65.3844 44.9221 66.0634C45.3464 66.7423 56.8888 60.7589 57.4723 61.3849C60.1031 64.3811 63.713 66.345 67.6577 66.926C71.6024 67.5071 75.6253 66.6674 79.0082 64.5569V64.5569Z" stroke="white" stroke-width="0.970974" stroke-linecap="round" stroke-linejoin="round"/>
<path d="M99.8337 33.7912C103.409 30.7253 105.976 29.9826 110.443 30.0039" stroke="white" stroke-width="0.970974" stroke-linecap="round" stroke-linejoin="round"/>
<path d="M121.522 193.883C121.519 195.724 122.163 197.508 123.341 198.923C124.396 199.43 125.553 199.692 126.723 199.69C128.225 199.688 129.694 199.26 130.962 198.455C132.229 197.65 133.241 196.502 133.881 195.143C134.52 193.785 134.76 192.273 134.573 190.783C134.386 189.294 133.78 187.888 132.824 186.73C131.618 186.155 130.286 185.895 128.953 185.974C127.619 186.054 126.327 186.471 125.198 187.185C124.069 187.9 123.14 188.889 122.497 190.06C121.854 191.231 121.519 192.546 121.522 193.883V193.883Z" fill="#FA465A"/>
<path d="M126.723 199.699C131.097 199.699 134.643 196.153 134.643 191.779C134.643 187.405 131.097 183.859 126.723 183.859C122.349 183.859 118.803 187.405 118.803 191.779C118.803 196.153 122.349 199.699 126.723 199.699Z" stroke="white" stroke-width="0.970974" stroke-linecap="round" stroke-linejoin="round"/>
<path d="M126.865 188.909V185.972" stroke="white" stroke-width="0.970974" stroke-linecap="round" stroke-linejoin="round"/>
<path d="M128.457 191.779H131.403" stroke="white" stroke-width="0.970974" stroke-linecap="round" stroke-linejoin="round"/>
<path d="M126.59 194.65V197.587" stroke="white" stroke-width="0.970974" stroke-linecap="round" stroke-linejoin="round"/>
<path d="M124.989 191.779H122.053" stroke="white" stroke-width="0.970974" stroke-linecap="round" stroke-linejoin="round"/>
<path d="M23.1747 96.5984C23.1715 98.4396 23.8153 100.224 24.9937 101.638C26.0488 102.146 27.205 102.408 28.3758 102.406C29.877 102.404 31.3469 101.976 32.6141 101.171C33.8813 100.366 34.8937 99.2174 35.5331 97.8591C36.1725 96.5008 36.4127 94.9887 36.2257 93.4991C36.0387 92.0096 35.4321 90.6038 34.4768 89.4458C33.2708 88.8706 31.9387 88.6107 30.605 88.6903C29.2713 88.7699 27.9795 89.1864 26.8505 89.9009C25.7215 90.6154 24.7922 91.6046 24.1493 92.7758C23.5065 93.9471 23.1711 95.2623 23.1747 96.5984V96.5984Z" fill="#FA465A"/>
<path d="M28.3756 102.415C32.7497 102.415 36.2956 98.8693 36.2956 94.4952C36.2956 90.1211 32.7497 86.5752 28.3756 86.5752C24.0015 86.5752 20.4556 90.1211 20.4556 94.4952C20.4556 98.8693 24.0015 102.415 28.3756 102.415Z" stroke="white" stroke-width="0.970974" stroke-linecap="round" stroke-linejoin="round"/>
<path d="M28.5175 91.6248V88.688" stroke="white" stroke-width="0.970974" stroke-linecap="round" stroke-linejoin="round"/>
<path d="M30.1092 94.4951H33.0555" stroke="white" stroke-width="0.970974" stroke-linecap="round" stroke-linejoin="round"/>
<path d="M28.2429 97.3657V100.303" stroke="white" stroke-width="0.970974" stroke-linecap="round" stroke-linejoin="round"/>
<path d="M26.6419 94.4951H23.705" stroke="white" stroke-width="0.970974" stroke-linecap="round" stroke-linejoin="round"/>
<path d="M44.6535 85.8914C44.6487 88.5978 45.595 91.2199 47.3271 93.2995C48.878 94.0453 50.5774 94.4308 52.2983 94.4274C54.5049 94.4251 56.6655 93.7956 58.5281 92.6124C60.3907 91.4292 61.8787 89.741 62.8185 87.7445C63.7584 85.748 64.1114 83.5255 63.8366 81.336C63.5617 79.1465 62.6702 77.0803 61.2659 75.3781C59.4933 74.5327 57.5353 74.1507 55.5749 74.2677C53.6145 74.3847 51.7159 74.9969 50.0564 76.0471C48.3969 77.0973 47.0309 78.5512 46.086 80.2728C45.1411 81.9945 44.6482 83.9276 44.6535 85.8914V85.8914Z" fill="#65AD41"/>
<path d="M52.298 94.4412C58.7273 94.4412 63.9393 89.2292 63.9393 82.7999C63.9393 76.3706 58.7273 71.1587 52.298 71.1587C45.8688 71.1587 40.6568 76.3706 40.6568 82.7999C40.6568 89.2292 45.8688 94.4412 52.298 94.4412Z" stroke="white" stroke-width="0.970974" stroke-linecap="round" stroke-linejoin="round"/>
<path d="M52.5066 78.5809V74.2642" stroke="white" stroke-width="0.970974" stroke-linecap="round" stroke-linejoin="round"/>
<path d="M54.8461 82.7998H59.1768" stroke="white" stroke-width="0.970974" stroke-linecap="round" stroke-linejoin="round"/>
<path d="M52.1027 87.019V91.3358" stroke="white" stroke-width="0.970974" stroke-linecap="round" stroke-linejoin="round"/>
<path d="M49.7494 82.7998H45.4327" stroke="white" stroke-width="0.970974" stroke-linecap="round" stroke-linejoin="round"/>
<path d="M128.861 125.208C128.856 127.915 129.802 130.537 131.534 132.616C133.085 133.362 134.785 133.748 136.506 133.744C138.712 133.742 140.873 133.113 142.735 131.929C144.598 130.746 146.086 129.058 147.026 127.061C147.966 125.065 148.319 122.842 148.044 120.653C147.769 118.463 146.878 116.397 145.473 114.695C143.701 113.85 141.743 113.468 139.782 113.585C137.822 113.702 135.923 114.314 134.264 115.364C132.604 116.414 131.238 117.868 130.293 119.59C129.349 121.311 128.856 123.244 128.861 125.208V125.208Z" fill="#FA465A"/>
<path d="M136.505 133.758C142.935 133.758 148.147 128.546 148.147 122.117C148.147 115.688 142.935 110.476 136.505 110.476C130.076 110.476 124.864 115.688 124.864 122.117C124.864 128.546 130.076 133.758 136.505 133.758Z" stroke="white" stroke-width="0.970974" stroke-linecap="round" stroke-linejoin="round"/>
<path d="M136.714 117.898V113.581" stroke="white" stroke-width="0.970974" stroke-linecap="round" stroke-linejoin="round"/>
<path d="M139.053 122.117H143.384" stroke="white" stroke-width="0.970974" stroke-linecap="round" stroke-linejoin="round"/>
<path d="M136.31 126.336V130.653" stroke="white" stroke-width="0.970974" stroke-linecap="round" stroke-linejoin="round"/>
<path d="M133.957 122.117H129.64" stroke="white" stroke-width="0.970974" stroke-linecap="round" stroke-linejoin="round"/>
<path d="M186.107 138.295C186.105 139.593 186.559 140.85 187.389 141.847C188.133 142.205 188.948 142.389 189.773 142.388C190.831 142.387 191.867 142.085 192.76 141.517C193.653 140.95 194.367 140.141 194.817 139.183C195.268 138.226 195.437 137.16 195.306 136.111C195.174 135.061 194.746 134.07 194.073 133.254C193.223 132.848 192.284 132.665 191.344 132.721C190.404 132.777 189.494 133.071 188.698 133.575C187.902 134.078 187.247 134.775 186.794 135.601C186.341 136.426 186.105 137.353 186.107 138.295V138.295Z" fill="#65AD41"/>
<path d="M189.773 142.394C192.856 142.394 195.355 139.895 195.355 136.812C195.355 133.73 192.856 131.23 189.773 131.23C186.69 131.23 184.191 133.73 184.191 136.812C184.191 139.895 186.69 142.394 189.773 142.394Z" stroke="white" stroke-width="0.970974" stroke-linecap="round" stroke-linejoin="round"/>
<path d="M189.873 134.789V132.719" stroke="white" stroke-width="0.970974" stroke-linecap="round" stroke-linejoin="round"/>
<path d="M190.995 136.812H193.071" stroke="white" stroke-width="0.970974" stroke-linecap="round" stroke-linejoin="round"/>
<path d="M189.679 138.835V140.905" stroke="white" stroke-width="0.970974" stroke-linecap="round" stroke-linejoin="round"/>
<path d="M188.551 136.812H186.481" stroke="white" stroke-width="0.970974" stroke-linecap="round" stroke-linejoin="round"/>
<path d="M189.944 94.8598C189.942 96.1575 190.396 97.4147 191.226 98.4119C191.97 98.7695 192.785 98.9543 193.61 98.9527C194.668 98.9516 195.704 98.6498 196.597 98.0824C197.49 97.5151 198.204 96.7056 198.654 95.7483C199.105 94.791 199.274 93.7253 199.142 92.6755C199.011 91.6256 198.583 90.6349 197.91 89.8187C197.06 89.4133 196.121 89.2302 195.181 89.2863C194.241 89.3424 193.331 89.6359 192.535 90.1395C191.739 90.6431 191.084 91.3402 190.631 92.1657C190.178 92.9912 189.942 93.9181 189.944 94.8598V94.8598Z" fill="#65AD41"/>
<path d="M193.61 98.9592C196.693 98.9592 199.192 96.4601 199.192 93.3773C199.192 90.2945 196.693 87.7954 193.61 87.7954C190.527 87.7954 188.028 90.2945 188.028 93.3773C188.028 96.4601 190.527 98.9592 193.61 98.9592Z" stroke="white" stroke-width="0.970974" stroke-linecap="round" stroke-linejoin="round"/>
<path d="M193.71 91.354V89.2842" stroke="white" stroke-width="0.970974" stroke-linecap="round" stroke-linejoin="round"/>
<path d="M194.832 93.3774H196.908" stroke="white" stroke-width="0.970974" stroke-linecap="round" stroke-linejoin="round"/>
<path d="M193.516 95.4004V97.4702" stroke="white" stroke-width="0.970974" stroke-linecap="round" stroke-linejoin="round"/>
<path d="M192.388 93.3774H190.318" stroke="white" stroke-width="0.970974" stroke-linecap="round" stroke-linejoin="round"/>
<path d="M123.366 27.306C123.364 28.6037 123.818 29.861 124.648 30.8581C125.392 31.2157 126.207 31.4006 127.032 31.399C128.09 31.3979 129.126 31.096 130.019 30.5287C130.912 29.9614 131.626 29.1519 132.076 28.1946C132.527 27.2373 132.696 26.1716 132.564 25.1217C132.433 24.0719 132.005 23.0812 131.332 22.265C130.482 21.8596 129.543 21.6764 128.603 21.7325C127.663 21.7887 126.753 22.0822 125.957 22.5858C125.161 23.0893 124.506 23.7865 124.053 24.612C123.6 25.4375 123.364 26.3644 123.366 27.306V27.306Z" fill="#65AD41"/>
<path d="M127.032 31.4055C130.115 31.4055 132.614 28.9064 132.614 25.8236C132.614 22.7408 130.115 20.2417 127.032 20.2417C123.949 20.2417 121.45 22.7408 121.45 25.8236C121.45 28.9064 123.949 31.4055 127.032 31.4055Z" stroke="white" stroke-width="0.970974" stroke-linecap="round" stroke-linejoin="round"/>
<path d="M127.132 23.8003V21.7305" stroke="white" stroke-width="0.970974" stroke-linecap="round" stroke-linejoin="round"/>
<path d="M128.254 25.8237H130.33" stroke="white" stroke-width="0.970974" stroke-linecap="round" stroke-linejoin="round"/>
<path d="M126.938 27.8467V29.9165" stroke="white" stroke-width="0.970974" stroke-linecap="round" stroke-linejoin="round"/>
<path d="M125.81 25.8237H123.74" stroke="white" stroke-width="0.970974" stroke-linecap="round" stroke-linejoin="round"/>
<path d="M119.22 78.7636C119.218 80.0613 119.672 81.3185 120.502 82.3157C121.246 82.6733 122.061 82.8581 122.886 82.8565C123.944 82.8554 124.98 82.5536 125.873 81.9862C126.766 81.4189 127.48 80.6094 127.93 79.6521C128.381 78.6948 128.55 77.6291 128.419 76.5793C128.287 75.5294 127.859 74.5387 127.186 73.7225C126.336 73.3172 125.397 73.134 124.457 73.1901C123.517 73.2462 122.607 73.5397 121.811 74.0433C121.015 74.5469 120.36 75.244 119.907 76.0695C119.454 76.895 119.218 77.8219 119.22 78.7636V78.7636Z" fill="#FA465A"/>
<path d="M122.886 82.863C125.969 82.863 128.468 80.3639 128.468 77.2811C128.468 74.1983 125.969 71.6992 122.886 71.6992C119.803 71.6992 117.304 74.1983 117.304 77.2811C117.304 80.3639 119.803 82.863 122.886 82.863Z" stroke="white" stroke-width="0.970974" stroke-linecap="round" stroke-linejoin="round"/>
<path d="M122.986 75.2578V73.188" stroke="white" stroke-width="0.970974" stroke-linecap="round" stroke-linejoin="round"/>
<path d="M124.108 77.2812H126.184" stroke="white" stroke-width="0.970974" stroke-linecap="round" stroke-linejoin="round"/>
<path d="M122.792 79.3042V81.374" stroke="white" stroke-width="0.970974" stroke-linecap="round" stroke-linejoin="round"/>
<path d="M121.664 77.2812H119.594" stroke="white" stroke-width="0.970974" stroke-linecap="round" stroke-linejoin="round"/>
<path d="M39.3835 104.803C39.3812 106.101 39.8349 107.358 40.6654 108.355C41.4091 108.713 42.2239 108.898 43.0491 108.896C44.1072 108.895 45.1431 108.593 46.0362 108.026C46.9293 107.458 47.6428 106.649 48.0935 105.692C48.5441 104.734 48.7134 103.669 48.5816 102.619C48.4498 101.569 48.0223 100.578 47.349 99.7621C46.4991 99.3567 45.5602 99.1735 44.6202 99.2296C43.6802 99.2857 42.7698 99.5793 41.9741 100.083C41.1784 100.586 40.5234 101.284 40.0704 102.109C39.6173 102.935 39.381 103.861 39.3835 104.803V104.803Z" fill="#65AD41"/>
<path d="M43.0489 108.903C46.1317 108.903 48.6308 106.403 48.6308 103.321C48.6308 100.238 46.1317 97.7388 43.0489 97.7388C39.9661 97.7388 37.467 100.238 37.467 103.321C37.467 106.403 39.9661 108.903 43.0489 108.903Z" stroke="white" stroke-width="0.970974" stroke-linecap="round" stroke-linejoin="round"/>
<path d="M43.1488 101.297V99.2275" stroke="white" stroke-width="0.970974" stroke-linecap="round" stroke-linejoin="round"/>
<path d="M44.2707 103.321H46.3472" stroke="white" stroke-width="0.970974" stroke-linecap="round" stroke-linejoin="round"/>
<path d="M42.9552 105.344V107.414" stroke="white" stroke-width="0.970974" stroke-linecap="round" stroke-linejoin="round"/>
<path d="M41.8268 103.321H39.757" stroke="white" stroke-width="0.970974" stroke-linecap="round" stroke-linejoin="round"/>
<path d="M68.6221 188.266C68.6198 189.564 69.0736 190.821 69.9041 191.818C70.6477 192.176 71.4626 192.361 72.2877 192.359C73.3458 192.358 74.3817 192.056 75.2749 191.489C76.168 190.921 76.8814 190.112 77.3321 189.155C77.7828 188.197 77.952 187.132 77.8202 186.082C77.6884 185.032 77.261 184.041 76.5876 183.225C75.7377 182.82 74.7988 182.636 73.8588 182.693C72.9188 182.749 72.0085 183.042 71.2127 183.546C70.417 184.049 69.762 184.746 69.309 185.572C68.8559 186.397 68.6196 187.324 68.6221 188.266V188.266Z" fill="#65AD41"/>
<path d="M72.2875 192.365C75.3703 192.365 77.8694 189.866 77.8694 186.784C77.8694 183.701 75.3703 181.202 72.2875 181.202C69.2047 181.202 66.7056 183.701 66.7056 186.784C66.7056 189.866 69.2047 192.365 72.2875 192.365Z" stroke="white" stroke-width="0.970974" stroke-linecap="round" stroke-linejoin="round"/>
<path d="M72.3875 184.76V182.69" stroke="white" stroke-width="0.970974" stroke-linecap="round" stroke-linejoin="round"/>
<path d="M73.5094 186.784H75.5859" stroke="white" stroke-width="0.970974" stroke-linecap="round" stroke-linejoin="round"/>
<path d="M72.1938 188.807V190.876" stroke="white" stroke-width="0.970974" stroke-linecap="round" stroke-linejoin="round"/>
<path d="M71.0654 186.784H68.9956" stroke="white" stroke-width="0.970974" stroke-linecap="round" stroke-linejoin="round"/>
<path d="M97.5156 131.929C97.5133 133.226 97.9671 134.484 98.7976 135.481C99.5412 135.838 100.356 136.023 101.181 136.022C102.239 136.02 103.275 135.719 104.168 135.151C105.061 134.584 105.775 133.774 106.226 132.817C106.676 131.86 106.846 130.794 106.714 129.744C106.582 128.694 106.154 127.704 105.481 126.888C104.631 126.482 103.692 126.299 102.752 126.355C101.812 126.411 100.902 126.705 100.106 127.208C99.3106 127.712 98.6556 128.409 98.2025 129.235C97.7494 130.06 97.5131 130.987 97.5156 131.929V131.929Z" fill="#65AD41"/>
<path d="M101.181 136.028C104.264 136.028 106.763 133.529 106.763 130.446C106.763 127.363 104.264 124.864 101.181 124.864C98.0982 124.864 95.5991 127.363 95.5991 130.446C95.5991 133.529 98.0982 136.028 101.181 136.028Z" stroke="white" stroke-width="0.970974" stroke-linecap="round" stroke-linejoin="round"/>
<path d="M101.281 128.423V126.353" stroke="white" stroke-width="0.970974" stroke-linecap="round" stroke-linejoin="round"/>
<path d="M102.403 130.446H104.479" stroke="white" stroke-width="0.970974" stroke-linecap="round" stroke-linejoin="round"/>
<path d="M101.087 132.469V134.539" stroke="white" stroke-width="0.970974" stroke-linecap="round" stroke-linejoin="round"/>
<path d="M99.959 130.446H97.8891" stroke="white" stroke-width="0.970974" stroke-linecap="round" stroke-linejoin="round"/>
<path d="M91.5998 50.7447C91.5967 52.4953 92.2088 54.1914 93.3292 55.5366C94.3324 56.019 95.4317 56.2684 96.5449 56.2662C97.9723 56.2647 99.3698 55.8575 100.575 55.0922C101.78 54.3268 102.742 53.2348 103.35 51.9433C103.958 50.6519 104.186 49.2142 104.009 47.7979C103.831 46.3817 103.254 45.0451 102.346 43.944C101.199 43.3972 99.9325 43.1501 98.6644 43.2257C97.3963 43.3014 96.1682 43.6975 95.0947 44.3768C94.0213 45.0561 93.1376 45.9966 92.5264 47.1102C91.9152 48.2239 91.5964 49.4743 91.5998 50.7447V50.7447Z" fill="#65AD41"/>
<path d="M96.5447 56.2753C100.704 56.2753 104.075 52.9039 104.075 48.7451C104.075 44.5862 100.704 41.2148 96.5447 41.2148C92.3859 41.2148 89.0145 44.5862 89.0145 48.7451C89.0145 52.9039 92.3859 56.2753 96.5447 56.2753Z" stroke="white" stroke-width="0.970974" stroke-linecap="round" stroke-linejoin="round"/>
<path d="M96.6796 46.0159V43.2236" stroke="white" stroke-width="0.970974" stroke-linecap="round" stroke-linejoin="round"/>
<path d="M98.1931 48.7451H100.994" stroke="white" stroke-width="0.970974" stroke-linecap="round" stroke-linejoin="round"/>
<path d="M96.4185 51.4741V54.2664" stroke="white" stroke-width="0.970974" stroke-linecap="round" stroke-linejoin="round"/>
<path d="M94.8963 48.7451H92.104" stroke="white" stroke-width="0.970974" stroke-linecap="round" stroke-linejoin="round"/>
<path d="M19.4337 125.874C19.4337 125.874 19.4337 125.874 19.4337 125.818C22.0922 123.625 27.4835 125.316 27.4835 125.316C26.0042 124.484 24.703 123.369 23.6538 122.035C25.4155 121.917 27.1842 122.112 28.8778 122.611C28.8778 122.611 23.8397 119.879 24.1 116.449C24.4281 116.111 24.7824 115.8 25.1597 115.519C31.8151 110.639 35.2265 121.171 35.2265 121.171C35.2265 121.171 36.5464 115.826 40.7293 119.079C44.9122 122.333 43.1275 130.949 43.1275 130.949C43.057 131.387 42.9545 131.819 42.8207 132.241C40.3854 135.327 35.9422 136.294 32.1404 136.703C27.0373 137.279 18.7366 131.907 19.4337 125.874Z" fill="#A2DD83"/>
<path d="M44.5313 128.281C44.5313 128.281 46.316 119.665 42.1331 116.411C37.9502 113.158 36.6302 118.503 36.6302 118.503C36.6302 118.503 33.2189 107.971 26.5634 112.851C19.908 117.731 28.8873 122.611 28.8873 122.611C28.8873 122.611 20.1311 119.823 19.4339 125.874C18.7368 131.925 27.0375 137.279 32.1499 136.74C37.2623 136.201 43.5274 134.649 44.5313 128.281Z" stroke="white" stroke-width="0.970974" stroke-linecap="round" stroke-linejoin="round"/>
<path d="M33.3208 122.667L36.7229 131.089L30.4021 129.36" stroke="white" stroke-width="0.970974" stroke-linecap="round" stroke-linejoin="round"/>
<path d="M35.6725 128.477L37.3456 123.113" stroke="white" stroke-width="0.970974" stroke-linecap="round" stroke-linejoin="round"/>
<path d="M114.919 76.9046C114.919 76.9046 114.919 76.9046 114.919 76.8292C111.325 73.8636 104.037 76.1507 104.037 76.1507C106.037 75.0257 107.796 73.5184 109.214 71.7148C106.833 71.5551 104.442 71.8189 102.152 72.4939C102.152 72.4939 108.963 68.7994 108.611 64.1625C108.168 63.7064 107.689 63.2862 107.179 62.9059C98.1812 56.3086 93.5693 70.5461 93.5693 70.5461C93.5693 70.5461 91.785 63.3206 86.1302 67.7187C80.4754 72.1169 82.8881 83.7658 82.8881 83.7658C82.9834 84.3574 83.122 84.9412 83.3028 85.5125C86.5951 89.6845 92.6017 90.9914 97.7413 91.5443C104.64 92.3234 115.862 85.0601 114.919 76.9046Z" fill="#A2DD83"/>
<path d="M80.9903 80.1593C80.9903 80.1593 78.5776 68.5105 84.2324 64.1123C89.8872 59.7141 91.6716 66.9397 91.6716 66.9397C91.6716 66.9397 96.2834 52.7022 105.281 59.2994C114.278 65.8967 102.139 72.494 102.139 72.494C102.139 72.494 113.977 68.7241 114.919 76.9047C115.862 85.0853 104.64 92.3234 97.7285 91.5946C90.8171 90.8657 82.3475 88.7672 80.9903 80.1593Z" stroke="white" stroke-width="0.970974" stroke-linecap="round" stroke-linejoin="round"/>
<path d="M96.1456 72.5693L91.5463 83.9543L100.091 81.617" stroke="white" stroke-width="0.970974" stroke-linecap="round" stroke-linejoin="round"/>
<path d="M92.9662 80.4231L90.7043 73.1724" stroke="white" stroke-width="0.970974" stroke-linecap="round" stroke-linejoin="round"/>
<path d="M128.893 134.103H128.846C125.335 133.865 121.853 138.489 121.853 138.489C122.585 136.913 123.002 135.21 123.08 133.475C121.545 134.427 120.192 135.645 119.084 137.071C119.084 137.071 121.643 131.791 119.379 129.098C118.91 129.018 118.436 128.98 117.961 128.984C109.512 128.898 112.966 139.688 112.966 139.688C112.966 139.688 108.675 136.034 107.143 141.229C105.611 146.424 112.224 152.532 112.224 152.532C112.542 152.854 112.882 153.153 113.242 153.426C117.114 154.549 121.386 152.694 124.792 150.762C129.369 148.117 133.07 138.727 128.893 134.103Z" fill="#2DB872"/>
<path d="M109.446 151.096C109.446 151.096 102.833 144.997 104.365 139.792C105.897 134.588 110.188 138.251 110.188 138.251C110.188 138.251 106.744 127.462 115.192 127.547C123.641 127.633 119.084 137.062 119.084 137.062C119.084 137.062 124.716 129.536 128.893 134.141C133.07 138.746 129.369 148.156 124.792 150.753C120.216 153.35 114.079 155.767 109.446 151.096Z" stroke="white" stroke-width="0.970974" stroke-linecap="round" stroke-linejoin="round"/>
<path d="M115.421 139.716L117.609 148.755L121.843 143.541" stroke="white" stroke-width="0.970974" stroke-linecap="round" stroke-linejoin="round"/>
<path d="M116.934 145.948L112.338 142.485" stroke="white" stroke-width="0.970974" stroke-linecap="round" stroke-linejoin="round"/>
<path d="M75.8306 158.633H75.7784C71.9214 158.372 68.0957 163.452 68.0957 163.452C68.9001 161.721 69.3581 159.85 69.4441 157.943C67.7579 158.99 66.2714 160.328 65.054 161.895C65.054 161.895 67.8657 156.093 65.378 153.135C64.8636 153.048 64.3424 153.006 63.8206 153.01C54.5386 152.916 58.3329 164.769 58.3329 164.769C58.3329 164.769 53.6188 160.755 51.9359 166.462C50.253 172.17 57.5176 178.88 57.5176 178.88C57.8669 179.233 58.2407 179.562 58.6361 179.863C62.8903 181.096 67.5835 179.058 71.3256 176.936C76.3533 174.03 80.4194 163.713 75.8306 158.633Z" fill="#2DB872"/>
<path d="M54.4655 177.302C54.4655 177.302 47.201 170.602 48.8838 164.884C50.5667 159.167 55.2808 163.191 55.2808 163.191C55.2808 163.191 51.497 151.338 60.7789 151.432C70.0609 151.526 65.0541 161.884 65.0541 161.884C65.0541 161.884 71.242 153.616 75.8307 158.675C80.4194 163.734 76.3534 174.072 71.3256 176.926C66.2979 179.779 59.556 182.434 54.4655 177.302Z" stroke="white" stroke-width="0.970974" stroke-linecap="round" stroke-linejoin="round"/>
<path d="M61.0302 164.801L63.4343 174.731L68.0857 169.003" stroke="white" stroke-width="0.970974" stroke-linecap="round" stroke-linejoin="round"/>
<path d="M62.6917 171.647L57.643 167.842" stroke="white" stroke-width="0.970974" stroke-linecap="round" stroke-linejoin="round"/>
<path d="M197.035 103.081H196.966C191.828 102.733 186.731 109.501 186.731 109.501C187.803 107.195 188.413 104.702 188.527 102.162C186.281 103.556 184.301 105.338 182.679 107.426C182.679 107.426 186.425 99.6975 183.111 95.7567C182.425 95.64 181.731 95.5841 181.036 95.5896C168.67 95.4643 173.725 111.255 173.725 111.255C173.725 111.255 167.445 105.908 165.203 113.511C162.961 121.114 172.639 130.054 172.639 130.054C173.104 130.524 173.602 130.962 174.129 131.363C179.796 133.006 186.049 130.29 191.034 127.464C197.732 123.593 203.149 109.849 197.035 103.081Z" fill="#2DB872"/>
<path d="M168.573 127.951C168.573 127.951 158.895 119.025 161.137 111.408C163.379 103.792 169.659 109.153 169.659 109.153C169.659 109.153 164.618 93.3617 176.984 93.4871C189.349 93.6124 182.679 107.412 182.679 107.412C182.679 107.412 190.923 96.3974 197.036 103.137C203.149 109.877 197.732 123.648 191.034 127.45C184.336 131.251 175.354 134.788 168.573 127.951Z" stroke="white" stroke-width="0.970974" stroke-linecap="round" stroke-linejoin="round"/>
<path d="M177.318 111.297L180.521 124.526L186.718 116.895" stroke="white" stroke-width="0.970974" stroke-linecap="round" stroke-linejoin="round"/>
<path d="M179.532 120.418L172.806 115.349" stroke="white" stroke-width="0.970974" stroke-linecap="round" stroke-linejoin="round"/>
<path d="M115.466 180.997C115.466 177.782 114.634 174.622 113.049 171.825C109.904 168.546 105.67 166.528 101.142 166.15C96.6139 165.772 92.1038 167.06 88.4585 169.772C84.8133 172.484 82.2837 176.434 81.345 180.88C80.4062 185.325 81.1229 189.961 83.3603 193.915C85.9369 196.602 89.2583 198.455 92.8972 199.238C96.5361 200.02 100.326 199.696 103.779 198.307C107.232 196.917 110.19 194.526 112.273 191.441C114.356 188.356 115.468 184.719 115.466 180.997V180.997Z" fill="#FA465A"/>
<path d="M103.225 191.959C105.924 190.281 107.979 187.742 109.058 184.752" stroke="white" stroke-width="0.970974" stroke-linecap="round" stroke-linejoin="round"/>
<path d="M110.003 194.197C117.288 186.911 117.288 175.099 110.003 167.813C102.717 160.527 90.9045 160.527 83.6187 167.813C76.333 175.099 76.333 186.911 83.6187 194.197C90.9045 201.483 102.717 201.483 110.003 194.197Z" stroke="white" stroke-width="0.970974" stroke-linecap="round" stroke-linejoin="round"/>
<path d="M94.4098 154.934L99.113 162.34L91.9148 168.878L103.225 165.948L109.954 172.173L106.616 163.549L112.884 157.42L103.225 160.089L94.4098 154.934Z" fill="#2DB872"/>
<path d="M94.4098 154.934L99.113 162.34L91.9148 168.878L103.225 165.948L109.954 172.173L106.616 163.549L112.884 157.42L103.225 160.089L94.4098 154.934Z" stroke="white" stroke-width="0.970974" stroke-linecap="round" stroke-linejoin="round"/>
<path d="M183.745 92.1001C184.886 90.9185 185.846 89.5736 186.592 88.1096C187.176 84.1432 186.29 80.1001 184.101 76.7415C181.912 73.3828 178.57 70.9402 174.706 69.8736C175.513 68.3115 176.064 66.6294 176.336 64.8922C176.369 64.8371 176.396 64.7793 176.419 64.7194C176.87 61.6816 176.46 58.5782 175.236 55.7616C174.012 52.945 172.023 50.5281 169.494 48.7854C166.965 47.0427 163.998 46.044 160.931 45.9027C157.863 45.7614 154.817 46.4832 152.139 47.9861C151.163 44.8529 149.272 42.0835 146.708 40.0347C144.145 37.9858 141.027 36.7512 137.756 36.49C134.485 36.2288 131.21 36.9529 128.354 38.569C125.498 40.1851 123.192 42.6193 121.731 45.558C121.167 49.4711 122.028 53.4567 124.157 56.7879C123.58 58.843 123.569 61.0158 124.126 63.0765C124.683 65.1372 125.786 67.009 127.32 68.494C128.111 69.2573 129.008 69.9032 129.983 70.4119L130.16 81.4397L128.534 83.1212L128.599 86.4542L122.382 92.8842L130.807 101.03L140.318 91.1938L150.806 91.0174C151.104 91.38 151.422 91.7265 151.757 92.0555C153.293 93.538 155.201 94.5779 157.279 95.0649C159.358 95.552 161.529 95.4682 163.563 94.8224C166.744 96.7035 170.465 97.4579 174.127 96.964C177.788 96.47 181.177 94.7565 183.745 92.1001V92.1001Z" fill="#A2DD83"/>
<path d="M183.745 92.1C185.714 90.0518 187.118 87.5284 187.822 84.7759C188.526 82.0234 188.504 79.1355 187.76 76.3937C187.015 73.652 185.573 71.1498 183.574 69.1311C181.575 67.1123 179.087 65.6459 176.353 64.8746C177.989 61.7324 178.567 58.1455 177.999 54.6484C177.431 51.1514 175.748 47.9315 173.201 45.4688C170.654 43.0061 167.379 41.4325 163.865 40.9825C160.351 40.5324 156.785 41.2301 153.7 42.9715C152.884 40.3467 151.417 37.9712 149.435 36.0665C146.545 33.2386 142.713 31.5756 138.674 31.3957C134.634 31.2157 130.67 32.5315 127.539 35.0913C124.409 37.6512 122.332 41.2752 121.707 45.2703C121.081 49.2653 121.95 53.3508 124.148 56.7451C123.644 58.5338 123.569 60.4161 123.929 62.2392C124.288 64.0624 125.073 65.7749 126.219 67.2378C127.365 68.7007 128.84 69.8726 130.524 70.6584C132.208 71.4443 134.054 71.8219 135.911 71.7605C135.913 73.343 136.233 74.9089 136.852 76.3654C137.471 77.8218 138.376 79.1391 139.514 80.2391C140.652 81.3391 141.999 82.1994 143.475 82.7689C144.952 83.3384 146.527 83.6056 148.109 83.5545C148.108 85.4146 148.547 87.2485 149.389 88.9071C150.231 90.5656 151.453 92.002 152.954 93.0993C154.456 94.1967 156.196 94.9239 158.032 95.222C159.868 95.52 161.749 95.3804 163.52 94.8145C166.704 96.7074 170.434 97.4692 174.105 96.9765C177.776 96.4838 181.173 94.7654 183.745 92.1V92.1Z" stroke="white" stroke-width="0.970974" stroke-linecap="round" stroke-linejoin="round"/>
<path d="M148.135 83.5456C146.553 83.5967 144.977 83.3295 143.501 82.76C142.024 82.1905 140.677 81.3302 139.54 80.2302C138.402 79.1302 137.497 77.8129 136.878 76.3564C136.259 74.9 135.939 73.3341 135.937 71.7516C133.87 71.8187 131.822 71.3387 130 70.3602L130.177 81.3879L120.699 91.1897L130.823 100.979L140.301 91.177L150.789 91.0005C149.075 88.8934 148.138 86.2614 148.135 83.5456V83.5456Z" stroke="white" stroke-width="0.970974" stroke-linecap="round" stroke-linejoin="round"/>
<path d="M135.917 87.3598L145.474 83.3335" stroke="white" stroke-width="0.970974" stroke-linecap="round" stroke-linejoin="round"/>
<path d="M135.251 81.9455L136.591 76.4976" stroke="white" stroke-width="0.970974" stroke-linecap="round" stroke-linejoin="round"/>
<path d="M165.576 89.1319C169.912 90.0632 174.434 89.507 178.415 87.5531" stroke="white" stroke-width="0.970974" stroke-linecap="round" stroke-linejoin="round"/>
<path d="M126.295 159.075C126.495 166.577 129.604 173.708 134.964 178.96C142.318 186.315 152.425 189.057 161.084 186.972H161.136L171.89 146.811L126.295 159.075Z" fill="#FA465A"/>
<path d="M143.161 170.764C139.26 166.898 136.514 162.022 135.231 156.682L126.295 159.075C126.495 166.577 129.604 173.708 134.964 178.961C142.318 186.315 152.425 189.057 161.084 186.972H161.136L163.19 179.402C155.643 179.243 148.456 176.143 143.161 170.764V170.764Z" fill="#A2DD83"/>
<path d="M173.657 140.268L126.962 152.778H126.911C124.857 161.489 127.568 171.544 134.923 178.899C142.277 186.253 152.384 188.996 161.043 186.911H161.095L173.657 140.268Z" stroke="white" stroke-width="0.970974" stroke-linecap="round" stroke-linejoin="round"/>
<path d="M134.491 150.765C134.74 158.29 137.839 165.44 143.162 170.765C148.486 176.09 155.634 179.192 163.159 179.443" stroke="white" stroke-width="0.970974" stroke-linecap="round" stroke-linejoin="round"/>
<path d="M134.594 168.72C135.334 172.089 141.928 178.683 145.215 179.34" stroke="white" stroke-width="0.970974" stroke-linecap="round" stroke-linejoin="round"/>
<path d="M161.29 154.966C161.841 154.398 162.265 153.719 162.532 152.974C162.611 152.753 162.625 152.515 162.573 152.287C162.521 152.06 162.406 151.851 162.24 151.686C162.074 151.522 161.865 151.407 161.636 151.357C161.408 151.307 161.17 151.322 160.951 151.402C160.207 151.668 159.528 152.088 158.958 152.635C158.409 153.203 157.989 153.882 157.725 154.627C157.647 154.848 157.633 155.086 157.685 155.313C157.737 155.541 157.852 155.75 158.018 155.915C158.184 156.079 158.393 156.194 158.621 156.244C158.85 156.294 159.087 156.279 159.307 156.199C160.049 155.935 160.725 155.515 161.29 154.966V154.966Z" fill="white"/>
<path d="M158.989 166.09C159.537 165.526 159.958 164.85 160.221 164.108C160.303 163.887 160.319 163.648 160.268 163.418C160.218 163.188 160.102 162.978 159.936 162.812C159.77 162.645 159.559 162.53 159.33 162.48C159.1 162.429 158.86 162.445 158.64 162.526C157.898 162.79 157.222 163.21 156.657 163.759C156.108 164.328 155.684 165.007 155.414 165.751C155.333 165.972 155.317 166.212 155.368 166.441C155.418 166.671 155.534 166.881 155.7 167.048C155.866 167.214 156.077 167.329 156.306 167.38C156.536 167.43 156.775 167.414 156.996 167.333C157.74 167.063 158.419 166.64 158.989 166.09V166.09Z" fill="white"/>
<path d="M150.156 157.277C150.702 156.705 151.124 156.027 151.398 155.285C151.479 155.064 151.496 154.825 151.445 154.595C151.394 154.365 151.279 154.155 151.113 153.988C150.947 153.822 150.736 153.707 150.506 153.656C150.277 153.606 150.037 153.622 149.817 153.703C149.073 153.974 148.395 154.398 147.824 154.946C147.275 155.514 146.855 156.194 146.591 156.938C146.51 157.158 146.493 157.396 146.543 157.625C146.593 157.853 146.707 158.063 146.873 158.229C147.038 158.394 147.248 158.509 147.477 158.558C147.705 158.608 147.943 158.592 148.163 158.51C148.908 158.247 149.587 157.826 150.156 157.277V157.277Z" fill="white"/>
</g>
<path d="M39.6053 106.33C40.5808 106.33 41.4523 106.44 42.2197 106.661C43.0001 106.869 43.6569 107.182 44.1902 107.598C44.7235 108.001 45.1332 108.502 45.4193 109.1C45.7055 109.685 45.8485 110.355 45.8485 111.11C45.8485 111.864 45.7055 112.54 45.4193 113.139C45.1332 113.724 44.7235 114.225 44.1902 114.641C43.6569 115.044 43.0001 115.356 42.2197 115.577C41.4523 115.786 40.5808 115.89 39.6053 115.89H35.4107V119.987H32.5817V106.33H39.6053ZM35.4107 107.793V114.426H39.6053C40.6329 114.426 41.4263 114.16 41.9856 113.626C42.5579 113.08 42.844 112.241 42.844 111.11C42.844 109.978 42.5579 109.146 41.9856 108.612C41.4263 108.066 40.6329 107.793 39.6053 107.793H35.4107Z" fill="#65AD41"/>
<path d="M55.019 106.33C55.9945 106.33 56.866 106.44 57.6334 106.661C58.4138 106.869 59.0706 107.182 59.6039 107.598C60.1371 108.001 60.5469 108.502 60.833 109.1C61.1192 109.685 61.2622 110.355 61.2622 111.11C61.2622 112.15 61.0021 113.028 60.4818 113.743C59.9616 114.459 59.2137 115.005 58.2382 115.382L61.4573 119.987H58.2382L55.3702 115.89H55.019H50.8244V119.987H47.9954V106.33H55.019ZM50.8244 107.793V114.426H55.019C56.0465 114.426 56.84 114.16 57.3992 113.626C57.9585 113.08 58.2382 112.241 58.2382 111.11C58.2382 109.978 57.9585 109.146 57.3992 108.612C56.84 108.066 56.0465 107.793 55.019 107.793H50.8244Z" fill="#65AD41"/>
<path d="M71.0134 107.305C70.3501 107.305 69.7258 107.422 69.1405 107.656C68.5682 107.89 68.0674 108.248 67.6382 108.729C67.209 109.211 66.8643 109.822 66.6042 110.563C66.357 111.292 66.2335 112.157 66.2335 113.158C66.2335 114.16 66.357 115.031 66.6042 115.773C66.8643 116.501 67.209 117.106 67.6382 117.587C68.0674 118.068 68.5682 118.426 69.1405 118.66C69.7258 118.894 70.3501 119.011 71.0134 119.011C71.6768 119.011 72.2946 118.894 72.8669 118.66C73.4522 118.426 73.9594 118.068 74.3887 117.587C74.8179 117.106 75.156 116.501 75.4032 115.773C75.6633 115.031 75.7934 114.16 75.7934 113.158C75.7934 112.157 75.6633 111.292 75.4032 110.563C75.156 109.822 74.8179 109.211 74.3887 108.729C73.9594 108.248 73.4522 107.89 72.8669 107.656C72.2946 107.422 71.6768 107.305 71.0134 107.305ZM71.0134 105.939C72.184 105.939 73.2441 106.096 74.1936 106.408C75.1561 106.72 75.9755 107.182 76.6518 107.793C77.3412 108.404 77.8744 109.159 78.2516 110.056C78.6288 110.954 78.8174 111.988 78.8174 113.158C78.8174 114.329 78.6288 115.363 78.2516 116.26C77.8744 117.158 77.3412 117.912 76.6518 118.523C75.9755 119.135 75.1561 119.596 74.1936 119.909C73.2441 120.221 72.184 120.377 71.0134 120.377C69.8428 120.377 68.7763 120.221 67.8138 119.909C66.8513 119.596 66.0254 119.135 65.336 118.523C64.6597 117.912 64.1329 117.158 63.7557 116.26C63.3915 115.363 63.2094 114.329 63.2094 113.158C63.2094 111.988 63.3915 110.954 63.7557 110.056C64.1329 109.159 64.6597 108.404 65.336 107.793C66.0254 107.182 66.8513 106.72 67.8138 106.408C68.7763 106.096 69.8428 105.939 71.0134 105.939Z" fill="#65AD41"/>
<path d="M95.5016 106.33V119.987H92.6726V107.793H84.6735V119.987H81.8445V106.33H95.5016Z" fill="#65AD41"/>
<path d="M109.448 119.987V108.866H109.253L101.937 119.987H98.2299V106.33H101.059V117.45H101.254L108.57 106.33H112.277V119.987H109.448Z" fill="#65AD41"/>
<path d="M127.209 107.793H121.941V119.987H119.112V107.793H113.845V106.33H127.209V107.793Z" fill="#65AD41"/>
<path d="M130.819 115.207H136.867L133.94 107.988H133.745L130.819 115.207ZM136.086 106.33L141.647 119.987H138.837L137.549 116.67H130.136L128.848 119.987H126.039L131.599 106.33H136.086Z" fill="#65AD41"/>
<path d="M156.87 106.33V119.987H154.042V114.036H146.042V119.987H143.213V106.33H146.042V112.573H154.042V106.33H156.87Z" fill="#65AD41"/>
<path d="M170.817 119.987V108.866H170.622L163.306 119.987H159.599V106.33H162.428V117.45H162.623L169.939 106.33H173.646V119.987H170.817Z" fill="#65AD41"/>
<path d="M179.213 107.793V112.28H186.334V113.743H179.213V118.523H188.285V119.987H176.384V106.33H188.285V107.793H179.213Z" fill="#65AD41"/>
<circle cx="22.3146" cy="114.012" r="3.53619" fill="#65AD41"/>
<ellipse cx="197.051" cy="114.012" rx="3.41425" ry="3.53619" fill="#65AD41"/>
</svg>
